<svg width="180" height="180" viewBox="0 0 180 180" fill="none" xmlns="http://www.w3.org/2000/svg">
<path d="M143.438 120.938C141.75 120.938 140.625 122.062 140.625 123.75V171.562C140.625 173.25 141.75 174.375 143.438 174.375C145.125 174.375 146.25 173.25 146.25 171.562V123.75C146.25 122.062 145.125 120.938 143.438 120.938Z" fill="#4985FF"/>
<path d="M28.125 109.688C28.125 108 27 106.875 25.3125 106.875H12.375L27.8437 65.8126C27.8437 65.5314 28.125 65.2501 28.125 64.6876C28.125 56.2501 30.0937 48.3751 33.75 40.7814C34.3125 39.3751 34.0312 37.6876 32.625 37.1251C31.2187 36.5626 29.5312 36.8439 28.9687 38.2501C24.75 46.4064 22.7812 55.1251 22.5 64.1251L5.90622 108.563C5.34372 109.688 5.62497 110.531 6.18747 111.375C6.74997 111.938 7.59372 112.5 8.43747 112.5H22.5C23.0625 119.813 25.875 126.563 30.375 132.469C30.9375 133.031 31.7812 133.594 32.625 133.594C33.1875 133.594 33.75 133.313 34.3125 133.031C35.4375 132.188 35.7187 130.219 34.875 129.094C30.375 123.469 28.125 116.719 28.125 109.688Z" fill="#4985FF"/>
<path d="M171.562 64.6875C169.875 64.6875 168.75 65.8125 168.75 67.5V75.9375H158.625C157.5 75.9375 156.375 76.7813 155.813 77.9063C155.25 79.5938 154.688 81.2812 153.844 82.9688C153.281 84.0938 153.563 85.5 154.406 86.3438L161.719 93.6562L149.906 105.469L142.594 98.1563C141.75 97.3125 140.344 97.0313 139.219 97.5938C137.531 98.4375 135.844 99 134.156 99.5625C133.031 99.8438 132.188 100.969 132.188 102.375V115.312C132.188 117 133.312 118.125 135 118.125C136.688 118.125 137.812 117 137.812 115.312V104.344C138.375 104.062 139.219 103.781 139.781 103.5L147.656 111.375C148.781 112.5 150.469 112.5 151.594 111.375L154.688 108.281L160.312 113.906V121.5C155.531 122.625 151.875 127.125 151.875 132.469C151.875 138.656 156.938 143.719 163.125 143.719C169.312 143.719 174.375 138.656 174.375 132.469C174.375 127.125 170.719 122.906 165.938 121.5V112.5C165.938 111.656 165.656 111.094 165.094 110.531L158.625 104.062L167.344 95.3438C168.469 94.2188 168.469 92.5312 167.344 91.4062L159.469 83.5313C159.75 82.9688 160.031 82.125 160.312 81.5625H171.562C173.25 81.5625 174.375 80.4375 174.375 78.75V67.5C174.375 65.8125 173.25 64.6875 171.562 64.6875ZM168.75 132.188C168.75 135.281 166.219 137.812 163.125 137.812C160.031 137.812 157.5 135.281 157.5 132.188C157.5 129.094 160.031 126.562 163.125 126.562C166.219 126.562 168.75 129.094 168.75 132.188Z" fill="#4985FF"/>
<path d="M149.062 70.3125C150.75 70.3125 151.875 69.1875 151.875 67.5C151.875 65.8125 150.75 64.6875 149.062 64.6875H143.438V59.0625H146.25C147.938 59.0625 149.062 57.9375 149.062 56.25C149.062 54.5625 147.938 53.4375 146.25 53.4375H143.438V50.625C143.438 48.9375 142.312 47.8125 140.625 47.8125H137.812V45C137.812 43.3125 136.688 42.1875 135 42.1875C133.312 42.1875 132.188 43.3125 132.188 45V50.625C132.188 52.3125 133.312 53.4375 135 53.4375H137.812V81.5625H109.688V53.4375H123.75C125.438 53.4375 126.562 52.3125 126.562 50.625V42.1875C126.562 40.5 125.438 39.375 123.75 39.375C122.062 39.375 120.938 40.5 120.938 42.1875V47.8125H115.312V45C115.312 43.3125 114.188 42.1875 112.5 42.1875C110.812 42.1875 109.688 43.3125 109.688 45V47.8125H106.875C105.188 47.8125 104.062 48.9375 104.062 50.625V53.4375H101.25C99.5625 53.4375 98.4375 54.5625 98.4375 56.25C98.4375 57.9375 99.5625 59.0625 101.25 59.0625H104.062V64.6875H98.4375C96.75 64.6875 95.625 65.8125 95.625 67.5C95.625 69.1875 96.75 70.3125 98.4375 70.3125H104.062V75.9375H101.25C99.5625 75.9375 98.4375 77.0625 98.4375 78.75C98.4375 80.4375 99.5625 81.5625 101.25 81.5625H104.062V84.375C104.062 86.0625 105.188 87.1875 106.875 87.1875H109.688V90C109.688 91.6875 110.812 92.8125 112.5 92.8125C114.188 92.8125 115.312 91.6875 115.312 90V87.1875H120.938V95.625C120.938 97.3125 122.062 98.4375 123.75 98.4375C125.438 98.4375 126.562 97.3125 126.562 95.625V87.1875H132.188V90C132.188 91.6875 133.312 92.8125 135 92.8125C136.688 92.8125 137.812 91.6875 137.812 90V87.1875H140.625C142.312 87.1875 143.438 86.0625 143.438 84.375V81.5625H146.25C147.938 81.5625 149.062 80.4375 149.062 78.75C149.062 77.0625 147.938 75.9375 146.25 75.9375H143.438V70.3125H149.062Z" fill="#4985FF"/>
<path d="M115.312 61.875V73.125C115.312 74.8125 116.437 75.9375 118.125 75.9375H129.375C131.062 75.9375 132.188 74.8125 132.188 73.125V61.875C132.188 60.1875 131.062 59.0625 129.375 59.0625H118.125C116.437 59.0625 115.312 60.1875 115.312 61.875ZM120.938 64.6875H126.562V70.3125H120.938V64.6875Z" fill="#4985FF"/>
<path d="M45 36.5625C50.3438 36.5625 54.5625 32.9062 55.9687 28.125H77.625L84.6562 35.1562L80.1562 39.6562C79.0312 40.7812 79.0312 42.4688 80.1562 43.5938L88.0312 51.4687C87.75 52.0312 87.4688 52.875 87.1875 53.4375H75.9375C74.25 53.4375 73.125 54.5625 73.125 56.25V64.6875H58.7812C57.6562 59.9062 53.1562 56.25 47.8125 56.25C41.625 56.25 36.5625 61.3125 36.5625 67.5C36.5625 73.6875 41.625 78.75 47.8125 78.75C53.1562 78.75 57.375 75.0938 58.7812 70.3125H75.9375C77.625 70.3125 78.75 69.1875 78.75 67.5V59.0625H88.875C90 59.0625 91.125 58.2187 91.6875 57.0937C92.25 55.4062 92.8125 53.7188 93.6562 52.0312C94.2187 50.9062 93.9375 49.5 93.0937 48.6562L85.7812 41.3438L97.5938 29.5312L104.906 36.8438C105.75 37.6875 107.156 37.9688 108.281 37.4062C109.969 36.5625 111.656 36 113.344 35.4375C114.469 35.1563 115.312 34.0313 115.312 32.625V22.5H132.188V32.625C132.188 33.75 133.031 34.875 134.156 35.4375C135.844 36 137.531 36.5625 139.219 37.4062C140.344 37.9688 141.75 37.6875 142.594 36.8438L149.906 29.5312L161.719 41.3438L154.406 48.6562C153.563 49.5 153.281 50.9062 153.844 52.0312C154.688 53.7188 155.25 55.4062 155.813 57.0937C156.094 58.2187 157.219 59.0625 158.625 59.0625H171.562C173.25 59.0625 174.375 57.9375 174.375 56.25C174.375 54.5625 173.25 53.4375 171.562 53.4375H160.594C160.312 52.875 160.031 52.0312 159.75 51.4687L167.625 43.5938C168.75 42.4688 168.75 40.7812 167.625 39.6562L151.594 23.625C150.469 22.5 148.781 22.5 147.656 23.625L139.781 31.5C139.219 31.2188 138.375 30.9375 137.812 30.6562V19.6875C137.812 18 136.688 16.875 135 16.875H116.156C106.031 9.5625 93.9375 5.625 81.5625 5.625C70.0312 5.625 59.0625 9 49.5 15.1875C48.0938 14.3438 46.6875 14.0625 45 14.0625C38.8125 14.0625 33.75 19.125 33.75 25.3125C33.75 31.5 38.8125 36.5625 45 36.5625ZM47.8125 73.125C44.7188 73.125 42.1875 70.5938 42.1875 67.5C42.1875 64.4062 44.7188 61.875 47.8125 61.875C50.9062 61.875 53.4375 64.4062 53.4375 67.5C53.4375 70.5938 50.9062 73.125 47.8125 73.125ZM109.688 19.4062V19.6875V30.6562C109.125 30.9375 108.281 31.2188 107.719 31.5L99.8438 23.625C98.7188 22.5 97.0312 22.5 95.9062 23.625L88.5938 30.9375L80.7188 23.0625C80.1563 22.7812 79.5938 22.5 78.75 22.5H55.9687C55.6875 21.0938 55.125 19.9687 54.2812 18.8437C62.4375 13.7812 71.7188 11.25 81.5625 11.25C91.6875 11.25 101.25 14.0625 109.688 19.4062ZM45 19.6875C48.0938 19.6875 50.625 22.2188 50.625 25.3125C50.625 28.4062 48.0938 30.9375 45 30.9375C41.9062 30.9375 39.375 28.4062 39.375 25.3125C39.375 22.2188 41.9062 19.6875 45 19.6875Z" fill="#4985FF"/>
<path d="M126.562 140.906V115.312C126.562 113.625 125.438 112.5 123.75 112.5H115.312V102.375C115.312 101.25 114.469 100.125 113.344 99.5625C111.656 99 109.969 98.4375 108.281 97.5938C107.156 97.0313 105.75 97.3125 104.906 98.1563L97.5938 105.469L85.7812 93.6562L93.0937 86.3438C93.9375 85.5 94.2187 84.0938 93.6562 82.9688C92.8125 81.2812 92.25 79.5938 91.6875 77.9063C91.4062 76.7813 90.2812 75.9375 88.875 75.9375H75.9375C74.25 75.9375 73.125 77.0625 73.125 78.75C73.125 80.4375 74.25 81.5625 75.9375 81.5625H86.9062C87.1875 82.125 87.4688 82.9688 87.75 83.5313L79.875 91.4062C78.75 92.5312 78.75 94.2188 79.875 95.3438L82.9688 98.4375L73.4062 108L66.9375 97.0312C66.6562 96.1875 65.8125 95.625 64.6875 95.625H58.7812C57.6562 90.8438 53.1562 87.1875 47.8125 87.1875C41.625 87.1875 36.5625 92.25 36.5625 98.4375C36.5625 104.625 41.625 109.688 47.8125 109.688C53.1562 109.688 57.375 106.031 58.7812 101.25H63.2812L70.875 113.906C71.4375 114.75 72 115.031 72.8438 115.312H73.125C73.9688 115.312 74.5313 115.031 75.0938 114.469L87.1875 102.375L89.4375 104.625L73.9687 140.625H59.0625H58.7812C57.6562 135.844 53.1562 132.188 47.8125 132.188C41.625 132.188 36.5625 137.25 36.5625 143.438C36.5625 149.625 41.625 154.688 47.8125 154.688C53.1562 154.688 57.375 151.031 58.7812 146.25H67.5V171.562C67.5 173.25 68.625 174.375 70.3125 174.375C72 174.375 73.125 173.25 73.125 171.562V146.25H75.9375C77.0625 146.25 78.1875 145.688 78.4688 144.563L93.6562 109.125L95.9062 111.375C97.0312 112.5 98.7188 112.5 99.8438 111.375L107.719 103.5C108.281 103.781 109.125 104.062 109.688 104.344V127.969L88.5938 141.188C87.75 141.469 87.1875 142.594 87.1875 143.438V152.156C82.4062 153.281 78.75 157.781 78.75 163.125C78.75 169.312 83.8125 174.375 90 174.375C96.1875 174.375 101.25 169.312 101.25 163.125C101.25 157.781 97.5938 153.562 92.8125 152.156V144.844L113.906 131.625C114.75 131.062 115.312 130.219 115.312 129.375V118.125H120.938V140.906C116.156 142.031 112.5 146.531 112.5 151.875C112.5 158.062 117.562 163.125 123.75 163.125C129.938 163.125 135 158.062 135 151.875C135 146.531 131.344 142.312 126.562 140.906ZM47.8125 104.062C44.7188 104.062 42.1875 101.531 42.1875 98.4375C42.1875 95.3438 44.7188 92.8125 47.8125 92.8125C50.9062 92.8125 53.4375 95.3438 53.4375 98.4375C53.4375 101.531 50.9062 104.062 47.8125 104.062ZM47.8125 149.062C44.7188 149.062 42.1875 146.531 42.1875 143.438C42.1875 140.344 44.7188 137.812 47.8125 137.812C50.9062 137.812 53.4375 140.344 53.4375 143.438C53.4375 143.438 53.4375 143.437 53.4375 143.719C53.4375 146.531 50.9062 149.062 47.8125 149.062ZM95.625 163.125C95.625 166.219 93.0938 168.75 90 168.75C86.9062 168.75 84.375 166.219 84.375 163.125C84.375 160.031 86.9062 157.5 90 157.5C93.0938 157.5 95.625 160.031 95.625 163.125ZM123.75 157.5C120.656 157.5 118.125 154.969 118.125 151.875C118.125 148.781 120.656 146.25 123.75 146.25C126.844 146.25 129.375 148.781 129.375 151.875C129.375 154.969 126.844 157.5 123.75 157.5Z" fill="#4985FF"/>
</svg>
