<svg width="180" height="180" viewBox="0 0 180 180" fill="none" xmlns="http://www.w3.org/2000/svg">
<path d="M134.501 109.758H32.0448C25.9054 109.758 20.9111 104.764 20.9111 98.6241V48.8212C20.9111 42.6818 25.9054 37.6875 32.0448 37.6875H86.8007C88.2625 37.6875 89.4477 38.8727 89.4477 40.3346C89.4477 41.7964 88.2625 42.9816 86.8007 42.9816H32.0448C28.8252 42.9816 26.2053 45.6015 26.2053 48.8212V98.6241C26.2053 101.844 28.8252 104.464 32.0448 104.464H134.501C137.72 104.464 140.34 101.844 140.34 98.6241V74.2022C140.34 72.7403 141.526 71.5551 142.987 71.5551C144.449 71.5551 145.634 72.7403 145.634 74.2022V98.6241C145.634 104.764 140.64 109.758 134.501 109.758Z" fill="#4985FF"/>
<path d="M94.4704 65.8591H23.5582C22.0964 65.8591 20.9111 64.6738 20.9111 63.212C20.9111 61.7502 22.0964 60.5649 23.5582 60.5649H94.4704C95.9323 60.5649 97.1175 61.7502 97.1175 63.212C97.1175 64.6738 95.9323 65.8591 94.4704 65.8591Z" fill="#4985FF"/>
<path d="M40.699 54.8083H39.5797C38.1178 54.8083 36.9326 53.623 36.9326 52.1612C36.9326 50.6994 38.1178 49.5142 39.5797 49.5142H40.699C42.1608 49.5142 43.346 50.6994 43.346 52.1612C43.346 53.623 42.1608 54.8083 40.699 54.8083Z" fill="#4985FF"/>
<path d="M51.7634 54.8083H50.6441C49.1823 54.8083 47.9971 53.623 47.9971 52.1612C47.9971 50.6994 49.1823 49.5142 50.6441 49.5142H51.7634C53.2253 49.5142 54.4105 50.6994 54.4105 52.1612C54.4105 53.623 53.2253 54.8083 51.7634 54.8083Z" fill="#4985FF"/>
<path d="M62.8279 54.8083H61.7086C60.2468 54.8083 59.0615 53.623 59.0615 52.1612C59.0615 50.6994 60.2468 49.5142 61.7086 49.5142H62.8279C64.2897 49.5142 65.475 50.6994 65.475 52.1612C65.475 53.623 64.2897 54.8083 62.8279 54.8083Z" fill="#4985FF"/>
<path d="M122.55 82.3941C120.494 82.3941 118.427 82.2312 116.408 81.9119C115.289 81.7336 114.407 80.8637 114.215 79.747L113.352 74.7476C111.481 74.1659 109.674 73.4008 107.95 72.4598L103.756 75.4921C102.838 76.1525 101.602 76.1603 100.679 75.5102C97.324 73.1449 94.3875 70.2807 91.9498 66.9977C91.2725 66.0865 91.2518 64.8457 91.8981 63.9125L95.0738 59.3279C94.1471 57.5378 93.3909 55.6676 92.8119 53.7391L87.1856 52.7323C86.0766 52.5332 85.2145 51.6543 85.0375 50.5415C84.7143 48.4993 84.5566 46.5347 84.5566 44.5352C84.5566 42.3638 84.7376 40.2763 85.0943 38.3311C85.2934 37.2402 86.1516 36.3898 87.2438 36.1998L92.7964 35.2343C93.3535 33.342 94.1147 31.4653 95.0725 29.6261L91.9227 25.0945C91.2738 24.1601 91.2945 22.9154 91.9731 22.0029C94.3991 18.7457 97.3331 15.8841 100.694 13.4969C101.616 12.8428 102.852 12.8454 103.77 13.5046L107.952 16.5071C109.683 15.5713 111.49 14.8113 113.354 14.2323L114.215 9.23287C114.403 8.1394 115.254 7.27859 116.346 7.07954C120.103 6.39193 124.478 6.3622 128.567 7.02526C129.682 7.20621 130.56 8.07607 130.751 9.19151L131.613 14.2297C133.468 14.8062 135.272 15.5662 137.008 16.5032L141.21 13.4658C142.126 12.8054 143.362 12.7976 144.286 13.4477C147.693 15.8492 150.627 18.7186 153.005 21.9783C153.668 22.8856 153.685 24.1148 153.047 25.0403L149.889 29.6209C150.848 31.4614 151.611 33.3395 152.167 35.233L157.763 36.1998C158.88 36.3924 159.748 37.2751 159.927 38.3932C160.246 40.4121 160.409 42.4788 160.409 44.5352C160.409 46.5295 160.251 48.4941 159.927 50.5415C159.75 51.6543 158.888 52.5332 157.779 52.7323L152.152 53.7391C151.573 55.6676 150.816 57.5378 149.89 59.3292L153.091 63.9603C153.736 64.8922 153.714 66.133 153.038 67.0429C150.59 70.3375 147.657 73.1888 144.32 75.5179C143.398 76.1577 142.174 76.1499 141.262 75.4972L137.022 72.4572C135.29 73.4034 133.479 74.1698 131.61 74.7502L130.75 79.747C130.558 80.8598 129.681 81.7284 128.567 81.9094C126.59 82.2312 124.566 82.3941 122.55 82.3941ZM119.1 76.9255C121.341 77.1516 123.621 77.1594 125.863 76.9306L126.678 72.2C126.857 71.1634 127.632 70.3311 128.654 70.079C131.154 69.4651 133.547 68.4492 135.766 67.061C136.674 66.4923 137.839 66.5272 138.713 67.1541L142.78 70.0713C144.55 68.678 146.171 67.1024 147.625 65.3627L144.61 61.0069C144.019 60.159 143.975 59.0449 144.495 58.1543C145.841 55.8563 146.839 53.385 147.464 50.8064C147.711 49.7866 148.537 49.0085 149.57 48.8237L154.942 47.8621C155.058 46.7441 155.115 45.6441 155.115 44.5352C155.115 43.3835 155.057 42.2293 154.939 41.0842L149.585 40.1587C148.532 39.9765 147.692 39.179 147.455 38.136C146.896 35.6686 145.9 33.2024 144.497 30.8048C143.977 29.9182 144.019 28.8105 144.601 27.9652L147.588 23.6314C146.162 21.9046 144.538 20.32 142.736 18.8957L138.721 21.7986C137.853 22.4268 136.691 22.4682 135.78 21.9059C133.536 20.5229 131.139 19.5109 128.654 18.9008C127.632 18.6488 126.855 17.8151 126.677 16.7759L125.861 12.0053C123.589 11.7714 121.241 11.7804 119.105 12.0221L118.286 16.7798C118.108 17.8151 117.333 18.6462 116.314 18.8995C113.814 19.5187 111.415 20.5307 109.185 21.9059C108.275 22.4656 107.119 22.4242 106.253 21.8038L102.261 18.9396C100.471 20.3627 98.8415 21.9499 97.39 23.6831L100.359 27.9562C100.947 28.804 100.99 29.9156 100.469 30.8061C99.0638 33.2012 98.0685 35.6686 97.5089 38.136C97.2736 39.1777 96.4335 39.9752 95.3814 40.1587L90.0369 41.088C89.9128 42.1931 89.8508 43.3461 89.8508 44.5352C89.8508 45.6467 89.9076 46.7467 90.0227 47.8621L95.3943 48.8237C96.427 49.0085 97.253 49.7866 97.4998 50.8064C98.1254 53.3863 99.1245 55.8576 100.469 58.153C100.992 59.0462 100.947 60.1629 100.352 61.0108L97.3641 65.32C98.8182 67.061 100.447 68.6482 102.23 70.0622L106.245 67.1593C107.117 66.5259 108.287 66.4897 109.201 67.061C111.405 68.4414 113.798 69.4573 116.314 70.0803C117.333 70.3337 118.108 71.1647 118.286 72.2L119.1 76.9255Z" fill="#4985FF"/>
<path d="M122.483 60.829C113.46 60.829 106.12 53.4889 106.12 44.4672C106.12 35.4442 113.46 28.104 122.483 28.104C131.505 28.104 138.845 35.4442 138.845 44.4672C138.845 53.4889 131.505 60.829 122.483 60.829ZM122.483 33.3981C116.38 33.3981 111.414 38.3639 111.414 44.4672C111.414 50.5704 116.38 55.5349 122.483 55.5349C128.587 55.5349 133.551 50.5704 133.551 44.4672C133.551 38.3639 128.587 33.3981 122.483 33.3981Z" fill="#4985FF"/>
<path d="M162.865 150.035H15.9308C9.74101 150.035 4.7041 144.999 4.7041 138.809V32.8815C4.7041 26.6917 9.74101 21.6548 15.9308 21.6548H93.1932C94.655 21.6548 95.8402 22.84 95.8402 24.3018C95.8402 25.7637 94.655 26.9489 93.1932 26.9489H15.9308C12.6595 26.9489 9.99822 29.6102 9.99822 32.8815V138.809C9.99822 142.079 12.6595 144.74 15.9308 144.74H162.865C166.136 144.74 168.797 142.079 168.797 138.809V32.8815C168.797 29.6102 166.136 26.9489 162.865 26.9489H150.341C148.88 26.9489 147.694 25.7637 147.694 24.3018C147.694 22.84 148.88 21.6548 150.341 21.6548H162.865C169.054 21.6548 174.091 26.6917 174.091 32.8815V138.809C174.091 144.999 169.054 150.035 162.865 150.035Z" fill="#4985FF"/>
<path d="M171.469 124.531H7.36386C5.90203 124.531 4.7168 123.346 4.7168 121.884C4.7168 120.423 5.90203 119.237 7.36386 119.237H171.469C172.93 119.237 174.116 120.423 174.116 121.884C174.116 123.346 172.93 124.531 171.469 124.531Z" fill="#4985FF"/>
<path d="M119.07 173.607H59.727C58.7796 173.607 57.9058 173.102 57.4328 172.281C56.961 171.46 56.9623 170.449 57.4379 169.63L71.1385 146.044C71.6129 145.229 72.484 144.727 73.4276 144.727H105.368C106.312 144.727 107.183 145.229 107.657 146.044L121.359 169.63C121.835 170.449 121.836 171.46 121.364 172.281C120.892 173.102 120.017 173.607 119.07 173.607ZM64.3257 168.313H114.471L103.844 150.021H74.9514L64.3257 168.313Z" fill="#4985FF"/>
<path d="M128.435 173.608H50.357C48.8952 173.608 47.71 172.423 47.71 170.961C47.71 169.499 48.8952 168.314 50.357 168.314H128.435C129.897 168.314 131.082 169.499 131.082 170.961C131.082 172.423 129.897 173.608 128.435 173.608Z" fill="#4985FF"/>
<path d="M79.9882 137.602C78.5264 137.602 77.1641 136.241 77.1641 134.779C77.1641 133.317 78.5264 131.956 79.9882 131.956C81.45 131.956 82.811 133.317 82.811 134.779C82.811 136.241 81.45 137.602 79.9882 137.602Z" fill="#4985FF"/>
<path d="M89.399 137.602C87.9372 137.602 86.5762 136.241 86.5762 134.779C86.5762 133.317 87.9372 131.956 89.399 131.956C90.8608 131.956 92.2231 133.317 92.2231 134.779C92.2231 136.241 90.8608 137.602 89.399 137.602Z" fill="#4985FF"/>
<path d="M98.8082 137.602C100.367 137.602 101.631 136.338 101.631 134.779C101.631 133.22 100.367 131.956 98.8082 131.956C97.2492 131.956 95.9854 133.22 95.9854 134.779C95.9854 136.338 97.2492 137.602 98.8082 137.602Z" fill="#4985FF"/>
<path d="M85.2791 77.3229H37.0103C35.5485 77.3229 34.3633 76.1377 34.3633 74.6759C34.3633 73.214 35.5485 72.0288 37.0103 72.0288H85.2791C86.7409 72.0288 87.9262 73.214 87.9262 74.6759C87.9262 76.1377 86.7409 77.3229 85.2791 77.3229Z" fill="#4985FF"/>
<path d="M85.2791 87.3234H37.0103C35.5485 87.3234 34.3633 86.1382 34.3633 84.6764C34.3633 83.2145 35.5485 82.0293 37.0103 82.0293H85.2791C86.7409 82.0293 87.9262 83.2145 87.9262 84.6764C87.9262 86.1382 86.7409 87.3234 85.2791 87.3234Z" fill="#4985FF"/>
<path d="M85.2791 97.3234H37.0103C35.5485 97.3234 34.3633 96.1382 34.3633 94.6764C34.3633 93.2145 35.5485 92.0293 37.0103 92.0293H85.2791C86.7409 92.0293 87.9262 93.2145 87.9262 94.6764C87.9262 96.1382 86.7409 97.3234 85.2791 97.3234Z" fill="#4985FF"/>
</svg>
