<svg width="500" height="500" viewBox="0 0 500 500" fill="none" xmlns="http://www.w3.org/2000/svg">
<g clip-path="url(#clip0_4_541)">
<path d="M500 0H0V500H500V0Z" fill="#F6F6F8"/>
<path d="M500 0H0V500H500V0Z" fill="#F6F6F8"/>
<path d="M455.548 448.938C455.548 452.54 363.52 455.46 250 455.46C136.479 455.46 44.4512 452.54 44.4512 448.938C44.4512 445.338 136.479 442.418 250 442.418C363.52 442.418 455.548 445.338 455.548 448.938Z" fill="#E5E6EB"/>
<path d="M71.6816 169.43V368.768C71.6816 376.435 77.8975 382.65 85.5645 382.65H414.434C422.102 382.65 428.316 376.435 428.316 368.768V169.43C428.316 161.763 422.102 155.548 414.434 155.548H85.5645C77.8975 155.548 71.6816 161.763 71.6816 169.43Z" fill="#84A9FF"/>
<path d="M405.44 178.425V348.26H94.5605V178.425H405.44Z" fill="#F6F6F8"/>
<path d="M405.44 348.26H94.5605V178.425H405.44V348.26ZM84.1602 168.025V358.66H415.838V168.025H84.1602Z" fill="#050F64"/>
<path d="M257.835 371.32C257.835 375.647 254.327 379.155 250 379.155C245.673 379.155 242.164 375.647 242.164 371.32C242.164 366.992 245.673 363.485 250 363.485C254.327 363.485 257.835 366.992 257.835 371.32Z" fill="#050F64"/>
<path d="M289.606 422.742H210.391V382.65H289.606V422.742Z" fill="#050F64"/>
<path d="M374.3 448.343H125.701L137.455 421.775H362.545L374.3 448.343Z" fill="#84A9FF"/>
<path d="M146.233 278.46V296.987L124.662 292.522C125.329 293.832 126.039 295.107 126.798 296.35L149.55 301.06V284.515C148.257 282.643 147.146 280.62 146.233 278.46ZM275.102 223.348C273.682 224.487 272.279 225.662 270.894 226.86L293.274 225.838L284.479 245.42C286.347 243.808 288.249 242.247 290.201 240.775L298.509 222.28L275.102 223.348ZM289.606 285.402C287.816 283.957 286.062 282.44 284.339 280.888L263.627 276.47L269.489 298.697C270.949 300.003 272.432 301.285 273.934 302.535L268.212 280.84L289.606 285.402ZM212.425 283.855L212.422 283.857C210.296 285.58 208.119 287.21 205.891 288.723L227.883 283.785L221.729 305.812C223.226 304.685 224.695 303.518 226.147 302.322L232.569 279.332L212.425 283.855ZM156.091 222.81L169.824 204.595C168.195 204.825 166.594 205.117 165.018 205.465L150.419 224.822L168.839 229.385H168.842C171.522 228.622 174.346 228.165 177.281 228.06L156.091 222.81ZM364.792 280.982L356.654 260.827C356.706 261.652 356.731 262.492 356.731 263.343C356.731 265.188 356.584 267.018 356.299 268.805L363.462 286.55L381.536 270.758C381.734 269.185 381.874 267.598 381.944 265.995L364.792 280.982Z" fill="#FF0000"/>
<path d="M263.628 276.47L269.49 298.697C262.84 292.77 256.605 286.407 250.643 280.438L250.572 280.367L233.95 263.343C218.304 248.897 201.852 228.035 178.582 228.035C178.147 228.035 177.713 228.04 177.282 228.06L156.092 222.81L169.825 204.595C172.794 204.178 175.853 203.96 178.983 203.96C208.675 203.96 230.743 227.633 250.003 246.893L266.05 263.343C271.928 268.768 277.918 275.1 284.34 280.888L263.628 276.47Z" fill="#155BCD"/>
<path d="M250.008 279.79C242.348 287.445 234.577 295.388 226.148 302.322L232.57 279.332L212.426 283.855C220.258 277.527 227.399 270.065 233.95 263.343L250.008 279.79Z" fill="#84A9FF"/>
<path d="M293.276 225.838L284.481 245.42L284.476 245.423C277.849 251.138 271.729 257.518 266.051 263.343L250.004 246.893C256.756 240.138 263.596 233.17 270.896 226.86L293.276 225.838Z" fill="#84A9FF"/>
<path d="M227.884 283.785L221.73 305.812C208.721 315.645 194.017 322.728 175.772 322.728C154.288 322.728 136.714 312.615 126.799 296.35L149.551 301.06V284.515C155.588 293.268 165.539 298.652 177.378 298.652C187.751 298.652 197.221 294.605 205.892 288.723L227.884 283.785Z" fill="#84A9FF"/>
<path d="M143.271 263.343C143.271 268.848 144.316 273.945 146.234 278.46V296.987L124.663 292.522C120.364 284.06 117.992 274.175 117.992 263.343C117.992 235.997 137.103 211.64 165.019 205.465L150.42 224.822L168.84 229.385C153.787 233.688 143.271 247.683 143.271 263.343Z" fill="#84A9FF"/>
<path d="M382.007 263.343C382.007 264.23 381.986 265.112 381.944 265.995L364.792 280.982L356.654 260.827C355.524 241.675 341.469 228.035 322.624 228.035C310.667 228.035 299.917 233.407 290.201 240.775L298.509 222.28L275.102 223.348C288.889 212.247 304.486 203.96 324.229 203.96C358.337 203.96 382.007 228.838 382.007 263.343Z" fill="#155BCD"/>
<path d="M381.537 270.758C377.895 299.235 353.545 322.728 321.02 322.728C302.832 322.728 287.508 313.843 273.935 302.535L268.213 280.84L289.607 285.402C298.915 292.93 309.235 298.652 321.423 298.652C339.515 298.652 353.697 285.268 356.3 268.805L363.463 286.55L381.537 270.758Z" fill="#155BCD"/>
<path d="M232.569 279.332L226.147 302.322C224.695 303.518 223.226 304.685 221.729 305.812L227.883 283.785L205.891 288.723L212.422 283.857L212.425 283.855L232.569 279.332Z" fill="#F6F6F8"/>
<path d="M149.55 284.515V301.06L126.798 296.35C126.039 295.107 125.329 293.832 124.662 292.522L146.233 296.987V278.46C147.146 280.62 148.257 282.643 149.55 284.515Z" fill="#F6F6F8"/>
<path d="M268.214 280.84L273.936 302.535C272.434 301.285 270.951 300.003 269.491 298.697L263.629 276.47L284.341 280.888L289.608 285.402L268.214 280.84Z" fill="#F6F6F8"/>
<path d="M298.51 222.28L290.202 240.775C288.25 242.247 286.348 243.808 284.48 245.42L293.275 225.838L270.895 226.86C272.28 225.662 273.683 224.487 275.103 223.348L298.51 222.28Z" fill="#F6F6F8"/>
<path d="M381.946 265.995C381.876 267.598 381.736 269.185 381.538 270.758L363.464 286.55L356.301 268.805C356.586 267.018 356.733 265.188 356.733 263.343C356.733 262.492 356.708 261.652 356.656 260.827L364.794 280.982L381.946 265.995Z" fill="#F6F6F8"/>
<path d="M177.282 228.06L168.843 229.385H168.84L150.42 224.822L165.019 205.465C166.595 205.117 168.196 204.825 169.825 204.595L156.092 222.81L177.282 228.06Z" fill="#F6F6F8"/>
<path d="M111.975 193.353L99.6074 193.36C99.6162 192.938 99.6992 192.53 99.9541 192.2C100.247 191.82 100.723 191.622 101.193 191.54C101.666 191.46 102.15 191.48 102.629 191.457C103.803 191.397 104.961 191.062 105.984 190.482C106.518 190.183 107.018 189.813 107.595 189.603L110.966 189.69C111.428 190.188 111.724 190.838 111.867 191.508C111.998 192.112 112.013 192.735 111.975 193.353Z" fill="#050F64"/>
<path d="M147.923 148.813C147.267 145.553 144.091 143.441 140.829 144.098H140.822L115.745 147.773C115.653 147.78 115.563 147.798 115.473 147.813L115.309 147.835V147.838C113.505 148.197 112.053 149.628 111.701 151.486L111.7 151.49C111.674 151.633 111.655 151.776 111.641 151.92L111.638 151.955H111.637L107.113 189.577L111.414 189.938L119.819 156.795L141.287 155.981C141.909 156.055 142.554 156.037 143.202 155.907H143.207V155.905H143.208C146.469 155.25 148.58 152.072 147.923 148.813Z" fill="#050F64"/>
<path d="M125.938 193.54L113.57 193.652C113.576 193.228 113.655 192.82 113.908 192.49C114.197 192.107 114.672 191.905 115.142 191.82C115.613 191.732 116.098 191.75 116.576 191.723C117.749 191.655 118.905 191.308 119.923 190.72C120.454 190.415 120.951 190.043 121.526 189.827L124.897 189.885C125.363 190.378 125.665 191.025 125.814 191.692C125.95 192.298 125.971 192.92 125.938 193.54Z" fill="#050F64"/>
<path d="M125.358 190.442L121.068 189.98L126.486 152.474L126.49 152.442C126.507 152.298 126.529 152.155 126.56 152.014V152.008C126.933 150.263 128.277 148.925 129.949 148.508L130.001 148.5C130.12 148.47 130.241 148.447 130.363 148.43L155.276 143.66H155.283C158.512 142.86 161.777 144.83 162.576 148.059C163.06 150.014 162.515 152.122 161.147 153.599C159.589 155.285 157.329 155.599 155.158 155.755C154.162 155.827 153.166 155.902 152.17 155.977C150.714 156.085 149.257 156.192 147.801 156.303C146.188 156.423 144.573 156.54 142.96 156.66C141.49 156.769 140.021 156.88 138.553 156.99C137.531 157.065 136.51 157.139 135.488 157.218C135.43 157.22 134.626 157.235 134.613 157.282L125.358 190.442Z" fill="#050F64"/>
<path d="M122.471 177.732L122.826 177.798L126.483 152.478H126.484L126.488 152.442C126.507 152.295 126.528 152.152 126.559 152.015V152.008C126.932 150.263 128.276 148.925 129.949 148.51L129.999 148.497C130.12 148.473 130.241 148.447 130.363 148.43L155.275 143.662L155.281 143.66C157.447 143.125 159.63 143.835 161.071 145.335L161.791 145.612C160.614 144.077 158.767 143.12 156.732 143.12C156.217 143.12 155.701 143.183 155.194 143.308L130.295 148.075C130.174 148.093 130.043 148.117 129.916 148.15L129.549 148.22L129.554 148.247C127.874 148.782 126.577 150.197 126.207 151.933L126.202 151.952V151.96C126.194 151.99 126.189 152.018 126.184 152.05H126.182L126.177 152.09C126.16 152.185 126.146 152.282 126.133 152.385L122.471 177.732ZM125.899 188.495H126.274L132.005 167.968L131.651 167.89L125.899 188.495Z" fill="#155BCC"/>
<path d="M96.7844 101.735C97.2619 101.253 98.0715 101.25 98.6271 101.732C99.3088 102.332 100.017 102.925 100.701 103.495L101.202 103.915C101.48 104.145 101.762 104.367 102.043 104.593C102.199 104.718 102.357 104.843 102.512 104.968L103.166 105.49L103.833 105.997C103.992 106.117 104.151 106.237 104.309 106.36C104.588 106.572 104.877 106.795 105.168 107L106.519 107.97L107.893 108.893C108.184 109.088 108.486 109.272 108.778 109.452C108.947 109.558 109.115 109.66 109.281 109.765C111.298 110.99 113.175 111.93 115.019 112.64C117.035 113.415 119.041 113.918 120.983 114.133C124.602 114.537 128.492 114.08 133.224 112.695C135.072 112.155 137.089 111.468 139.387 110.593C141.224 109.885 143.183 109.082 145.553 108.072C146.789 107.563 148.179 107.563 149.363 108.072C150.425 108.53 151.227 109.353 151.621 110.388C152.015 111.423 151.955 112.565 151.454 113.61C150.885 114.79 149.804 115.713 148.485 116.135C145.91 116.91 143.776 117.52 141.766 118.05C139.142 118.73 136.93 119.22 134.805 119.593C132.143 120.058 129.756 120.305 127.506 120.348C127.281 120.35 127.058 120.353 126.834 120.353C124.454 120.353 122.165 120.107 120.021 119.625C117.677 119.095 115.323 118.223 113.026 117.032C111.027 115.997 109.045 114.718 106.968 113.12C106.808 112.992 106.646 112.865 106.485 112.74C106.186 112.508 105.877 112.265 105.584 112.018L104.24 110.883L102.942 109.715C102.657 109.465 102.381 109.2 102.113 108.942C101.967 108.803 101.82 108.662 101.671 108.522L101.04 107.923L100.427 107.31C100.284 107.168 100.141 107.022 99.9972 106.88C99.7316 106.617 99.466 106.353 99.2062 106.085L98.7629 105.622C98.1242 104.957 97.465 104.272 96.8361 103.58C96.3283 103.03 96.3049 102.22 96.7844 101.735Z" fill="#EA8096"/>
<path d="M136.847 121.825L147.707 118.18C150.992 117.077 152.932 113.718 151.829 110.432L151.659 110.235C150.557 106.95 147 105.182 143.715 106.285L132.854 109.928L136.847 121.825Z" fill="#FF685A"/>
<path d="M152.096 105.345C145.399 104.277 139.222 109.165 138.723 115.928L136.594 144.718C143.207 150.963 155.805 153.497 162.742 149.87L164.045 119.983C164.355 112.777 159.217 106.483 152.096 105.345Z" fill="#FF654F"/>
<path d="M164.046 119.98L163.059 142.643L163.419 142.652L164.405 119.997C164.452 118.918 164.38 117.857 164.197 116.83L163.858 116.985C164.024 117.955 164.09 118.96 164.046 119.98ZM136.223 144.862L136.348 144.98C140.112 148.535 145.899 151.027 151.719 151.71V151.343C146.175 150.673 140.397 148.308 136.595 144.718L137.506 132.37H137.146L136.223 144.862ZM137.676 125.223L138.032 125.253L138.723 115.928C139.177 109.79 144.305 105.197 150.252 105.197C150.859 105.197 151.476 105.245 152.096 105.345C152.739 105.447 153.366 105.593 153.974 105.775L154.104 105.44C153.473 105.247 152.821 105.098 152.153 104.99C151.524 104.89 150.885 104.838 150.252 104.838C144.045 104.838 138.822 109.697 138.364 115.9L137.676 125.223Z" fill="#DA5544"/>
<path d="M150.029 101.255L148.73 109.393C150.314 110.822 152.082 111.105 154.033 110.24L155.331 102.103L150.029 101.255Z" fill="#F4BCC7"/>
<path d="M150.03 101.255L149.443 104.935C149.792 105.14 150.176 105.295 150.587 105.397C150.719 105.43 150.852 105.457 150.984 105.478C152.444 105.71 153.922 105.253 154.983 104.285L155.332 102.103L150.03 101.255Z" fill="#EA8096"/>
<path d="M148.416 95.8947L147.835 100.7C147.602 102.617 148.84 104.41 150.716 104.872C152.423 105.293 154.224 104.635 155.229 103.193C155.894 102.24 156.538 101.112 157.173 99.9181C158.189 98.008 158.112 95.6681 156.882 93.8879C155.834 92.3722 154.318 91.7101 152.299 91.9679C150.259 92.2306 148.663 93.8527 148.416 95.8947Z" fill="#F4BCC7"/>
<path d="M111.115 143.27C112.024 143.268 112.945 143.237 113.837 143.21L114.489 143.19C114.851 143.18 115.213 143.16 115.574 143.14C115.772 143.13 115.97 143.12 116.168 143.11L117.005 143.067L117.84 143.003C118.037 142.985 118.234 142.973 118.431 142.957C118.784 142.933 119.148 142.905 119.504 142.865L121.156 142.692L122.797 142.47C123.144 142.425 123.495 142.362 123.835 142.303C124.028 142.268 124.222 142.235 124.415 142.202C126.735 141.78 128.762 141.235 130.613 140.543C132.634 139.782 134.469 138.825 136.064 137.697C139.04 135.598 141.645 132.673 144.263 128.495C145.287 126.865 146.338 125.01 147.475 122.83C148.377 121.085 149.309 119.185 150.413 116.853C150.998 115.65 152.037 114.728 153.261 114.322C154.36 113.96 155.506 114.043 156.488 114.555C157.468 115.065 158.183 115.96 158.501 117.072C158.861 118.335 158.663 119.742 157.958 120.933C156.542 123.232 155.35 125.106 154.206 126.827C152.695 129.077 151.367 130.912 150.025 132.603C148.344 134.718 146.722 136.487 145.068 138.013C143.142 139.79 141.097 141.28 138.991 142.442C136.887 143.606 134.549 144.515 132.04 145.15C129.858 145.702 127.527 146.063 124.912 146.245C124.709 146.258 124.505 146.27 124.3 146.282C123.923 146.308 123.53 146.332 123.145 146.343L121.387 146.385L119.641 146.375H119.615C119.245 146.375 118.871 146.36 118.509 146.348C118.306 146.34 118.103 146.33 117.899 146.325L117.029 146.298L116.164 146.245C115.962 146.232 115.759 146.223 115.557 146.21C115.183 146.19 114.809 146.168 114.436 146.14L113.8 146.088C112.882 146.015 111.931 145.94 111.003 145.84C110.258 145.768 109.702 145.178 109.738 144.497C109.775 143.817 110.379 143.277 111.115 143.27Z" fill="#F4BCC7"/>
<path d="M152.731 132.87L158.593 123.027C160.365 120.05 159.646 116.237 156.669 114.465L156.411 114.425C153.435 112.652 149.584 113.63 147.811 116.605L141.949 126.45L152.731 132.87Z" fill="#FF685A"/>
<path d="M158.593 123.027L153.944 130.832L154.289 130.957L158.902 123.21C159.818 121.673 160.124 119.9 159.764 118.218C159.445 116.728 158.629 115.445 157.434 114.545L157.257 114.862C159.735 116.763 160.243 120.258 158.593 123.027ZM141.455 126.575L148.325 130.665L148.5 130.35L141.949 126.45L143.176 124.39L142.857 124.22L141.455 126.575ZM145.955 119.018L146.274 119.188L147.812 116.605C149.263 114.17 152.106 113.072 154.723 113.73L154.876 113.395C154.334 113.253 153.771 113.183 153.207 113.183C150.877 113.183 148.691 114.423 147.502 116.423L145.955 119.018Z" fill="#DA5544"/>
<path d="M108.326 144.77L141.909 139.298L141.725 138.168L108.143 143.643L108.326 144.77Z" fill="#155BCC"/>
<path d="M108.142 143.643L129 140.242L119.774 124.22L98.916 127.62L108.142 143.643Z" fill="#155BCC"/>
<path d="M113.027 135.61C113.737 137.293 114.817 138.442 115.44 138.179C116.063 137.915 115.992 136.34 115.283 134.66C114.573 132.977 113.493 131.827 112.87 132.09C112.247 132.352 112.317 133.928 113.027 135.61Z" fill="#F6F6F8"/>
<path d="M147.098 96.5898C146.806 96.1796 146.9 95.5429 147.062 95.0253C147.224 94.5097 147.443 93.9697 147.349 93.4345C147.231 92.7548 146.629 92.2724 146.645 91.5722C146.66 90.8896 147.243 90.4472 147.752 90.1396C149.104 89.3251 150.456 88.5097 151.808 87.6923C152.362 87.3603 152.929 87.0195 153.537 86.9228C154.146 86.8251 154.815 87.0097 155.2 87.5751C155.403 87.872 155.515 88.2529 155.729 88.5371C156.215 89.1796 157.041 89.1474 157.767 89.1523C158.661 89.1552 159.599 89.3095 160.305 89.957C161.012 90.6074 161.389 91.8798 160.94 92.8349C160.727 93.29 160.368 93.6103 160.063 93.9746C159.756 94.3427 159.481 94.8203 159.518 95.332C159.568 96.0224 160.13 96.4375 160.516 96.9345C161.061 97.6376 161.298 98.6777 161.133 99.6396C160.968 100.6 160.406 101.46 159.669 101.872C159.032 102.23 158.136 102.152 157.833 101.397C157.487 100.537 158.072 99.2529 157.481 98.625C156.771 97.8701 155.447 99.25 154.75 98.4746C154.377 98.0595 154.472 97.2871 154.183 96.7822C153.801 96.1171 153.018 96.205 152.428 96.2529C151.79 96.3027 151.202 96.2626 150.572 96.2001C149.994 96.1396 149.503 96.2695 148.954 96.5146C148.388 96.7695 147.589 97.2324 147.098 96.5898Z" fill="#050F64"/>
<path d="M155.216 99.168C155.059 100.143 155.823 101.077 156.92 101.253C158.017 101.428 159.033 100.777 159.188 99.7999C159.344 98.8253 158.581 97.8897 157.484 97.7149C156.387 97.5401 155.372 98.1905 155.216 99.168Z" fill="#F4BCC7"/>
<path d="M146.243 136.88C145.853 137.272 145.46 137.65 145.066 138.013C143.141 139.79 141.096 141.282 138.99 142.442C136.886 143.603 134.548 144.515 132.038 145.15C129.905 145.69 127.626 146.048 125.081 146.232L123.748 142.317C123.777 142.313 123.806 142.308 123.833 142.303C124.027 142.268 124.222 142.235 124.413 142.202C126.732 141.777 128.761 141.235 130.61 140.54C132.632 139.782 134.468 138.825 136.062 137.697C137.925 136.383 139.645 134.745 141.309 132.678C141.552 133.018 141.804 133.348 142.059 133.68C142.416 134.165 142.807 134.622 143.231 135.048C143.577 135.445 143.969 135.795 144.405 136.095C144.676 136.247 144.948 136.405 145.219 136.56C145.55 136.71 145.893 136.817 146.243 136.88Z" fill="#F4BCC7"/>
<path d="M139.33 129.345C139.272 129.4 139.255 129.395 139.304 129.29L139.33 129.345Z" fill="#84A9FF"/>
<path d="M226.724 194.607C226.492 194.345 226.136 194.225 225.789 194.188C225.44 194.15 225.089 194.19 224.739 194.195C223.882 194.21 223.022 194.022 222.249 193.65C221.846 193.455 221.464 193.213 221.033 193.085L218.583 193.312C218.271 193.697 218.086 194.185 218.014 194.68C217.948 195.128 217.968 195.58 218.025 196.03L218.059 196.543L227.064 195.947L227.03 195.435H227.032C227.005 195.128 226.925 194.835 226.724 194.607Z" fill="#050F64"/>
<path d="M218.094 190.605L218.582 193.312L221.032 193.085L221.031 190.553L218.094 190.605Z" fill="#F4BCC7"/>
<path d="M238.182 194.353C237.942 194.095 237.583 193.985 237.235 193.957C236.887 193.933 236.536 193.982 236.187 193.997C235.33 194.037 234.465 193.875 233.682 193.525C233.273 193.345 232.883 193.112 232.449 193L230.006 193.298C229.706 193.692 229.536 194.185 229.479 194.683C229.427 195.13 229.459 195.582 229.529 196.03L229.579 196.543L238.563 195.68L238.514 195.17H238.516C238.48 194.862 238.391 194.572 238.182 194.353Z" fill="#050F64"/>
<path d="M229.439 190.607L230.007 193.298L232.45 193L232.373 190.468L229.439 190.607Z" fill="#F4BCC7"/>
<path d="M233.415 147.968C233.304 145.555 231.486 143.545 229.087 143.2L200.821 140.617H200.813C197.19 140.09 193.825 142.6 193.298 146.225C192.907 148.923 194.199 151.475 196.378 152.82V152.822L196.384 152.825C197.131 153.285 197.982 153.606 198.906 153.74C199.046 153.76 215.542 154.861 224.067 153.845L229.233 190.617L232.599 190.457L233.415 147.968Z" fill="#050F64"/>
<path d="M234.935 139.34C235.196 138.697 234.969 137.985 234.418 137.71L233.197 137.09L231.99 136.455C231.181 136.037 230.394 135.588 229.599 135.152C228.03 134.258 226.475 133.348 224.999 132.36C223.521 131.378 222.103 130.34 220.8 129.228C219.495 128.115 218.312 126.925 217.277 125.648C216.241 124.367 215.345 123.005 214.549 121.527C213.749 120.053 213.029 118.481 212.323 116.845C211.619 115.21 210.927 113.515 210.21 111.803C209.492 110.093 208.759 108.362 207.982 106.64C207.464 105.558 206.507 104.822 205.39 104.54C204.277 104.253 203.023 104.405 201.896 105.053C200.769 105.697 199.994 106.7 199.646 107.768C199.302 108.835 199.369 109.981 199.959 110.95C200.927 112.455 201.866 113.995 202.81 115.555C203.755 117.117 204.698 118.71 205.697 120.325C206.698 121.938 207.76 123.577 208.967 125.18C210.165 126.782 211.541 128.325 213.042 129.695C214.544 131.072 216.167 132.273 217.833 133.313C219.501 134.356 221.213 135.247 222.935 136.06C224.659 136.872 226.405 137.575 228.149 138.255C229.027 138.577 229.897 138.915 230.778 139.218L232.095 139.68L233.415 140.12C234.01 140.322 234.676 139.981 234.935 139.34Z" fill="#EA8096"/>
<path d="M204.665 121.9L199.65 112.803C198.133 110.05 198.9 106.615 201.652 105.097C204.404 103.58 208.099 104.555 209.616 107.307L214.632 116.405L204.665 121.9Z" fill="#F6F6F8"/>
<path d="M198.303 101.809C206.137 102.878 210.626 110.525 208.961 118.255C207.748 123.885 205.287 141.014 205.287 141.014C204.713 143.378 186.189 156.37 183.487 149.817C180.111 141.628 184.462 121.059 185.685 111.61C186.487 105.423 192.121 100.965 198.303 101.809Z" fill="#F6F6F8"/>
<path d="M198.34 101.543C197.829 101.473 197.311 101.438 196.799 101.438C196.513 101.438 196.231 101.447 195.949 101.47C195.952 101.563 195.953 101.652 195.955 101.74C196.723 101.68 197.509 101.7 198.304 101.81C199.665 101.995 200.926 102.38 202.07 102.928C202.097 102.843 202.123 102.755 202.151 102.673C200.968 102.11 199.688 101.728 198.34 101.543ZM207.054 106.835C206.759 106.415 206.441 106.015 206.103 105.638L205.818 105.723C208.53 108.697 209.806 112.973 209.127 117.355L209.382 117.478C209.988 113.673 209.158 109.838 207.054 106.835ZM204.632 141.987C203.846 142.855 202.422 144.055 200.669 145.317L200.718 145.612C202.498 144.34 204.111 143.018 204.953 142.035L204.632 141.987ZM182.462 135.402H182.187C181.86 139.702 181.835 143.737 182.401 146.905C182.485 146.85 182.568 146.798 182.649 146.742C182.109 143.617 182.14 139.635 182.462 135.402ZM194.888 148.918C192.795 150.03 190.672 150.935 188.818 151.367L188.858 151.635C190.87 151.168 193.069 150.178 194.919 149.202L194.888 148.918ZM208.1 122.865C207.361 127.165 206.512 132.728 205.942 136.555L206.191 136.718C206.76 132.895 207.617 127.277 208.361 122.945L208.1 122.865ZM188.514 105.043C186.871 106.782 185.747 109.043 185.419 111.577C185.184 113.39 184.841 115.567 184.444 118.09C184.054 120.57 183.63 123.26 183.243 126.018L183.506 126.1C184.284 120.518 185.216 115.242 185.687 111.61C186.006 109.145 187.092 106.952 188.678 105.263L188.514 105.043Z" fill="#83A8FF"/>
<path d="M198.112 102.843C198.112 102.843 192.315 104.197 192.425 94.9298C192.425 94.9298 194.619 93.0596 194.777 92.9649C194.935 92.8721 197.69 98.9454 197.69 98.9454L198.112 102.843Z" fill="#050F64"/>
<path d="M200.641 99.6504L199.906 105.593C198.04 106.45 196.336 106.2 194.793 104.843L195.526 98.9023L200.641 99.6504Z" fill="#F4BCC7"/>
<path d="M200.536 100.362L200.252 102.308C199.415 102.652 198.488 102.805 197.54 102.71C197.486 102.705 197.433 102.697 197.38 102.69C196.494 102.56 195.69 102.098 195.16 101.407L195.423 99.6123L200.536 100.362Z" fill="#EA8096"/>
<path d="M204.035 95.25L203.337 97.1152L202.891 98.1377C202.436 100.657 200.123 102.405 197.575 102.155C197.322 102.13 197.066 102.07 196.822 101.973C196.728 101.935 196.635 101.893 196.544 101.845L196.487 101.815C196.145 101.625 195.838 101.36 195.601 101.027C195.086 100.303 194.79 99.5449 194.531 98.7646C194.303 98.085 194.105 97.415 193.987 96.7422C193.847 95.9453 193.821 95.1396 193.995 94.3047L194.666 89.4951L202.128 91.7998L204.035 95.25Z" fill="#F4BCC7"/>
<path d="M203.474 93.6677C203.474 93.6677 203.527 92.0076 202.75 90.2947C202.081 88.825 199.375 86.8347 196.782 88.0925C196.767 87.2351 196.403 86.4021 195.704 85.8377C194.413 84.7927 192.476 85.0427 191.38 86.4002C190.283 87.7547 190.441 89.7 191.732 90.7449C192.123 91.0623 192.573 91.2576 193.041 91.3396C193.004 91.4177 192.968 91.4949 192.932 91.5769C192.397 92.8425 191.954 95.5672 193.467 96.6423C193.977 97.0047 195.297 96.7175 195.515 94.95C195.527 94.8523 195.513 91.9343 195.914 91.1502C196.098 91.4773 196.705 92.1326 198.62 91.95C199.577 91.8601 200.362 91.9695 201.005 92.24C201.957 93.155 202.594 94.1277 203.304 94.9402C204.001 95.74 203.46 96.4402 202.893 97.1023C202.058 98.0847 202.671 99.6023 203.486 100.053C203.486 100.053 202.204 98.53 203.76 97.3318C204.977 96.3943 204.407 93.9675 203.474 93.6677Z" fill="#050F64"/>
<path d="M195.62 95.4678C195.469 96.4952 194.514 97.2071 193.487 97.0577C192.46 96.9053 191.749 95.9503 191.899 94.9229C192.049 93.8946 193.004 93.1846 194.032 93.335C195.059 93.4854 195.77 94.4405 195.62 95.4678Z" fill="#F4BCC7"/>
<path d="M218.247 146.372C218.613 145.785 218.513 145.043 218.016 144.678L216.921 143.861L215.841 143.026C215.115 142.475 214.417 141.898 213.709 141.332C212.316 140.18 210.941 139.018 209.655 137.793C208.369 136.568 207.149 135.305 206.057 133.986C204.962 132.665 204.001 131.29 203.201 129.853C202.399 128.415 201.75 126.918 201.22 125.325C200.685 123.738 200.246 122.066 199.831 120.33C199.418 118.6 199.026 116.81 198.613 115.003C198.201 113.193 197.775 111.363 197.306 109.53C196.981 108.378 196.164 107.49 195.113 107.018C194.066 106.543 192.804 106.481 191.583 106.923C190.362 107.367 189.426 108.22 188.899 109.213C188.378 110.205 188.247 111.345 188.662 112.403C189.356 114.053 190.017 115.728 190.681 117.428C191.343 119.128 191.999 120.858 192.706 122.62C193.415 124.383 194.18 126.183 195.093 127.968C195.998 129.753 197.09 131.505 198.334 133.115C199.577 134.728 200.97 136.188 202.432 137.5C203.897 138.813 205.43 139.986 206.988 141.08C208.546 142.178 210.145 143.17 211.748 144.14C212.557 144.608 213.356 145.09 214.173 145.537L215.39 146.22L216.615 146.88C217.166 147.183 217.881 146.96 218.247 146.372Z" fill="#F4BCC7"/>
<path d="M191.418 123.997L188.038 114.173C187.016 111.2 188.361 107.95 191.332 106.928C194.304 105.905 197.778 107.497 198.8 110.47L202.179 120.295L191.418 123.997Z" fill="#F6F6F8"/>
<path d="M188.062 114.942L190.713 122.647L190.939 122.599L188.293 114.907L188.062 114.942ZM194.836 122.822L194.909 123.04L198.705 121.735L198.611 121.522L194.836 122.822ZM192.313 106.452C191.954 106.508 191.601 106.593 191.259 106.71C189.923 107.17 188.846 108.088 188.182 109.315L188.392 109.41C189.003 108.287 190.006 107.385 191.335 106.927C193.592 106.15 196.14 106.885 197.681 108.585L197.812 108.387C196.468 106.929 194.395 106.144 192.313 106.452ZM200.7 115.287L199.294 111.195L199.084 111.29L200.488 115.375L200.7 115.287ZM201.593 117.88L201.394 118.005L202.182 120.295L200.435 120.894L200.52 121.11L202.473 120.437L201.593 117.88Z" fill="#83A8FF"/>
<path d="M219.842 146.188L191.294 141.942H191.287C187.698 141.218 184.201 143.54 183.476 147.13C182.937 149.8 184.086 152.42 186.19 153.885L186.196 153.89C186.916 154.39 187.748 154.755 188.663 154.941C188.802 154.968 205.318 156.97 213.919 156.415L217.889 190.61L221.258 190.55L223.436 150.942C223.398 148.57 222.165 146.652 219.842 146.188Z" fill="#050F64"/>
<path d="M223.107 156.928L222.768 163.12L223.039 163.08L223.381 156.87L223.107 156.928ZM213.92 156.412C211.733 156.555 209.036 156.53 206.227 156.415V156.685C207.688 156.745 209.122 156.78 210.471 156.78C211.656 156.78 212.735 156.753 213.682 156.697L216.281 179.095L216.546 179.035L213.92 156.412ZM222.357 170.575L221.341 189.065L221.617 188.938L222.628 170.575H222.357ZM217.89 190.61L217.264 185.223L216.996 185.255L217.65 190.883L220.713 190.827L220.744 190.558L217.89 190.61ZM219.896 145.923L207.606 144.098L207.491 144.353L219.843 146.188C222.167 146.652 223.398 148.57 223.438 150.942L223.399 151.625H223.67L223.706 150.947V150.938C223.663 148.308 222.204 146.385 219.896 145.923ZM188.663 154.94C188.19 154.845 187.739 154.7 187.316 154.515L187.035 154.683C187.534 154.918 188.061 155.093 188.61 155.202C188.647 155.21 191.433 155.553 195.309 155.915L195.348 155.65C191.496 155.29 188.72 154.95 188.663 154.94Z" fill="#84A9FF"/>
<path d="M233.062 148.81L196.508 143.605L196.683 142.378L233.237 147.582L233.062 148.81Z" fill="#FF654F"/>
<path d="M233.239 147.582L210.535 144.35L220.193 126.765L242.898 129.997L233.239 147.582Z" fill="#FF654F"/>
<path d="M227.762 138.975C227.03 140.816 225.883 142.085 225.202 141.816C224.52 141.543 224.562 139.83 225.295 137.99C226.028 136.151 227.175 134.88 227.856 135.153C228.538 135.423 228.496 137.135 227.762 138.975Z" fill="#F6F6F8"/>
<path d="M108.184 444.945L119.331 450.572C119.516 450.188 119.626 449.782 119.545 449.37C119.454 448.895 119.115 448.497 118.728 448.21C118.339 447.923 117.893 447.723 117.472 447.482C116.44 446.897 115.549 446.067 114.89 445.08C114.545 444.567 114.262 444.008 113.837 443.555L110.759 442.1C110.117 442.338 109.553 442.79 109.12 443.33C108.727 443.815 108.431 444.37 108.184 444.945Z" fill="#050F64"/>
<path d="M97.3516 448.968L109.735 450.572C109.781 450.147 109.751 449.73 109.538 449.367C109.294 448.947 108.843 448.688 108.382 448.545C107.92 448.402 107.432 448.362 106.956 448.275C105.788 448.065 104.671 447.58 103.722 446.867C103.226 446.497 102.773 446.062 102.223 445.777L98.8359 445.43C98.3096 445.867 97.9277 446.48 97.6982 447.133C97.4893 447.723 97.3936 448.343 97.3516 448.968Z" fill="#050F64"/>
<path d="M102.58 407.713V407.715L102.578 407.713H102.58Z" fill="#050F64"/>
<path d="M104.247 381.607L104.246 381.605H104.248L104.247 381.607Z" fill="#84A9FF"/>
<path d="M102.58 407.713V407.715L102.578 407.713H102.58Z" fill="#050F64"/>
<path d="M102.58 407.713V407.715L102.578 407.713H102.58Z" fill="#050F64"/>
<path d="M102.579 407.715L102.577 407.713H102.579V407.715ZM130.739 406.532H130.743L124.899 380.282C124.899 380.28 98.1399 381.88 98.2327 382.505L98.3489 445.62L102.756 445.89L112.214 396.51L120.551 409.67L110.235 442.095L114.316 443.747L130.493 408.973C130.801 408.175 130.874 407.332 130.739 406.532Z" fill="#050F64"/>
<path d="M102.58 407.715L102.578 407.713H102.58V407.715Z" fill="#050F64"/>
<path d="M138.349 379.905C137.275 378.441 136.177 377.068 135.136 375.678C134.872 375.332 134.625 374.981 134.368 374.633C134.117 374.28 133.852 373.938 133.613 373.582L132.885 372.52L132.523 371.99L132.179 371.447C130.324 368.58 128.728 365.58 127.353 362.487C126.712 360.915 126.037 359.37 125.497 357.76L125.07 356.568C125.001 356.367 124.923 356.173 124.861 355.97L124.675 355.36L123.929 352.935C123.868 352.733 123.802 352.532 123.746 352.327L123.587 351.71L123.267 350.481L122.95 349.25L122.791 348.635L122.713 348.33L122.646 348.018L122.116 345.526C121.94 344.695 121.751 343.875 121.623 343.03C121.416 341.97 120.721 341.13 119.771 340.61C118.821 340.09 117.615 339.893 116.399 340.17C115.182 340.447 114.203 341.155 113.614 342.082C113.025 343.008 112.828 344.155 113.163 345.263C113.431 346.13 113.765 346.987 114.084 347.845L115.045 350.41L115.165 350.731L115.298 351.048L115.565 351.68L116.101 352.945L116.637 354.207L116.905 354.838C116.998 355.048 117.101 355.253 117.198 355.46L118.383 357.941L118.679 358.558C118.778 358.765 118.893 358.965 118.999 359.168L119.648 360.38C120.481 362.01 121.455 363.572 122.389 365.143C124.354 368.235 126.541 371.185 128.941 373.912L129.386 374.428L129.849 374.925L130.772 375.918C131.077 376.253 131.4 376.563 131.714 376.888C132.029 377.205 132.341 377.532 132.661 377.843C133.931 379.1 135.227 380.305 136.428 381.518C136.818 381.93 137.536 381.935 138.061 381.527C138.587 381.122 138.715 380.41 138.349 379.905Z" fill="#EA8096"/>
<path d="M114.857 358.99L111.959 347.79C111.082 344.405 112.856 340.912 116.244 340.035C119.631 339.157 123.348 341.228 124.224 344.615L127.124 355.813L114.857 358.99Z" fill="#155BCD"/>
<path d="M108.707 336.957C115.466 335.865 121.713 340.787 122.232 347.615L124.899 380.282C114.412 386.327 107.855 384.952 98.0587 382.492L96.671 351.76C96.3429 344.485 101.519 338.12 108.707 336.957Z" fill="#155BCD"/>
<path d="M122.593 347.588C122.114 341.28 116.794 336.385 110.479 336.442C110.218 336.445 109.954 336.457 109.691 336.478V336.84C109.993 336.817 110.293 336.808 110.591 336.808C116.588 336.808 121.761 341.428 122.23 347.615L122.707 353.463L123.065 353.383L122.593 347.588ZM96.9102 357.085L96.5449 357.043L96.8789 364.433H97.2422L96.9102 357.085ZM107.491 384.777C108.491 384.885 109.478 384.945 110.475 384.947V384.582C109.533 384.58 108.595 384.525 107.646 384.425L107.491 384.777ZM123.694 361.075L123.331 361.1L124.897 380.282C122.906 381.43 121.054 382.31 119.298 382.965L119.362 383.335C121.197 382.655 123.082 381.747 125.079 380.598L125.279 380.482L123.694 361.075ZM98.0586 382.492L97.707 374.697L97.3438 374.747L97.707 382.777L97.9688 382.845C98.8086 383.058 99.6152 383.258 100.396 383.445L100.477 383.088C99.6914 382.9 98.8867 382.7 98.0586 382.492ZM98.5166 343.332C97.71 344.628 97.1006 346.05 96.7256 347.558L97.0713 347.67C97.4404 346.183 98.042 344.777 98.8418 343.503L98.5166 343.332Z" fill="#84A9FF"/>
<path d="M131.027 352.095L128.698 362.678L127.645 362.742L129.972 352.157L131.027 352.095Z" fill="#050F64"/>
<path d="M136.936 351.74L134.606 362.325L128.699 362.678L131.028 352.095L136.936 351.74Z" fill="#84A9FF"/>
<path d="M133.988 355.867C133.402 355.555 132.679 355.73 132.338 356.269C131.302 357.85 130.225 359.392 129.063 360.83C128.486 361.553 127.886 362.245 127.264 362.894C126.643 363.548 126.001 364.157 125.337 364.695C124.673 365.232 123.988 365.697 123.307 366.04C123.137 366.13 122.966 366.197 122.799 366.275L122.547 366.367L122.422 366.415L122.298 366.45C121.969 366.562 121.649 366.61 121.342 366.65C121.035 366.68 120.742 366.665 120.456 366.635C120.171 366.593 119.892 366.515 119.614 366.42C119.335 366.308 119.055 366.178 118.774 366.01C118.494 365.838 118.212 365.65 117.932 365.418C117.374 364.97 116.825 364.42 116.302 363.8C115.779 363.18 115.279 362.503 114.8 361.787C113.844 360.357 112.982 358.782 112.173 357.162C111.368 355.537 110.616 353.857 109.905 352.144C109.192 350.434 108.517 348.695 107.868 346.937C107.429 345.832 106.564 345.019 105.513 344.6C104.467 344.18 103.236 344.155 102.087 344.642C100.939 345.13 100.108 346.04 99.7027 347.112C99.3004 348.184 99.3258 349.42 99.8922 350.535C100.818 352.272 101.774 354.003 102.782 355.718C103.786 357.434 104.843 359.138 105.982 360.817C107.129 362.492 108.346 364.15 109.754 365.737C110.46 366.532 111.212 367.308 112.041 368.05C112.868 368.79 113.781 369.495 114.818 370.107C115.331 370.418 115.891 370.692 116.473 370.933C117.061 371.173 117.688 371.362 118.335 371.5C118.989 371.625 119.661 371.69 120.335 371.678C121.007 371.652 121.673 371.565 122.306 371.402C122.933 371.232 123.542 371.019 124.089 370.745L124.298 370.647L124.498 370.54L124.893 370.32C125.144 370.162 125.4 370.01 125.634 369.843C126.587 369.18 127.399 368.433 128.129 367.655C128.858 366.875 129.504 366.062 130.103 365.235C130.702 364.407 131.251 363.565 131.763 362.707C132.795 361 133.689 359.253 134.529 357.49C134.811 356.892 134.574 356.183 133.988 355.867Z" fill="#F5BDC8"/>
<path d="M103.89 363.438L99.0614 352.928C97.6014 349.747 98.7323 345.997 101.912 344.535C105.092 343.075 109.115 344.457 110.576 347.638L115.404 358.15L103.89 363.438Z" fill="#155BCD"/>
<path d="M112.046 359.692L109.471 360.875L109.567 361.197L112.214 359.98L112.046 359.692ZM113.324 352.822L113.03 352.982L114.254 355.645L114.514 355.412L113.324 352.822ZM104.607 343.622C103.609 343.622 102.656 343.827 101.772 344.232C100.402 344.862 99.3379 345.925 98.7129 347.268L98.9844 347.475C99.5498 346.223 100.539 345.168 101.911 344.537C103.555 343.782 105.421 343.787 107.044 344.405L107.339 344.157C106.494 343.81 105.567 343.622 104.607 343.622ZM99.5127 354.71L101.329 358.665L101.645 358.55L99.8809 354.71H99.5127ZM106.492 362.242L103.89 363.438L102.534 360.49L102.259 360.69L103.726 363.88L106.605 362.558L106.492 362.242ZM110.877 347.497C110.697 347.107 110.48 346.74 110.229 346.4L109.973 346.612C110.204 346.93 110.407 347.27 110.575 347.638L111.056 348.683C111.157 348.635 111.261 348.593 111.36 348.55L110.877 347.497Z" fill="#84A9FF"/>
<path d="M111.253 332.605L112.58 340.875C110.972 342.33 109.175 342.617 107.191 341.74L105.865 333.47L111.253 332.605Z" fill="#F5BDC8"/>
<path d="M111.253 332.605L111.854 336.345C111.499 336.553 111.108 336.713 110.691 336.815C110.558 336.848 110.423 336.875 110.287 336.897C108.804 337.135 107.301 336.673 106.221 335.69L105.865 333.47L111.253 332.605Z" fill="#EA8096"/>
<path d="M112.892 327.155L113.314 330.63L113.485 332.037C113.725 333.99 112.468 335.809 110.561 336.282C109.93 336.437 109.285 336.45 108.673 336.33C108.531 336.303 108.391 336.267 108.253 336.224C108.168 336.2 108.083 336.173 107.999 336.142C107.196 335.845 106.482 335.312 105.973 334.58C105.541 333.963 105.119 333.272 104.702 332.54C104.464 332.122 104.227 331.69 103.993 331.25C102.959 329.309 103.036 326.933 104.285 325.122C105.349 323.577 106.89 322.905 108.941 323.168C111.016 323.43 112.639 325.08 112.892 327.155Z" fill="#F5BDC8"/>
<path d="M106.495 330.401L107.012 329.941C107.012 329.941 105.304 327.798 105.502 326.893C105.783 325.608 108.668 324.638 110.241 324.64C110.733 324.643 111.134 324.723 111.421 325.13C112.043 326.008 112.968 327.808 113.207 329.758C113.207 329.758 113.774 323.527 111.16 320.975C109.448 319.305 108 318.2 105.688 320.08C102.016 323.066 100.651 327.04 102.708 331.77L105.168 329.983L106.495 330.401Z" fill="#050F64"/>
<path d="M106.632 330.737C106.792 331.731 106.017 332.678 104.902 332.858C103.787 333.037 102.754 332.378 102.595 331.385C102.436 330.393 103.21 329.443 104.325 329.265C105.441 329.085 106.474 329.745 106.632 330.737Z" fill="#F5BDC8"/>
<path d="M342.286 342.685C342.629 342.098 343.369 341.878 343.974 342.18C345.767 343.07 347.562 343.945 349.365 344.773C351.164 345.6 352.972 346.388 354.782 347.063C356.592 347.737 358.407 348.295 360.2 348.63C361.991 348.97 363.754 349.082 365.494 348.952C368.969 348.67 372.437 347.42 375.922 345.861C376.36 345.66 376.792 345.473 377.227 345.26L378.532 344.638C379.405 344.2 380.272 343.776 381.142 343.318C382.882 342.425 384.621 341.483 386.362 340.532C388.592 339.372 391.379 340.303 392.474 342.612C393.57 344.92 392.517 347.68 390.127 348.66C388.23 349.39 386.325 350.115 384.384 350.808C383.422 351.157 382.434 351.49 381.456 351.825L379.967 352.31C379.474 352.473 378.962 352.617 378.459 352.77C376.44 353.37 374.36 353.905 372.195 354.278C370.034 354.648 367.775 354.838 365.504 354.718C363.235 354.582 360.999 354.12 358.922 353.428C356.837 352.737 354.902 351.838 353.065 350.858C351.227 349.878 349.474 348.816 347.754 347.731C346.034 346.645 344.352 345.528 342.682 344.401C342.115 344.023 341.942 343.273 342.286 342.685Z" fill="#EA8096"/>
<path d="M380.245 354.122L389.6 350.01C392.43 348.765 393.883 345.625 392.638 342.795C391.395 339.965 387.925 338.517 385.095 339.763L375.74 343.875L380.245 354.122Z" fill="#FF654F"/>
<path d="M394.628 404.822L387.46 447.205L384.955 446.768L384.24 404.412L394.628 404.822Z" fill="#F5BDC8"/>
<path d="M383.545 404.385L395.237 404.848C398.435 397.065 401.228 379.905 397.95 371.975L384.835 374.947L383.545 404.385Z" fill="#050F64"/>
<path d="M384.836 374.947C384.961 378.725 388.126 381.687 391.906 381.565C395.684 381.437 398.645 378.275 398.52 374.495C398.395 370.715 395.231 367.753 391.453 367.878C387.674 368.003 384.711 371.168 384.836 374.947Z" fill="#050F64"/>
<mask id="mask0_4_541" style="mask-type:luminance" maskUnits="userSpaceOnUse" x="391" y="374" width="1" height="1">
<path d="M391.5 374.5H391.75V374.75H391.5V374.5Z" fill="white"/>
</mask>
<g mask="url(#mask0_4_541)">
<mask id="mask1_4_541" style="mask-type:luminance" maskUnits="userSpaceOnUse" x="391" y="374" width="1" height="1">
<path d="M391.678 374.723V374.72H391.68L391.678 374.723Z" fill="white"/>
</mask>
<g mask="url(#mask1_4_541)">
<path d="M391.678 374.723H391.68V374.72H391.678V374.723Z" fill="#050F64"/>
</g>
</g>
<path d="M408.022 403.045L411.952 445.848L409.42 446.067L397.883 405.308L408.022 403.045Z" fill="#F5BDC8"/>
<path d="M395.492 368.145C398.255 367.315 401.13 368.313 402.822 370.44H402.825L402.85 370.475C402.97 370.63 403.085 370.79 403.195 370.955C408.103 378.098 409.691 394.772 408.62 402.91L397.2 405.457L390.91 376.678L390.907 376.673C389.817 373.05 391.872 369.232 395.492 368.145Z" fill="#050F64"/>
<path d="M392.293 384.062L393.785 390.895H394.015L392.522 384.062H392.293ZM401.848 404.423L401.925 404.635L408.822 403.098L408.845 402.94C408.995 401.8 409.09 400.513 409.135 399.122L408.91 399.093C408.865 400.497 408.768 401.785 408.62 402.91L401.848 404.423ZM408.8 390.067L408.575 390.077C408.772 392.107 408.89 394.103 408.925 395.978L409.152 396.015C409.115 394.105 408.997 392.09 408.8 390.067ZM405.532 375.655C406.747 378.905 407.62 382.815 408.18 386.768L408.405 386.747C408.395 386.673 408.383 386.6 408.372 386.527C407.76 382.277 406.85 378.527 405.72 375.518L405.532 375.655ZM395.308 397.855L397.027 405.728L399.12 405.26L399.095 405.037L397.2 405.457L395.527 397.812L395.308 397.855Z" fill="#155BCD"/>
<path d="M403.916 448.657C404.103 448.348 404.443 448.16 404.788 448.058C405.136 447.957 405.501 447.933 405.858 447.875C406.731 447.732 407.571 447.383 408.288 446.862C408.663 446.593 409.006 446.272 409.421 446.067L411.953 445.848C412.341 446.18 412.616 446.645 412.781 447.133C412.929 447.575 412.993 448.04 413.016 448.508L413.076 449.032L403.816 450.082L403.756 449.555H403.754C403.725 449.237 403.754 448.925 403.916 448.657Z" fill="#050F64"/>
<path d="M378.973 447.862C379.232 447.612 379.61 447.515 379.97 447.508C380.33 447.497 380.69 447.567 381.05 447.603C381.93 447.69 382.832 447.565 383.657 447.247C384.09 447.082 384.503 446.862 384.955 446.768L387.46 447.205C387.75 447.628 387.897 448.145 387.933 448.66C387.963 449.125 387.905 449.59 387.808 450.048L387.73 450.572L378.51 449.213L378.588 448.69L378.585 448.688C378.64 448.375 378.745 448.08 378.973 447.862Z" fill="#050F64"/>
<path d="M394.116 338.893C386.339 338.981 380.461 345.965 381.701 353.643L384.841 374.372C390.425 376.39 398.336 375.63 404.756 373.763L404.731 350.128C405.145 344.003 400.254 338.825 394.116 338.893Z" fill="#FF654F"/>
<path d="M404.731 350.128L404.736 355.673H404.963L404.956 350.135C405.158 347.135 404.138 344.275 402.085 342.077C401.328 341.27 400.475 340.595 399.548 340.065L399.491 340.298C402.84 342.235 405.013 345.963 404.731 350.128ZM383.066 362.645L382.84 362.668L384.638 374.54L384.763 374.585C386.986 375.388 389.661 375.795 392.718 375.795C395.898 375.795 399.448 375.338 402.895 374.492L402.866 374.268C396.835 375.75 389.888 376.197 384.84 374.372L383.066 362.645ZM381.478 353.678L382.17 358.242L382.39 358.192L381.701 353.643C381.59 352.947 381.536 352.263 381.536 351.585C381.536 347.418 383.588 343.638 386.798 341.308L386.651 341.135C385.808 341.747 385.038 342.465 384.353 343.275C381.923 346.162 380.878 349.952 381.478 353.678ZM389.028 339.768L389.14 339.96C390.658 339.293 392.335 338.912 394.116 338.895C394.486 338.89 394.85 338.905 395.21 338.938L395.241 338.713C394.908 338.683 394.573 338.668 394.236 338.668C394.193 338.668 394.153 338.668 394.113 338.668C392.338 338.688 390.613 339.07 389.028 339.768ZM404.743 363.593L404.753 372.582L404.981 372.55L404.97 363.593H404.743Z" fill="#DA5544"/>
<path d="M390.475 335.315L390.808 341.577C392.577 342.55 394.268 342.425 395.875 341.202L395.545 334.94L390.475 335.315Z" fill="#F5BDC8"/>
<path d="M390.582 337.232L390.615 337.947C391.41 338.345 392.367 338.56 393.305 338.535C393.357 338.532 393.41 338.53 393.463 338.527C394.34 338.463 395.11 338.117 395.68 337.48L395.598 335.645L390.582 337.232Z" fill="#EA8096"/>
<path d="M387.83 328.147L388.275 332.67L388.375 333.675C388.645 336.178 390.79 338.055 393.308 337.987C393.558 337.982 393.812 337.94 394.06 337.86C394.155 337.83 394.25 337.795 394.343 337.755L394.4 337.73C394.75 337.567 395.067 337.33 395.325 337.02C395.88 336.345 396.223 335.622 396.532 334.875C396.805 334.223 397.045 333.58 397.207 332.93C397.4 332.155 397.482 331.37 397.37 330.537L397.235 327.442L389.185 326.152L387.83 328.147Z" fill="#F5BDC8"/>
<path d="M388.028 335.236C388.028 335.236 388.05 332.563 388.135 331.245V331.24C388.218 329.992 388.523 328.818 389.403 328.965C391.22 329.27 391.88 327.782 391.88 327.782C391.88 327.782 391.875 327.77 391.87 327.745C392.37 327.778 392.905 327.863 393.478 328.008C396.188 328.691 396.553 328.008 396.888 327.575C397.582 329.662 397.318 332.321 397.293 332.55L397.29 332.568V332.572C397.265 332.691 397.238 332.81 397.207 332.93C397.045 333.58 396.805 334.223 396.532 334.875C396.285 335.47 396.015 336.053 395.635 336.608L395.655 337.028C397.515 336.67 399.923 334.628 400.457 332.955C402.441 326.758 399.08 323.055 394.3 322.117C390.162 321.305 387.885 325.122 387.063 328.608C386.563 330.723 387.58 334.718 388.028 335.236Z" fill="#050F64"/>
<path d="M395.695 331.566C395.769 332.582 396.656 333.348 397.677 333.273C398.695 333.195 399.459 332.31 399.384 331.29C399.307 330.273 398.422 329.508 397.402 329.582C396.384 329.657 395.619 330.545 395.695 331.566Z" fill="#F5BDC8"/>
<path d="M353.28 379.755C344.357 380.62 336.428 374.09 335.562 365.157C334.697 356.237 341.228 348.305 350.15 347.44C359.08 346.575 367.013 353.107 367.875 362.027C368.742 370.96 362.21 378.89 353.28 379.755ZM382.995 356.407L393.32 349.112L387.035 337.282L375.215 341.735C373.322 339.697 371.162 337.9 368.753 336.388L370.888 323.94L358.08 320.01L352.878 331.525C350.035 331.418 347.228 331.69 344.527 332.312L337.232 321.997L325.405 328.282L329.857 340.103C327.817 341.995 326.022 344.155 324.508 346.565L312.06 344.43L308.133 357.237L319.645 362.44C319.54 365.282 319.81 368.09 320.445 370.787L310.12 378.085L316.405 389.912L328.223 385.46C330.117 387.5 332.275 389.295 334.685 390.8L332.553 403.258L345.36 407.175L350.562 395.67C353.405 395.777 356.21 395.495 358.91 394.872L366.205 405.197L378.035 398.912L373.58 387.095C375.62 385.2 377.418 383.043 378.92 380.633L391.378 382.765L395.308 369.957L383.793 364.755C383.9 361.912 383.628 359.107 382.995 356.407Z" fill="#155BCD"/>
<path d="M362.414 377.785C362.275 377.12 362.677 376.46 363.326 376.28C365.254 375.737 367.172 375.182 369.065 374.588C370.954 373.992 372.822 373.365 374.619 372.65C376.414 371.937 378.134 371.133 379.69 370.18C381.246 369.23 382.629 368.133 383.831 366.87C386.219 364.327 387.954 361.075 389.492 357.58C389.679 357.139 389.877 356.71 390.059 356.26L390.607 354.923C390.962 354.014 391.32 353.115 391.659 352.192C392.349 350.365 393.007 348.497 393.661 346.625C394.536 344.267 397.227 343.09 399.589 344.07C401.95 345.045 403.019 347.8 401.907 350.13C400.987 351.942 400.062 353.758 399.087 355.572C398.607 356.48 398.097 357.388 397.597 358.293L396.817 359.65C396.559 360.102 396.277 360.553 396.009 361.003C394.911 362.803 393.73 364.595 392.371 366.322C391.019 368.048 389.469 369.705 387.706 371.138C385.932 372.559 383.964 373.718 381.956 374.598C379.95 375.48 377.909 376.11 375.892 376.617C373.869 377.125 371.857 377.513 369.855 377.86C367.852 378.207 365.855 378.508 363.86 378.793C363.184 378.892 362.552 378.452 362.414 377.785Z" fill="#F5BDC8"/>
<path d="M398.356 360.575L402.536 351.247C403.801 348.428 402.771 345.122 399.948 343.86C397.129 342.595 393.586 343.849 392.321 346.67L388.141 355.995L398.356 360.575Z" fill="#FF654F"/>
<path d="M400.873 355.508L400.661 355.428L398.648 359.923L398.858 360.005L400.873 355.508ZM400.816 344.348C402.726 345.675 403.486 348.102 402.849 350.385L403.068 350.433C403.738 348.018 402.879 345.497 400.913 344.143L400.816 344.348ZM390.436 350.872L390.233 350.775L387.844 356.11L396.366 359.93L396.464 359.727L388.141 355.995L390.436 350.872ZM392.113 346.577L391.759 347.372L391.951 347.492L392.321 346.67C393.361 344.348 395.946 343.085 398.403 343.42L398.429 343.197C397.448 343.067 396.429 343.173 395.474 343.519C393.941 344.077 392.748 345.162 392.113 346.577Z" fill="#DA5544"/>
<path d="M216.543 90.8574H242.861V71.7148H216.543V90.8574Z" fill="#84A9FF"/>
<path d="M216.543 90.8574V98.168L226.911 90.8574H216.543Z" fill="#155BCD"/>
<path d="M229.7 83.6797C228.379 83.6797 227.308 82.6074 227.308 81.2852C227.308 79.9648 228.379 78.8926 229.7 78.8926C231.022 78.8926 232.094 79.9648 232.094 81.2852C232.094 82.6074 231.022 83.6797 229.7 83.6797ZM234.392 80.6748L236.011 79.7529L235.257 77.9277L233.459 78.4121C233.21 78.085 232.919 77.793 232.587 77.5352L233.076 75.7402L231.253 74.9805L230.326 76.5977C229.91 76.54 229.495 76.54 229.09 76.5928L228.166 74.9775L226.341 75.7305L226.826 77.5273C226.5 77.7773 226.206 78.0674 225.949 78.4004L224.153 77.9102L223.396 79.7354L225.011 80.6602C224.954 81.0771 224.954 81.4922 225.009 81.8975L223.391 82.8203L224.145 84.6445L225.942 84.1602C226.191 84.4854 226.482 84.7803 226.814 85.0352L226.324 86.832L228.147 87.5898L229.074 85.9746C229.49 86.0322 229.906 86.0303 230.311 85.9775L231.235 87.5977L233.06 86.8428L232.574 85.0449C232.9 84.7949 233.194 84.5049 233.449 84.1729L235.247 84.6621L236.006 82.8398L234.391 81.9121C234.446 81.4971 234.446 81.0801 234.392 80.6748Z" fill="#F6F6F8"/>
<path d="M134.229 88.6826H107.91V69.54H134.229V88.6826Z" fill="#155BCD"/>
<path d="M134.228 88.6826V95.9922L123.859 88.6826H134.228Z" fill="#050F64"/>
<path d="M124.861 82.0879V80.5977L128.581 79.1104L124.861 77.6221V76.1348L130.069 78.3672V79.8555L124.861 82.0879Z" fill="#F6F6F8"/>
<path d="M118.762 72.415H120.25L123.374 85.8076H121.887L118.762 72.415Z" fill="#F6F6F8"/>
<path d="M112.066 79.8555V78.3672L117.274 76.1348V77.6221L113.555 79.1104L117.274 80.5977V82.0879L112.066 79.8555Z" fill="#F6F6F8"/>
<path d="M119.656 323.755H145.976V304.612H119.656V323.755Z" fill="#FF654F"/>
<path d="M119.656 323.755V331.065L130.024 323.755H119.656Z" fill="#DA5544"/>
<path d="M126.238 313.452C127.213 313.452 127.7 313.088 127.7 312.355V310.527C127.7 308.58 128.675 307.605 130.624 307.605V309.067C129.649 309.067 129.162 309.555 129.162 310.527V312.355C129.162 313.428 128.675 314.037 127.7 314.183C128.675 314.33 129.162 314.94 129.162 316.01V317.838C129.162 318.812 129.649 319.3 130.624 319.3V320.763C128.675 320.763 127.7 319.787 127.7 317.838V316.01C127.7 315.28 127.213 314.915 126.238 314.915V313.452Z" fill="#F6F6F8"/>
<path d="M139.396 314.915C138.421 314.915 137.934 315.28 137.934 316.01V317.838C137.934 319.787 136.959 320.763 135.01 320.763V319.3C135.984 319.3 136.472 318.812 136.472 317.838V316.01C136.472 314.94 136.959 314.33 137.934 314.183C136.959 314.037 136.472 313.428 136.472 312.355V310.527C136.472 309.555 135.984 309.067 135.01 309.067V307.605C136.959 307.605 137.934 308.58 137.934 310.527V312.355C137.934 313.088 138.421 313.452 139.396 313.452V314.915Z" fill="#F6F6F8"/>
<path d="M380.267 90.0303V196.152H276.842V90.0303H380.267Z" fill="#155BCD"/>
<path d="M380.267 71.7148V90.0303H276.842V71.7148H380.267Z" fill="#050F64"/>
<path d="M334.291 104.287H288.066V97.1475H334.291V104.287Z" fill="#84A9FF"/>
<path d="M303.234 113.39H327.149V120.53H303.234V113.39Z" fill="#F6F6F8"/>
<path d="M358.201 113.39V120.53H334.289V113.39H358.201Z" fill="#F6F6F8"/>
<path d="M318.406 129.633H347.347V136.772H318.406V129.633Z" fill="#84A9FF"/>
<path d="M367.229 129.633V136.772H354.488V129.633H367.229Z" fill="#84A9FF"/>
<path d="M340.369 153.015H318.406V145.875H340.369V153.015Z" fill="#84A9FF"/>
<path d="M344.599 169.258H303.234V162.117H344.599V169.258Z" fill="#F6F6F8"/>
<path d="M334.291 185.5H288.066V178.36H334.291V185.5Z" fill="#84A9FF"/>
</g>
<defs>
<clipPath id="clip0_4_541">
<rect width="500" height="500" fill="white"/>
</clipPath>
</defs>
</svg>
