<svg width="180" height="180" viewBox="0 0 180 180" fill="none" xmlns="http://www.w3.org/2000/svg">
<path d="M90 16.875C58.5 16.875 5.625 19.125 5.625 33.75V64.6875C5.625 67.2188 7.3125 69.75 10.125 71.7188C7.03125 73.6875 5.625 76.2188 5.625 78.75V109.688C5.625 112.219 7.3125 114.75 10.125 116.719C7.03125 118.688 5.625 121.219 5.625 123.75V154.688C5.625 170.156 60.75 174.375 90 174.375C119.25 174.375 174.375 170.156 174.375 154.688V123.75C174.375 121.219 172.969 118.688 169.875 116.719C172.688 114.75 174.375 112.219 174.375 109.688V78.75C174.375 76.2188 172.969 73.6875 169.875 71.7188C172.688 69.75 174.375 67.2188 174.375 64.6875V33.75C174.375 19.125 121.5 16.875 90 16.875ZM11.25 41.625C26.1562 50.625 66.375 53.4375 90 53.4375C113.625 53.4375 153.844 50.625 168.75 41.625V64.6875C168.75 69.4688 140.906 78.75 90 78.75C39.0938 78.75 11.25 69.4688 11.25 64.6875V41.625ZM11.25 86.625C26.1562 95.625 66.375 98.4375 90 98.4375C113.625 98.4375 153.844 95.625 168.75 86.625V109.688C168.75 114.469 140.906 123.75 90 123.75C39.0938 123.75 11.25 114.469 11.25 109.688V86.625ZM90 168.75C39.0938 168.75 11.25 159.469 11.25 154.688V131.625C26.1562 140.625 66.375 143.438 90 143.438C113.625 143.438 153.844 140.625 168.75 131.625V154.688C168.75 159.469 140.906 168.75 90 168.75ZM168.75 123.75C168.75 128.531 140.906 137.812 90 137.812C39.0938 137.812 11.25 128.531 11.25 123.75C11.25 123.188 12.375 121.5 15.75 119.812C33.1875 127.125 68.625 129.375 90 129.375C111.375 129.375 146.812 127.125 164.25 119.812C167.625 121.5 168.75 123.188 168.75 123.75ZM168.75 78.75C168.75 83.5312 140.906 92.8125 90 92.8125C39.0938 92.8125 11.25 83.5312 11.25 78.75C11.25 78.1875 12.375 76.5 15.75 74.8125C33.1875 82.125 68.625 84.375 90 84.375C111.375 84.375 146.812 82.125 164.25 74.8125C167.625 76.5 168.75 78.1875 168.75 78.75ZM90 47.8125C39.0938 47.8125 11.25 38.5312 11.25 33.75C11.25 30.0938 30.375 22.5 90 22.5C149.625 22.5 168.75 30.0938 168.75 33.75C168.75 38.5312 140.906 47.8125 90 47.8125Z" fill="#4985FF"/>
<path d="M101.25 61.875H78.75V67.5H101.25V61.875Z" fill="#4985FF"/>
<path d="M101.25 106.875H78.75V112.5H101.25V106.875Z" fill="#4985FF"/>
<path d="M101.25 151.875H78.75V157.5H101.25V151.875Z" fill="#4985FF"/>
</svg>
