<svg width="180" height="180" viewBox="0 0 180 180" fill="none" xmlns="http://www.w3.org/2000/svg">
<g clip-path="url(#clip0_129_9184)">
<mask id="path-1-outside-1_129_9184" maskUnits="userSpaceOnUse" x="-1" y="-1" width="182" height="182" fill="black">
<rect fill="white" x="-1" y="-1" width="182" height="182"/>
<path d="M161.016 0H18.9844C13.9512 0.00576893 9.12578 2.00776 5.56677 5.56677C2.00776 9.12578 0.00576893 13.9512 0 18.9844V124.453C0.00576893 129.486 2.00776 134.312 5.56677 137.871C9.12578 141.43 13.9512 143.432 18.9844 143.438H61.2773C59.4473 149.982 55.7432 155.847 50.6211 160.312H47.1094C44.3131 160.316 41.6323 161.428 39.655 163.405C37.6777 165.382 36.5656 168.063 36.5625 170.859V173.672C36.5643 175.35 37.2315 176.958 38.4179 178.145C39.6043 179.331 41.2128 179.998 42.8906 180H137.109C138.787 179.998 140.396 179.331 141.582 178.145C142.768 176.958 143.436 175.35 143.438 173.672V170.859C143.434 168.063 142.322 165.382 140.345 163.405C138.368 161.428 135.687 160.316 132.891 160.312H129.403C124.281 155.847 120.577 149.982 118.747 143.438H161.016C166.049 143.432 170.874 141.43 174.433 137.871C177.992 134.312 179.994 129.486 180 124.453V18.9844C179.994 13.9512 177.992 9.12578 174.433 5.56677C170.874 2.00776 166.049 0.00576893 161.016 0ZM132.891 164.531C134.568 164.533 136.177 165.2 137.363 166.387C138.55 167.573 139.217 169.182 139.219 170.859V173.672C139.218 174.231 138.996 174.767 138.6 175.163C138.205 175.558 137.669 175.781 137.109 175.781H42.8906C42.3314 175.781 41.7952 175.558 41.3997 175.163C41.0042 174.767 40.7818 174.231 40.7812 173.672V170.859C40.783 169.182 41.4503 167.573 42.6367 166.387C43.823 165.2 45.4316 164.533 47.1094 164.531H132.891ZM123.404 160.312H56.6209C60.9768 155.522 64.0722 149.723 65.6279 143.438H114.398C115.954 149.723 119.049 155.522 123.404 160.312ZM175.781 124.453C175.777 128.368 174.22 132.121 171.451 134.889C168.683 137.657 164.93 139.214 161.016 139.219H18.9844C15.0697 139.214 11.3166 137.657 8.54854 134.889C5.78043 132.121 4.22331 128.368 4.21875 124.453V119.531H175.781V124.453ZM87.8906 62.4554C86.0801 62.9649 84.5152 64.1125 83.485 65.686C82.4547 67.2596 82.0289 69.1529 82.286 71.0161C82.5432 72.8793 83.466 74.5864 84.8839 75.8221C86.3019 77.0578 88.1192 77.7385 90 77.7385C91.8808 77.7385 93.6981 77.0578 95.1161 75.8221C96.534 74.5864 97.4568 72.8793 97.714 71.0161C97.9711 69.1529 97.5453 67.2596 96.515 65.686C95.4848 64.1125 93.9199 62.9649 92.1094 62.4554V33.5981C92.1881 33.6833 92.2614 33.7732 92.3291 33.8674C98.7789 44.0951 105.108 53.0909 115.031 63.746C115.448 64.1977 115.703 64.776 115.754 65.3888C115.804 66.0017 115.649 66.614 115.312 67.1284C108.289 78.0015 105.363 85.6909 104.976 94.6034H75.0256C74.6388 85.6898 71.7124 78.0015 64.6896 67.1284C64.3528 66.6139 64.1976 66.0016 64.2485 65.3888C64.2995 64.776 64.5537 64.1978 64.9709 63.746C74.8976 53.0873 81.225 44.0937 87.672 33.8674C87.7397 33.773 87.8134 33.683 87.8924 33.5978L87.8906 62.4554ZM90 66.3761C90.7059 66.376 91.3959 66.5852 91.9828 66.9773C92.5697 67.3695 93.0272 67.9268 93.2973 68.5789C93.5675 69.231 93.6382 69.9486 93.5005 70.6409C93.3628 71.3332 93.0229 71.9691 92.5238 72.4682C92.0247 72.9673 91.3888 73.3072 90.6965 73.4449C90.0042 73.5826 89.2866 73.5119 88.6345 73.2418C87.9824 72.9716 87.425 72.5141 87.0329 71.9272C86.6408 71.3403 86.4316 70.6503 86.4316 69.9444C86.4323 68.9981 86.8084 68.0908 87.4774 67.4216C88.1465 66.7523 89.0537 66.3759 90 66.375V66.3761ZM75.0751 104.337V98.8221H104.925V104.337H75.0751ZM104.925 108.556V115.312H75.0751V108.556H104.925ZM175.781 115.312H109.144V96.7127C109.144 87.6607 111.685 80.518 118.854 69.4178C119.702 68.1149 120.09 66.5661 119.956 65.0175C119.823 63.4689 119.176 62.0093 118.118 60.8706C108.419 50.4563 102.22 41.6443 95.8975 31.6167C95.2697 30.6198 94.3995 29.7983 93.3681 29.2289C92.3367 28.6595 91.1778 28.3609 89.9996 28.3609C88.8215 28.3609 87.6626 28.6595 86.6312 29.2289C85.5998 29.7983 84.7296 30.6198 84.1018 31.6167C77.7818 41.6408 71.5841 50.452 61.8831 60.8699C60.825 62.0085 60.1777 63.4679 60.0439 65.0165C59.9102 66.5651 60.2976 68.1139 61.1448 69.4171C68.3146 80.5173 70.856 87.66 70.856 96.712V115.312H4.21875V18.9844C4.22331 15.0697 5.78043 11.3166 8.54854 8.54854C11.3166 5.78043 15.0697 4.22331 18.9844 4.21875H161.016C164.93 4.22331 168.683 5.78043 171.451 8.54854C174.22 11.3166 175.777 15.0697 175.781 18.9844V115.312Z"/>
</mask>
<path d="M161.016 0H18.9844C13.9512 0.00576893 9.12578 2.00776 5.56677 5.56677C2.00776 9.12578 0.00576893 13.9512 0 18.9844V124.453C0.00576893 129.486 2.00776 134.312 5.56677 137.871C9.12578 141.43 13.9512 143.432 18.9844 143.438H61.2773C59.4473 149.982 55.7432 155.847 50.6211 160.312H47.1094C44.3131 160.316 41.6323 161.428 39.655 163.405C37.6777 165.382 36.5656 168.063 36.5625 170.859V173.672C36.5643 175.35 37.2315 176.958 38.4179 178.145C39.6043 179.331 41.2128 179.998 42.8906 180H137.109C138.787 179.998 140.396 179.331 141.582 178.145C142.768 176.958 143.436 175.35 143.438 173.672V170.859C143.434 168.063 142.322 165.382 140.345 163.405C138.368 161.428 135.687 160.316 132.891 160.312H129.403C124.281 155.847 120.577 149.982 118.747 143.438H161.016C166.049 143.432 170.874 141.43 174.433 137.871C177.992 134.312 179.994 129.486 180 124.453V18.9844C179.994 13.9512 177.992 9.12578 174.433 5.56677C170.874 2.00776 166.049 0.00576893 161.016 0ZM132.891 164.531C134.568 164.533 136.177 165.2 137.363 166.387C138.55 167.573 139.217 169.182 139.219 170.859V173.672C139.218 174.231 138.996 174.767 138.6 175.163C138.205 175.558 137.669 175.781 137.109 175.781H42.8906C42.3314 175.781 41.7952 175.558 41.3997 175.163C41.0042 174.767 40.7818 174.231 40.7812 173.672V170.859C40.783 169.182 41.4503 167.573 42.6367 166.387C43.823 165.2 45.4316 164.533 47.1094 164.531H132.891ZM123.404 160.312H56.6209C60.9768 155.522 64.0722 149.723 65.6279 143.438H114.398C115.954 149.723 119.049 155.522 123.404 160.312ZM175.781 124.453C175.777 128.368 174.22 132.121 171.451 134.889C168.683 137.657 164.93 139.214 161.016 139.219H18.9844C15.0697 139.214 11.3166 137.657 8.54854 134.889C5.78043 132.121 4.22331 128.368 4.21875 124.453V119.531H175.781V124.453ZM87.8906 62.4554C86.0801 62.9649 84.5152 64.1125 83.485 65.686C82.4547 67.2596 82.0289 69.1529 82.286 71.0161C82.5432 72.8793 83.466 74.5864 84.8839 75.8221C86.3019 77.0578 88.1192 77.7385 90 77.7385C91.8808 77.7385 93.6981 77.0578 95.1161 75.8221C96.534 74.5864 97.4568 72.8793 97.714 71.0161C97.9711 69.1529 97.5453 67.2596 96.515 65.686C95.4848 64.1125 93.9199 62.9649 92.1094 62.4554V33.5981C92.1881 33.6833 92.2614 33.7732 92.3291 33.8674C98.7789 44.0951 105.108 53.0909 115.031 63.746C115.448 64.1977 115.703 64.776 115.754 65.3888C115.804 66.0017 115.649 66.614 115.312 67.1284C108.289 78.0015 105.363 85.6909 104.976 94.6034H75.0256C74.6388 85.6898 71.7124 78.0015 64.6896 67.1284C64.3528 66.6139 64.1976 66.0016 64.2485 65.3888C64.2995 64.776 64.5537 64.1978 64.9709 63.746C74.8976 53.0873 81.225 44.0937 87.672 33.8674C87.7397 33.773 87.8134 33.683 87.8924 33.5978L87.8906 62.4554ZM90 66.3761C90.7059 66.376 91.3959 66.5852 91.9828 66.9773C92.5697 67.3695 93.0272 67.9268 93.2973 68.5789C93.5675 69.231 93.6382 69.9486 93.5005 70.6409C93.3628 71.3332 93.0229 71.9691 92.5238 72.4682C92.0247 72.9673 91.3888 73.3072 90.6965 73.4449C90.0042 73.5826 89.2866 73.5119 88.6345 73.2418C87.9824 72.9716 87.425 72.5141 87.0329 71.9272C86.6408 71.3403 86.4316 70.6503 86.4316 69.9444C86.4323 68.9981 86.8084 68.0908 87.4774 67.4216C88.1465 66.7523 89.0537 66.3759 90 66.375V66.3761ZM75.0751 104.337V98.8221H104.925V104.337H75.0751ZM104.925 108.556V115.312H75.0751V108.556H104.925ZM175.781 115.312H109.144V96.7127C109.144 87.6607 111.685 80.518 118.854 69.4178C119.702 68.1149 120.09 66.5661 119.956 65.0175C119.823 63.4689 119.176 62.0093 118.118 60.8706C108.419 50.4563 102.22 41.6443 95.8975 31.6167C95.2697 30.6198 94.3995 29.7983 93.3681 29.2289C92.3367 28.6595 91.1778 28.3609 89.9996 28.3609C88.8215 28.3609 87.6626 28.6595 86.6312 29.2289C85.5998 29.7983 84.7296 30.6198 84.1018 31.6167C77.7818 41.6408 71.5841 50.452 61.8831 60.8699C60.825 62.0085 60.1777 63.4679 60.0439 65.0165C59.9102 66.5651 60.2976 68.1139 61.1448 69.4171C68.3146 80.5173 70.856 87.66 70.856 96.712V115.312H4.21875V18.9844C4.22331 15.0697 5.78043 11.3166 8.54854 8.54854C11.3166 5.78043 15.0697 4.22331 18.9844 4.21875H161.016C164.93 4.22331 168.683 5.78043 171.451 8.54854C174.22 11.3166 175.777 15.0697 175.781 18.9844V115.312Z" fill="#4985FF"/>
<path d="M161.016 0H18.9844C13.9512 0.00576893 9.12578 2.00776 5.56677 5.56677C2.00776 9.12578 0.00576893 13.9512 0 18.9844V124.453C0.00576893 129.486 2.00776 134.312 5.56677 137.871C9.12578 141.43 13.9512 143.432 18.9844 143.438H61.2773C59.4473 149.982 55.7432 155.847 50.6211 160.312H47.1094C44.3131 160.316 41.6323 161.428 39.655 163.405C37.6777 165.382 36.5656 168.063 36.5625 170.859V173.672C36.5643 175.35 37.2315 176.958 38.4179 178.145C39.6043 179.331 41.2128 179.998 42.8906 180H137.109C138.787 179.998 140.396 179.331 141.582 178.145C142.768 176.958 143.436 175.35 143.438 173.672V170.859C143.434 168.063 142.322 165.382 140.345 163.405C138.368 161.428 135.687 160.316 132.891 160.312H129.403C124.281 155.847 120.577 149.982 118.747 143.438H161.016C166.049 143.432 170.874 141.43 174.433 137.871C177.992 134.312 179.994 129.486 180 124.453V18.9844C179.994 13.9512 177.992 9.12578 174.433 5.56677C170.874 2.00776 166.049 0.00576893 161.016 0ZM132.891 164.531C134.568 164.533 136.177 165.2 137.363 166.387C138.55 167.573 139.217 169.182 139.219 170.859V173.672C139.218 174.231 138.996 174.767 138.6 175.163C138.205 175.558 137.669 175.781 137.109 175.781H42.8906C42.3314 175.781 41.7952 175.558 41.3997 175.163C41.0042 174.767 40.7818 174.231 40.7812 173.672V170.859C40.783 169.182 41.4503 167.573 42.6367 166.387C43.823 165.2 45.4316 164.533 47.1094 164.531H132.891ZM123.404 160.312H56.6209C60.9768 155.522 64.0722 149.723 65.6279 143.438H114.398C115.954 149.723 119.049 155.522 123.404 160.312ZM175.781 124.453C175.777 128.368 174.22 132.121 171.451 134.889C168.683 137.657 164.93 139.214 161.016 139.219H18.9844C15.0697 139.214 11.3166 137.657 8.54854 134.889C5.78043 132.121 4.22331 128.368 4.21875 124.453V119.531H175.781V124.453ZM87.8906 62.4554C86.0801 62.9649 84.5152 64.1125 83.485 65.686C82.4547 67.2596 82.0289 69.1529 82.286 71.0161C82.5432 72.8793 83.466 74.5864 84.8839 75.8221C86.3019 77.0578 88.1192 77.7385 90 77.7385C91.8808 77.7385 93.6981 77.0578 95.1161 75.8221C96.534 74.5864 97.4568 72.8793 97.714 71.0161C97.9711 69.1529 97.5453 67.2596 96.515 65.686C95.4848 64.1125 93.9199 62.9649 92.1094 62.4554V33.5981C92.1881 33.6833 92.2614 33.7732 92.3291 33.8674C98.7789 44.0951 105.108 53.0909 115.031 63.746C115.448 64.1977 115.703 64.776 115.754 65.3888C115.804 66.0017 115.649 66.614 115.312 67.1284C108.289 78.0015 105.363 85.6909 104.976 94.6034H75.0256C74.6388 85.6898 71.7124 78.0015 64.6896 67.1284C64.3528 66.6139 64.1976 66.0016 64.2485 65.3888C64.2995 64.776 64.5537 64.1978 64.9709 63.746C74.8976 53.0873 81.225 44.0937 87.672 33.8674C87.7397 33.773 87.8134 33.683 87.8924 33.5978L87.8906 62.4554ZM90 66.3761C90.7059 66.376 91.3959 66.5852 91.9828 66.9773C92.5697 67.3695 93.0272 67.9268 93.2973 68.5789C93.5675 69.231 93.6382 69.9486 93.5005 70.6409C93.3628 71.3332 93.0229 71.9691 92.5238 72.4682C92.0247 72.9673 91.3888 73.3072 90.6965 73.4449C90.0042 73.5826 89.2866 73.5119 88.6345 73.2418C87.9824 72.9716 87.425 72.5141 87.0329 71.9272C86.6408 71.3403 86.4316 70.6503 86.4316 69.9444C86.4323 68.9981 86.8084 68.0908 87.4774 67.4216C88.1465 66.7523 89.0537 66.3759 90 66.375V66.3761ZM75.0751 104.337V98.8221H104.925V104.337H75.0751ZM104.925 108.556V115.312H75.0751V108.556H104.925ZM175.781 115.312H109.144V96.7127C109.144 87.6607 111.685 80.518 118.854 69.4178C119.702 68.1149 120.09 66.5661 119.956 65.0175C119.823 63.4689 119.176 62.0093 118.118 60.8706C108.419 50.4563 102.22 41.6443 95.8975 31.6167C95.2697 30.6198 94.3995 29.7983 93.3681 29.2289C92.3367 28.6595 91.1778 28.3609 89.9996 28.3609C88.8215 28.3609 87.6626 28.6595 86.6312 29.2289C85.5998 29.7983 84.7296 30.6198 84.1018 31.6167C77.7818 41.6408 71.5841 50.452 61.8831 60.8699C60.825 62.0085 60.1777 63.4679 60.0439 65.0165C59.9102 66.5651 60.2976 68.1139 61.1448 69.4171C68.3146 80.5173 70.856 87.66 70.856 96.712V115.312H4.21875V18.9844C4.22331 15.0697 5.78043 11.3166 8.54854 8.54854C11.3166 5.78043 15.0697 4.22331 18.9844 4.21875H161.016C164.93 4.22331 168.683 5.78043 171.451 8.54854C174.22 11.3166 175.777 15.0697 175.781 18.9844V115.312Z" stroke="#4985FF" stroke-width="2" mask="url(#path-1-outside-1_129_9184)"/>
<path d="M90 132.188C91.5533 132.188 92.8125 130.928 92.8125 129.375C92.8125 127.822 91.5533 126.562 90 126.562C88.4467 126.562 87.1875 127.822 87.1875 129.375C87.1875 130.928 88.4467 132.188 90 132.188Z" fill="#4985FF"/>
<path d="M139.218 8.4375C137.475 8.44052 135.776 8.98278 134.353 9.98988C132.931 10.997 131.855 12.4196 131.273 14.0625H98.4369V12.6563C98.4357 11.5377 97.9908 10.4654 97.1999 9.67448C96.409 8.88357 95.3366 8.43871 94.2181 8.4375H85.7806C84.6621 8.43871 83.5898 8.88357 82.7989 9.67448C82.008 10.4654 81.5631 11.5377 81.5619 12.6563V14.0625H48.726C48.0413 12.1271 46.6745 10.5077 44.8816 9.50767C43.0887 8.50764 40.9927 8.19557 38.9863 8.62993C36.9798 9.06429 35.2006 10.2153 33.9818 11.8673C32.763 13.5193 32.1884 15.559 32.3654 17.6042C32.5425 19.6495 33.4592 21.5601 34.9438 22.978C36.4284 24.3959 38.379 25.224 40.4303 25.307C42.4815 25.39 44.4927 24.7224 46.087 23.4291C47.6813 22.1357 48.7494 20.3055 49.0912 18.2813H73.6303C65.1359 22.3843 58.365 29.3574 54.5137 37.9688H49.2181C48.0996 37.97 47.0273 38.4148 46.2364 39.2057C45.4455 39.9966 45.0006 41.069 44.9994 42.1875V50.625C45.0006 51.7435 45.4455 52.8159 46.2364 53.6068C47.0273 54.3977 48.0996 54.8425 49.2181 54.8438H57.6556C58.7741 54.8425 59.8465 54.3977 60.6374 53.6068C61.4283 52.8159 61.8732 51.7435 61.8744 50.625V42.1875C61.8717 41.3179 61.5999 40.4705 61.0963 39.7616C60.5928 39.0527 59.8821 38.517 59.0619 38.2282C63.6832 29.09 71.8851 22.3562 81.5619 19.8563V21.0938C81.5631 22.2123 82.008 23.2846 82.7989 24.0755C83.5898 24.8664 84.6621 25.3113 85.7806 25.3125H94.2181C95.3366 25.3113 96.409 24.8664 97.1999 24.0755C97.9908 23.2846 98.4357 22.2123 98.4369 21.0938V19.8563C108.113 22.3562 116.315 29.09 120.937 38.2282C120.117 38.517 119.406 39.0527 118.902 39.7616C118.399 40.4705 118.127 41.3179 118.124 42.1875V50.625C118.126 51.7435 118.57 52.8159 119.361 53.6068C120.152 54.3977 121.225 54.8425 122.343 54.8438H130.781C131.899 54.8425 132.971 54.3977 133.762 53.6068C134.553 52.8159 134.998 51.7435 134.999 50.625V42.1875C134.998 41.069 134.553 39.9966 133.762 39.2057C132.971 38.4148 131.899 37.97 130.781 37.9688H125.485C121.633 29.3574 114.862 22.3843 106.368 18.2813H130.907C131.176 19.8664 131.893 21.3417 132.972 22.5331C134.052 23.7246 135.449 24.5827 137 25.0062C138.551 25.4297 140.191 25.4011 141.726 24.9236C143.262 24.4461 144.628 23.5397 145.665 22.3112C146.703 21.0827 147.367 19.5833 147.58 17.9897C147.794 16.3961 147.547 14.7748 146.869 13.3167C146.192 11.8587 145.112 10.6247 143.756 9.76023C142.4 8.89576 140.826 8.43682 139.218 8.4375ZM40.7806 21.0938C39.9462 21.0938 39.1306 20.8463 38.4368 20.3828C37.7431 19.9192 37.2023 19.2603 36.883 18.4894C36.5637 17.7186 36.4802 16.8703 36.643 16.052C36.8057 15.2336 37.2075 14.4819 37.7975 13.8919C38.3875 13.3019 39.1392 12.9001 39.9576 12.7373C40.776 12.5745 41.6242 12.6581 42.3951 12.9774C43.166 13.2967 43.8248 13.8374 44.2884 14.5312C44.752 15.225 44.9994 16.0406 44.9994 16.875C44.9982 17.9935 44.5533 19.0659 43.7624 19.8568C42.9715 20.6477 41.8991 21.0925 40.7806 21.0938ZM49.2181 50.625V42.1875H57.6556L57.6584 50.625H49.2181ZM85.7806 21.0938V12.6563H94.2181L94.2209 21.0938H85.7806ZM122.343 42.1875H130.781L130.783 50.625H122.343V42.1875ZM139.218 21.0938C138.384 21.0938 137.568 20.8463 136.874 20.3828C136.181 19.9192 135.64 19.2603 135.321 18.4894C135.001 17.7186 134.918 16.8703 135.08 16.052C135.243 15.2336 135.645 14.4819 136.235 13.8919C136.825 13.3019 137.577 12.9001 138.395 12.7373C139.213 12.5745 140.062 12.6581 140.833 12.9774C141.603 13.2967 142.262 13.8374 142.726 14.5312C143.189 15.225 143.437 16.0406 143.437 16.875C143.436 17.9935 142.991 19.0659 142.2 19.8568C141.409 20.6477 140.337 21.0925 139.218 21.0938Z" fill="#4985FF"/>
</g>
<defs>
<clipPath id="clip0_129_9184">
<rect width="180" height="180" fill="white"/>
</clipPath>
</defs>
</svg>
