<svg width="181" height="181" viewBox="0 0 181 181" fill="none" xmlns="http://www.w3.org/2000/svg">
<g clip-path="url(#clip0_128_8840)">
<path d="M53.9503 117.25C56.0701 116.712 57.4918 114.659 57.3226 112.371L57.1415 109.9L60.1717 108.005L62.0899 109.159C64.1363 110.38 66.7316 109.708 68.0005 107.632L70.3354 103.82C71.5798 101.779 71.1123 99.0397 69.2669 97.5788L67.3608 96.0757L68.175 92.6955L70.5009 92.0362C72.7259 91.4081 74.1306 89.0502 73.696 86.6648L72.7994 81.783C72.5763 80.5442 71.871 79.4374 70.8665 78.7498C69.8621 78.0622 68.6171 77.8337 67.455 78.1173L65.1332 78.6821L63.5521 75.9757L64.9164 73.115C65.9469 70.9476 65.208 68.2777 63.2333 67.0346L59.4416 64.6493C57.5682 63.4695 55.1875 63.8905 53.7802 65.6462L51.7833 68.1483L48.9942 67.6052L48.0375 64.4191C47.525 62.7141 46.1026 61.4545 44.4241 61.2137C43.8804 61.1333 43.3303 61.1616 42.7852 61.2962C42.7785 61.2986 42.774 61.301 42.7673 61.301L38.5815 62.3743C36.3675 62.9339 34.9285 65.1479 35.235 67.5174L35.6183 70.5194L33.4865 71.924L31.3 70.5165C29.2667 69.2051 26.6374 69.8067 25.3123 71.8879L22.4838 76.318C21.2077 78.307 21.6034 81.0421 23.386 82.5457L25.5 84.3337L25.0169 86.9096L21.8694 88.1604C20.1231 88.862 19.0146 90.6401 19.0227 92.5433C19.0242 92.8857 19.0616 93.2326 19.1394 93.5771L20.1443 98.0641C20.6411 100.3 22.6575 101.839 24.8281 101.64L27.6138 101.392L29.1571 104.151L27.9153 106.799C26.9005 108.959 27.6461 111.622 29.6298 112.869L33.4192 115.224C35.3802 116.441 37.8796 115.906 39.2277 113.983L40.7031 111.883L43.7876 112.698L44.6452 115.287C45.3936 117.563 47.6402 118.852 49.861 118.285L53.9503 117.25ZM48.5433 109.96C48.1271 108.72 47.1553 107.789 45.9458 107.47L40.9595 106.15C39.4959 105.753 37.9646 106.324 37.0538 107.61L35.42 109.938L33.0873 108.486L34.338 105.822C34.8989 104.639 34.8548 103.253 34.2167 102.111L31.6982 97.6064C30.9786 96.3249 29.6034 95.5751 28.1869 95.6968L25.1678 95.9671L24.5291 93.1173L27.7752 91.826C28.9611 91.3463 29.8234 90.2801 30.0806 88.9755C30.0828 88.9661 30.085 88.9566 30.0872 88.9471L30.9414 84.3956C30.9897 84.1403 31.0133 83.8805 31.0122 83.6255C31.0093 82.9336 30.8312 82.2543 30.4941 81.656C30.2633 81.2461 29.9631 80.8861 29.6228 80.6042L27.3939 78.7198L29.2588 75.7957L31.5443 77.2665C32.74 78.0454 34.2827 78.0388 35.4516 77.2617L39.3414 74.7067C40.5842 73.8986 41.2605 72.3915 41.0609 70.874L40.6474 67.6337L43.1979 66.9805L44.1955 70.2892C44.6101 71.6665 45.708 72.6867 47.061 72.9501L51.7357 73.8582C52.8977 74.0918 54.1087 73.7182 54.9741 72.8574C54.9965 72.836 55.0166 72.8147 55.0367 72.7934C55.1149 72.7104 55.1999 72.6156 55.2624 72.535L57.371 69.8979L59.751 71.3967L58.3554 74.3188C57.7812 75.5327 57.8411 76.9468 58.5175 78.1034C58.522 78.1152 58.5288 78.1246 58.5356 78.1364L61.198 82.6871C62.0305 84.1075 63.6323 84.8138 65.1937 84.4411L67.7286 83.8259L68.2826 86.8413L65.8535 87.5293C64.5751 87.8937 63.5714 88.9606 63.2291 90.3316L61.9029 95.8155C61.5433 97.3378 62.08 98.9341 63.2765 99.883L65.3719 101.534L63.9759 103.814L61.9969 102.625C60.8442 101.931 59.4161 101.94 58.2559 102.658L53.5258 105.618C52.3119 106.381 51.624 107.775 51.7314 109.264L51.9293 111.976L49.4214 112.611L48.5433 109.96Z" fill="#4985FF"/>
<path d="M57.536 90.0626C57.5116 84.3294 53.595 79.5029 48.2331 78.5836C47.6331 78.4775 47.0063 78.4235 46.3731 78.4262C45.8049 78.4286 45.228 78.4806 44.667 78.5751C39.2208 79.4814 35.2848 84.3554 35.3095 90.1619C35.3149 91.4299 35.5133 92.6782 35.8979 93.8643C36.2688 95.0174 36.8124 96.1037 37.5127 97.0925C39.6137 100.054 42.9627 101.813 46.4747 101.798C52.6029 101.772 57.5634 96.5089 57.536 90.0626ZM41.7988 93.7306C41.435 93.2197 41.1565 92.6613 40.963 92.0599C40.765 91.4445 40.6612 90.7979 40.6584 90.1391C40.6458 87.1757 42.73 84.5906 45.5126 84.1277C45.8065 84.0793 46.1051 84.052 46.397 84.0508C46.7271 84.0494 47.0461 84.0764 47.3607 84.1317C50.145 84.6086 52.1767 87.1125 52.1894 90.0877C52.2036 93.4313 49.6283 96.1625 46.4508 96.176C44.6027 96.1839 42.9057 95.2914 41.7988 93.7306Z" fill="#4985FF"/>
<path d="M121.798 93.2321C122.169 94.3876 122.712 95.4762 123.413 96.465C125.514 99.4267 128.865 101.186 132.377 101.171C138.505 101.145 143.468 95.8815 143.44 89.4351C143.416 83.7019 139.497 78.8755 134.135 77.9561C133.533 77.8501 132.908 77.7961 132.273 77.7988C131.696 77.8012 131.119 77.8509 130.567 77.9453C125.121 78.8564 121.187 83.7304 121.212 89.5344C121.217 90.8048 121.415 92.0531 121.798 93.2321ZM131.412 83.498C131.697 83.4495 131.996 83.4246 132.297 83.4234C132.627 83.422 132.948 83.4489 133.263 83.5043C136.049 83.9812 138.079 86.485 138.091 89.4603C138.106 92.8039 135.53 95.5351 132.353 95.5486C130.503 95.5565 128.808 94.664 127.701 93.1031C127.337 92.5923 127.059 92.0338 126.865 91.4278C126.665 90.8147 126.563 90.1705 126.56 89.5117C126.548 86.5482 128.632 83.9632 131.412 83.498Z" fill="#4985FF"/>
<path d="M104.926 91.9161C104.927 92.2585 104.964 92.6054 105.04 92.9522L106.047 97.4321C106.542 99.6709 108.558 101.209 110.729 101.011L113.514 100.765L115.06 103.524L113.818 106.169C112.801 108.329 113.547 110.994 115.533 112.242L119.315 114.592C121.279 115.814 123.778 115.282 125.131 113.356L126.608 111.253L129.688 112.069L130.55 114.667C131.303 116.938 133.548 118.222 135.764 117.658L139.853 116.623C141.973 116.085 143.39 114.032 143.226 111.742L143.044 109.273L146.075 107.378L147.993 108.529C150.035 109.751 152.632 109.081 153.903 107.005L156.236 103.193C157.483 101.154 157.015 98.4149 155.17 96.9516L153.261 95.4485L154.078 92.0707L156.41 91.409C158.631 90.7738 160.031 88.416 159.599 86.0352L158.702 81.144C158.477 79.9076 157.769 78.8055 156.765 78.1203C155.76 77.435 154.518 77.2065 153.358 77.4901L151.036 78.0549L149.455 75.3484L150.817 72.4878C151.85 70.3228 151.111 67.6505 149.134 66.4074L145.353 64.0268C143.482 62.8399 141.099 63.2538 139.683 65.0167L137.684 67.5187L134.897 66.9757L133.94 63.7967C133.43 62.0939 132.012 60.8343 130.327 60.5841C130.316 60.5818 130.307 60.5818 130.296 60.5795C129.759 60.5086 129.217 60.5392 128.67 60.6738L124.482 61.7471C122.268 62.3091 120.831 64.5207 121.138 66.8925L121.521 69.8922L119.387 71.2944L117.207 69.894C115.179 68.5755 112.545 69.1747 111.213 71.2583L108.38 75.6979C107.111 77.6916 107.513 80.4266 109.287 81.9162L111.403 83.7065L111.194 84.8125L110.918 86.2848L107.784 87.5307C106.03 88.2277 104.917 90.0058 104.926 91.9161ZM116.442 85.9047L116.844 83.7684C117.018 82.8302 116.861 81.8627 116.401 81.0405C116.175 80.6306 115.877 80.273 115.519 79.9723L113.297 78.0903L115.162 75.1661L117.445 76.6393C118.647 77.4229 120.192 77.4139 121.363 76.6297L125.244 74.0819C126.487 73.2714 127.161 71.7643 126.964 70.2492L126.548 67.0065L129.101 66.3533L130.098 69.6691C130.515 71.0416 131.613 72.0571 132.962 72.3182L137.639 73.2286C138.803 73.4622 140.014 73.0887 140.877 72.2302C140.919 72.1875 140.962 72.1448 141 72.0998C141.038 72.0595 141.105 71.9836 141.188 71.8794L143.272 69.2707L145.654 70.7695L144.258 73.6916C143.686 74.9007 143.744 76.3126 144.414 77.4668C144.423 77.4809 144.429 77.495 144.438 77.5092L147.096 82.0505C147.933 83.4874 149.542 84.1936 151.094 83.8116L153.631 83.1963L154.185 86.2141L151.779 86.8949C150.487 87.2546 149.474 88.3216 149.13 89.7044L147.806 95.1883C147.446 96.7106 147.983 98.3045 149.179 99.2558L151.273 100.907L149.879 103.187L147.913 102.007C146.752 101.297 145.312 101.308 144.159 102.03L139.429 104.988C138.215 105.749 137.525 107.147 137.634 108.639L137.832 111.349L135.324 111.983L134.446 109.338C134.035 108.104 133.069 107.173 131.849 106.841L126.847 105.519C125.388 105.13 123.861 105.704 122.957 106.983L121.323 109.308L118.99 107.859L120.245 105.183C120.802 104.005 120.755 102.624 120.12 101.483L117.599 96.9745C116.875 95.6883 115.495 94.9385 114.092 95.0696L111.068 95.3375L110.432 92.4901L113.671 91.2036C114.862 90.7239 115.726 89.6529 115.988 88.3176L116.442 85.9047Z" fill="#4985FF"/>
<path d="M1.29611 132.598C0.12969 133.954 -0.50958 135.709 -0.501786 137.541C-0.493038 139.598 0.343965 141.568 1.796 142.948C6.92999 147.829 25.7454 163.558 52.3028 161.14C61.8025 160.273 70.8641 157.257 79.2657 152.173C80.0514 152.642 80.8795 153.047 81.7433 153.381C82.0334 153.493 82.3323 153.548 82.631 153.552C84.3132 154.142 86.0773 154.437 87.8805 154.429C96.9368 154.391 104.274 146.609 104.233 137.084C104.193 127.561 96.7898 119.842 87.7335 119.881C84.3786 119.895 81.2618 120.973 78.6647 122.807C83.1243 118.019 86.6231 112.23 88.8277 105.774C95.2485 123.866 111.868 136.589 131.149 136.507C155.931 136.401 176.003 115.113 175.893 89.0495C175.782 62.9902 155.529 41.8739 130.747 41.9793C121.12 42.0203 112.194 45.2366 104.888 50.7011C106.634 48.4882 107.725 45.6736 107.835 42.575C107.843 42.3837 107.847 42.1901 107.846 41.9941C107.845 41.8406 107.834 41.6848 107.828 41.5314C114.618 37.5661 124.852 33.4942 137.259 34.5158C152.714 35.7889 163.47 44.1259 168.507 48.9806C169.88 50.3042 171.659 50.9862 173.521 50.9003C175.38 50.8145 177.096 49.9737 178.354 48.5303C179.61 47.0869 180.258 45.2163 180.175 43.2591C180.095 41.3042 179.295 39.4989 177.922 38.1776C171.561 32.0463 157.959 21.523 138.344 19.9039C121.842 18.5432 108.422 24.2155 99.774 29.5039C98.2419 28.8563 96.5967 28.5186 94.926 28.5257C87.8346 28.5558 82.0915 34.6465 82.1233 42.1035C82.155 49.5605 87.9496 55.6045 95.0411 55.5743C97.1362 55.5654 99.1145 55.0304 100.858 54.0926C95.4115 59.2446 91.1705 65.787 88.6375 73.2053C82.219 55.1141 65.6036 42.3934 46.3165 42.4754C21.5323 42.5809 1.45962 63.8687 1.57048 89.9303C1.68134 115.992 21.9344 137.108 46.7186 137.003C57.4479 136.957 67.3093 132.965 75.0283 126.311C72.7325 129.296 71.3609 133.096 71.3785 137.224C71.3796 137.479 71.3874 137.734 71.3997 137.991C71.2083 138.389 71.1068 138.828 71.1088 139.282C71.1093 139.411 71.1189 139.544 71.1374 139.676C71.1582 139.824 71.1813 139.973 71.2067 140.119C64.8939 143.738 58.1394 145.899 51.0954 146.538C30.1364 148.445 15.2151 135.951 11.1386 132.075C8.2864 129.367 3.87031 129.603 1.29611 132.598ZM137.928 25.5115C155.944 26.9981 168.455 36.6807 174.308 42.323C174.628 42.6309 174.814 43.0505 174.834 43.5038C174.854 43.9618 174.701 44.3946 174.408 44.7311C174.118 45.0653 173.719 45.2606 173.286 45.2814C172.852 45.3021 172.438 45.1433 172.12 44.8353C166.576 39.4916 154.729 30.3139 137.675 28.9082C124.682 27.8395 113.884 31.8029 106.437 35.9267C105.945 34.9111 105.335 33.9621 104.617 33.1032C112.581 28.6395 124.09 24.3708 137.928 25.5115ZM87.4699 42.0808C87.4514 37.7242 90.8069 34.1655 94.95 34.1479C96.2928 34.1422 97.608 34.5121 98.7586 35.2179C101.053 36.6226 102.485 39.2282 102.497 42.0169C102.498 42.1326 102.496 42.2459 102.492 42.3593C102.339 46.5985 99.0569 49.9325 95.0172 49.9497C90.8741 49.9673 87.4885 46.4374 87.4699 42.0808ZM130.771 47.6039C152.604 47.5111 170.446 66.1133 170.544 89.0722C170.641 112.033 152.958 130.792 131.125 130.884C110.086 130.974 92.6433 113.754 91.4131 91.6851C91.4059 91.5647 91.3919 91.4467 91.3734 91.3335L91.3577 87.6286C91.3729 87.5199 91.3859 87.4089 91.39 87.2955C92.3511 65.1279 109.649 47.6938 130.771 47.6039ZM6.9194 89.9075C6.82174 66.9487 24.5046 48.1929 46.3404 48.1C67.2646 48.011 84.6168 65.0239 86.0213 86.9098C86.0105 87.0091 86.0065 87.1106 86.0069 87.2145L86.0263 91.7671C86.0268 91.8851 86.0363 92.0032 86.0502 92.1165C84.8861 114.077 67.6727 131.289 46.6947 131.378C24.8589 131.471 7.01707 112.869 6.9194 89.9075ZM76.7274 137.201C76.7001 130.778 81.6473 125.532 87.7574 125.506C93.8653 125.48 98.8592 130.684 98.8866 137.107C98.9139 143.532 93.9644 148.778 87.8565 148.804C86.5227 148.81 85.2259 148.572 84.0113 148.103L83.9573 148.08C83.8988 148.054 83.8403 148.028 83.7819 148.005C83.4984 147.888 83.2017 147.825 82.9053 147.813C82.1942 147.483 81.5256 147.072 80.9083 146.605C80.8925 146.593 80.8767 146.581 80.8632 146.57C78.9595 145.114 77.536 143.051 76.823 140.669C76.8162 140.65 76.8116 140.629 76.8048 140.608C76.7478 140.412 76.6953 140.217 76.6473 140.018C76.7761 139.683 76.8442 139.321 76.8426 138.953C76.8421 138.839 76.8349 138.726 76.821 138.613C76.7604 138.105 76.7293 137.645 76.7274 137.201ZM7.55442 136.248C12.0345 140.508 28.4454 154.243 51.5594 152.142C59.059 151.461 66.2557 149.225 72.999 145.493C73.5265 146.499 74.1459 147.446 74.8502 148.319C67.6232 152.378 59.8996 154.803 51.8388 155.536C27.4364 157.758 10.1083 143.27 5.3802 138.777C4.918 138.34 4.84833 137.8 4.84713 137.519C4.84533 137.093 4.99181 136.687 5.26442 136.372C5.86329 135.675 6.89153 135.618 7.55442 136.248Z" fill="#4985FF"/>
</g>
<defs>
<clipPath id="clip0_128_8840">
<rect width="180" height="180" fill="white" transform="translate(179.998) rotate(89.7563)"/>
</clipPath>
</defs>
</svg>
