<svg width="180" height="149" viewBox="0 0 180 149" fill="none" xmlns="http://www.w3.org/2000/svg">
<path d="M42.0417 46.6487L70.3566 65.8669C71.0624 66.3256 71.9199 66.4892 72.745 66.3226C73.5701 66.1561 74.297 65.6726 74.7695 64.976C75.2421 64.2795 75.4227 63.4254 75.2725 62.5971C75.1223 61.7689 74.6533 61.0326 73.9663 60.5463L49.5705 43.9885L73.9664 27.4273C74.3184 27.1915 74.6203 26.8884 74.8547 26.5354C75.0892 26.1825 75.2515 25.7867 75.3324 25.3708C75.4133 24.9549 75.4112 24.5271 75.3261 24.1121C75.2411 23.697 75.0749 23.3028 74.8369 22.9522C74.599 22.6017 74.2941 22.3016 73.9398 22.0692C73.5855 21.8369 73.1887 21.6769 72.7724 21.5985C72.356 21.5201 71.9282 21.5248 71.5137 21.6122C71.0991 21.6997 70.706 21.8683 70.3568 22.1083L42.0419 41.3298C41.6122 41.6276 41.2611 42.0251 41.0186 42.4882C40.7761 42.9514 40.6494 43.4664 40.6494 43.9892C40.6494 44.512 40.776 45.027 41.0185 45.4902C41.261 45.9533 41.6121 46.3509 42.0417 46.6487Z" fill="#4985FF"/>
<path d="M105.175 65.0121C105.655 65.717 106.394 66.203 107.231 66.3634C108.068 66.5238 108.935 66.3454 109.641 65.8674L137.955 46.6492C138.385 46.3514 138.736 45.9539 138.979 45.4907C139.221 45.0275 139.348 44.5125 139.348 43.9897C139.348 43.4669 139.221 42.9519 138.979 42.4888C138.736 42.0256 138.385 41.6281 137.955 41.3303L109.641 22.1088C109.291 21.8718 108.899 21.7059 108.485 21.6206C108.072 21.5352 107.646 21.5322 107.231 21.6115C106.817 21.6909 106.422 21.8511 106.069 22.0831C105.717 22.315 105.413 22.6142 105.176 22.9634C104.939 23.3127 104.773 23.7052 104.688 24.1186C104.603 24.5319 104.599 24.9581 104.679 25.3726C104.758 25.7872 104.918 26.182 105.15 26.5347C105.382 26.8873 105.681 27.1908 106.031 27.4278L130.427 43.9889L106.031 60.5469C105.325 61.0257 104.839 61.7651 104.679 62.6024C104.518 63.4397 104.697 64.3065 105.175 65.0121Z" fill="#4985FF"/>
<path d="M77.7032 75.8723C78.4987 76.1779 79.383 76.1556 80.1621 75.8102C80.9412 75.4647 81.5515 74.8244 81.8592 74.0297L104.143 16.2605C104.449 15.465 104.428 14.5803 104.082 13.8009C103.737 13.0215 103.096 12.4113 102.3 12.1045C101.505 11.7977 100.62 11.8195 99.8405 12.165C99.0611 12.5106 98.4509 13.1516 98.1441 13.947L75.8606 71.7163C75.554 72.5118 75.5759 73.3964 75.9214 74.1758C76.267 74.9551 76.9078 75.5653 77.7032 75.8723Z" fill="#4985FF"/>
<path d="M163.929 0H16.0714C11.8106 0.00500197 7.72563 1.69984 4.71274 4.71274C1.69984 7.72563 0.00500197 11.8106 0 16.0714V93.2143C0.00501046 97.4752 1.69985 101.56 4.71275 104.573C7.72564 107.586 11.8106 109.281 16.0714 109.286H58.2071V142.442H22.3603C21.5168 142.456 20.7125 142.801 20.1208 143.402C19.5291 144.003 19.1975 144.813 19.1975 145.657C19.1976 146.5 19.5292 147.31 20.1209 147.912C20.7126 148.513 21.517 148.857 22.3605 148.871H157.64C158.481 148.854 159.282 148.508 159.871 147.907C160.46 147.306 160.79 146.498 160.79 145.657C160.79 144.815 160.46 144.007 159.871 143.406C159.282 142.805 158.481 142.459 157.639 142.442H121.793V109.286H163.929C168.189 109.281 172.274 107.586 175.287 104.573C178.3 101.56 179.995 97.4752 180 93.2143V16.0714C179.995 11.8106 178.3 7.72563 175.287 4.71274C172.274 1.69984 168.189 0.00500197 163.929 0ZM16.0714 6.42857H163.929C166.485 6.43136 168.936 7.4482 170.744 9.25598C172.552 11.0638 173.569 13.5148 173.571 16.0714V81.5452H6.42857V16.0714C6.43136 13.5148 7.4482 11.0638 9.25598 9.25598C11.0638 7.4482 13.5148 6.43136 16.0714 6.42857ZM115.364 142.442H64.6357V109.286H115.364V142.442ZM163.929 102.857C138.96 102.86 16.0714 102.857 16.0714 102.857C13.5148 102.854 11.0638 101.838 9.25598 100.03C7.4482 98.222 6.43136 95.7709 6.42857 93.2143V87.9738H173.571V93.2143C173.569 95.7709 172.552 98.222 170.744 100.03C168.936 101.838 166.485 102.854 163.929 102.857Z" fill="#4985FF"/>
<path d="M96.5522 92.2026H83.4471C82.6054 92.2191 81.8038 92.5649 81.2144 93.166C80.625 93.767 80.2949 94.5752 80.2949 95.417C80.2949 96.2588 80.6251 97.067 81.2146 97.668C81.804 98.269 82.6056 98.6148 83.4473 98.6312H96.5522C97.3938 98.6148 98.1954 98.2689 98.7848 97.6679C99.3742 97.0669 99.7044 96.2587 99.7044 95.4169C99.7044 94.5751 99.3742 93.7669 98.7848 93.1659C98.1954 92.5649 97.3938 92.219 96.5522 92.2026Z" fill="#4985FF"/>
</svg>
