<svg width="30" height="31" viewBox="0 0 30 31" fill="none" xmlns="http://www.w3.org/2000/svg">
<path d="M15 6.4981C17.4307 6.4981 19.7153 7.43911 21.4342 9.14738C23.1532 10.8557 24.0998 13.1276 24.0998 15.5443C24.0998 17.9609 23.1532 20.2322 21.4342 21.9412C19.7153 23.6502 17.4307 24.5905 15 24.5905C12.5693 24.5905 10.2847 23.6495 8.56575 21.9412C6.84675 20.2329 5.901 17.9609 5.901 15.5443C5.901 13.1276 6.8475 10.8564 8.56575 9.14738C10.2847 7.43911 12.5693 6.4981 15 6.4981ZM15 0.631348C6.7155 0.631348 0 7.30787 0 15.5443C0 23.7807 6.7155 30.4572 15 30.4572C23.2845 30.4572 30 23.7807 30 15.5443C30 7.30787 23.2845 0.631348 15 0.631348Z" fill="#4985FF"/>
<path d="M15.0002 10.4316C12.1599 10.4316 9.85742 12.7208 9.85742 15.5445C9.85742 18.3683 12.1599 20.6574 15.0002 20.6574C17.8404 20.6574 20.1429 18.3683 20.1429 15.5445C20.1429 12.7208 17.8404 10.4316 15.0002 10.4316Z" fill="#4B3BFF"/>
</svg>
