<svg width="180" height="180" viewBox="0 0 180 180" fill="none" xmlns="http://www.w3.org/2000/svg">
<path d="M156.576 69.1454C157.365 66.7095 157.768 64.137 157.768 61.5647C157.768 47.7655 146.575 36.5458 132.822 36.5458C130.361 36.5458 127.984 36.8937 125.613 37.6301C120.63 21.5316 105.727 10.4458 88.7224 10.4458C67.3568 10.4458 49.9602 27.8428 49.9602 49.2323C49.9602 51.6312 50.1887 54.0085 50.6264 56.3451C50.2416 56.3315 49.8311 56.3215 49.3899 56.3215C37.7497 56.3215 27.7692 64.2408 25.138 75.5596H25.138L25.137 75.5644C24.9329 76.4825 25.5061 77.4103 26.4126 77.6195L26.4166 77.6204C27.3347 77.8244 28.2624 77.2513 28.4717 76.3449C30.7297 66.576 39.3319 59.7782 49.3656 59.7782C50.7123 59.7782 51.7021 59.8506 52.4895 59.9895C53.0756 60.093 53.6505 59.8843 54.0489 59.4858L54.056 59.4788L54.0627 59.4714C54.4734 59.0265 54.6071 58.4406 54.4739 57.8745L54.474 57.8745L54.4716 57.8649C53.7525 55.0604 53.3926 52.1589 53.3926 49.2323C53.3926 29.7325 69.2474 13.8782 88.7224 13.8782C104.768 13.8782 118.798 24.7431 122.803 40.26L122.803 40.26L122.806 40.2724C122.941 40.7427 123.245 41.1131 123.643 41.3453L123.651 41.3496L123.658 41.3536C124.12 41.6023 124.639 41.5951 125.072 41.4287L125.074 41.428C127.644 40.4284 130.186 39.9539 132.822 39.9539C144.683 39.9539 154.336 49.6286 154.336 61.5404C154.336 64.4401 153.742 67.3608 152.581 69.9682C152.333 70.5043 152.412 71.1216 152.713 71.5891C153.021 72.0694 153.566 72.3775 154.153 72.3782C162.44 72.45 169.174 79.2322 169.174 87.5188C169.174 95.8291 162.416 102.586 154.106 102.586H146.639C145.681 102.586 144.922 103.345 144.922 104.303C144.922 105.26 145.681 106.019 146.639 106.019H154.106C164.307 106.019 172.606 97.7192 172.606 87.5188C172.606 78.2033 165.604 70.3989 156.576 69.1454Z" fill="#4985FF" stroke="#4985FF"/>
<path d="M106.249 104.278V99.2431C106.249 98.2858 105.49 97.5269 104.533 97.5269C103.576 97.5269 102.817 98.2858 102.817 99.2431V102.635H95.1927C94.2355 102.635 93.4765 103.394 93.4765 104.351C93.4765 105.308 94.2355 106.067 95.1927 106.067H102.816L102.769 125.695L96.1393 132.324C95.2103 131.795 94.1265 131.484 92.9792 131.484C89.4409 131.484 86.5684 134.386 86.5684 137.919C86.5684 141.454 89.4436 144.33 92.9792 144.33C96.5148 144.33 99.39 141.454 99.39 137.919C99.39 136.771 99.0787 135.688 98.5492 134.759L105.325 127.983C105.93 127.378 106.249 126.594 106.249 125.757V104.424V104.424V104.424V104.424V104.424V104.423V104.423V104.423V104.423V104.423V104.423V104.423V104.422V104.422V104.422V104.422V104.422V104.422V104.422V104.422V104.421V104.421V104.421V104.421V104.421V104.421V104.421V104.421V104.42V104.42V104.42V104.42V104.42V104.42V104.42V104.419V104.419V104.419V104.419V104.419V104.419V104.419V104.419V104.419V104.418V104.418V104.418V104.418V104.418V104.418V104.418V104.418V104.417V104.417V104.417V104.417V104.417V104.417V104.417V104.417V104.417V104.416V104.416V104.416V104.416V104.416V104.416V104.416V104.416V104.416V104.415V104.415V104.415V104.415V104.415V104.415V104.415V104.415V104.415V104.414V104.414V104.414V104.414V104.414V104.414V104.414V104.414V104.414V104.414V104.413V104.413V104.413V104.413V104.413V104.413V104.413V104.413V104.413V104.413V104.412V104.412V104.412V104.412V104.412V104.412V104.412V104.412V104.412V104.412V104.411V104.411V104.411V104.411V104.411V104.411V104.411V104.411V104.411V104.411V104.411V104.41V104.41V104.41V104.41V104.41V104.41V104.41V104.41V104.41V104.41V104.41V104.409V104.409V104.409V104.409V104.409V104.409V104.409V104.409V104.409V104.409V104.409V104.408V104.408V104.408V104.408V104.408V104.408V104.408V104.408V104.408V104.408V104.408V104.408V104.407V104.407V104.407V104.407V104.407V104.407V104.407V104.407V104.407V104.407V104.407V104.407V104.407V104.406V104.406V104.406V104.406V104.406V104.406V104.406V104.406V104.406V104.406V104.406V104.406V104.405V104.405V104.405V104.405V104.405V104.405V104.405V104.405V104.405V104.405V104.405V104.405V104.405V104.404V104.404V104.404V104.404V104.404V104.404V104.404V104.404V104.404V104.404V104.404V104.404V104.404V104.404V104.403V104.403V104.403V104.403V104.403V104.403V104.403V104.403V104.403V104.403V104.403V104.403V104.403V104.402V104.402V104.402V104.402V104.402V104.402V104.402V104.402V104.402V104.402V104.402V104.402V104.402V104.402V104.401V104.401V104.401V104.401V104.401V104.401V104.401V104.401V104.401V104.401V104.401V104.401V104.401V104.401V104.4V104.4V104.4V104.4V104.4V104.4V104.4V104.4V104.4V104.4V104.4V104.4V104.4V104.4V104.399V104.399V104.399V104.399V104.399V104.399V104.399V104.399V104.399V104.399V104.399V104.399V104.399V104.399V104.398V104.398V104.398V104.398V104.398V104.398V104.398V104.398V104.398V104.398V104.398V104.398V104.398V104.398V104.397V104.397V104.397V104.397V104.397V104.397V104.397V104.397V104.397V104.397V104.397V104.397V104.397V104.397V104.396V104.396V104.396V104.396V104.396V104.396V104.396V104.396V104.396V104.396V104.396V104.396V104.396V104.395V104.395V104.395V104.395V104.395V104.395V104.395V104.395V104.395V104.395V104.395V104.395V104.395V104.394V104.394V104.394V104.394V104.394V104.394V104.394V104.394V104.394V104.394V104.394V104.394V104.394V104.393V104.393V104.393V104.393V104.393V104.393V104.393V104.393V104.393V104.393V104.393V104.393V104.393V104.392V104.392V104.392V104.392V104.392V104.392V104.392V104.392V104.392V104.392V104.392V104.392V104.391V104.391V104.391V104.391V104.391V104.391V104.391V104.391V104.391V104.391V104.391V104.39V104.39V104.39V104.39V104.39V104.39V104.39V104.39V104.39V104.39V104.39V104.389V104.389V104.389V104.389V104.389V104.389V104.389V104.389V104.389V104.389V104.389V104.388V104.388V104.388V104.388V104.388V104.388V104.388V104.388V104.388V104.388V104.388V104.387V104.387V104.387V104.387V104.387V104.387V104.387V104.387V104.387V104.387V104.386V104.386V104.386V104.386V104.386V104.386V104.386V104.386V104.386V104.386V104.385V104.385V104.385V104.385V104.385V104.385V104.385V104.385V104.385V104.384V104.384V104.384V104.384V104.384V104.384V104.384V104.384V104.384V104.383V104.383V104.383V104.383V104.383V104.383V104.383V104.383V104.383V104.382V104.382V104.382V104.382V104.382V104.382V104.382V104.382V104.382V104.381V104.381V104.381V104.381V104.381V104.381V104.381V104.381V104.38V104.38V104.38V104.38V104.38V104.38V104.38V104.38V104.379V104.379V104.379V104.379V104.379V104.379V104.379V104.379V104.378V104.378V104.378V104.378V104.378V104.378V104.378V104.377V104.377V104.377V104.377V104.377V104.377V104.377V104.376V104.376V104.376V104.376V104.376V104.376V104.376V104.376V104.375V104.375V104.375V104.375V104.375V104.375V104.374V104.374V104.374V104.374V104.374V104.374V104.374V104.373V104.373V104.373V104.373V104.373V104.373V104.373V104.372V104.372V104.372V104.372V104.372V104.372V104.371V104.371V104.371V104.371V104.371V104.371V104.371V104.37V104.37V104.37V104.37V104.37V104.37V104.369V104.369V104.369V104.369V104.369V104.369V104.368V104.368V104.368V104.368V104.368V104.368V104.367V104.367V104.367V104.367V104.367V104.367V104.366V104.366V104.366V104.366V104.366V104.366V104.365V104.365V104.365V104.365V104.365V104.364V104.364V104.364V104.364V104.364V104.364V104.363V104.363V104.363V104.363V104.363V104.363V104.362V104.362V104.362V104.362V104.362V104.361V104.361V104.361V104.361V104.361V104.361V104.36V104.36V104.36V104.36V104.36V104.359V104.359V104.359V104.359V104.359V104.358V104.358V104.358V104.358V104.358V104.358V104.357V104.357V104.357V104.357V104.357V104.356V104.356V104.356V104.356V104.356V104.355V104.355V104.355V104.355V104.355V104.354V104.354V104.354V104.354V104.354V104.353V104.353V104.353V104.353V104.353V104.352V104.352V104.352V104.352V104.352V104.351V104.351V104.351V104.351V104.351V104.35V104.35V104.35V104.35V104.35V104.349V104.349V104.349V104.349V104.349V104.348V104.348V104.348V104.348V104.348V104.347V104.347V104.347V104.347V104.347V104.346V104.346V104.346V104.346V104.346V104.345V104.345V104.345V104.345V104.345V104.344V104.344V104.344V104.344V104.344V104.343V104.343V104.343V104.343V104.343V104.342V104.342V104.342V104.342V104.341V104.341V104.341V104.341V104.341V104.34V104.34V104.34V104.34V104.34V104.339V104.339V104.339V104.339V104.339V104.338V104.338V104.338V104.338V104.338V104.337V104.337V104.337V104.337V104.336V104.336V104.336V104.336V104.336V104.335V104.335V104.335V104.335V104.335V104.334V104.334V104.334V104.334V104.333V104.333V104.333V104.333V104.333V104.332V104.332V104.332V104.332V104.332V104.331V104.331V104.331V104.331V104.33V104.33V104.33V104.33V104.33V104.329V104.329V104.329V104.329V104.329V104.328V104.328V104.328V104.328V104.327V104.327V104.327V104.327V104.327V104.326V104.326V104.326V104.326V104.326V104.325V104.325V104.325V104.325V104.325V104.324V104.324V104.324V104.324V104.323V104.323V104.323V104.323V104.323V104.322V104.322V104.322V104.322V104.322V104.321V104.321V104.321V104.321V104.32V104.32V104.32V104.32V104.32V104.319V104.319V104.319V104.319V104.319V104.318V104.318V104.318V104.318V104.317V104.317V104.317V104.317V104.317V104.316V104.316V104.316V104.316V104.316V104.315V104.315V104.315V104.315V104.315V104.314V104.314V104.314V104.314V104.313V104.313V104.313V104.313V104.313V104.312V104.312V104.312V104.312V104.312V104.311V104.311V104.311V104.311V104.311V104.31V104.31V104.31V104.31V104.31V104.309V104.309V104.309V104.309V104.308V104.308V104.308V104.308V104.308V104.307V104.307V104.307V104.307V104.307V104.306V104.306V104.306V104.306V104.306V104.305V104.305V104.305V104.305V104.305V104.304V104.304V104.304V104.304V104.304V104.303V104.303V104.303V104.303V104.303V104.302V104.302V104.302V104.302V104.302V104.301V104.301V104.301V104.301V104.301V104.3V104.3V104.3V104.3V104.3V104.299V104.299V104.299V104.299V104.299V104.298V104.298V104.298V104.298V104.298V104.298V104.297V104.297V104.297V104.297V104.297V104.296V104.296V104.296V104.296V104.296V104.295V104.295V104.295V104.295V104.295V104.295V104.294V104.294V104.294V104.294V104.294V104.293V104.293V104.293V104.293V104.293V104.292V104.292V104.292V104.292V104.292V104.292V104.291V104.291V104.291V104.291V104.291V104.29V104.29V104.29V104.29V104.29V104.29V104.289V104.289V104.289V104.289V104.289V104.289V104.288V104.288V104.288V104.288V104.288V104.288V104.287V104.287V104.287V104.287V104.287V104.286V104.286V104.286V104.286V104.286V104.286V104.285V104.285V104.285V104.285V104.285V104.285V104.284V104.284V104.284V104.284V104.284V104.284V104.284V104.283V104.283V104.283V104.283V104.283V104.283V104.282V104.282V104.282V104.282V104.282V104.282V104.281V104.281V104.281V104.281V104.281V104.281V104.281V104.28V104.28V104.28V104.28V104.28V104.28V104.28V104.279V104.279V104.279V104.279V104.279V104.279V104.278V104.278V104.278ZM92.9548 140.873C91.3094 140.873 89.9765 139.54 89.9765 137.894C89.9765 136.244 91.3139 134.892 92.9548 134.892C93.7653 134.892 94.5154 135.224 95.058 135.767C95.5994 136.308 95.9332 137.058 95.9332 137.894C95.9332 139.54 94.6003 140.873 92.9548 140.873Z" fill="#4985FF" stroke="#4985FF"/>
<mask id="path-3-outside-1_128_8827" maskUnits="userSpaceOnUse" x="67.3613" y="34.0996" width="63" height="63" fill="black">
<rect fill="white" x="67.3613" y="34.0996" width="63" height="63"/>
<path d="M121.826 50.132C122.823 48.6726 122.629 46.7023 121.388 45.4618L118.469 42.5429C117.205 41.278 115.21 41.0834 113.751 42.105L111.732 43.5158C111.318 43.7834 110.832 43.832 110.442 43.5888C108.861 42.7374 107.183 42.032 105.505 41.5456C105.091 41.4239 104.775 41.0591 104.702 40.5726L104.264 38.1401C103.923 36.3888 102.415 35.0996 100.64 35.0996H96.5046C94.6559 35.0996 93.1965 36.4374 92.8316 38.432L92.4424 40.5726C92.3451 41.0347 92.0289 41.4239 91.6154 41.5212C89.937 42.0077 88.2829 42.7131 86.6532 43.5888C86.2884 43.8077 85.8019 43.7591 85.4127 43.4915L83.3694 42.0564C81.9343 41.0347 79.9397 41.205 78.6505 42.4699L75.7559 45.3888C74.4911 46.6293 74.2965 48.6483 75.3181 50.0834L76.7532 52.151C77.0208 52.5401 77.0451 53.0266 76.8262 53.4158C75.9748 54.9483 75.2938 56.6023 74.7586 58.3537C74.637 58.7672 74.2721 59.0834 73.8343 59.1807L71.3775 59.6185C69.6262 59.9347 68.3613 61.4672 68.3613 63.2185V67.3537C68.3613 69.1537 69.6262 70.6861 71.3775 70.978L73.81 71.5131C74.2478 71.5861 74.637 71.9023 74.7586 72.3158C74.9289 72.9726 75.1478 73.605 75.4154 74.2618C75.6586 74.8942 76.364 75.1861 76.9965 74.9428C77.6289 74.6996 77.9208 73.9942 77.6775 73.3618C77.4586 72.8023 77.264 72.2185 77.0938 71.6347C76.7046 70.3212 75.5613 69.3239 74.2235 69.105L71.7424 68.6428C71.1586 68.5455 70.7451 68.0347 70.7451 67.4023V63.2672C70.7451 62.6591 71.1586 62.1726 71.7667 62.051L74.2478 61.6131C75.6343 61.3456 76.7289 60.3726 77.0938 59.0591C77.5559 57.5023 78.1884 55.9942 78.9181 54.6564C79.5992 53.4645 79.5262 51.932 78.7235 50.8131L77.2884 48.7456C76.9478 48.2591 77.0208 47.578 77.4343 47.1645L80.3289 44.2456C80.7667 43.832 81.4478 43.7591 81.9343 44.0996L84.0019 45.5347C85.1694 46.3131 86.6775 46.4104 87.8208 45.7537C89.2559 44.9753 90.764 44.3428 92.2721 43.905C93.5857 43.5401 94.5586 42.4456 94.8262 41.0591L95.2154 38.8942C95.3613 38.0672 95.8478 37.5564 96.5046 37.5564H100.64C101.223 37.5564 101.759 38.0185 101.88 38.6023L102.318 41.0104C102.537 42.3969 103.534 43.5401 104.848 43.905C106.356 44.3428 107.864 44.9753 109.275 45.7293C110.442 46.4104 111.951 46.3131 113.142 45.5347L115.161 44.0996C115.648 43.7591 116.329 43.8077 116.767 44.2456L119.686 47.1645C120.099 47.578 120.172 48.2591 119.832 48.7456L118.421 50.7888C117.618 51.8834 117.496 53.3915 118.178 54.6564C118.907 55.9456 119.515 57.4293 120.026 59.0834C120.415 60.3726 121.534 61.3699 122.896 61.6374L125.353 62.0753C125.961 62.1969 126.375 62.6834 126.375 63.2915V67.4266C126.375 68.0347 125.961 68.5699 125.353 68.6672L122.896 69.1293C121.51 69.3483 120.391 70.3455 120.026 71.6591C119.564 73.2158 118.932 74.6996 118.202 76.0861C117.521 77.2537 117.594 78.7618 118.396 79.9537L119.832 81.9969C120.172 82.4834 120.123 83.1888 119.71 83.6023L116.791 86.5212C116.353 86.9591 115.696 87.0077 115.186 86.6428L113.118 85.2077C111.951 84.405 110.442 84.332 109.299 84.9888C107.815 85.7915 106.356 86.3996 104.823 86.8131C103.51 87.2266 102.513 88.3699 102.294 89.7077L101.856 92.1401C101.734 92.7483 101.223 93.1861 100.615 93.1861H96.4802C95.8721 93.1861 95.3613 92.7483 95.2397 92.1401L94.8019 89.7077C94.5586 88.3456 93.5857 87.251 92.2721 86.8374C91.3965 86.5942 90.5451 86.2537 89.6938 85.9131C89.0857 85.6455 88.3559 85.9374 88.1127 86.5699C87.8694 87.2023 88.137 87.9077 88.7694 88.151C89.8397 88.5888 90.7397 88.9293 91.5911 89.1726C92.0289 89.2942 92.3451 89.6834 92.4181 90.1456L92.8559 92.578C93.1721 94.3293 94.7046 95.6185 96.4802 95.6185H100.615C102.391 95.6185 103.923 94.3293 104.24 92.578L104.678 90.1212C104.751 89.6591 105.067 89.2699 105.48 89.1483C107.159 88.6861 108.764 88.0293 110.442 87.105C110.807 86.8861 111.294 86.9347 111.683 87.2023L113.702 88.6374C115.161 89.6834 117.156 89.5374 118.445 88.2482L121.364 85.305C122.605 84.0158 122.775 82.0456 121.753 80.5861L120.342 78.5672C120.075 78.1537 120.026 77.6672 120.269 77.278C121.121 75.7212 121.802 74.0672 122.313 72.3401C122.434 71.9266 122.799 71.6104 123.261 71.5374L125.718 71.0753C127.469 70.7834 128.759 69.251 128.759 67.451V63.3158C128.759 61.5645 127.494 60.032 125.742 59.7158L123.31 59.278C122.848 59.1807 122.459 58.8401 122.337 58.4266C121.802 56.6023 121.096 54.9483 120.294 53.5374C120.075 53.1239 120.099 52.6374 120.391 52.2483L121.826 50.132Z"/>
</mask>
<path d="M121.826 50.132C122.823 48.6726 122.629 46.7023 121.388 45.4618L118.469 42.5429C117.205 41.278 115.21 41.0834 113.751 42.105L111.732 43.5158C111.318 43.7834 110.832 43.832 110.442 43.5888C108.861 42.7374 107.183 42.032 105.505 41.5456C105.091 41.4239 104.775 41.0591 104.702 40.5726L104.264 38.1401C103.923 36.3888 102.415 35.0996 100.64 35.0996H96.5046C94.6559 35.0996 93.1965 36.4374 92.8316 38.432L92.4424 40.5726C92.3451 41.0347 92.0289 41.4239 91.6154 41.5212C89.937 42.0077 88.2829 42.7131 86.6532 43.5888C86.2884 43.8077 85.8019 43.7591 85.4127 43.4915L83.3694 42.0564C81.9343 41.0347 79.9397 41.205 78.6505 42.4699L75.7559 45.3888C74.4911 46.6293 74.2965 48.6483 75.3181 50.0834L76.7532 52.151C77.0208 52.5401 77.0451 53.0266 76.8262 53.4158C75.9748 54.9483 75.2938 56.6023 74.7586 58.3537C74.637 58.7672 74.2721 59.0834 73.8343 59.1807L71.3775 59.6185C69.6262 59.9347 68.3613 61.4672 68.3613 63.2185V67.3537C68.3613 69.1537 69.6262 70.6861 71.3775 70.978L73.81 71.5131C74.2478 71.5861 74.637 71.9023 74.7586 72.3158C74.9289 72.9726 75.1478 73.605 75.4154 74.2618C75.6586 74.8942 76.364 75.1861 76.9965 74.9428C77.6289 74.6996 77.9208 73.9942 77.6775 73.3618C77.4586 72.8023 77.264 72.2185 77.0938 71.6347C76.7046 70.3212 75.5613 69.3239 74.2235 69.105L71.7424 68.6428C71.1586 68.5455 70.7451 68.0347 70.7451 67.4023V63.2672C70.7451 62.6591 71.1586 62.1726 71.7667 62.051L74.2478 61.6131C75.6343 61.3456 76.7289 60.3726 77.0938 59.0591C77.5559 57.5023 78.1884 55.9942 78.9181 54.6564C79.5992 53.4645 79.5262 51.932 78.7235 50.8131L77.2884 48.7456C76.9478 48.2591 77.0208 47.578 77.4343 47.1645L80.3289 44.2456C80.7667 43.832 81.4478 43.7591 81.9343 44.0996L84.0019 45.5347C85.1694 46.3131 86.6775 46.4104 87.8208 45.7537C89.2559 44.9753 90.764 44.3428 92.2721 43.905C93.5857 43.5401 94.5586 42.4456 94.8262 41.0591L95.2154 38.8942C95.3613 38.0672 95.8478 37.5564 96.5046 37.5564H100.64C101.223 37.5564 101.759 38.0185 101.88 38.6023L102.318 41.0104C102.537 42.3969 103.534 43.5401 104.848 43.905C106.356 44.3428 107.864 44.9753 109.275 45.7293C110.442 46.4104 111.951 46.3131 113.142 45.5347L115.161 44.0996C115.648 43.7591 116.329 43.8077 116.767 44.2456L119.686 47.1645C120.099 47.578 120.172 48.2591 119.832 48.7456L118.421 50.7888C117.618 51.8834 117.496 53.3915 118.178 54.6564C118.907 55.9456 119.515 57.4293 120.026 59.0834C120.415 60.3726 121.534 61.3699 122.896 61.6374L125.353 62.0753C125.961 62.1969 126.375 62.6834 126.375 63.2915V67.4266C126.375 68.0347 125.961 68.5699 125.353 68.6672L122.896 69.1293C121.51 69.3483 120.391 70.3455 120.026 71.6591C119.564 73.2158 118.932 74.6996 118.202 76.0861C117.521 77.2537 117.594 78.7618 118.396 79.9537L119.832 81.9969C120.172 82.4834 120.123 83.1888 119.71 83.6023L116.791 86.5212C116.353 86.9591 115.696 87.0077 115.186 86.6428L113.118 85.2077C111.951 84.405 110.442 84.332 109.299 84.9888C107.815 85.7915 106.356 86.3996 104.823 86.8131C103.51 87.2266 102.513 88.3699 102.294 89.7077L101.856 92.1401C101.734 92.7483 101.223 93.1861 100.615 93.1861H96.4802C95.8721 93.1861 95.3613 92.7483 95.2397 92.1401L94.8019 89.7077C94.5586 88.3456 93.5857 87.251 92.2721 86.8374C91.3965 86.5942 90.5451 86.2537 89.6938 85.9131C89.0857 85.6455 88.3559 85.9374 88.1127 86.5699C87.8694 87.2023 88.137 87.9077 88.7694 88.151C89.8397 88.5888 90.7397 88.9293 91.5911 89.1726C92.0289 89.2942 92.3451 89.6834 92.4181 90.1456L92.8559 92.578C93.1721 94.3293 94.7046 95.6185 96.4802 95.6185H100.615C102.391 95.6185 103.923 94.3293 104.24 92.578L104.678 90.1212C104.751 89.6591 105.067 89.2699 105.48 89.1483C107.159 88.6861 108.764 88.0293 110.442 87.105C110.807 86.8861 111.294 86.9347 111.683 87.2023L113.702 88.6374C115.161 89.6834 117.156 89.5374 118.445 88.2482L121.364 85.305C122.605 84.0158 122.775 82.0456 121.753 80.5861L120.342 78.5672C120.075 78.1537 120.026 77.6672 120.269 77.278C121.121 75.7212 121.802 74.0672 122.313 72.3401C122.434 71.9266 122.799 71.6104 123.261 71.5374L125.718 71.0753C127.469 70.7834 128.759 69.251 128.759 67.451V63.3158C128.759 61.5645 127.494 60.032 125.742 59.7158L123.31 59.278C122.848 59.1807 122.459 58.8401 122.337 58.4266C121.802 56.6023 121.096 54.9483 120.294 53.5374C120.075 53.1239 120.099 52.6374 120.391 52.2483L121.826 50.132Z" fill="#4985FF"/>
<path d="M121.826 50.132C122.823 48.6726 122.629 46.7023 121.388 45.4618L118.469 42.5429C117.205 41.278 115.21 41.0834 113.751 42.105L111.732 43.5158C111.318 43.7834 110.832 43.832 110.442 43.5888C108.861 42.7374 107.183 42.032 105.505 41.5456C105.091 41.4239 104.775 41.0591 104.702 40.5726L104.264 38.1401C103.923 36.3888 102.415 35.0996 100.64 35.0996H96.5046C94.6559 35.0996 93.1965 36.4374 92.8316 38.432L92.4424 40.5726C92.3451 41.0347 92.0289 41.4239 91.6154 41.5212C89.937 42.0077 88.2829 42.7131 86.6532 43.5888C86.2884 43.8077 85.8019 43.7591 85.4127 43.4915L83.3694 42.0564C81.9343 41.0347 79.9397 41.205 78.6505 42.4699L75.7559 45.3888C74.4911 46.6293 74.2965 48.6483 75.3181 50.0834L76.7532 52.151C77.0208 52.5401 77.0451 53.0266 76.8262 53.4158C75.9748 54.9483 75.2938 56.6023 74.7586 58.3537C74.637 58.7672 74.2721 59.0834 73.8343 59.1807L71.3775 59.6185C69.6262 59.9347 68.3613 61.4672 68.3613 63.2185V67.3537C68.3613 69.1537 69.6262 70.6861 71.3775 70.978L73.81 71.5131C74.2478 71.5861 74.637 71.9023 74.7586 72.3158C74.9289 72.9726 75.1478 73.605 75.4154 74.2618C75.6586 74.8942 76.364 75.1861 76.9965 74.9428C77.6289 74.6996 77.9208 73.9942 77.6775 73.3618C77.4586 72.8023 77.264 72.2185 77.0938 71.6347C76.7046 70.3212 75.5613 69.3239 74.2235 69.105L71.7424 68.6428C71.1586 68.5455 70.7451 68.0347 70.7451 67.4023V63.2672C70.7451 62.6591 71.1586 62.1726 71.7667 62.051L74.2478 61.6131C75.6343 61.3456 76.7289 60.3726 77.0938 59.0591C77.5559 57.5023 78.1884 55.9942 78.9181 54.6564C79.5992 53.4645 79.5262 51.932 78.7235 50.8131L77.2884 48.7456C76.9478 48.2591 77.0208 47.578 77.4343 47.1645L80.3289 44.2456C80.7667 43.832 81.4478 43.7591 81.9343 44.0996L84.0019 45.5347C85.1694 46.3131 86.6775 46.4104 87.8208 45.7537C89.2559 44.9753 90.764 44.3428 92.2721 43.905C93.5857 43.5401 94.5586 42.4456 94.8262 41.0591L95.2154 38.8942C95.3613 38.0672 95.8478 37.5564 96.5046 37.5564H100.64C101.223 37.5564 101.759 38.0185 101.88 38.6023L102.318 41.0104C102.537 42.3969 103.534 43.5401 104.848 43.905C106.356 44.3428 107.864 44.9753 109.275 45.7293C110.442 46.4104 111.951 46.3131 113.142 45.5347L115.161 44.0996C115.648 43.7591 116.329 43.8077 116.767 44.2456L119.686 47.1645C120.099 47.578 120.172 48.2591 119.832 48.7456L118.421 50.7888C117.618 51.8834 117.496 53.3915 118.178 54.6564C118.907 55.9456 119.515 57.4293 120.026 59.0834C120.415 60.3726 121.534 61.3699 122.896 61.6374L125.353 62.0753C125.961 62.1969 126.375 62.6834 126.375 63.2915V67.4266C126.375 68.0347 125.961 68.5699 125.353 68.6672L122.896 69.1293C121.51 69.3483 120.391 70.3455 120.026 71.6591C119.564 73.2158 118.932 74.6996 118.202 76.0861C117.521 77.2537 117.594 78.7618 118.396 79.9537L119.832 81.9969C120.172 82.4834 120.123 83.1888 119.71 83.6023L116.791 86.5212C116.353 86.9591 115.696 87.0077 115.186 86.6428L113.118 85.2077C111.951 84.405 110.442 84.332 109.299 84.9888C107.815 85.7915 106.356 86.3996 104.823 86.8131C103.51 87.2266 102.513 88.3699 102.294 89.7077L101.856 92.1401C101.734 92.7483 101.223 93.1861 100.615 93.1861H96.4802C95.8721 93.1861 95.3613 92.7483 95.2397 92.1401L94.8019 89.7077C94.5586 88.3456 93.5857 87.251 92.2721 86.8374C91.3965 86.5942 90.5451 86.2537 89.6938 85.9131C89.0857 85.6455 88.3559 85.9374 88.1127 86.5699C87.8694 87.2023 88.137 87.9077 88.7694 88.151C89.8397 88.5888 90.7397 88.9293 91.5911 89.1726C92.0289 89.2942 92.3451 89.6834 92.4181 90.1456L92.8559 92.578C93.1721 94.3293 94.7046 95.6185 96.4802 95.6185H100.615C102.391 95.6185 103.923 94.3293 104.24 92.578L104.678 90.1212C104.751 89.6591 105.067 89.2699 105.48 89.1483C107.159 88.6861 108.764 88.0293 110.442 87.105C110.807 86.8861 111.294 86.9347 111.683 87.2023L113.702 88.6374C115.161 89.6834 117.156 89.5374 118.445 88.2482L121.364 85.305C122.605 84.0158 122.775 82.0456 121.753 80.5861L120.342 78.5672C120.075 78.1537 120.026 77.6672 120.269 77.278C121.121 75.7212 121.802 74.0672 122.313 72.3401C122.434 71.9266 122.799 71.6104 123.261 71.5374L125.718 71.0753C127.469 70.7834 128.759 69.251 128.759 67.451V63.3158C128.759 61.5645 127.494 60.032 125.742 59.7158L123.31 59.278C122.848 59.1807 122.459 58.8401 122.337 58.4266C121.802 56.6023 121.096 54.9483 120.294 53.5374C120.075 53.1239 120.099 52.6374 120.391 52.2483L121.826 50.132Z" stroke="#4985FF" stroke-width="2" mask="url(#path-3-outside-1_128_8827)"/>
<path d="M116.05 65.384C116.05 55.7186 108.189 47.8569 98.5233 47.8569C88.8809 47.8569 81.0449 55.72 81.0449 65.384C81.0449 75.024 88.8814 82.8867 98.5233 82.8867C108.188 82.8867 116.05 75.0254 116.05 65.384ZM84.4774 65.384C84.4774 57.6071 90.774 51.2894 98.5233 51.2894C106.299 51.2894 112.618 57.6088 112.618 65.384C112.618 73.1343 106.299 79.4542 98.5233 79.4542C90.7735 79.4542 84.4774 73.1359 84.4774 65.384Z" fill="#4985FF" stroke="#4985FF"/>
<path d="M92.2869 109.07C92.2869 87.4611 74.7198 69.894 53.1112 69.894C31.5026 69.894 13.9355 87.4611 13.9355 109.07C13.9355 122.342 20.6489 134.638 31.6418 141.839C30.376 143.014 29.5761 144.667 29.5761 146.529C29.5761 148.399 30.4015 150.071 31.6821 151.248C30.4015 152.425 29.5761 154.097 29.5761 155.967C29.5761 159.527 32.4513 162.402 36.0112 162.402H38.8204C40.4131 166.672 44.429 169.553 49.0977 169.553H57.1247C61.7934 169.553 65.8094 166.672 67.4021 162.402H70.1869C73.7468 162.402 76.622 159.527 76.622 155.967C76.622 154.097 75.7966 152.425 74.516 151.248C75.7966 150.071 76.622 148.399 76.622 146.529C76.622 144.668 75.8226 143.015 74.5576 141.84C85.5741 134.661 92.2869 122.365 92.2869 109.07ZM49.0977 166.121C46.3376 166.121 43.9015 164.67 42.5727 162.402H63.6314C62.3216 164.669 59.8864 166.121 57.1247 166.121H49.0977ZM73.1896 155.967C73.1896 157.612 71.8324 158.97 70.1869 158.97H36.0112C34.3657 158.97 33.0085 157.612 33.0085 155.967C33.0085 154.322 34.3657 152.964 36.0112 152.964H70.1869C71.8544 152.964 73.1896 154.319 73.1896 155.967ZM36.0112 149.532C34.3657 149.532 33.0085 148.175 33.0085 146.529C33.0085 144.884 34.3657 143.526 36.0112 143.526H70.1869C71.8324 143.526 73.1896 144.884 73.1896 146.529C73.1896 148.175 71.8324 149.532 70.1869 149.532H36.0112ZM44.1707 115.964H38.322C35.0955 115.964 32.4734 113.342 32.4734 110.116C32.4734 106.889 35.0955 104.267 38.322 104.267C41.5486 104.267 44.1707 106.889 44.1707 110.116V115.964ZM47.4328 140.094V119.226H58.7896V140.094H47.4328ZM88.8545 109.07C88.8545 121.969 81.9334 133.82 70.7439 140.149C70.7328 140.148 70.7216 140.146 70.7101 140.144C70.672 140.139 70.6309 140.133 70.5841 140.126C70.4678 140.11 70.3313 140.094 70.1869 140.094H62.0274V119.226H67.8761C72.8973 119.226 76.9626 115.133 76.9626 110.116C76.9626 105.095 72.8702 101.029 67.8761 101.029C62.8558 101.029 58.7896 105.122 58.7896 110.116V115.964H47.4328V110.116C47.4328 105.095 43.3405 101.029 38.3464 101.029C33.3504 101.029 29.2599 105.122 29.2599 110.14C29.2599 115.16 33.3522 119.226 38.3464 119.226H44.195V140.094H36.0355C35.8913 140.094 35.7547 140.11 35.6372 140.126C35.5997 140.131 35.5649 140.136 35.5317 140.141C35.5063 140.144 35.4819 140.148 35.4577 140.151C24.2899 133.798 17.368 121.945 17.368 109.07C17.368 89.3513 33.3928 73.3265 53.1112 73.3265C72.8297 73.3265 88.8545 89.3513 88.8545 109.07ZM62.0274 115.964V110.116C62.0274 106.889 64.6495 104.267 67.8761 104.267C71.1026 104.267 73.7247 106.889 73.7247 110.116C73.7247 113.342 71.1026 115.964 67.8761 115.964H62.0274Z" fill="#4985FF" stroke="#4985FF"/>
<path d="M154.445 120.659C153.297 120.659 152.234 120.97 151.311 121.498L144.608 114.726V84.7211C144.608 83.7639 143.849 83.0049 142.891 83.0049C141.934 83.0049 141.175 83.7639 141.175 84.7211V102.61H135.57C134.613 102.61 133.854 103.369 133.854 104.326C133.854 105.284 134.613 106.043 135.57 106.043H141.175V114.908C141.175 115.763 141.491 116.551 142.104 117.138L148.875 123.91C148.346 124.839 148.035 125.922 148.035 127.07C148.035 130.605 150.91 133.481 154.445 133.481C157.981 133.481 160.856 130.605 160.856 127.07C160.856 123.56 157.982 120.659 154.445 120.659ZM154.445 130.072C152.8 130.072 151.467 128.74 151.467 127.094C151.467 126.257 151.801 125.508 152.342 124.967C152.885 124.424 153.635 124.091 154.445 124.091C156.086 124.091 157.424 125.444 157.424 127.094C157.424 128.74 156.091 130.072 154.445 130.072Z" fill="#4985FF" stroke="#4985FF"/>
<path d="M142.309 131.775C141.161 131.775 140.097 132.087 139.174 132.615L132.471 125.843V84.7211C132.471 83.7639 131.712 83.0049 130.755 83.0049C129.798 83.0049 129.039 83.7639 129.039 84.7211V102.61H122.412C121.454 102.61 120.695 103.369 120.695 104.326C120.695 105.284 121.454 106.043 122.412 106.043H129.039V126.048C129.039 126.912 129.36 127.671 129.963 128.275L136.739 135.05C136.209 135.979 135.898 137.063 135.898 138.21C135.898 141.746 138.773 144.621 142.309 144.621C145.844 144.621 148.72 141.746 148.72 138.21C148.72 134.677 145.847 131.775 142.309 131.775ZM142.309 141.213C140.663 141.213 139.33 139.88 139.33 138.235C139.33 137.398 139.664 136.648 140.206 136.107C140.748 135.564 141.498 135.232 142.309 135.232C143.95 135.232 145.287 136.585 145.287 138.235C145.287 139.858 143.952 141.213 142.309 141.213Z" fill="#4985FF" stroke="#4985FF"/>
<path d="M123.957 141.592C123.957 138.603 121.968 136.112 119.263 135.361V94.8407C119.263 93.8835 118.504 93.1245 117.546 93.1245C116.589 93.1245 115.83 93.8835 115.83 94.8407V102.635H108.595C107.638 102.635 106.879 103.394 106.879 104.352C106.879 105.309 107.638 106.068 108.595 106.068H115.83V135.386C113.126 136.136 111.136 138.625 111.136 141.592C111.136 145.128 114.011 148.003 117.546 148.003C121.082 148.003 123.957 145.128 123.957 141.592ZM117.546 144.546C115.901 144.546 114.568 143.213 114.568 141.568C114.568 139.918 115.906 138.565 117.546 138.565C119.187 138.565 120.525 139.918 120.525 141.568C120.525 143.213 119.192 144.546 117.546 144.546Z" fill="#4985FF" stroke="#4985FF"/>
<path d="M58.2226 56.8744L58.2227 56.8748C58.4251 57.6509 59.1078 58.1729 59.874 58.1729L59.8832 58.1729C59.9815 58.173 60.1469 58.1731 60.3446 58.1005C61.2495 57.8497 61.7874 56.9311 61.5499 56.015L61.5497 56.0143C60.977 53.8189 60.6902 51.5262 60.6902 49.2324C60.6902 33.7701 73.2615 21.1756 88.7227 21.1756C89.6799 21.1756 90.4389 20.4166 90.4389 19.4594C90.4389 18.5022 89.6799 17.7432 88.7227 17.7432C71.3704 17.7432 57.2578 31.881 57.2578 49.2324C57.2578 51.8276 57.5791 54.3996 58.2226 56.8744Z" fill="#4985FF" stroke="#4985FF"/>
<path d="M132.822 47.2757C140.667 47.2757 147.038 53.6897 147.038 61.5649C147.038 62.5221 147.797 63.2811 148.754 63.2811C149.711 63.2811 150.47 62.5221 150.47 61.5649C150.47 51.8046 142.562 43.8433 132.822 43.8433C131.864 43.8433 131.105 44.6023 131.105 45.5595C131.105 46.5167 131.864 47.2757 132.822 47.2757Z" fill="#4985FF" stroke="#4985FF"/>
<path d="M162.036 87.5434C162.036 86.5861 161.277 85.8271 160.32 85.8271C159.363 85.8271 158.604 86.5861 158.604 87.5434C158.604 91.8159 155.106 95.3136 150.833 95.3136C149.876 95.3136 149.117 96.0726 149.117 97.0298C149.117 97.9871 149.876 98.7461 150.833 98.7461C157.02 98.7461 162.036 93.7303 162.036 87.5434Z" fill="#4985FF" stroke="#4985FF"/>
</svg>
