<svg width="79" height="86" viewBox="0 0 79 86" fill="none" xmlns="http://www.w3.org/2000/svg">
<path d="M57.429 27.9156C58.4606 27.9154 59.2997 28.83 59.2999 29.9538C59.3 31.0777 58.4611 31.9922 57.4295 31.9923C56.3985 31.9924 55.5593 31.0781 55.5592 29.9543C55.559 28.8304 56.398 27.9157 57.429 27.9156ZM57.4323 54.6505C58.4638 54.6503 59.303 55.5647 59.3031 56.6885C59.3032 57.8126 58.4643 58.7271 57.4328 58.7272C56.4018 58.7273 55.5626 57.813 55.5624 56.689C55.5623 55.5651 56.4013 54.6506 57.4323 54.6505ZM13.4269 48.1673L15.6072 49.2604C17.2003 50.0587 17.9724 52.0885 17.3648 53.8808L16.5299 56.3436C16.4047 56.7134 16.4881 57.1293 16.7443 57.408L21.8181 62.9362C22.0743 63.2151 22.4549 63.3069 22.7947 63.1695L25.0545 62.2594C26.6991 61.5962 28.5607 62.4376 29.2942 64.1732L30.2978 66.5495C30.4491 66.9078 30.7777 67.1375 31.1397 67.1374L38.3148 67.1364C38.6768 67.1363 39.0054 66.9067 39.157 66.5482L40.1593 64.172C40.8922 62.4364 42.7554 61.5952 44.399 62.257L46.6588 63.1667C47.0299 63.3154 47.4478 63.1925 47.6979 62.8584L51.5652 57.6998L53.8302 57.6995C54.244 59.4493 55.7001 60.7479 57.433 60.7477C59.4864 60.7474 61.1572 58.9264 61.1569 56.6883C61.1567 54.4505 59.4854 52.6297 57.432 52.63C55.6991 52.6302 54.2433 53.929 53.83 55.6791L51.1256 55.6794C50.8471 55.6794 50.5837 55.8156 50.4078 56.0504L46.6807 61.0219L45.0414 60.3618C42.4931 59.3364 39.6102 60.6395 38.475 63.3279L37.7207 65.116L31.7333 65.1169L30.9778 63.3285C29.8422 60.6399 26.9578 59.3377 24.4115 60.3643L22.709 61.0501L18.4748 56.4368L19.1038 54.581C20.0448 51.8046 18.8491 48.6615 16.3818 47.4248L14.741 46.6022L14.7403 40.0768L16.3812 39.2537C18.8478 38.0164 20.0423 34.873 19.101 32.097L18.4716 30.2411L22.7047 25.6269L24.4074 26.3126C26.9561 27.3376 29.8385 26.0352 30.9729 23.3465L31.728 21.5583L37.7154 21.5571L38.4706 23.3455C39.606 26.034 42.4897 27.3363 45.0372 26.31L46.6778 25.6491L50.4059 30.5958C50.582 30.8297 50.8451 30.965 51.1226 30.965L53.827 30.9647C54.2407 32.7145 55.6968 34.013 57.4298 34.0128C59.4831 34.0125 61.154 32.1915 61.1537 29.9536C61.1534 27.7156 59.4822 25.8949 57.4288 25.8952C55.6958 25.8954 54.2401 27.1943 53.8267 28.9442L51.5603 28.9445L47.6918 23.8111C47.441 23.4786 47.0247 23.3559 46.6539 23.5045L44.3944 24.415C42.7488 25.0782 40.8875 24.2366 40.1546 22.5008L39.1509 20.1245C38.9997 19.7658 38.671 19.5365 38.309 19.5366L31.1339 19.538C30.7719 19.538 30.4434 19.7674 30.2922 20.1261L29.2887 22.5021C28.5566 24.2381 26.6966 25.0791 25.0499 24.4174L22.7899 23.5074C22.4509 23.3711 22.0694 23.462 21.8133 23.741L16.7408 29.2704C16.4847 29.5492 16.4015 29.965 16.5268 30.3349L17.3622 32.7976C17.9703 34.5898 17.1987 36.6196 15.6062 37.4182L13.4257 38.5121C13.0968 38.6772 12.8862 39.0356 12.8863 39.4299L12.8872 47.2497C12.8873 47.644 13.0979 48.0024 13.4269 48.1673Z" fill="white"/>
<path d="M50.3772 35.0971C51.4081 35.0969 52.2474 36.0114 52.2476 37.1353C52.2477 38.2592 51.4086 39.1739 50.3777 39.174C49.3462 39.1741 48.5069 38.2596 48.5068 37.1358C48.5066 36.0119 49.3457 35.0972 50.3772 35.0971ZM50.3787 47.4978C51.4096 47.4977 52.2489 48.4121 52.2491 49.5359C52.2492 50.66 51.4101 51.5745 50.3792 51.5746C49.3477 51.5748 48.5084 50.6605 48.5083 49.5364C48.5081 48.4125 49.3472 47.498 50.3787 47.4978ZM42.7192 50.5467L46.776 50.5467C47.1899 52.2967 48.6465 53.5953 50.3795 53.5951C52.4328 53.5948 54.1032 51.7737 54.1029 49.5357C54.1026 47.2978 52.4319 45.4772 50.3785 45.4774C48.6455 45.4776 47.1894 46.7765 46.7759 48.5263L42.271 48.5263C41.9804 48.5264 41.7067 48.6748 41.5315 48.9276C40.0933 51.0019 37.9315 52.336 35.6002 52.5879C33.0222 52.8642 30.5079 51.8883 28.6928 49.9111C26.878 47.9335 25.982 45.19 26.2347 42.3854C26.6338 38.0105 29.8351 34.5224 33.8465 34.0916C36.853 33.7695 39.728 35.1332 41.5347 37.7444C41.5456 37.7603 41.5595 37.7724 41.5712 37.7873C41.5941 37.8169 41.6172 37.846 41.6431 37.8725C41.664 37.8938 41.6863 37.9123 41.7086 37.9311C41.7333 37.9523 41.7579 37.9726 41.7844 37.9908C41.8096 38.0078 41.8353 38.0221 41.8615 38.0364C41.889 38.0513 41.9163 38.0659 41.9451 38.078C41.9729 38.0894 42.0011 38.0978 42.0295 38.1065C42.0587 38.1152 42.0874 38.1239 42.1177 38.1295C42.1496 38.1354 42.1818 38.1377 42.2142 38.14C42.2347 38.1415 42.254 38.1466 42.2747 38.1466L46.7747 38.1461C47.1886 39.896 48.645 41.1946 50.378 41.1944C52.4313 41.1942 54.1017 39.373 54.1014 37.1351C54.1011 34.8972 52.4303 33.0763 50.377 33.0766C48.644 33.0768 47.1879 34.3758 46.7744 36.1258L42.7194 36.1263C40.7343 33.5072 37.8289 32.0236 34.7214 32.024C34.3711 32.024 34.0186 32.0428 33.6642 32.0811C28.7766 32.6058 24.8764 36.8552 24.3899 42.1865C24.0825 45.5967 25.1732 48.933 27.3823 51.3398C29.5911 53.7469 32.6523 54.9353 35.7824 54.5985C38.4735 54.3082 40.9766 52.8397 42.7192 50.5467Z" fill="white"/>
<path d="M61.39 41.296C62.4213 41.2959 63.2606 42.2102 63.2607 43.3342C63.2609 44.4581 62.4218 45.3728 61.3905 45.3729C60.3594 45.3731 59.5201 44.4586 59.5199 43.3347C59.5198 42.2106 60.3589 41.2961 61.39 41.296ZM34.788 46.9432C32.9646 46.9435 31.4811 45.3269 31.4809 43.3398C31.4807 41.3526 32.9637 39.7359 34.7871 39.7357C36.6102 39.7355 38.0936 41.3518 38.0938 43.339C38.094 45.3261 36.6111 46.943 34.788 46.9432ZM57.7875 42.3245L39.9516 42.3267C39.9205 42.3267 39.8912 42.3336 39.8608 42.3368C39.4251 39.7129 37.3182 37.7151 34.7869 37.7154C31.9414 37.7158 29.6268 40.2389 29.6271 43.34C29.6275 46.4412 31.9428 48.964 34.7882 48.9636C37.3207 48.9633 39.4277 46.9631 39.8615 44.3374C39.8916 44.3406 39.9209 44.3472 39.9518 44.3472L57.7877 44.345C58.2016 46.095 59.6577 47.3934 61.3907 47.3932C63.4441 47.393 65.1148 45.5718 65.1146 43.334C65.1143 41.0959 63.4431 39.2753 61.3897 39.2755C59.6567 39.2757 58.2009 40.5747 57.7875 42.3245Z" fill="white"/>
<path d="M36.1634 59.754C36.1635 60.64 35.5023 61.3608 34.6895 61.3609C33.8766 61.361 33.2153 60.6404 33.2152 59.7543C33.2151 58.8685 33.8762 58.1478 34.6891 58.1477C35.5019 58.1476 36.1633 58.8681 36.1634 59.754ZM31.3613 59.7546C31.3616 61.7546 32.8548 63.3815 34.6897 63.3813C36.5245 63.381 38.0174 61.7538 38.0171 59.7537C38.0169 57.7539 36.5236 56.127 34.6888 56.1272C32.854 56.1274 31.3611 57.7547 31.3613 59.7546Z" fill="white"/>
<path d="M19.6834 44.9586C18.8706 44.9587 18.2093 44.238 18.2092 43.3522C18.2091 42.4663 18.8702 41.7456 19.683 41.7455C20.496 41.7454 21.1573 42.4659 21.1575 43.3518C21.1576 44.2377 20.4964 44.9585 19.6834 44.9586ZM19.6828 39.725C17.848 39.7253 16.3551 41.3525 16.3554 43.3524C16.3556 45.3524 17.8489 46.9791 19.6837 46.9789C21.5185 46.9787 23.0115 45.3516 23.0113 43.3516C23.011 41.3517 21.5177 39.7248 19.6828 39.725Z" fill="white"/>
<path d="M33.3107 26.9215C33.3106 26.0356 33.9718 25.3149 34.7846 25.3148C35.5976 25.3147 36.2589 26.0352 36.259 26.9212C36.2591 27.807 35.598 28.5277 34.785 28.5278C33.9722 28.5279 33.3109 27.8074 33.3107 26.9215ZM38.1128 26.9209C38.1126 24.9211 36.6192 23.2943 34.7843 23.2946C32.9495 23.2948 31.4566 24.9219 31.4569 26.9218C31.4571 28.9216 32.9504 30.5485 34.7852 30.5483C36.62 30.548 38.1131 28.9208 38.1128 26.9209Z" fill="white"/>
</svg>
