<svg width="649" height="599" viewBox="0 0 649 599" fill="none" xmlns="http://www.w3.org/2000/svg">
<path fill-rule="evenodd" clip-rule="evenodd" d="M335.968 0.905344L333.468 1.70634L335.968 1.79034C337.343 1.83634 339.143 1.43834 339.968 0.905344C341.301 0.0433445 341.301 -0.05465 339.968 0.02035C339.143 0.06635 337.343 0.465344 335.968 0.905344ZM230.153 1.58935C229.43 1.87835 228.406 3.25335 227.877 4.64535C225.65 10.5023 233.815 14.8173 237.411 9.68234C239.469 6.74534 239.375 5.31234 236.968 2.90534C235.016 0.953344 232.808 0.52735 230.153 1.58935ZM317.968 1.90534C316.675 2.74034 316.702 2.87635 318.159 2.89035C319.089 2.89835 320.128 2.45534 320.468 1.90534C321.25 0.639344 319.926 0.639344 317.968 1.90534ZM353.718 1.61134C354.955 1.84934 356.981 1.84934 358.218 1.61134C359.455 1.37234 358.443 1.17735 355.968 1.17735C353.493 1.17735 352.481 1.37234 353.718 1.61134ZM375.218 2.59434C376.18 2.84634 377.756 2.84634 378.718 2.59434C379.68 2.34334 378.893 2.13734 376.968 2.13734C375.043 2.13734 374.256 2.34334 375.218 2.59434ZM300.468 3.90534C297.482 4.66534 297.486 4.66935 301.218 4.78735C303.281 4.85235 304.968 4.45534 304.968 3.90534C304.968 2.80334 304.798 2.80334 300.468 3.90534ZM394.218 4.59434C395.18 4.84634 396.756 4.84634 397.718 4.59434C398.68 4.34334 397.893 4.13734 395.968 4.13734C394.043 4.13734 393.256 4.34334 394.218 4.59434ZM279.557 7.76135C279.266 8.23135 280.14 8.40434 281.498 8.14434C282.857 7.88434 283.968 7.49934 283.968 7.28834C283.968 6.51534 280.069 6.93235 279.557 7.76135ZM410.051 7.27235C410.281 7.47435 412.268 7.91434 414.468 8.24934C417.256 8.67334 417.862 8.58334 416.468 7.95234C414.548 7.08234 409.192 6.51535 410.051 7.27235ZM261.468 12.9053C258.92 14.0003 261.549 14.0003 264.968 12.9053C266.978 12.2613 267.076 12.0993 265.468 12.0753C264.368 12.0593 262.568 12.4323 261.468 12.9053ZM446.629 16.9593C447.131 19.4693 446.8 19.9683 443.833 21.1803L440.468 22.5543L443.468 23.9863C445.746 25.0743 446.543 26.1993 446.781 28.6623C447.173 32.7133 448.353 32.8033 449.968 28.9053C450.838 26.8043 451.898 25.9053 453.506 25.9053C454.768 25.9053 455.951 26.2874 456.135 26.7534C456.318 27.2194 457.761 26.8093 459.341 25.8423L462.214 24.0843L458.991 22.4173C456.179 20.9633 455.817 20.3284 456.153 17.4474C456.521 14.2984 456.429 14.1943 454.183 15.2173C452.5 15.9843 451.003 15.9793 448.943 15.2023C446.13 14.1403 446.074 14.1833 446.629 16.9593ZM229.168 18.1053C228.254 19.0193 227.968 38.7054 227.968 100.605C227.968 187.685 228.125 185.121 223.155 179.405C221.737 177.775 219.935 176.905 217.975 176.905H214.968L214.954 139.655C214.947 119.167 214.668 101.388 214.335 100.144C213.611 97.4424 209.573 96.1584 207.42 97.9454C206.099 99.0424 205.936 104.059 206.183 136.11L206.468 173.012L202.956 168.893C199.709 165.083 199.234 164.853 196.641 165.839C192.513 167.409 192.283 167.274 191.578 162.868C191.223 160.647 190.323 157.061 189.578 154.899C188.286 151.148 188.332 150.896 190.596 149.413C192.312 148.289 192.968 146.931 192.968 144.504C192.968 140.335 191.074 138.675 186.79 139.087C184.333 139.323 183.145 140.112 182.17 142.155C181.449 143.667 180.19 144.905 179.373 144.905C178.556 144.905 176.668 145.784 175.178 146.858C173.687 147.932 171.23 149.106 169.718 149.466L166.968 150.122V94.5494C166.968 39.6554 166.943 38.9623 164.93 37.8853C163.809 37.2853 162.015 37.0733 160.942 37.4133C159.06 38.0113 158.983 39.3513 158.73 75.7193L158.468 113.405L155.968 109.172C152.907 103.989 151.949 103.577 146.961 105.295L143.028 106.651L142.748 94.6354C142.511 84.4704 142.198 82.4493 140.718 81.5173C139.443 80.7143 138.493 80.7154 137.218 81.5194C135.573 82.5574 135.453 88.7603 135.213 185.304L134.959 287.986L126.713 287.695L118.468 287.405L118.201 262.714L117.933 238.023L115.443 236.064L112.953 234.106L115.926 233.07C120.971 231.311 121.308 224.292 116.453 222.08C113.398 220.688 108.986 222.119 108.305 224.723C108.047 225.709 106.55 227.002 104.977 227.596C102.875 228.389 101.797 229.744 100.909 232.708C99.673 236.834 98.096 237.863 92.968 237.892L90.468 237.906L90.79 162.475C91.02 108.655 90.795 86.4513 90.005 84.9743C88.59 82.3303 84.39 82.2493 83.003 84.8393C82.315 86.1263 81.968 113.353 81.968 166.173C81.968 209.842 81.733 245.807 81.446 246.094C81.159 246.381 79.115 246.133 76.903 245.542C72.021 244.239 70.265 245.113 67.468 250.236C66.067 252.802 64.782 253.9 63.179 253.902L60.891 253.905L61.285 233.155C61.501 221.742 62.009 211.015 62.413 209.316C63.31 205.544 61.131 202.898 57.147 202.92C51.444 202.953 51.527 202.52 51.849 230.574C52.134 255.384 52.583 259.28 55.368 261.14C55.973 261.544 59.243 261.881 62.634 261.89C68.594 261.904 68.901 261.777 71.831 258.078C74.799 254.331 74.968 254.264 79.87 254.892C86.001 255.679 87.126 255.099 89.447 249.952L91.2719 245.905H97.585C102.874 245.905 104.071 245.581 104.968 243.905C105.557 242.805 106.629 241.905 107.35 241.905C108.376 241.905 108.815 247.148 109.368 266.004C109.812 281.132 110.5 290.784 111.217 291.933C113.111 294.965 116.614 295.905 126.015 295.905H134.968V304.405V312.905L87.218 312.873C46.208 312.846 39.186 312.628 37.468 311.331C35.528 309.866 35.453 308.346 34.968 260.721C34.506 215.366 34.335 211.538 32.718 210.518C31.442 209.714 30.494 209.714 29.218 210.519C27.589 211.547 27.468 215.092 27.468 261.614C27.468 316.742 27.286 315.084 33.781 319.099C37.082 321.138 38.597 321.237 71.344 321.553C90.112 321.734 117.506 321.887 132.218 321.893L158.968 321.905V332.405V342.905L109.218 342.92C81.855 342.929 58.985 343.266 58.395 343.67C56.423 345.021 56.024 347.818 57.582 349.376C58.869 350.663 62.902 350.905 83.039 350.905H106.968V357.955C106.968 371.477 110.423 374.044 129.663 374.817C131.554 374.893 131.904 375.564 132.188 379.655C132.51 384.297 132.545 384.342 133.718 381.655C135.139 378.399 136.498 378.159 137.968 380.905C139.664 384.074 140.553 383.246 140.137 378.885L139.754 374.865L161.006 375.135L182.258 375.405L182.265 379.405C182.268 381.605 182.203 384.418 182.12 385.655L181.968 387.905H135.437C96.122 387.905 88.821 387.684 88.359 386.482C86.711 382.186 79.968 384.936 79.968 389.905C79.968 395.872 79.56 395.825 133.503 396.129L182.468 396.405V404.905V413.405L137.734 413.665L93.001 413.926L92.337 416.571C90.986 421.953 90.463 421.905 150.543 421.905H205.735L206.205 428.155C206.463 431.593 207.014 435.193 207.428 436.155C208.129 437.783 206.993 437.905 191.182 437.905C176.645 437.905 174.095 438.133 173.579 439.477C173.247 440.342 173.401 441.846 173.922 442.82C174.733 444.335 176.926 444.684 189.169 445.244C197.033 445.603 214.605 445.899 228.218 445.901C251.637 445.905 253.076 445.797 254.968 443.905C256.951 441.922 256.968 440.572 256.968 288.605C256.968 170.705 256.691 135.028 255.768 134.105C254.159 132.496 251.476 132.588 250.054 134.301C249.192 135.34 248.909 162.175 248.949 239.301L249.003 342.905H242.533H236.063L236.317 182.155C236.456 93.7423 236.221 20.3933 235.794 19.1553C234.935 16.6673 231.198 16.0753 229.168 18.1053ZM158.504 24.8654C154.522 29.2654 160.568 35.7083 165.591 32.4163C168.196 30.7103 168.838 26.1753 166.768 24.1053C164.931 22.2683 160.485 22.6774 158.504 24.8654ZM473.833 26.4443C475.683 27.2483 477.483 27.8893 477.833 27.8703C479.134 27.7973 473.409 24.9763 471.968 24.9803C471.143 24.9823 471.982 25.6413 473.833 26.4443ZM209.718 28.4774C208.206 29.2984 206.968 30.1563 206.968 30.3853C206.968 31.1033 212.943 28.7543 213.529 27.8073C214.332 26.5073 212.878 26.7624 209.718 28.4774ZM269.539 28.4763C266.116 31.9003 268.663 37.9053 273.539 37.9053C276.244 37.9053 279.968 34.7193 279.968 32.4053C279.968 30.0913 276.244 26.9053 273.539 26.9053C272.204 26.9053 270.404 27.6123 269.539 28.4763ZM486.432 32.8473C486.725 33.3203 488.331 34.1843 490 34.7663C491.67 35.3493 492.797 35.4373 492.504 34.9633C492.211 34.4903 490.605 33.6264 488.936 33.0444C487.266 32.4614 486.139 32.3733 486.432 32.8473ZM192.718 37.4774C188.841 39.5804 189.28 40.3063 193.218 38.3043C196.988 36.3863 197.655 35.8903 196.385 35.9453C195.881 35.9673 194.23 36.6564 192.718 37.4774ZM417.468 41.0083C409.831 42.1173 398.489 45.5163 393.968 48.0513C392.043 49.1313 388.372 52.8333 385.811 56.2793C381.499 62.0783 380.497 62.8163 372.311 66.2093C346.037 77.1023 320.258 98.2593 303.531 122.655C299.289 128.843 295.627 133.905 295.393 133.905C295.159 133.905 294.968 122.691 294.968 108.984V84.0643L297.884 83.4233C300.699 82.8053 302.466 80.7363 301.232 79.5033C300.904 79.1743 299.365 78.9053 297.813 78.9053C295.737 78.9053 295.03 78.4433 295.138 77.1553C295.219 76.1933 295.214 73.4833 295.126 71.1343C294.997 67.6413 294.517 66.6573 292.498 65.7373C290.609 64.8763 289.667 64.9103 288.498 65.8803C287.17 66.9823 286.968 72.5954 286.968 108.372C286.968 148.325 286.906 149.651 284.968 151.405C282.381 153.746 282.34 158.499 284.896 159.866C289.026 162.077 293.711 156.988 291.909 152.249C290.886 149.558 290.905 149.538 292.838 151.287C295.116 153.349 293.947 154.71 303.47 138.905C320.809 110.127 344.292 88.5593 372.788 75.2403C379.212 72.2383 385.536 69.2533 386.842 68.6073C388.148 67.9623 390.588 65.0053 392.263 62.0363C394.751 57.6273 396.241 56.2173 400.389 54.3403C409.052 50.4203 420.16 48.5553 434.968 48.5343C448.32 48.5163 448.535 48.5513 454.608 51.7913C457.986 53.5933 461.949 56.3194 463.415 57.8504L466.081 60.6333L448.275 61.1893C428.375 61.8113 420.686 63.2933 405.468 69.4413C384.405 77.9513 364.247 91.3913 344.46 110.117C309.281 143.411 290.873 190.208 293.386 239.954C294.109 254.269 296.054 263.359 302.025 280.342C306.218 292.268 306.22 292.281 304.436 295.595C302.981 298.296 302.863 299.379 303.8 301.436C304.433 302.825 305.517 304.18 306.209 304.447C307.206 304.831 307.453 320.085 307.397 377.669C307.359 417.674 307.246 460.193 307.147 472.155L306.968 493.905H304.093C302.512 493.905 299.812 493.624 298.093 493.28L294.968 492.655V387.351C294.968 291.491 294.822 281.902 293.343 280.423C292.45 279.53 290.762 278.935 289.593 279.102L287.468 279.405L287.213 370.155L286.957 460.905L281.213 460.906H275.468L275.747 430.696C275.944 409.476 276.365 400.278 277.164 399.784C278.773 398.79 278.578 393.11 276.885 391.637C275.681 390.59 275.514 379.262 275.771 316.336L276.074 242.267L278.88 242.679C280.969 242.985 282.61 242.28 285.296 239.921C290.052 235.746 290.967 231.257 288.03 226.506C285.831 222.947 280.254 220.197 277.432 221.28C276.169 221.765 275.945 210.123 275.723 132.23C275.484 48.1384 275.36 42.5553 273.718 41.5193C272.442 40.7143 271.494 40.7143 270.218 41.5193C268.562 42.5643 268.454 53.8274 268.216 251.755L267.963 460.887L214.824 461.146C165.468 461.387 161.607 461.53 160.582 463.155C159.777 464.431 159.777 465.379 160.581 466.655C161.603 468.275 165.658 468.445 215.076 468.944C244.442 469.241 268.58 469.578 268.718 469.694C268.855 469.81 268.915 470.242 268.85 470.655C268.784 471.068 268.784 472.867 268.85 474.655C268.949 477.383 269.352 477.905 271.361 477.905C272.677 477.905 274.027 477.193 274.361 476.323C275.379 473.67 275.04 470.101 273.718 469.567C273.031 469.29 275.73 469.027 279.718 468.984L286.968 468.905L286.983 483.155C286.992 490.992 287.329 497.9 287.733 498.505C289.638 501.359 293.338 501.905 310.747 501.905C326.603 501.905 328.819 501.704 330.063 500.155C331.232 498.699 331.419 490.98 331.178 454.155C330.896 411.054 330.838 409.905 328.939 409.905C327.042 409.905 326.983 411.022 326.729 451.655L326.468 493.405H318.968H311.468L311.213 398.984C310.961 305.604 310.98 304.543 312.963 302.695C315.48 300.35 315.503 298.481 313.042 296.188C311.342 294.605 311.246 293.904 312.226 290.234C313.239 286.437 312.959 284.917 309.021 272.834C300.837 247.728 299.652 233.577 303.453 206.387C305.697 190.338 312.6 170.443 315.533 171.568C317.607 172.364 320.968 169.097 320.968 166.285C320.968 164.999 320.082 163.501 318.969 162.905C316.99 161.847 316.995 161.786 319.367 157.12C323.298 149.39 333.252 134.918 340.149 126.905C352.876 112.12 377.02 92.8524 393.729 84.1484C404.919 78.3184 420.536 72.6773 429.968 71.0573C437.92 69.6913 455.346 69.0533 463.468 69.8313L469.468 70.4053L464.468 73.5723C457.705 77.8563 455.968 79.5523 455.968 81.8703C455.968 84.3333 458.833 85.9123 461.468 84.9013C462.568 84.4783 467.051 81.3793 471.43 78.0123C479.324 71.9453 479.435 71.8983 484.43 72.5433C494.018 73.7813 494.013 73.8203 483.361 81.9553C466.089 95.1443 463.912 95.9743 454.187 93.0853C444.362 90.1653 441.122 89.6013 434.688 89.6903C424.144 89.8363 417.083 93.1433 400.95 105.494C390.755 113.298 383.821 118.897 358.885 139.459C350.018 146.771 332.633 164.796 326.145 173.405C319.508 182.211 310.866 199.669 307.333 211.405C304.984 219.209 304.617 222.199 304.574 233.905C304.501 253.516 308.044 265.968 321.189 292.298C325.649 301.232 328.697 308.457 328.15 308.798C327.615 309.132 327.017 315.368 326.822 322.655L326.468 335.906L328.774 335.905C331.078 335.905 331.079 335.901 330.774 322.903C330.606 315.752 330.515 309.902 330.573 309.903C330.631 309.904 332.649 312.718 335.057 316.155C337.466 319.593 341.019 324.158 342.952 326.3C346.028 329.707 346.531 331.01 346.968 336.721C347.447 342.968 349.057 345.721 350.315 342.443C350.642 341.592 350.972 336.641 351.05 331.44C351.19 322.073 351.16 321.947 347.83 318.032C342.99 312.342 332.453 295.172 325.967 282.405C312.302 255.512 309.533 232.588 317.243 210.187C325.369 186.578 339.724 167.204 365.947 144.456C379.366 132.815 410.5 108.016 416.511 104.18C427.424 97.2163 436.178 96.2483 450.042 100.472C464.13 104.765 469.63 103.163 485.968 90.0093C491.193 85.8023 497.121 81.1363 499.141 79.6403L502.813 76.9213L506.927 78.6683L511.041 80.4163L499.36 89.4103C492.935 94.3573 484.256 101.271 480.073 104.774C471.673 111.809 466.054 114.85 461.394 114.883C459.704 114.895 454.529 113.76 449.894 112.361C439.401 109.193 433.375 109.633 423.449 114.292C416.855 117.387 401.438 128.961 392.468 137.55C390.268 139.657 388.018 141.412 387.468 141.452C384.36 141.675 381.895 143.349 381.323 145.626C380.503 148.894 381.83 151.026 385.43 152.226C387.947 153.065 388.583 152.786 391.359 149.623C395.371 145.052 411.66 131.486 419.807 125.931C430.924 118.35 437.246 117.341 450.637 121.015C464.781 124.895 470.567 122.941 488.718 108.154C495.18 102.889 504.606 95.5004 509.664 91.7344L518.861 84.8863L522.414 86.5813C524.369 87.5133 525.944 88.5303 525.916 88.8403C525.855 89.4933 478.213 126.75 472.968 130.246C465.389 135.298 460.266 135.932 451.468 132.905C444.453 130.491 434.811 130.303 428.469 132.456C421.452 134.839 413.571 139.859 400.814 150.074C394.404 155.206 385.404 162.096 380.814 165.385C366.748 175.463 343.651 194.291 339.612 198.971C337.508 201.41 333.914 207.355 331.627 212.183C327.936 219.974 327.217 220.9 325.233 220.418C322.868 219.843 318.968 222.809 318.968 225.182C318.968 227.186 321.929 230.905 323.525 230.905C324.689 230.905 324.968 232.901 324.968 241.245C324.968 258.488 328.374 268.258 345.417 299.905C356.97 321.358 366.757 337.794 371.162 343.141C374.895 347.673 375.051 348.149 374.766 354.141L374.468 360.405L369.54 355.124C362.753 347.849 361.625 346.054 361.006 341.539C360.524 338.022 357.857 334.682 356.564 335.975C356.048 336.491 355.567 345.517 355.823 349.879C355.925 351.621 359.264 355.541 367.109 363.129C373.237 369.056 378.829 373.905 379.538 373.905C380.246 373.905 381.576 373.155 382.493 372.237C383.915 370.815 384.109 368.695 383.814 357.834C383.471 345.223 383.436 345.057 380.19 340.752C367.929 324.492 340.143 273.976 335.995 260.405C331.328 245.134 332.792 228.12 340.002 213.837C345.175 203.59 349.382 199.85 397.968 162.302C418.118 146.731 424.833 142.32 431.325 140.391C437.979 138.416 441.549 138.516 449.129 140.892C457.755 143.596 465.196 143.481 471.468 140.545C474.218 139.258 488.168 129.018 502.468 117.789C516.768 106.561 529.769 96.4404 531.358 95.2994L534.249 93.2253L538.1 95.3153C540.218 96.4643 541.946 97.6303 541.939 97.9053C541.933 98.1803 537.549 101.554 532.198 105.403C517.471 115.994 494.765 133.224 482.567 143.063C476.571 147.899 469.689 152.61 467.273 153.533C463.061 155.141 462.426 155.116 451.869 152.929C432.785 148.976 430.16 150.006 400.996 172.905C370.865 196.562 363.272 202.796 359.289 207.144C351.091 216.093 347.776 226.012 347.714 241.776C347.66 255.399 349.405 262.15 356.921 277.405C363.571 290.901 384.725 329.328 388.803 335.32L391.468 339.236L391.223 391.955C390.982 443.891 391.008 444.682 392.973 445.196C394.928 445.707 394.968 445.202 394.97 420.061C394.97 405.95 395.424 385.18 395.978 373.905C396.532 362.63 397.094 349.13 397.227 343.905L397.468 334.405L386.864 315.405C360.373 267.94 358.21 263.308 355.85 249.022C353.883 237.111 357.412 222.568 364.533 213.231C365.9 211.438 373.776 204.669 382.036 198.188C433.321 157.946 431.154 159.367 440.968 159.538C444.543 159.6 449.268 160.156 451.468 160.773C457.626 162.499 467.853 162.141 472.468 160.038C474.668 159.036 484.343 151.972 493.968 144.341C513.774 128.639 546.516 104.889 548.291 104.937C549.597 104.972 554.768 109.261 555.196 110.664C555.581 111.928 527.244 130.905 524.972 130.905C521.286 130.905 518.315 132.852 507.468 142.376C501.418 147.688 495.269 152.755 493.803 153.635C492.338 154.515 490.66 156.286 490.075 157.57C489.218 159.451 488.232 159.905 485.003 159.905C481.519 159.905 480.323 160.573 475.868 165.005C467.173 173.654 460.336 175.521 449.208 172.287C438.25 169.101 426.929 172.473 416.449 182.046C413.159 185.05 403.628 193.244 395.267 200.254C378.525 214.292 376.122 216.792 372.163 224.298C369.62 229.117 369.469 230.166 369.478 242.905C369.487 255.92 369.607 256.693 372.815 264.405C374.644 268.805 382.269 284.555 389.758 299.405C407.634 334.85 407.69 334.967 408.386 338.113C408.87 340.303 408.316 341.49 405.49 344.316C402.022 347.784 401.773 349.459 404.246 352.655C405.643 354.461 409.407 354.19 411.197 352.155C414.776 348.083 417.193 341.617 416.649 337.564C416.342 335.275 410.955 323.381 404.041 309.722C397.401 296.607 391.968 285.505 391.968 285.052C391.968 284.599 396.558 280.106 402.167 275.067L412.366 265.905H428.217C446.819 265.905 446.14 266.143 460.096 254.744C471.335 245.563 471.254 245.765 470.31 229.237L469.657 217.798L474.021 213.351C476.421 210.906 478.628 208.905 478.926 208.905C479.224 208.905 479.386 214.192 479.285 220.655C479.185 227.117 479.072 236.32 479.035 241.105L478.968 249.805L461.733 264.605C452.254 272.745 442.804 280.645 440.733 282.161C438.662 283.677 436.968 285.725 436.968 286.711C436.968 288.925 438.844 290.905 440.94 290.905C442.919 290.905 485.463 255.718 487.035 252.781C487.862 251.234 488.085 242.886 487.809 223.708C487.489 201.36 487.173 196.646 485.946 195.87C485.133 195.356 484.16 194.929 483.783 194.92C483.173 194.907 476.75 200.228 466.088 209.581L462.468 212.757L462.396 226.081C462.356 233.409 462.244 240.144 462.146 241.047C462.048 241.951 458.038 246.001 453.234 250.047L444.499 257.405L426.739 257.718L408.978 258.031L398.527 267.468C392.779 272.658 387.876 276.905 387.632 276.905C387.13 276.905 379.733 259.207 378.061 254.006C377.46 252.136 376.968 246.834 376.968 242.224C376.968 228.603 379.148 225.036 396.882 209.64C403.365 204.011 412.819 195.805 417.89 191.405C422.961 187.005 428.534 182.617 430.274 181.655C434.207 179.479 441.985 179.389 451.662 181.407C461.665 183.494 466.879 182.261 475.436 175.783C479.055 173.043 482.563 169.925 483.232 168.854C484.023 167.587 485.56 166.905 487.625 166.905C490.791 166.905 499.01 160.828 513.409 147.842C521.589 140.465 524.046 138.905 527.488 138.905C529.833 138.905 532.233 137.695 536.103 134.561C540.409 131.074 549.662 125.045 560.607 118.596C561.251 118.216 562.875 119.406 564.349 121.337L566.952 124.75L558.21 129.499C553.402 132.111 547.398 135.281 544.868 136.544C538.803 139.57 537.504 141.169 538.934 143.841C539.541 144.976 540.705 145.905 541.519 145.905C542.334 145.905 549.356 142.767 557.124 138.932C564.892 135.097 571.614 132.186 572.061 132.463C572.509 132.739 573.796 134.259 574.922 135.841L576.969 138.716L570.219 141.891C566.506 143.637 560.183 146.451 556.168 148.145C548.318 151.456 546.723 153.129 548.054 156.655C549.038 159.261 551.604 159.549 554.675 157.398C556.539 156.092 579.802 146.905 581.244 146.905C581.769 146.905 585.968 153.622 585.968 154.462C585.968 154.706 585.097 154.905 584.032 154.905C582.967 154.905 578.58 156.228 574.282 157.845C569.984 159.462 564.443 161.374 561.968 162.095C557.974 163.258 557.468 163.73 557.468 166.296C557.468 171.002 559.74 171.533 567.166 168.563C570.763 167.124 577.323 165.104 581.744 164.075L589.782 162.203L591.364 166.231C592.234 168.447 592.813 170.393 592.651 170.555C591.55 171.656 576.771 173.925 573.734 173.459C570.671 172.989 568.3 173.697 560.543 177.394C555.343 179.874 550.793 182.379 550.433 182.961C550.074 183.543 549.839 202.781 549.911 225.712C549.998 253.458 549.679 268.445 548.956 270.514C548.359 272.224 546.43 274.791 544.669 276.22C535.556 283.611 481.546 331.566 481.238 332.539C480.783 333.975 483.657 336.905 485.52 336.905C486.295 336.905 491.552 332.967 497.202 328.155C502.851 323.343 511.488 316.03 516.395 311.905C525.694 304.088 544.036 287.859 552.218 280.209L556.968 275.768V231.86V187.951L559.399 186.358C565.063 182.647 571.782 181.012 584.208 180.322L596.721 179.626L597.944 183.333C598.617 185.371 598.926 187.281 598.63 187.576C598.335 187.872 591.887 188.404 584.302 188.759C570.546 189.403 570.508 189.412 569.588 192.038C567.883 196.898 569.226 198.08 575.706 197.422C584.718 196.506 601.968 196.092 602.37 196.782C602.57 197.125 603.046 198.867 603.43 200.655L604.127 203.905H589.202C575.733 203.905 574.108 204.093 572.533 205.833C571.428 207.054 571.026 208.513 571.438 209.809C572.054 211.75 572.959 211.871 588.778 212.131L605.468 212.405L605.778 216.155L606.089 219.905H590.085C574.832 219.905 574.011 220.006 572.572 222.06C571.486 223.61 571.34 224.731 572.051 226.06C572.953 227.745 574.55 227.905 590.503 227.905H607.968V231.298C607.968 233.47 607.399 234.91 606.386 235.298C605.516 235.632 597.657 235.905 588.921 235.905C574.261 235.905 572.959 236.053 572.007 237.833C570.852 239.99 571.579 242.848 573.325 243.013C573.954 243.072 581.517 243.184 590.132 243.263C598.747 243.341 606.106 243.714 606.486 244.093C606.866 244.471 606.756 246.046 606.241 247.593L605.306 250.405L590.387 250.905C582.182 251.18 574.906 251.769 574.218 252.214C572.66 253.223 572.597 256.134 574.101 257.638C575.95 259.487 574.326 261.757 569.465 264.119C562.783 267.365 562.082 272.839 568.341 272.89C570.952 272.911 582.212 264.685 583.907 261.518C585.244 259.022 585.678 258.905 593.637 258.905C598.219 258.905 601.968 259.206 601.968 259.575C601.968 259.943 599.043 263.275 595.468 266.978C591.893 270.681 588.968 274.585 588.968 275.654C588.968 277.45 587.966 277.642 575.691 278.197C568.388 278.527 561.655 279.088 560.729 279.443C558.837 280.169 557.512 283.358 558.462 284.896C558.834 285.497 564.751 285.905 573.093 285.905C580.796 285.905 587.923 286.346 588.929 286.884C589.935 287.422 591.232 289.222 591.811 290.884L592.864 293.905H570.571C549.835 293.905 548.156 294.039 546.535 295.831C545.577 296.89 544.95 298.577 545.143 299.581C545.469 301.275 547.337 301.441 571.272 301.905L597.051 302.405L599.108 305.655L601.164 308.905H572.266C551.123 308.905 543.046 309.227 542.168 310.105C540.454 311.819 540.686 315.583 542.55 316.298C543.42 316.632 557.96 316.905 574.862 316.905H605.592L607.78 319.865C608.983 321.492 609.968 323.067 609.968 323.365C609.968 323.662 594.963 323.905 576.623 323.905C544.232 323.905 543.225 323.964 541.415 325.964C539.987 327.541 539.801 328.417 540.619 329.714C541.583 331.242 545.114 331.43 577.327 331.668C615.751 331.951 615.245 331.87 611.057 337.044L609.147 339.405L575.639 339.705C539.928 340.024 538.964 340.165 540.453 344.857C541.083 346.842 541.844 346.909 565.285 347.023C578.586 347.089 589.805 347.089 590.218 347.023C591.352 346.844 591.157 347.471 588.869 351.348L586.77 354.905H564.941C546.429 354.905 542.872 355.144 541.539 356.476C539.68 358.336 539.664 358.469 541.003 360.971C541.979 362.795 543.316 362.905 564.503 362.905C577.568 362.905 586.968 363.291 586.968 363.828C586.968 364.336 585.803 366.136 584.379 367.828L581.79 370.905H562.813C544.288 370.905 539.95 371.529 539.983 374.19C540.031 377.991 541.291 378.233 559.855 377.999L577.926 377.772L580.437 380.283C585.195 385.041 583.567 385.639 564.151 386.27C554.425 386.585 545.606 386.835 544.553 386.825C541.547 386.795 539.273 389.578 540.592 391.674C541.536 393.173 544.004 393.472 558.993 393.905L576.305 394.405L577.258 397.271C577.975 399.425 577.871 400.352 576.84 401.005C576.085 401.483 567.986 401.881 558.84 401.89C541.069 401.906 539.054 402.45 540.453 406.857C541.073 408.812 541.852 408.905 557.571 408.905C573.542 408.905 574.007 408.963 573.003 410.839C572.434 411.903 571.968 413.703 571.968 414.839C571.968 416.831 571.454 416.905 557.539 416.905C545.756 416.905 542.823 417.193 541.539 418.476C540.675 419.341 539.968 420.601 539.968 421.276C539.968 424.379 542.446 424.905 557.051 424.905C571.492 424.905 571.742 424.942 572.14 427.155C573.081 432.379 572.623 432.624 560.485 433.383C554.226 433.774 547.779 433.803 546.16 433.447C541.596 432.445 538.185 436.722 541.168 439.705C541.97 440.507 546.529 440.915 554.918 440.937L567.468 440.968L564.716 443.39C560.904 446.745 555.983 447.893 545.381 447.899C535.21 447.906 523.045 446.219 505.968 442.434C472.236 434.957 469.377 434.608 464.117 437.328C446.512 446.432 400.868 517.317 377.139 572.405C370.554 587.693 366.043 598.905 366.478 598.905C366.63 598.905 368.749 595.418 371.186 591.155C415.101 514.344 422.958 502.914 448.34 478.905C464.007 464.086 468.463 460.439 479.775 453.182L489.081 447.21L498.648 449.523C525.758 456.077 549.852 458.038 561.152 454.611C568.64 452.34 574.57 447.639 578.282 441.032C580.752 436.635 581.315 434.455 581.384 429.032C581.43 425.387 581.102 420.56 580.656 418.306C579.94 414.698 580.157 413.834 582.466 411.09C586.145 406.718 587.034 402.966 585.343 398.945C583.985 395.716 584.043 395.548 587.961 391.296C592.376 386.507 593.208 382.121 590.451 378.184C589.04 376.17 589.127 375.838 591.691 373.461C593.207 372.055 594.774 370.905 595.173 370.905C595.571 370.905 596.403 369.96 597.021 368.805C597.862 367.234 597.829 365.113 596.889 360.385C595.183 351.804 596.605 349.526 604.691 347.886C613.395 346.121 618.645 343.483 620.938 339.723C624.827 333.344 623.722 329.737 611.982 310.466C602.327 294.618 597.968 285.355 597.968 280.687C597.968 277.446 598.861 275.94 604.289 270.025C612.663 260.9 614.908 254.373 615.68 236.905C616.544 217.335 611.823 193.817 602.228 169.905C599.59 163.331 599.417 162.332 600.827 161.81C603.27 160.906 605.832 161.901 606.502 164.013C607.284 166.476 608.624 166.416 609.994 163.857C611.062 161.86 611.889 161.834 616.718 163.649C618.785 164.426 618.128 160.855 615.867 159.024C613.837 157.381 613.818 157.148 615.309 152.127L616.853 146.93L614.106 148.961C610.57 151.575 607.76 150.66 608.171 147.03C608.334 145.586 608.018 144.18 607.468 143.905C606.918 143.63 606.317 144.734 606.132 146.358C605.947 147.982 605.092 149.825 604.231 150.455C603.117 151.269 602.998 151.805 603.817 152.311C605.791 153.532 605.104 156.635 602.718 157.275C597.84 158.582 597.054 158.026 593.361 150.655C589.315 142.581 574.112 119.099 571.556 116.978C570.07 115.745 570.201 115.441 572.941 113.775C576.597 111.552 576.999 107.741 573.813 105.509C571.275 103.731 568.03 104.952 567.237 107.984C566.836 109.518 564.713 107.942 555.699 99.4163C546.909 91.1023 542.184 87.5604 532.561 82.0754C513.688 71.3184 503.671 67.2683 484.844 62.7883C475.522 60.5693 475.137 60.3664 472.565 56.3004C469.198 50.9784 460.932 44.6183 454.468 42.3763C448.695 40.3733 427.291 39.5823 417.468 41.0083ZM503.968 40.6564C503.968 41.5924 510.965 45.2413 511.581 44.6263C511.781 44.4253 510.151 43.2523 507.957 42.0193C505.763 40.7863 503.968 40.1724 503.968 40.6564ZM338.968 44.4053C338.968 45.9453 341.579 46.3754 344.386 45.2984C347.156 44.2354 346.09 42.9053 342.468 42.9053C340.024 42.9053 338.968 43.3573 338.968 44.4053ZM359.968 44.4053C359.968 45.4053 360.968 45.9053 362.968 45.9053C364.968 45.9053 365.968 45.4053 365.968 44.4053C365.968 43.4053 364.968 42.9053 362.968 42.9053C360.968 42.9053 359.968 43.4053 359.968 44.4053ZM321.159 44.8134C318.654 45.4554 318.051 47.2344 320.185 47.6844C321.85 48.0354 325.587 45.3843 324.369 44.7153C323.874 44.4433 322.429 44.4874 321.159 44.8134ZM383.36 45.0803C383.02 45.6303 383.191 46.5283 383.74 47.0773C384.968 48.3053 389.069 47.7803 388.989 46.4053C388.906 44.9983 384.109 43.8693 383.36 45.0803ZM289.73 49.9783C286.616 51.7923 285.647 54.7674 287.333 57.3394C289.451 60.5724 292.463 61.0903 295.456 58.7363C298.548 56.3043 298.659 53.6273 295.779 50.9443C293.339 48.6703 292.269 48.4993 289.73 49.9783ZM524.468 53.5103C528.073 56.2883 530.54 57.0723 527.468 54.4633C525.818 53.0613 524.018 51.9273 523.468 51.9423C522.918 51.9573 523.368 52.6623 524.468 53.5103ZM542.395 64.6483C544.005 66.4283 545.543 67.6643 545.812 67.3953C546.081 67.1253 546.114 66.7923 545.885 66.6553C545.656 66.5183 544.118 65.2823 542.468 63.9093L539.468 61.4123L542.395 64.6483ZM82.003 69.8393C80.551 72.5523 80.713 74.5073 82.539 76.3343C85.008 78.8023 89.647 78.3243 91.56 75.4053C93.077 73.0893 93.077 72.7213 91.56 70.4053C89.464 67.2073 83.598 66.8593 82.003 69.8393ZM336.968 70.0123C336.968 71.5223 337.416 71.9473 338.55 71.5123C339.42 71.1783 340.545 70.9053 341.05 70.9053C341.555 70.9053 341.968 70.2303 341.968 69.4053C341.968 68.4723 341.024 67.9053 339.468 67.9053C337.592 67.9053 336.968 68.4313 336.968 70.0123ZM317.968 71.9753C317.968 73.5463 318.507 73.9673 320.208 73.7253C323.532 73.2503 323.824 69.9053 320.541 69.9053C318.606 69.9053 317.968 70.4183 317.968 71.9753ZM245.341 72.3743C245 73.2643 245.023 74.2933 245.392 74.6633C246.238 75.5093 249.536 73.4963 249.271 72.2963C248.911 70.6713 245.973 70.7303 245.341 72.3743ZM559.023 76.6553C559.054 77.0683 560.516 78.5013 562.273 79.8413L565.468 82.2774L562.531 79.0913C559.475 75.7763 558.931 75.3983 559.023 76.6553ZM546.368 80.6704C545.763 81.0744 544.711 82.4603 544.032 83.7493C542.96 85.7843 543.095 86.4123 545.057 88.4993C546.3 89.8223 548.068 90.9053 548.987 90.9053C551.405 90.9053 553.968 87.6673 553.968 84.6113C553.968 81.0003 549.412 78.6384 546.368 80.6704ZM405.224 83.1553C403.552 84.3933 398.222 88.3303 393.381 91.9053C372.342 107.439 335.663 137.738 333.893 141.044C331.757 145.036 336.117 147.861 340.153 145.101C341.426 144.231 345.393 140.953 348.968 137.816C361.758 126.595 393.636 101.595 402.739 95.6463C412.779 89.0853 414.616 86.3843 411.432 82.8653C409.203 80.4023 408.925 80.4153 405.224 83.1553ZM206.445 84.2994C204.336 87.5194 205.428 91.7313 208.579 92.5223C214.91 94.1113 218.886 89.4814 215.555 84.3984C213.352 81.0364 208.617 80.9844 206.445 84.2994ZM577.56 94.4053C578.461 95.7803 579.675 96.9053 580.257 96.9053C580.84 96.9053 580.26 95.7803 578.968 94.4053C577.676 93.0303 576.462 91.9053 576.271 91.9053C576.079 91.9053 576.659 93.0303 577.56 94.4053ZM244.968 96.9053C244.968 99.1853 247.178 99.5613 248.837 97.5633C250.158 95.9713 249.342 94.9053 246.801 94.9053C245.635 94.9053 244.968 95.6323 244.968 96.9053ZM188.539 100.476C186.831 102.185 186.467 103.905 187.813 103.905C188.781 103.905 191.968 100.585 191.968 99.5763C191.968 98.3853 190.154 98.8624 188.539 100.476ZM590.75 113.487C591.36 114.632 592.632 116.207 593.577 116.987C595.141 118.277 595.196 118.217 594.186 116.323C593.576 115.178 592.304 113.603 591.359 112.823C589.795 111.533 589.74 111.593 590.75 113.487ZM151.845 116.42C152.985 118.354 155.055 120.368 156.443 120.896L158.968 121.855V217.88V313.905L153.218 313.891C150.055 313.884 146.456 313.606 145.218 313.275L142.968 312.672V213.756V114.841L145.218 113.936C148.908 112.453 149.673 112.74 151.845 116.42ZM260.218 121.567C259.531 121.845 258.968 122.967 258.968 124.062C258.968 126.857 262.375 126.039 262.788 123.145C263.106 120.916 262.601 120.606 260.218 121.567ZM601.983 128.655C602.011 130.024 603.85 132.357 604.437 131.769C605.225 130.981 603.97 127.905 602.861 127.905C602.37 127.905 601.975 128.242 601.983 128.655ZM118.702 139.155C118.438 139.843 118.278 140.662 118.345 140.976C118.413 141.291 117.68 142.335 116.718 143.298C115.756 144.26 114.982 145.578 115 146.226C115.037 147.598 117.48 144.62 119.57 140.655C120.367 139.143 120.606 137.905 120.101 137.905C119.595 137.905 118.966 138.468 118.702 139.155ZM521.667 144.685C519.349 147.247 519.511 148.307 522.806 152.12C528.883 159.154 536.952 172.73 538.022 177.723C539.196 183.196 538.582 185.359 534.624 189.702C532.581 191.945 532.53 192.872 532.499 228.758C532.473 259.778 532.234 265.852 530.968 267.66C530.143 268.838 523.362 274.888 515.9 281.104C508.437 287.319 496.287 297.593 488.9 303.934C481.512 310.274 473.555 316.95 471.218 318.768C468.881 320.586 466.968 322.845 466.968 323.789C466.968 326.02 468.895 327.905 471.177 327.905C472.172 327.905 480.07 321.962 488.727 314.699C512.707 294.581 537.314 273.411 538.782 271.635C539.81 270.392 540.137 261.768 540.282 232.166L540.468 194.287L543.218 191.019C545.624 188.16 545.965 186.917 545.946 181.078C545.92 173.234 544.401 169.419 536.851 158.236C533.944 153.929 531.025 148.83 530.366 146.905C529.412 144.12 528.575 143.344 526.267 143.106C524.406 142.915 522.757 143.481 521.667 144.685ZM111.468 154.829C107.843 156.351 105.807 159.503 106.148 163.061C106.352 165.193 106.948 166.305 107.792 166.13C108.521 165.979 108.851 166.286 108.526 166.812C107.588 168.329 112.097 170.905 115.691 170.905C120.535 170.905 123.153 167.835 122.773 162.6C122.566 159.759 122.041 158.494 121.144 158.68C120.415 158.831 120.073 158.544 120.383 158.043C121.748 155.834 114.929 153.375 111.468 154.829ZM182.097 162.413C183.586 172.425 186.062 175.465 191.958 174.523C195.547 173.949 195.952 174.143 197.969 177.406C199.641 180.111 200.793 180.905 203.05 180.905H205.968V261.905V342.905H198.393H190.818L191.059 313.957C191.316 283.1 191.146 281.905 186.501 281.905C183.068 281.905 180.563 285.265 181.496 288.62C181.921 290.152 182.451 302.992 182.673 317.155L183.077 342.905H175.023H166.968V250.129V157.352L170.718 157.67C173.144 157.876 175.527 157.315 177.468 156.083C179.118 155.035 180.571 154.257 180.696 154.353C180.821 154.449 181.452 158.076 182.097 162.413ZM117.397 159.476C118.261 160.341 118.968 161.659 118.968 162.405C118.968 164.156 116.219 166.905 114.468 166.905C112.924 166.905 109.968 164.231 109.968 162.834C109.968 162.323 110.868 161.005 111.968 159.905C114.379 157.494 115.338 157.418 117.397 159.476ZM283.968 172.905C283.968 178.461 284.278 179.905 285.468 179.905C286.658 179.905 286.968 178.461 286.968 172.905C286.968 167.349 286.658 165.905 285.468 165.905C284.278 165.905 283.968 167.349 283.968 172.905ZM106.542 173.762C104.727 177.271 104.624 177.905 105.87 177.905C106.852 177.905 109.249 171.853 108.546 171.15C108.309 170.913 107.407 172.089 106.542 173.762ZM122.605 176.411C118.96 180.056 120.227 185.9 124.99 187.412C129.762 188.927 134.406 182.357 132.116 177.331C131.257 175.445 130.242 174.905 127.561 174.905C125.663 174.905 123.433 175.583 122.605 176.411ZM494.191 176.462C490.099 179.328 492.008 185.905 496.932 185.905C502.477 185.905 504.797 180.734 500.968 176.905C498.561 174.498 497.128 174.404 494.191 176.462ZM517.525 177.128C515.319 180.276 515.587 182.615 518.485 185.513C521.335 188.363 524.293 188.09 527.218 184.707C529.518 182.047 529.432 179.369 526.968 176.905C524.25 174.187 519.506 174.299 517.525 177.128ZM621.99 177.09C621.956 179.667 623.793 183.905 624.943 183.905C626.611 183.905 626.073 180.596 623.968 177.905C622.447 175.961 622.008 175.78 621.99 177.09ZM129.723 180.654C130.217 182.156 127.557 183.345 125.485 182.55C123.292 181.708 124.826 178.74 127.267 179.102C128.391 179.269 129.497 179.967 129.723 180.654ZM220.419 189.471C221.841 191.64 222.678 192.013 225.061 191.536L227.968 190.955V266.93V342.905H221.468H214.968V263.87C214.968 187.152 215.022 184.864 216.826 185.829C217.848 186.376 219.465 188.015 220.419 189.471ZM424.504 188.21C422.564 191.17 423.597 194.774 426.6 195.528C429.55 196.268 431.968 194.411 431.968 191.405C431.968 187.146 426.683 184.884 424.504 188.21ZM469.543 189.368C463.26 194.504 459.642 195.403 450.542 194.087C440.806 192.68 436.391 193.33 434.329 196.476C433.134 198.301 433.065 199.218 433.994 200.953C434.986 202.807 435.71 203.036 438.815 202.474C440.824 202.111 447.193 201.831 452.968 201.852C463.229 201.89 463.626 201.805 470.397 198.148C478.97 193.517 480.395 191.541 477.107 188.842C474.098 186.373 473.124 186.441 469.543 189.368ZM116.922 193.991C115.631 196.403 116.218 197.407 118.425 196.56C120.092 195.92 120.591 191.905 119.003 191.905C118.473 191.905 117.536 192.844 116.922 193.991ZM27.65 195.94C26.175 197.101 24.968 198.817 24.968 199.755C24.968 202.787 27.92 205.906 30.775 205.89C34.06 205.871 35.303 205.098 36.889 202.088C37.891 200.186 37.824 199.335 36.516 197.338C35.639 196 34.519 194.905 34.027 194.905C33.534 194.905 32.502 194.663 31.732 194.368C30.962 194.072 29.125 194.78 27.65 195.94ZM630.641 202.459C631.495 204.964 632.397 206.809 632.646 206.56C633.392 205.814 630.965 197.905 629.99 197.905C629.495 197.905 629.788 199.954 630.641 202.459ZM101.233 201.131C99.59 203.183 98.807 206.687 99.847 207.33C100.375 207.656 101.338 206.314 101.987 204.347C103.248 200.525 102.902 199.046 101.233 201.131ZM188.635 205.572C187.697 206.509 187.802 209.905 188.768 209.905C190.014 209.905 191.968 207.646 191.968 206.205C191.968 204.843 189.78 204.427 188.635 205.572ZM114.993 210.859C114.095 212.537 114.197 213.056 115.526 213.566C117.191 214.205 119.191 212.214 118.639 210.468C118.053 208.613 116.081 208.824 114.993 210.859ZM516.218 209.549C515.268 209.946 514.951 216.105 514.898 235.238C514.859 249.08 514.522 261.112 514.148 261.976C513.774 262.84 506.268 269.335 497.468 276.408C482.093 288.767 464.69 303.464 458.781 309.078C455.201 312.48 455.084 315.645 458.508 316.504C460.1 316.904 461.687 316.6 462.758 315.69C463.699 314.892 475.043 305.53 487.968 294.886C500.893 284.242 513.837 273.551 516.733 271.129L521.998 266.724L521.733 238.065C521.476 210.232 521.41 209.4 519.468 209.215C518.368 209.111 516.906 209.261 516.218 209.549ZM498.211 217.062C497.307 217.966 496.968 223.509 496.968 237.371V256.436L479.286 270.921C463.86 283.557 451.99 293.395 444.218 299.984C441.456 302.326 441.311 305.483 443.902 306.87C444.966 307.439 446.066 307.905 446.346 307.905C446.626 307.905 455.548 300.818 466.173 292.155C476.797 283.492 488.635 273.853 492.479 270.735C496.323 267.616 500.715 263.757 502.238 262.159L505.009 259.253L504.738 237.829L504.468 216.405L501.961 216.112C500.582 215.951 498.895 216.378 498.211 217.062ZM437.525 220.128C435.372 223.201 435.569 224.597 438.419 226.465C443.263 229.639 448.594 225.036 445.516 220.338C443.494 217.251 439.611 217.149 437.525 220.128ZM177.168 221.105C175.733 222.54 175.568 225.905 176.933 225.905C177.463 225.905 178.405 224.957 179.025 223.798C180.358 221.308 178.973 219.3 177.168 221.105ZM637.366 223.776C637.61 226.18 638.304 228.641 638.908 229.245C639.705 230.042 639.822 229.392 639.336 226.874C638.19 220.937 636.866 218.855 637.366 223.776ZM420.103 230.262C414.946 235.751 417.391 245.143 424.315 246.442C430.375 247.579 434.883 243.883 434.936 237.732C435.008 229.405 425.436 224.584 420.103 230.262ZM281.468 231.905C281.468 233.738 280.866 234.49 279.214 234.725C277.861 234.917 276.718 234.417 276.357 233.475C275.361 230.88 276.756 228.736 279.214 229.085C280.866 229.32 281.468 230.072 281.468 231.905ZM190.635 232.572C190.268 232.938 189.968 234.063 189.968 235.072C189.968 237.322 192.524 237.505 193.364 235.315C194.336 232.782 192.385 230.821 190.635 232.572ZM394.003 236.839C391.647 241.241 393.448 244.905 397.968 244.905C399.398 244.905 401.108 244.365 401.768 243.705C402.428 243.045 402.968 241.335 402.968 239.905C402.968 238.475 402.428 236.765 401.768 236.105C399.867 234.204 395.176 234.647 394.003 236.839ZM427.522 235.992C428.552 237.66 426.235 239.572 424.855 238.192C423.701 237.038 424.423 234.905 425.968 234.905C426.453 234.905 427.152 235.394 427.522 235.992ZM641.138 244.405C641.154 246.055 641.528 248.53 641.968 249.905C642.696 252.178 642.771 252.087 642.798 248.905C642.814 246.98 642.441 244.505 641.968 243.405C641.238 241.707 641.113 241.858 641.138 244.405ZM189.497 250.848C188.421 252.93 188.3 253.992 189.083 254.476C190.468 255.332 191.932 253.127 191.953 250.155C191.973 247.137 191.321 247.321 189.497 250.848ZM182.635 264.572C182.268 264.938 181.968 266.101 181.968 267.155C181.968 269.748 184.383 268.825 184.788 266.077C185.097 263.974 183.999 263.207 182.635 264.572ZM645.58 268.905C645.942 271.93 646.403 274.593 646.603 274.822C647.485 275.829 646.834 266.251 645.929 264.905C645.227 263.86 645.121 265.072 645.58 268.905ZM79.635 269.572C78.576 270.63 78.862 276.905 79.968 276.905C80.518 276.905 80.968 275.105 80.968 272.905C80.968 268.818 80.802 268.404 79.635 269.572ZM81.168 289.105C80.508 289.765 79.968 291.576 79.968 293.13C79.968 298.084 87.601 299.328 90.04 294.77C92.447 290.272 84.851 285.422 81.168 289.105ZM52.898 290.489C51.947 291.636 51.873 292.532 52.631 293.739C53.427 295.006 55.49 295.475 61.243 295.696C68.167 295.962 68.864 295.81 69.47 293.898C70.63 290.245 68.348 288.905 60.968 288.905C56.025 288.905 53.86 289.33 52.898 290.489ZM646.296 296.405C646.301 300.255 646.481 301.707 646.698 299.633C646.914 297.558 646.911 294.408 646.69 292.633C646.469 290.857 646.292 292.555 646.296 296.405ZM112.607 299.599C111.641 300.565 111.841 304.905 112.851 304.905C113.96 304.905 114.958 300.017 113.973 299.408C113.574 299.161 112.959 299.247 112.607 299.599ZM1.53896 309.476C-1.87704 312.892 0.758959 318.238 5.85996 318.238C7.60596 318.238 9.52597 317.747 10.126 317.147C11.598 315.675 11.509 311.262 9.97097 309.408C8.33997 307.443 3.53396 307.482 1.53896 309.476ZM639.376 317.405C637.859 319.721 637.859 320.089 639.376 322.405C640.472 324.078 641.932 324.905 643.791 324.905C647.265 324.905 648.968 323.26 648.968 319.905C648.968 316.55 647.265 314.905 643.791 314.905C641.932 314.905 640.472 315.732 639.376 317.405ZM85.24 329.905C85.24 332.38 85.435 333.392 85.674 332.155C85.912 330.918 85.912 328.892 85.674 327.655C85.435 326.417 85.24 327.43 85.24 329.905ZM138.635 328.572C137.377 329.83 137.968 332.905 139.468 332.905C140.401 332.905 140.968 331.961 140.968 330.405C140.968 327.977 139.994 327.212 138.635 328.572ZM105.968 331.405C105.968 332.961 106.535 333.905 107.468 333.905C108.401 333.905 108.968 332.961 108.968 331.405C108.968 329.849 108.401 328.905 107.468 328.905C106.535 328.905 105.968 329.849 105.968 331.405ZM125.968 331.405C125.968 334.197 128.391 334.852 129.361 332.323C130.375 329.68 130.059 328.905 127.968 328.905C126.501 328.905 125.968 329.572 125.968 331.405ZM107.651 332.093C107.332 332.89 107.095 332.653 107.047 331.488C107.004 330.434 107.24 329.844 107.572 330.176C107.904 330.508 107.94 331.371 107.651 332.093ZM638.718 336.237C638.305 337.244 637.997 339.494 638.031 341.237C638.093 344.329 638.118 344.346 639.077 341.944C639.618 340.59 639.927 338.34 639.764 336.944C639.511 334.771 639.36 334.669 638.718 336.237ZM31.468 336.858C30.368 337.313 28.428 338.894 27.157 340.373C25.183 342.669 24.309 342.975 21.157 342.473C16.287 341.697 12.468 343.658 12.468 346.935C12.468 349.334 12.697 349.412 20.468 349.666C24.868 349.809 29.407 350.409 30.556 350.998C33.822 352.674 38.059 351.689 40.247 348.745C43.055 344.968 41.951 339.464 37.973 337.407C34.72 335.725 34.296 335.69 31.468 336.858ZM326.968 375.832C326.968 403.312 327.011 403.905 328.984 403.905C330.963 403.905 330.995 403.399 330.734 376.168C330.489 350.67 330.327 348.404 328.718 348.095C327.085 347.781 326.968 349.634 326.968 375.832ZM158.968 358.905V366.905H150.968C144.84 366.905 142.968 366.583 142.968 365.527C142.968 364.77 142.293 363.59 141.468 362.905C140.643 362.22 139.968 360.842 139.968 359.842C139.968 357.25 138.427 356.642 136.831 358.603C135.641 360.067 135.69 360.196 137.218 359.624C139.361 358.82 139.513 360.207 137.468 361.905C136.432 362.765 135.968 362.803 135.968 362.027C135.968 360.106 134.16 360.784 130.968 363.905C128.404 366.412 127.094 366.905 123.005 366.905C116.261 366.905 114.968 365.365 114.968 357.334V350.905H136.968H158.968V358.905ZM182.968 358.905V366.905H174.968H166.968V358.905V350.905H174.968H182.968V358.905ZM205.968 358.905V366.905H198.468H190.968V358.905V350.905H198.468H205.968V358.905ZM227.968 358.905V366.905H221.468H214.968V358.905V350.905H221.468H227.968V358.905ZM248.741 369.155L248.468 387.405L242.761 387.704L237.054 388.002L236.761 369.452L236.468 350.903L242.741 350.904L249.013 350.905L248.741 369.155ZM347.656 352.551C347.277 352.929 346.968 363.546 346.968 376.145C346.968 397.423 347.092 399.028 348.718 398.714C350.324 398.403 350.468 396.49 350.468 375.473C350.468 353.753 350.029 350.177 347.656 352.551ZM634.205 360.869C633.642 363.089 633.533 364.905 633.963 364.905C634.82 364.905 636.364 357.968 635.663 357.267C635.425 357.028 634.769 358.649 634.205 360.869ZM67.054 360.405C67.023 362.055 67.435 364.08 67.968 364.905C68.732 366.087 68.926 365.875 68.882 363.905C68.852 362.53 68.441 360.505 67.968 359.405C67.23 357.688 67.101 357.829 67.054 360.405ZM95.097 365.826C94.257 366.345 94.006 367.451 94.428 368.78C95.227 371.296 96.513 371.532 97.363 369.319C98.224 367.074 96.751 364.803 95.097 365.826ZM426.635 369.572C426.268 369.938 425.968 378.488 425.968 388.572C425.968 406.238 426.041 406.905 427.968 406.905C429.898 406.905 429.968 406.238 429.968 387.905C429.968 372.738 429.699 368.905 428.635 368.905C427.901 368.905 427.001 369.205 426.635 369.572ZM71.314 377.251C71.399 378.71 71.806 379.904 72.218 379.904C73.234 379.905 73.139 377.724 72.049 376.002C71.413 374.998 71.204 375.353 71.314 377.251ZM205.968 381.405V387.905H198.468H190.968V381.405V374.905H198.468H205.968V381.405ZM227.968 381.405V387.905H221.468H214.968V381.405V374.905H221.468H227.968V381.405ZM628.068 379.222C627.353 381.321 627.026 383.296 627.34 383.611C628.146 384.417 630.12 378.892 629.708 376.984C629.516 376.096 628.798 377.077 628.068 379.222ZM372.635 378.572C372.268 378.938 371.968 412.013 371.968 452.072C371.968 524.238 371.986 524.905 373.968 524.905C375.95 524.905 375.968 524.238 375.968 451.405C375.968 390.822 375.734 377.905 374.635 377.905C373.901 377.905 373.001 378.205 372.635 378.572ZM109.522 381.818C109.152 382.416 109.284 382.905 109.815 382.905C110.346 382.905 110.586 383.918 110.348 385.155L109.916 387.405L111.109 385.122C112.39 382.673 110.904 379.581 109.522 381.818ZM623.032 396.222C622.337 398.321 621.978 400.248 622.234 400.504C622.974 401.244 625.215 395.145 624.732 393.706C624.491 392.99 623.726 394.123 623.032 396.222ZM409.635 394.572C409.268 394.938 408.968 413.388 408.968 435.572C408.968 475.238 409.001 475.905 410.968 475.905C412.935 475.905 412.968 475.238 412.968 434.905C412.968 401.405 412.724 393.905 411.635 393.905C410.901 393.905 410.001 394.205 409.635 394.572ZM201.718 396.763L205.968 396.905V405.405V413.905H198.468H190.968V404.992V396.079L194.218 396.35C196.006 396.498 199.381 396.684 201.718 396.763ZM227.968 404.99V412.905H221.468H214.968L214.966 404.655L214.964 396.405L221.466 396.74L227.968 397.076V404.99ZM248.74 416.333C248.913 429.066 248.644 436.487 247.994 436.889C247.434 437.235 241.793 437.609 235.457 437.719C218.615 438.012 214.968 436.011 214.968 426.471V421.905H222.421C235.235 421.905 236.968 419.856 236.968 404.706V395.805L242.718 396.105L248.468 396.405L248.74 416.333ZM59.968 400.313C52.808 402.881 49.865 411.944 53.994 418.715C59.175 427.214 70.869 425.879 75.843 416.221C78.69 410.694 75.895 404.016 69.424 400.884C64.758 398.625 64.686 398.62 59.968 400.313ZM131.968 404.322C131.968 406.002 132.517 406.905 133.538 406.905C134.58 406.905 135 406.176 134.788 404.733C134.316 401.532 131.968 401.189 131.968 404.322ZM158.134 404.965C158.318 406.221 159.068 407.446 159.802 407.688C160.709 407.987 161.029 407.396 160.802 405.845C160.618 404.589 159.868 403.364 159.134 403.122C158.227 402.823 157.907 403.414 158.134 404.965ZM346.968 447.905C346.968 489.238 347 489.905 348.968 489.905C350.936 489.905 350.968 489.238 350.968 447.905C350.968 406.572 350.936 405.905 348.968 405.905C347 405.905 346.968 406.572 346.968 447.905ZM68.56 409.405C70.077 411.721 70.077 412.089 68.56 414.405C65.794 418.627 58.968 416.847 58.968 411.905C58.968 406.963 65.794 405.183 68.56 409.405ZM614.481 413.88C613.582 415.618 613.049 417.573 613.296 418.223C613.543 418.873 614.496 417.669 615.415 415.547C617.464 410.814 616.737 409.517 614.481 413.88ZM426.635 418.572C426.268 418.938 425.968 427.746 425.968 438.145C425.968 455.613 426.101 457.026 427.718 456.715C429.301 456.411 429.494 454.542 429.74 437.142C429.961 421.491 429.759 417.905 428.656 417.905C427.911 417.905 427.001 418.205 426.635 418.572ZM143.718 427.91C141.536 429.274 141.426 433.483 143.55 434.298C144.42 434.632 149.579 434.905 155.015 434.905C164.056 434.905 164.994 434.725 166.03 432.788C168.003 429.102 165.397 427.819 154.861 427.289C148.972 426.993 144.815 427.224 143.718 427.91ZM605.668 432.836C604.715 434.448 604.319 436.004 604.787 436.293C605.255 436.583 606.38 435.264 607.287 433.362C609.293 429.155 608.076 428.76 605.668 432.836ZM109.968 437.783C109.968 438.815 110.643 440.22 111.468 440.905C112.691 441.92 112.968 441.865 112.968 440.609C112.968 438.332 111.881 435.905 110.861 435.905C110.37 435.905 109.968 436.75 109.968 437.783ZM128.423 442.36C125.422 445.36 125.319 447.81 128.046 451.277L130.123 453.918L127.964 457.411L125.805 460.905H93.086C68.972 460.905 60.052 461.221 59.168 462.105C57.366 463.907 57.722 466.703 59.902 467.87C61.154 468.54 77.855 468.905 107.242 468.905H152.647L153.618 466.655C155.74 461.736 154.546 460.905 145.349 460.905H136.877L137.516 457.155C137.867 455.093 139.013 452.186 140.061 450.695C142.555 447.152 142.493 446.679 139.067 443.011C135.505 439.198 131.81 438.972 128.423 442.36ZM477.885 444.298C477.656 444.515 473.418 447.42 468.468 450.755C463.518 454.089 457.212 458.975 454.455 461.611C451.697 464.248 448.344 467.305 447.002 468.405C443.015 471.674 449.646 462.951 456.856 455.443C466.816 445.071 468.519 443.905 473.711 443.905C476.236 443.905 478.114 444.082 477.885 444.298ZM597.368 448.67C596.249 449.417 593.968 453.26 593.968 454.398C593.968 455.737 596.057 453.633 597.501 450.842C599.115 447.72 599.102 447.512 597.368 448.67ZM232.155 453.655C232.338 454.617 233.496 455.549 234.728 455.725C237.19 456.076 237.63 454.967 235.768 453.105C233.977 451.314 231.773 451.649 232.155 453.655ZM235.468 453.905C235.808 454.455 235.636 454.905 235.086 454.905C234.536 454.905 233.808 454.455 233.468 453.905C233.128 453.355 233.3 452.905 233.85 452.905C234.4 452.905 235.128 453.355 235.468 453.905ZM391.418 456.174C391.151 456.872 391.052 468.459 391.2 481.924C391.43 502.899 391.683 506.405 392.968 506.405C394.256 506.405 394.506 502.759 394.735 480.655C394.97 457.961 394.818 454.905 393.453 454.905C392.602 454.905 391.686 455.476 391.418 456.174ZM529.15 459.981C527.325 461.64 525.975 463.405 526.15 463.902C526.325 464.399 527.956 463.028 529.774 460.855C533.721 456.14 533.585 455.948 529.15 459.981ZM486.637 461.719C485.381 463.106 485.271 463.808 486.168 464.705C487.065 465.602 487.767 465.492 489.154 464.236C491.284 462.309 491.544 459.905 489.623 459.905C488.883 459.905 487.539 460.721 486.637 461.719ZM585.892 466.542C584.559 467.993 584.104 468.98 584.882 468.737C586.2 468.326 589.751 463.905 588.764 463.905C588.518 463.905 587.226 465.092 585.892 466.542ZM514.168 469.105C512.579 470.694 512.637 472.905 514.268 472.905C514.983 472.905 516.108 472.365 516.768 471.705C517.428 471.045 517.968 469.92 517.968 469.205C517.968 467.574 515.757 467.516 514.168 469.105ZM471.96 471.92C471.107 473.513 471.212 474.062 472.462 474.541C474.215 475.214 478.23 472.139 477.385 470.771C476.399 469.175 473.05 469.884 471.96 471.92ZM201.502 473.85C200.537 475.411 201.807 476.905 204.1 476.905C205.475 476.905 206.008 476.353 205.78 475.166C205.396 473.174 202.475 472.275 201.502 473.85ZM227.139 474.553C227.332 475.559 228.314 476.541 229.32 476.734C230.641 476.989 231.052 476.578 230.797 475.257C230.604 474.251 229.622 473.269 228.616 473.076C227.295 472.821 226.884 473.232 227.139 474.553ZM153.968 475.783C153.968 477.003 154.606 477.905 155.468 477.905C156.293 477.905 156.968 477.51 156.968 477.027C156.968 476.545 156.293 475.59 155.468 474.905C154.215 473.865 153.968 474.009 153.968 475.783ZM178.968 476.905C180.258 479.315 183.483 479.689 182.575 477.323C182.241 476.453 181.968 475.553 181.968 475.323C181.968 475.093 181.052 474.905 179.933 474.905C178.208 474.905 178.061 475.21 178.968 476.905ZM459.218 477.567C457.786 478.145 457.498 481.905 458.886 481.905C461.165 481.905 462.968 480.533 462.968 478.798C462.968 476.951 461.743 476.548 459.218 477.567ZM499.218 477.567C498.531 477.845 497.968 478.683 497.968 479.429C497.968 481.721 499.993 482.192 502.007 480.369C504.828 477.817 503.043 476.024 499.218 477.567ZM574.623 480.734C572.8 482.748 572.398 484.375 573.963 483.408C575.006 482.764 577.315 478.905 576.658 478.905C576.449 478.905 575.533 479.728 574.623 480.734ZM253.141 481.564C253.562 483.753 256.468 484.062 256.468 481.919C256.468 481.101 255.64 480.273 254.627 480.078C253.291 479.821 252.884 480.228 253.141 481.564ZM213.414 481.992C212.416 483.607 214.414 485.121 217.04 484.74C219.236 484.42 219.261 484.324 217.584 482.655C215.559 480.64 214.367 480.45 213.414 481.992ZM449.425 485.591C447.691 487.325 447.69 487.42 449.396 487.749C451.791 488.21 453.732 486.269 452.304 484.841C451.551 484.088 450.708 484.308 449.425 485.591ZM133.518 487.264C132.116 488.666 130.968 490.755 130.968 491.905C130.968 493.055 132.116 495.144 133.518 496.546C135.503 498.531 136.668 498.95 138.768 498.435C146.52 496.535 146.52 487.185 138.768 485.352C136.683 484.859 135.488 485.294 133.518 487.264ZM170.968 488.863L156.468 489.405V492.405V495.405L173.67 495.678C189.604 495.932 190.946 495.814 191.873 494.083C193.235 491.537 190.621 487.832 187.661 488.113C186.455 488.227 178.943 488.565 170.968 488.863ZM484.409 489.338C482.897 490.454 482.733 491.039 483.667 491.986C484.607 492.94 485.423 492.837 487.449 491.51C489.984 489.849 490.065 487.905 487.6 487.905C486.913 487.905 485.477 488.55 484.409 489.338ZM225.007 491.094C222.419 493.871 222.404 497.341 224.968 499.905C228.901 503.838 235.968 500.994 235.968 495.478C235.968 492.778 231.787 488.905 228.872 488.905C227.868 488.905 226.128 489.89 225.007 491.094ZM253.91 490.853C248.72 492.428 246.889 494.118 243.849 500.141C240.77 506.241 240.759 506.317 242.73 507.913C243.824 508.799 245.458 510.953 246.361 512.698C250.066 519.863 261.414 521.366 267.813 515.54C275.904 508.174 274.125 497.271 263.998 492.155C259.285 489.774 258.009 489.609 253.91 490.853ZM563.84 492.655C562.597 494.241 562.632 494.276 564.218 493.033C565.884 491.726 566.413 490.905 565.59 490.905C565.383 490.905 564.595 491.693 563.84 492.655ZM263.411 501.128C265.514 504.129 265.372 505.846 262.794 508.591C260.264 511.284 257.323 511.543 254.191 509.348C251.551 507.5 251.207 502.809 253.539 500.476C255.93 498.086 261.54 498.456 263.411 501.128ZM465.218 499.567C463.308 500.338 463.731 502.905 465.768 502.905C467.623 502.905 469.968 501.118 469.968 499.705C469.968 498.837 467.226 498.757 465.218 499.567ZM552.892 501.655L550.468 504.405L553.468 501.905C555.118 500.53 556.656 499.293 556.885 499.155C557.114 499.017 556.855 498.905 556.309 498.905C555.763 498.905 554.226 500.142 552.892 501.655ZM348.218 500.623C347.394 500.919 346.968 503.261 346.968 507.488C346.968 513.238 347.176 513.905 348.968 513.905C350.761 513.905 350.968 513.238 350.968 507.464C350.968 500.967 350.501 499.804 348.218 500.623ZM200.54 504.789C200.013 505.642 201.037 506.775 203.718 508.308C204.484 508.746 204.968 508.433 204.968 507.499C204.968 505.703 201.345 503.486 200.54 504.789ZM175.191 507.462C170.659 510.636 173.467 517.905 179.225 517.905C184.586 517.905 186.869 511.806 182.968 507.905C180.565 505.502 178.182 505.367 175.191 507.462ZM446.218 507.567C444.872 508.111 444.458 511.905 445.745 511.905C446.173 511.905 447.531 511.199 448.762 510.337C452.034 508.045 450.14 505.985 446.218 507.567ZM285.968 509.692C285.968 510.125 287.43 510.577 289.218 510.697C291.66 510.861 292.095 510.669 290.968 509.925C289.168 508.738 285.968 508.589 285.968 509.692ZM539.968 513.405C538.676 514.78 538.069 515.905 538.619 515.905C539.169 515.905 540.676 514.78 541.968 513.405C543.26 512.03 543.867 510.905 543.317 510.905C542.767 510.905 541.26 512.03 539.968 513.405ZM305.968 513.405C305.968 514.338 306.912 514.905 308.468 514.905C310.024 514.905 310.968 514.338 310.968 513.405C310.968 512.472 310.024 511.905 308.468 511.905C306.912 511.905 305.968 512.472 305.968 513.405ZM318.968 513.905C314.878 517.995 317.922 524.905 323.813 524.905C327.437 524.905 329.968 522.12 329.968 518.133C329.968 512.555 322.997 509.876 318.968 513.905ZM309.697 513.509C309.365 513.841 308.502 513.877 307.781 513.588C306.983 513.269 307.22 513.032 308.385 512.984C309.439 512.941 310.029 513.177 309.697 513.509ZM428.414 513.992C428.045 514.59 428.255 515.592 428.883 516.22C430.139 517.476 433.036 516.202 433.742 514.084C434.241 512.585 429.336 512.501 428.414 513.992ZM214.051 514.278C215.08 515.199 220.968 517.904 220.968 517.456C220.968 516.88 215.424 513.905 214.351 513.905C213.957 513.905 213.822 514.073 214.051 514.278ZM348.138 520.8C347.241 521.355 346.981 524.949 347.186 533.972C347.433 544.863 347.682 546.422 349.218 546.716C350.812 547.022 350.968 545.893 350.968 534.037C350.968 526.879 350.609 520.801 350.17 520.53C349.731 520.259 348.817 520.38 348.138 520.8ZM527.373 522.155L525.468 524.405L527.718 522.5C529.832 520.71 530.423 519.905 529.623 519.905C529.433 519.905 528.421 520.918 527.373 522.155ZM230.968 522.814C231.793 523.281 233.593 523.961 234.968 524.326L237.468 524.988L234.968 523.482C233.593 522.654 231.793 521.974 230.968 521.971C229.635 521.966 229.635 522.06 230.968 522.814ZM246.968 530.905C247.793 531.438 249.143 531.874 249.968 531.874C251.301 531.874 251.301 531.767 249.968 530.905C249.143 530.372 247.793 529.936 246.968 529.936C245.635 529.936 245.635 530.043 246.968 530.905ZM267.718 537.567C268.406 537.845 269.531 537.845 270.218 537.567C270.906 537.29 270.343 537.063 268.968 537.063C267.593 537.063 267.031 537.29 267.718 537.567ZM272.781 538.588C273.502 538.877 274.365 538.841 274.697 538.509C275.029 538.177 274.439 537.941 273.385 537.984C272.22 538.032 271.983 538.269 272.781 538.588ZM200.968 541.594C195.803 543.564 194.296 549.734 198.007 553.716C202.647 558.697 211.877 554.2 210.557 547.602C210.209 545.858 209.371 543.893 208.696 543.234C207.155 541.732 202.947 540.838 200.968 541.594ZM205.527 546.346C207.077 547.498 207.246 548.152 206.366 549.596C204.783 552.194 201.321 552.434 200.038 550.035C199.219 548.505 199.335 547.681 200.541 546.474C202.475 544.541 203.074 544.525 205.527 546.346ZM290.968 547.175C289.593 547.884 287.887 549.675 287.177 551.155C283.644 558.525 294.79 564.76 299.895 558.27C302.428 555.05 302.542 551.805 300.218 549.058C297.926 546.35 294.085 545.568 290.968 547.175ZM296.397 551.476C297.261 552.341 297.968 553.434 297.968 553.905C297.968 555.016 295.079 557.905 293.968 557.905C292.857 557.905 289.968 555.016 289.968 553.905C289.968 552.794 292.857 549.905 293.968 549.905C294.439 549.905 295.532 550.612 296.397 551.476ZM338.623 551.734C336.545 554.03 336.516 556.31 338.539 558.334C341.89 561.684 347.968 558.963 347.968 554.111C347.968 550.122 341.558 548.491 338.623 551.734Z" fill="white"/>
</svg>
