<svg width="180" height="180" viewBox="0 0 180 180" fill="none" xmlns="http://www.w3.org/2000/svg">
<path d="M64.6875 67.5H73.125V75.9375H78.75V61.875H64.6875V67.5Z" fill="#4985FF"/>
<path d="M39.375 75.9375H45V67.5H53.4375V61.875H39.375V75.9375Z" fill="#4985FF"/>
<path d="M45 87.1875H39.375V101.25H53.4375V95.625H45V87.1875Z" fill="#4985FF"/>
<path d="M56.25 16.875H50.625V22.5H56.25V16.875Z" fill="#4985FF"/>
<path d="M67.5 16.875H61.875V22.5H67.5V16.875Z" fill="#4985FF"/>
<path d="M67.5 149.062H50.625V154.688H67.5V149.062Z" fill="#4985FF"/>
<path d="M170.797 135.765L152.418 117.385C151.318 116.286 149.541 116.286 148.441 117.385L147.454 118.373L137.835 109.105C137.033 108.304 136.505 107.322 136.299 106.242L135.481 102.111C134.904 99.3431 133.56 96.8625 131.622 94.9613L112.5 75.8166V19.6875C112.5 11.9334 106.192 5.625 98.4375 5.625H19.6875C11.9334 5.625 5.625 11.9334 5.625 19.6875V160.312C5.625 168.067 11.9334 174.375 19.6875 174.375H98.4375C106.192 174.375 112.5 168.067 112.5 160.312V147.414L115.456 150.37L114.632 151.194C113.532 152.294 113.532 154.072 114.632 155.171L133.012 173.554C133.537 174.08 134.252 174.375 135 174.375C135.748 174.375 136.462 174.08 136.988 173.551L170.797 139.742C171.894 138.642 171.894 136.865 170.797 135.765ZM98.4375 168.75H19.6875C15.0356 168.75 11.25 164.964 11.25 160.312V160.239C13.6069 162.025 16.5094 163.125 19.6875 163.125H98.4375C101.616 163.125 104.518 162.025 106.875 160.239V160.312C106.875 164.964 103.089 168.75 98.4375 168.75ZM106.875 149.062C106.875 153.714 103.089 157.5 98.4375 157.5H19.6875C15.0356 157.5 11.25 153.714 11.25 149.062V19.6875C11.25 15.0356 15.0356 11.25 19.6875 11.25H98.4375C103.089 11.25 106.875 15.0356 106.875 19.6875V71.0213C105.981 70.6275 105.033 70.4053 104.062 70.3322V22.5C104.062 17.8481 100.277 14.0625 95.625 14.0625H81.5625C79.2816 14.0625 77.1609 14.9541 75.6366 16.5206C73.9884 18.1209 73.0969 20.2809 73.125 22.6013C73.1334 23.2931 72.8606 23.9512 72.36 24.4603C71.8228 25.0031 71.0747 25.3125 70.3125 25.3125H47.8125C46.26 25.3125 45 24.0497 45 22.5C45 17.8481 41.2144 14.0625 36.5625 14.0625H22.5C17.8481 14.0625 14.0625 17.8481 14.0625 22.5V137.812C14.0625 142.464 17.8481 146.25 22.5 146.25H95.625C99.9169 146.25 103.43 143.018 103.956 138.87L106.875 141.789V149.062ZM87.4856 78.6319C86.4366 79.6697 85.6969 80.9381 85.3144 82.3275C84.7294 82.2009 84.15 82.1503 83.5566 82.1531C81.2841 82.1559 79.1466 82.98 77.5294 84.5972C76.8375 85.2834 76.2778 86.0709 75.8672 86.9287L65.61 76.6519C64.0237 75.0628 61.9397 74.1937 59.8247 74.1937C59.7262 74.1937 59.625 74.1937 59.5322 74.1937C57.1078 74.1937 54.81 75.2625 53.2153 77.1413C50.3831 80.4741 50.6953 85.6125 53.9241 88.8384L80.3981 115.312H67.5C65.2191 115.312 63.0984 116.204 61.5741 117.771C59.7825 119.514 58.8797 121.961 59.0962 124.484C59.4591 128.804 63.2897 132.188 67.815 132.188H93.7744C95.4591 132.188 97.065 132.68 98.4347 133.588V137.812C98.4347 139.362 97.1747 140.625 95.6222 140.625H22.5C20.9475 140.625 19.6875 139.362 19.6875 137.812V22.5C19.6875 20.9503 20.9475 19.6875 22.5 19.6875H36.5625C38.115 19.6875 39.375 20.9503 39.375 22.5C39.375 27.1519 43.1606 30.9375 47.8125 30.9375H70.3125C72.5709 30.9375 74.7731 30.0178 76.3594 28.4147C77.9259 26.8284 78.7725 24.7416 78.75 22.5338C78.7416 21.7716 79.0284 21.0684 79.6106 20.4975C80.1197 19.9744 80.8116 19.6875 81.5625 19.6875H95.625C97.1775 19.6875 98.4375 20.9503 98.4375 22.5V71.8397C98.0747 72.0928 97.7147 72.3516 97.3912 72.6694C96.345 73.7325 95.6334 75.0094 95.265 76.3622C94.6772 76.2356 94.0444 76.1766 93.4847 76.1906C91.1362 76.1934 89.1056 77.0203 87.4856 78.6319ZM103.722 130.68C101.067 128.025 97.5347 126.562 93.7772 126.562H67.8178C66.2203 126.562 64.8225 125.418 64.7016 124.009C64.6312 123.157 64.9125 122.369 65.5509 121.747C66.0572 121.224 66.7491 120.938 67.5 120.938H87.1875C88.3237 120.938 89.3531 120.251 89.7862 119.202C90.2222 118.15 89.9803 116.941 89.1759 116.137L57.9009 84.8587C56.7506 83.7056 56.5678 81.8775 57.4987 80.7806C58.0387 80.1422 58.9078 79.7766 59.6756 79.8159C60.3844 79.7569 61.0931 80.0888 61.6247 80.6231L85.4775 104.484C86.0259 105.033 86.7459 105.308 87.4659 105.308C88.1859 105.308 88.9059 105.033 89.4544 104.484C90.5541 103.388 90.5541 101.607 89.4544 100.507L81.5006 92.5509C81.4922 92.5425 80.6709 91.3022 80.6737 90.5541C80.6737 89.8031 80.9634 89.1084 81.4922 88.5853C82.0266 88.0509 82.7691 87.7247 83.5537 87.7753C84.1359 87.7134 84.9375 88.0481 85.4887 88.5966L87.435 90.5147C87.4491 90.5287 93.4312 96.5278 93.4312 96.5278C93.9797 97.0762 94.6997 97.3519 95.4197 97.3519C96.1397 97.3519 96.8597 97.0762 97.4081 96.5278C98.5078 95.4281 98.5078 93.6506 97.4081 92.5509L91.4737 86.6166C91.4569 86.5997 91.4541 86.5772 91.4372 86.5631C90.9141 86.0484 90.63 85.3509 90.63 84.5972C90.63 83.8434 90.9169 83.1459 91.4484 82.62C91.9828 82.0856 92.7787 81.7734 93.4791 81.81C94.1878 81.7509 94.8966 82.0828 95.4309 82.6172L97.3997 84.5859L101.388 88.5713C101.936 89.1197 102.656 89.3925 103.376 89.3925C104.096 89.3925 104.816 89.1169 105.365 88.5684C106.464 87.4688 106.464 85.6884 105.365 84.5888L101.385 80.6119C100.302 79.5066 100.302 77.7122 101.348 76.6519C102.44 75.5972 104.313 75.6 105.356 76.6237L127.654 98.9494C128.801 100.074 129.622 101.602 129.96 103.227L130.77 107.308C131.181 109.477 132.244 111.471 133.883 113.113L143.466 122.347L119.427 146.385L103.722 130.68ZM135 167.586L120.597 153.18L150.427 123.351L164.829 137.753L135 167.586Z" fill="#4985FF"/>
</svg>
