<svg width="100" height="100" viewBox="0 0 100 100" fill="none" xmlns="http://www.w3.org/2000/svg">
<g clip-path="url(#clip0_102_4554)">
<path d="M19.1534 27.9065C18.9178 27.967 18.6292 28.0294 18.3238 28.0951C17.0797 28.3624 15.3753 28.7291 13.8112 29.7098C12.2286 30.7029 11.1578 32.0882 10.3756 33.0996C10.2023 33.3235 10.0391 33.5353 9.89687 33.7062C9.3321 34.3869 9.4102 35.4098 10.0715 35.9911C10.3683 36.2516 10.7315 36.3794 11.0931 36.3794C11.5375 36.3794 11.9797 36.1866 12.2908 35.8111C12.4683 35.5977 12.6483 35.3647 12.8391 35.118C13.5096 34.2503 14.3442 33.1712 15.4496 32.4778C16.5502 31.7876 17.8908 31.499 18.968 31.2676C19.3048 31.1947 19.6229 31.1264 19.9188 31.0503C20.7619 30.8327 21.2743 29.9526 21.0626 29.0846C20.8512 28.2163 19.9966 27.6892 19.1534 27.9065Z" fill="#4985FF"/>
<path d="M94.9122 25.0587C92.6281 22.7466 89.6906 21.1218 86.5509 20.4159C85.469 16.7352 83.2014 13.5433 80.0849 11.3473C76.6598 8.93353 72.5078 7.94073 68.3935 8.54988C67.1982 8.72766 66.0313 9.03648 64.9084 9.47178C63.5167 6.56982 61.3189 4.10381 58.5964 2.42113C55.3506 0.415245 51.4941 -0.383789 47.7363 0.172752C41.7557 1.05935 36.7678 5.21361 34.6465 10.9384C32.6871 10.4803 30.676 10.3989 28.6481 10.6982C23.777 11.4198 19.5802 14.2437 16.9951 18.5009C16.1875 18.5051 15.3792 18.5665 14.5824 18.6848C10.0694 19.3535 6.07413 21.761 3.33159 25.4646C0.583018 29.1767 -0.577933 33.745 0.0627019 38.328C0.970321 44.8218 5.34334 50.1554 11.4748 52.2473C11.6348 52.3018 11.8021 52.3296 11.9703 52.3296H13.7205C13.8192 53.2832 14.2011 54.1505 14.7773 54.8417C14.1033 55.6509 13.6948 56.7009 13.6948 57.8476V64.3368C13.6948 66.8871 15.71 68.9616 18.1875 68.9616H28.2287V76.1463C28.2287 79.0822 30.5491 81.4708 33.4011 81.4708H48.9173V83.6891C45.3583 84.5326 42.6954 87.8179 42.6954 91.7339C42.6954 96.2868 46.2935 99.9907 50.7164 99.9907C55.1389 99.9907 58.7373 96.2868 58.7373 91.7339C58.7373 87.6545 55.8481 84.2587 52.0659 83.5963V81.4708H66.3084C69.1602 81.4708 71.4808 79.0822 71.4808 76.1463V68.9616H81.596C84.0735 68.9616 86.0887 66.8871 86.0887 64.3368V57.8476C86.0887 56.7009 85.6802 55.6509 85.0062 54.8417C85.2687 54.5263 85.4916 54.1747 85.6646 53.7943H87.8059C87.9776 53.7943 88.1481 53.7652 88.3106 53.7087C96.0738 51.0028 100.872 43.0629 99.7208 34.829C99.1982 31.0927 97.5357 27.7139 94.9122 25.0587ZM55.5887 91.7339C55.5887 94.4999 53.403 96.7499 50.7164 96.7499C48.0297 96.7499 45.844 94.4999 45.844 91.7339C45.844 88.9682 48.0297 86.7182 50.7164 86.7182C53.403 86.7182 55.5887 88.9682 55.5887 91.7339ZM42.7627 46.746H35.724C34.8548 46.746 34.1497 47.4714 34.1497 48.3665C34.1497 49.2616 34.8548 49.9868 35.724 49.9868H42.7627V51.8358C42.7627 52.5989 42.1595 53.2195 41.4186 53.2195H18.1875C17.4462 53.2195 16.843 52.5989 16.843 51.8358V45.3466C16.843 44.5835 17.4462 43.9626 18.1875 43.9626H41.4186C42.1595 43.9626 42.7627 44.5835 42.7627 45.3466V46.746ZM16.843 64.3368V57.8476C16.843 57.0845 17.4462 56.4636 18.1875 56.4636H41.4186C42.1595 56.4636 42.7627 57.0845 42.7627 57.8476V59.2469H35.724C34.8548 59.2469 34.1497 59.9724 34.1497 60.8675C34.1497 61.7623 34.8548 62.4878 35.724 62.4878H42.7627V64.3368C42.7627 65.0999 42.1595 65.7205 41.4186 65.7205H18.1875C17.4462 65.7205 16.843 65.0999 16.843 64.3368ZM81.596 65.7205H58.3649C57.6236 65.7205 57.0208 65.0999 57.0208 64.3368V57.8476C57.0208 57.0845 57.6236 56.4636 58.3649 56.4636H81.596C82.3373 56.4636 82.9402 57.0845 82.9402 57.8476V59.2469H75.7535C74.884 59.2469 74.1795 59.9724 74.1795 60.8675C74.1795 61.7623 74.884 62.4878 75.7535 62.4878H82.9402V64.3368C82.9402 65.0999 82.3373 65.7205 81.596 65.7205ZM82.9402 46.746H75.7535C74.884 46.746 74.1795 47.4714 74.1795 48.3665C74.1795 49.2616 74.884 49.9868 75.7535 49.9868H82.9402V51.7133C82.8983 51.8594 82.8748 52.0136 82.8748 52.1737C82.8748 52.1995 82.8773 52.2247 82.8786 52.2502C82.7071 52.8113 82.1973 53.2195 81.596 53.2195H58.3649C57.6236 53.2195 57.0208 52.5989 57.0208 51.8358V45.3466C57.0208 44.5835 57.6236 43.9626 58.3649 43.9626H81.596C82.3373 43.9626 82.9402 44.5835 82.9402 45.3466V46.746ZM87.5395 50.5535H86.0887V45.3466C86.0887 42.7963 84.0735 40.7218 81.596 40.7218H58.3649C55.8878 40.7218 53.8722 42.7963 53.8722 45.3466V51.8358C53.8722 52.9826 54.2808 54.0326 54.9548 54.8417C54.2808 55.6509 53.8722 56.7009 53.8722 57.8476V64.3368C53.8722 66.8871 55.8878 68.9616 58.3649 68.9616H68.3322V76.1463C68.3322 77.2953 67.4243 78.2299 66.3084 78.2299H33.4011C32.2852 78.2299 31.377 77.2953 31.377 76.1463V68.9616H41.4186C43.8954 68.9616 45.911 66.8871 45.911 64.3368V57.8476C45.911 56.7009 45.5027 55.6509 44.8287 54.8417C45.5027 54.0326 45.911 52.9826 45.911 51.8358V45.3466C45.911 42.7963 43.8954 40.7218 41.4186 40.7218H18.1875C15.71 40.7218 13.6948 42.7963 13.6948 45.3466V49.0888H12.231C7.36302 47.3312 3.90429 43.0532 3.1789 37.8662C2.65985 34.1509 3.60302 30.4443 5.83572 27.4293C8.07413 24.4054 11.3398 22.4394 15.031 21.8927C15.9465 21.7567 16.8802 21.712 17.8052 21.7603C18.4071 21.796 18.9744 21.4659 19.2646 20.9214C21.3091 17.0862 24.8929 14.529 29.0957 13.9061C31.1656 13.6009 33.2129 13.7842 35.1808 14.4509C35.59 14.5901 36.0367 14.5495 36.4167 14.3401C36.7964 14.1306 37.076 13.7701 37.1906 13.3424C38.6024 8.07178 42.9179 4.16132 48.1846 3.3806C54.3741 2.46393 60.4424 6.16001 62.6141 12.1679C62.7694 12.5979 63.0951 12.9401 63.509 13.1094C63.9237 13.2783 64.3884 13.2587 64.7881 13.0551C66.0646 12.4045 67.429 11.9678 68.843 11.7577C75.6405 10.7515 82.1916 15.3335 83.756 22.1917C83.9027 22.8348 84.4141 23.3221 85.0487 23.4228C91.1027 24.3845 95.7468 29.1538 96.6043 35.2907C97.5281 41.8947 93.7252 48.2708 87.5395 50.5535Z" fill="#4985FF"/>
<path d="M21.3383 46.428C20.3066 46.428 19.4707 47.2885 19.4707 48.3506C19.4707 49.413 20.3066 50.2734 21.3383 50.2734C22.3704 50.2734 23.2063 49.413 23.2063 48.3506C23.2063 47.2885 22.3704 46.428 21.3383 46.428Z" fill="#4985FF"/>
<path d="M61.5164 46.428C60.4843 46.428 59.6484 47.2885 59.6484 48.3506C59.6484 49.413 60.4843 50.2734 61.5164 50.2734C62.5481 50.2734 63.3843 49.413 63.3843 48.3506C63.3843 47.2885 62.5481 46.428 61.5164 46.428Z" fill="#4985FF"/>
<path d="M21.3383 58.929C20.3066 58.929 19.4707 59.7894 19.4707 60.8515C19.4707 61.9139 20.3066 62.7744 21.3383 62.7744C22.3704 62.7744 23.2063 61.9139 23.2063 60.8515C23.2063 59.7894 22.3704 58.929 21.3383 58.929Z" fill="#4985FF"/>
<path d="M61.5164 58.929C60.4843 58.929 59.6484 59.7894 59.6484 60.8515C59.6484 61.9139 60.4843 62.7744 61.5164 62.7744C62.5481 62.7744 63.3843 61.9139 63.3843 60.8515C63.3843 59.7894 62.5481 58.929 61.5164 58.929Z" fill="#4985FF"/>
</g>
<defs>
<clipPath id="clip0_102_4554">
<rect width="100" height="100" fill="white"/>
</clipPath>
</defs>
</svg>
