<svg width="100" height="100" viewBox="0 0 100 100" fill="none" xmlns="http://www.w3.org/2000/svg">
<path d="M83.7992 6.25002C82.0561 6.24637 80.3433 6.70546 78.8357 7.58041C77.3281 8.45535 76.0798 9.71478 75.2182 11.2301C74.3567 12.7453 73.9128 14.4621 73.9319 16.2051C73.951 17.9481 74.4324 19.6548 75.3269 21.1508L60.0167 35.9512C57.8261 34.1388 55.0897 33.1158 52.2474 33.0467C49.4051 32.9775 46.6222 33.8662 44.346 35.5699L32.9485 24.677C33.5934 23.6394 33.9376 22.443 33.9426 21.2212C33.9426 19.9029 33.5517 18.6141 32.8193 17.518C32.0868 16.4218 31.0458 15.5674 29.8279 15.0629C28.6099 14.5583 27.2697 14.4263 25.9766 14.6834C24.6836 14.9406 23.4959 15.5753 22.5636 16.5075C21.6314 17.4396 20.9964 18.6273 20.7391 19.9203C20.4819 21.2133 20.6138 22.5535 21.1182 23.7716C21.6226 24.9896 22.4768 26.0307 23.5729 26.7633C24.669 27.4958 25.9577 27.8869 27.276 27.887C28.5003 27.8821 29.6992 27.5368 30.7384 26.8896L42.0741 37.7233C40.1326 40.0878 39.1118 43.0747 39.1999 46.1328C39.2881 49.191 40.4793 52.1141 42.5538 54.3628L22.5296 73.0698C20.6143 71.4564 18.1613 70.6242 15.6597 70.7391C13.158 70.854 10.7916 71.9076 9.03233 73.6898C7.27303 75.4719 6.2501 77.8518 6.16753 80.3547C6.08496 82.8576 6.94881 85.2996 8.58682 87.1939C10.2248 89.0882 12.5167 90.2954 15.0053 90.575C17.4939 90.8545 19.9964 90.1858 22.0139 88.7021C24.0313 87.2185 25.4154 85.0289 25.8902 82.57C26.365 80.1112 25.8955 77.5637 24.5754 75.4357L44.942 56.4087C46.6581 57.5432 48.6251 58.2419 50.6723 58.4439V74.006C48.2031 74.4002 45.9731 75.7106 44.4271 77.6759C42.8811 79.6412 42.1326 82.117 42.3309 84.6096C42.5292 87.1022 43.6597 89.4286 45.497 91.1247C47.3342 92.8209 49.7433 93.7623 52.2438 93.7611C54.7443 93.76 57.1525 92.8164 58.9883 91.1186C60.824 89.4208 61.9524 87.0934 62.1484 84.6006C62.3444 82.1078 61.5937 79.6327 60.0459 77.6688C58.4981 75.7049 56.2669 74.3965 53.7973 74.0046V58.3543C56.0792 58.0202 58.2266 57.0699 60.0084 55.6059L71.6156 67.186C70.6299 68.5512 70.1804 70.2312 70.3527 71.9062C70.525 73.5813 71.307 75.1346 72.55 76.2706C73.793 77.4067 75.4102 78.0461 77.094 78.0674C78.7778 78.0886 80.4106 77.4902 81.6819 76.3859C82.9531 75.2816 83.7741 73.7485 83.9886 72.0783C84.2031 70.4081 83.7962 68.7173 82.8452 67.3276C81.8942 65.938 80.4656 64.9463 78.8311 64.5414C77.1965 64.1365 75.4702 64.3466 73.9805 65.1316L62.1514 53.3301C63.7782 51.1491 64.6575 48.5012 64.6586 45.7803C64.6596 43.0594 63.7823 40.4109 62.1572 38.2286L77.3353 23.5558C78.5376 24.6007 79.9751 25.3389 81.5249 25.7072C83.0747 26.0754 84.6906 26.0628 86.2344 25.6704C87.7783 25.278 89.2041 24.5174 90.3899 23.4538C91.5757 22.3902 92.4862 21.0552 93.0436 19.5629C93.601 18.0707 93.7886 16.4656 93.5904 14.8851C93.3922 13.3045 92.8141 11.7955 91.9055 10.4871C90.997 9.17868 89.785 8.10982 88.3733 7.37193C86.9615 6.63405 85.3921 6.2491 83.7992 6.25002ZM23.736 21.2212C23.736 20.5208 23.9437 19.8362 24.3328 19.2539C24.7219 18.6716 25.2749 18.2178 25.922 17.9498C26.569 17.6818 27.281 17.6118 27.9679 17.7485C28.6547 17.8851 29.2857 18.2225 29.7808 18.7177C30.276 19.213 30.6131 19.844 30.7497 20.5309C30.8862 21.2178 30.816 21.9297 30.5479 22.5767C30.2797 23.2237 29.8258 23.7767 29.2434 24.1656C28.661 24.5546 27.9764 24.7621 27.276 24.762C26.3374 24.7608 25.4376 24.3873 24.7739 23.7235C24.1103 23.0597 23.737 22.1598 23.736 21.2212ZM51.9266 36.1679C54.4449 36.1664 56.863 37.1544 58.6598 38.9188C60.4566 40.6833 61.4883 43.0831 61.5325 45.601C61.5767 48.1189 60.6299 50.5535 58.8962 52.3799C57.1624 54.2064 54.7805 55.2786 52.2636 55.3655C52.2534 55.3653 52.2451 55.3597 52.2348 55.3597C52.2178 55.3597 52.2038 55.3688 52.1868 55.3694C52.0995 55.3718 52.0145 55.3825 51.9266 55.3825C49.3786 55.3825 46.9349 54.3704 45.1332 52.5686C43.3315 50.7669 42.3193 48.3233 42.3193 45.7752C42.3193 43.2272 43.3315 40.7836 45.1332 38.9818C46.9349 37.1801 49.3786 36.1679 51.9266 36.1679ZM16.2027 87.3749C14.8692 87.3748 13.5656 86.9793 12.4569 86.2384C11.3481 85.4974 10.484 84.4443 9.97371 83.2123C9.46346 81.9802 9.33001 80.6245 9.59025 79.3166C9.85048 78.0087 10.4927 76.8074 11.4357 75.8645C12.3787 74.9216 13.5802 74.2795 14.8881 74.0194C16.196 73.7593 17.5517 73.8929 18.7837 74.4033C20.0157 74.9137 21.0687 75.778 21.8095 76.8868C22.5503 77.9957 22.9457 79.2993 22.9456 80.6328C22.9436 82.4205 22.2325 84.1343 20.9684 85.3983C19.7043 86.6622 17.9904 87.3731 16.2027 87.3749ZM59.0541 83.8104C59.0543 85.1575 58.6552 86.4744 57.9074 87.5948C57.1595 88.7152 56.0963 89.5888 54.8522 90.1053C53.6081 90.6217 52.2388 90.7579 50.9174 90.4965C49.5959 90.2352 48.3815 89.5881 47.4277 88.6369C46.4738 87.6857 45.8232 86.4732 45.5582 85.1525C45.2931 83.8317 45.4254 82.4621 45.9383 81.2165C46.4513 79.9709 47.3219 78.9053 48.4402 78.1543C49.5584 77.4033 50.8742 77.0005 52.2213 76.9969L52.2348 76.9997L52.2514 76.9963C54.056 77.0012 55.7852 77.7211 57.0602 78.9983C58.3352 80.2754 59.0522 82.0058 59.0541 83.8104ZM80.6025 71.0068C80.6025 71.7071 80.3948 72.3918 80.0057 72.9741C79.6166 73.5564 79.0636 74.0102 78.4165 74.2782C77.7695 74.5461 77.0575 74.6162 76.3706 74.4795C75.6838 74.3428 75.0528 74.0055 74.5577 73.5103C74.0625 73.015 73.7254 72.384 73.5888 71.6971C73.4523 71.0102 73.5225 70.2982 73.7906 69.6512C74.0588 69.0043 74.5127 68.4513 75.0951 68.0623C75.6775 67.6734 76.3621 67.4658 77.0625 67.466C78.0011 67.4672 78.9009 67.8407 79.5646 68.5045C80.2282 69.1683 80.6015 70.0682 80.6025 71.0068ZM83.7992 22.8599C82.4657 22.8599 81.1621 22.4643 80.0534 21.7234C78.9446 20.9825 78.0805 19.9294 77.5702 18.6973C77.06 17.4653 76.9265 16.1096 77.1867 14.8017C77.447 13.4938 78.0892 12.2924 79.0322 11.3495C79.9752 10.4066 81.1767 9.76452 82.4846 9.50444C83.7925 9.24435 85.1482 9.37795 86.3802 9.88835C87.6122 10.3987 88.6652 11.263 89.406 12.3718C90.1468 13.4807 90.5422 14.7843 90.5421 16.1178C90.5401 17.9055 89.829 19.6193 88.5649 20.8833C87.3008 22.1473 85.5869 22.8581 83.7992 22.8599Z" fill="#4985FF"/>
</svg>
