<svg width="100" height="100" viewBox="0 0 100 100" fill="none" xmlns="http://www.w3.org/2000/svg">
<path d="M37.3929 43.8156C37.3542 44.3607 37.603 44.8865 38.0491 45.2022L49.0975 53.0146C49.3681 53.2059 49.6839 53.3014 49.9997 53.3014C50.3155 53.3014 50.6313 53.2059 50.9018 53.0146L61.9503 45.2022C62.3643 44.9094 62.6106 44.4336 62.6106 43.9264V31.4264C62.6106 30.9541 62.395 30.5162 62.0391 30.223C62.0145 30.2 61.9868 30.1768 61.9538 30.1533C61.9528 30.1525 61.9518 30.1518 61.9509 30.151L61.9503 30.1506L50.9018 22.3381C50.3608 21.9557 49.6384 21.9557 49.0975 22.3381L38.0491 30.1506C38.0479 30.1514 38.0473 30.1523 38.0462 30.1531C37.6329 30.4467 37.3835 30.9264 37.3888 31.4422C37.4196 34.4668 37.4802 42.5859 37.3929 43.8156ZM40.5401 34.4635L48.4374 40.0477V48.7203L40.5419 43.1373C40.5798 41.232 40.5608 37.276 40.5401 34.4635ZM59.4858 43.1176L51.5624 48.7205V40.0479L59.4858 34.4451V43.1176ZM49.9999 25.5275L58.3421 31.4264L49.9999 37.3252L41.6577 31.4264L49.9999 25.5275Z" fill="#4985FF"/>
<path d="M68.75 3.125H31.25C26.0805 3.125 21.875 7.33066 21.875 12.5V87.5C21.875 92.6693 26.0805 96.875 31.25 96.875H68.75C73.9195 96.875 78.125 92.6693 78.125 87.5V12.5C78.125 7.33066 73.9195 3.125 68.75 3.125ZM68.75 93.75H31.25C27.8037 93.75 25 90.9463 25 87.5H75C75 90.9463 72.1963 93.75 68.75 93.75ZM75 84.375H25V12.5C25 9.05371 27.8037 6.25 31.25 6.25H68.75C72.1963 6.25 75 9.05371 75 12.5V84.375Z" fill="#4985FF"/>
<path d="M46.875 92.1875H53.125C53.9879 92.1875 54.6875 91.4879 54.6875 90.625C54.6875 89.7621 53.9879 89.0625 53.125 89.0625H46.875C46.0121 89.0625 45.3125 89.7621 45.3125 90.625C45.3125 91.4879 46.0121 92.1875 46.875 92.1875Z" fill="#4985FF"/>
<path d="M59.375 71.875H53.8275C53.4646 70.0941 51.8865 68.75 50 68.75C48.1135 68.75 46.5354 70.0941 46.1725 71.875H40.625C39.7621 71.875 39.0625 72.5746 39.0625 73.4375C39.0625 74.3004 39.7621 75 40.625 75H46.1725C46.5354 76.7809 48.1135 78.125 50 78.125C51.8865 78.125 53.4646 76.7809 53.8275 75H59.375C60.2379 75 60.9375 74.3004 60.9375 73.4375C60.9375 72.5746 60.2379 71.875 59.375 71.875ZM50.7812 74.2188C50.7812 74.6496 50.4309 75 50 75C49.5691 75 49.2188 74.6496 49.2188 74.2188V72.6562C49.2188 72.2254 49.5691 71.875 50 71.875C50.4309 71.875 50.7812 72.2254 50.7812 72.6562V74.2188Z" fill="#4985FF"/>
<path d="M66.7795 53.1994C67.2012 52.7357 67.3195 52.0438 67.0225 51.4496C66.6365 50.6775 65.698 50.3648 64.9262 50.7508L61.8012 52.3133C61.0295 52.6992 60.7166 53.6377 61.1025 54.4096L62.665 57.5346C62.9387 58.0822 63.4906 58.3986 64.0637 58.3986C64.2984 58.3986 64.5371 58.3455 64.7613 58.2332C65.533 57.8473 65.8459 56.9088 65.46 56.1369L65.3908 55.9988C66.7672 56.774 67.1873 57.4617 67.1873 57.8123C67.1873 59.4033 61.1207 62.4998 49.9998 62.4998C38.8789 62.4998 32.8123 59.4033 32.8123 57.8123C32.8123 57.3356 33.5867 56.2361 36.4893 55.1399C37.2967 54.835 37.7039 53.9334 37.399 53.126C37.0939 52.3186 36.1922 51.9113 35.3852 52.2164C30.6762 53.9953 29.6875 56.2414 29.6875 57.8125C29.6875 62.9414 39.9059 65.625 50 65.625C60.0941 65.625 70.3125 62.9414 70.3125 57.8125C70.3125 56.5197 69.641 54.7699 66.7795 53.1994Z" fill="#4985FF"/>
<path d="M32.7847 29.2779C33.0948 29.2779 33.4081 29.1857 33.6814 28.9939L35.9989 27.3664C36.705 26.8705 36.8755 25.8959 36.3796 25.1896C35.8833 24.4834 34.9091 24.3129 34.2028 24.8089L31.8853 26.4365C31.1792 26.9324 31.0087 27.907 31.5046 28.6132C31.8087 29.0462 32.2927 29.2779 32.7847 29.2779Z" fill="#4985FF"/>
<path d="M39.2944 24.7053C39.6046 24.7053 39.9179 24.6131 40.1911 24.4213L44.3853 21.4762C45.0913 20.9803 45.2618 20.0059 44.7659 19.2994C44.2702 18.5934 43.2954 18.4227 42.5892 18.9188L38.395 21.8639C37.689 22.3598 37.5185 23.3342 38.0144 24.0406C38.3185 24.4738 38.8027 24.7053 39.2944 24.7053Z" fill="#4985FF"/>
<path d="M47.6831 18.8149C47.9933 18.8149 48.3065 18.7229 48.5796 18.5311L50.0124 17.5251L51.4587 18.5116C52.1712 18.9979 53.1437 18.8141 53.6298 18.1013C54.1161 17.3884 53.9325 16.4163 53.2194 15.93L50.8798 14.3341C50.3425 13.9677 49.6339 13.9724 49.1017 14.3462L46.7839 15.9737C46.0776 16.4696 45.9071 17.444 46.403 18.1505C46.7071 18.5833 47.1911 18.8149 47.6831 18.8149Z" fill="#4985FF"/>
<path d="M55.7115 21.4126L59.9642 24.3137C60.2336 24.4975 60.54 24.5856 60.8433 24.5856C61.3426 24.5856 61.8328 24.3469 62.1353 23.9034C62.6217 23.1905 62.4381 22.2184 61.725 21.7321L57.4723 18.8309C56.7598 18.3448 55.7875 18.5282 55.3012 19.2413C54.8148 19.9542 54.9986 20.9264 55.7115 21.4126Z" fill="#4985FF"/>
<path d="M64.2174 27.2147L66.557 28.8106C66.8264 28.9944 67.1326 29.0825 67.4361 29.0825C67.9351 29.0825 68.4256 28.8436 68.7281 28.4003C69.2144 27.6874 69.0308 26.7153 68.3178 26.229L65.9781 24.6331C65.266 24.1471 64.2933 24.3303 63.807 25.0434C63.3207 25.7563 63.5045 26.7284 64.2174 27.2147Z" fill="#4985FF"/>
</svg>
