<svg width="100" height="100" viewBox="0 0 100 100" fill="none" xmlns="http://www.w3.org/2000/svg">
<path d="M91.25 80.9375V80.7813C90.625 77.8125 89.2188 75.1562 87.0312 73.125C86.4062 72.5 85.4688 72.5 84.8438 73.125C84.2188 73.75 84.2188 74.6875 84.8438 75.3125C86.5625 77.0313 87.6562 79.0625 88.125 81.4062L88.5938 83.75C88.75 84.5312 88.2812 85.3125 87.6562 85.4688C80.3125 88.125 72.9688 88.125 65.625 85.4688C64.8438 85.1563 64.5313 84.375 64.6875 83.75L65.1562 81.4062C65.625 79.0625 66.7188 77.0313 68.4375 75.3125C69.0625 74.6875 69.0625 73.75 68.4375 73.125C67.8125 72.5 66.875 72.5 66.25 73.125C64.0625 75.1562 62.6562 77.8125 62.0312 80.7813V80.9375C59.2188 82.3438 57.3438 84.0625 56.7188 85.9375H43.5938C42.9688 84.0625 41.0938 82.1875 38.2812 80.9375V80.7813C37.6562 77.8125 36.25 75.1562 34.0625 73.125C33.4375 72.5 32.5 72.5 31.875 73.125C31.25 73.75 31.25 74.6875 31.875 75.3125C33.5938 77.0313 34.6875 79.0625 35.1562 81.4062L35.625 83.75C35.7812 84.5312 35.3125 85.3125 34.6875 85.4688C27.3438 88.125 20 88.125 12.6563 85.4688C11.875 85.1563 11.5625 84.375 11.7188 83.75L12.1875 81.4062C12.6562 79.0625 13.75 77.0313 15.4687 75.3125C16.0937 74.6875 16.0937 73.75 15.4687 73.125C14.8437 72.5 13.9062 72.5 13.2812 73.125C11.0938 75.1562 9.6875 77.8125 9.0625 80.7813V80.9375C5.15625 82.6562 3.125 85 3.125 87.5C3.125 92.8125 11.875 96.875 23.4375 96.875C33.9062 96.875 41.875 93.5938 43.4375 89.0625H56.5625C58.125 93.5938 66.25 96.875 76.5625 96.875C88.125 96.875 96.875 92.8125 96.875 87.5C96.875 85 94.8438 82.6562 91.25 80.9375ZM23.4375 93.75C13.5938 93.75 6.25 90.4688 6.25 87.5C6.25 86.5625 7.03125 85.625 8.28125 84.6875C8.59375 86.4063 9.6875 87.8125 11.25 88.4375C15.3125 89.8438 19.375 90.625 23.4375 90.625C27.5 90.625 31.5625 89.8438 35.4688 88.4375C37.0312 87.8125 38.2812 86.4063 38.4375 84.6875C39.6875 85.625 40.4688 86.5625 40.4688 87.5C40.625 90.4688 33.2812 93.75 23.4375 93.75ZM76.5625 93.75C66.7188 93.75 59.375 90.4688 59.375 87.5C59.375 86.5625 60.1562 85.625 61.4062 84.6875C61.7188 86.4063 62.8125 87.8125 64.375 88.4375C68.4375 89.8438 72.5 90.625 76.4062 90.625C80.4688 90.625 84.5312 89.8438 88.4375 88.4375C90 87.8125 91.25 86.4063 91.4062 84.6875C92.6562 85.625 93.4375 86.5625 93.4375 87.5C93.75 90.4688 86.4062 93.75 76.5625 93.75Z" fill="#4985FF"/>
<path d="M50 21.875C55.1562 21.875 59.375 17.6562 59.375 12.5C59.375 7.34375 55.1562 3.125 50 3.125C44.8438 3.125 40.625 7.34375 40.625 12.5C40.625 17.6562 44.8438 21.875 50 21.875ZM50 6.25C53.4375 6.25 56.25 9.0625 56.25 12.5C56.25 15.9375 53.4375 18.75 50 18.75C46.5625 18.75 43.75 15.9375 43.75 12.5C43.75 9.0625 46.5625 6.25 50 6.25Z" fill="#4985FF"/>
<path d="M23.4375 75C28.5937 75 32.8125 70.7812 32.8125 65.625C32.8125 63.5938 32.1875 61.7188 31.0937 60.1562L43.4375 43.2813C45.4687 43.5938 47.8125 43.75 50.1562 43.75C52.5 43.75 54.6875 43.5938 56.875 43.2813L69.2187 60.1562C68.125 61.7188 67.5 63.5938 67.5 65.625C67.5 70.7812 71.7187 75 76.875 75C82.0312 75 86.25 70.7812 86.25 65.625C86.25 60.4688 82.0312 56.25 76.875 56.25C74.8437 56.25 72.9687 56.875 71.5625 57.9687L60.4688 42.6562C66.7188 41.0937 70.7812 38.125 70.7812 34.375C70.7812 31.875 68.75 29.5312 65.1562 27.8125V27.6563C64.5312 24.6875 63.125 22.0312 60.9375 20C60.3125 19.375 59.375 19.375 58.75 20C58.125 20.625 58.125 21.5625 58.75 22.1875C60.4687 23.9062 61.5625 25.9375 62.0312 28.2813L62.5 30.625C62.6562 31.4063 62.1875 32.1875 61.5625 32.3438C54.2188 35 46.875 35 39.5312 32.3438C38.75 32.0313 38.4375 31.25 38.5938 30.625L39.0625 28.2813C39.5312 25.9375 40.625 23.9062 42.3438 22.1875C42.9688 21.5625 42.9688 20.625 42.3438 20C41.7188 19.375 40.7812 19.375 40.1562 20C37.9688 22.0312 36.5625 24.6875 35.9375 27.6563V27.8125C31.7188 29.5312 29.6875 31.875 29.6875 34.375C29.6875 37.9688 33.75 41.0937 40 42.6562L28.9062 57.9687C27.3437 56.875 25.4688 56.25 23.5938 56.25C18.4375 56.25 14.2188 60.4688 14.2188 65.625C14.2188 70.7812 18.2812 75 23.4375 75ZM76.5625 59.375C80 59.375 82.8125 62.1875 82.8125 65.625C82.8125 69.0625 80 71.875 76.5625 71.875C73.125 71.875 70.3125 69.0625 70.3125 65.625C70.3125 62.1875 73.125 59.375 76.5625 59.375ZM32.8125 34.375C32.8125 33.4375 33.5937 32.5 34.8437 31.5625C35.1562 33.2813 36.25 34.6875 37.8125 35.3125C41.875 36.7188 45.9375 37.5 49.8438 37.5C53.9062 37.5 57.9687 36.7188 61.875 35.3125C63.4375 34.6875 64.6875 33.2813 64.8438 31.5625C66.0938 32.5 66.875 33.4375 66.875 34.375C66.875 37.3438 59.5312 40.625 49.6875 40.625C39.8437 40.625 32.8125 37.3438 32.8125 34.375ZM23.4375 59.375C26.875 59.375 29.6875 62.1875 29.6875 65.625C29.6875 69.0625 26.875 71.875 23.4375 71.875C20 71.875 17.1875 69.0625 17.1875 65.625C17.1875 62.1875 20 59.375 23.4375 59.375Z" fill="#4985FF"/>
</svg>
