<svg width="100" height="100" viewBox="0 0 100 100" fill="none" xmlns="http://www.w3.org/2000/svg">
<path d="M89.0625 3.125H10.9375C6.5625 3.125 3.125 6.5625 3.125 10.9375V73.4375C3.125 77.8125 6.5625 81.25 10.9375 81.25H32.6562L27.5 87.5H12.5C12.1875 87.5 11.875 87.6562 11.5625 87.8125L3.75 94.0625C3.28125 94.5312 2.96875 95.1562 3.28125 95.7812C3.59375 96.4062 4.0625 96.875 4.6875 96.875H95.3125C95.9375 96.875 96.5625 96.4062 96.7188 95.7812C96.875 95.1562 96.7188 94.5312 96.25 94.0625L88.4375 87.8125C88.125 87.6562 87.8125 87.5 87.5 87.5H72.6562L67.5 81.25H89.0625C93.4375 81.25 96.875 77.8125 96.875 73.4375V10.9375C96.875 6.5625 93.4375 3.125 89.0625 3.125ZM90.7812 93.75H9.21875L13.125 90.625H28.125H71.875H86.875L90.7812 93.75ZM68.5938 87.5H31.4062L36.5625 81.25H63.2812L68.5938 87.5ZM93.75 73.4375C93.75 76.0938 91.7188 78.125 89.0625 78.125H64.0625H35.9375H10.9375C8.28125 78.125 6.25 76.0938 6.25 73.4375V10.9375C6.25 8.28125 8.28125 6.25 10.9375 6.25H89.0625C91.7188 6.25 93.75 8.28125 93.75 10.9375V73.4375Z" fill="#4985FF"/>
<path d="M89.0625 9.375H10.9375C10 9.375 9.375 10 9.375 10.9375V67.1875C9.375 68.125 10 68.75 10.9375 68.75H89.0625C90 68.75 90.625 68.125 90.625 67.1875V10.9375C90.625 10 90 9.375 89.0625 9.375ZM87.5 65.625H12.5V12.5H87.5V65.625Z" fill="#4985FF"/>
<path d="M57.8125 71.875H42.1875V75H57.8125V71.875Z" fill="#4985FF"/>
<path d="M32.8125 50H37.5H43.75H48.4375H51.5625V46.875H50V26.5625C50 25.625 49.375 25 48.4375 25H34.375V20.3125C34.375 19.375 33.75 18.75 32.8125 18.75H18.75C17.8125 18.75 17.1875 19.375 17.1875 20.3125V46.875H15.625V50H18.75H32.8125ZM39.0625 46.875V42.1875H42.1875V46.875H39.0625ZM46.875 28.125V29.6875H43.75V32.8125H46.875V34.375H43.75V37.5H46.875V46.875H45.3125V40.625C45.3125 39.6875 44.6875 39.0625 43.75 39.0625H37.5C36.5625 39.0625 35.9375 39.6875 35.9375 40.625V46.875H34.375V37.5H37.5V34.375H34.375V32.8125H37.5V29.6875H34.375V28.125H46.875ZM20.3125 21.875H31.25V26.5625V46.875H20.3125V21.875Z" fill="#4985FF"/>
<path d="M25 23.4375H21.875V26.5625H25V23.4375Z" fill="#4985FF"/>
<path d="M29.6875 23.4375H26.5625V26.5625H29.6875V23.4375Z" fill="#4985FF"/>
<path d="M42.1875 29.6875H39.0625V32.8125H42.1875V29.6875Z" fill="#4985FF"/>
<path d="M42.1875 34.375H39.0625V37.5H42.1875V34.375Z" fill="#4985FF"/>
<path d="M25 28.125H21.875V31.25H25V28.125Z" fill="#4985FF"/>
<path d="M29.6875 28.125H26.5625V31.25H29.6875V28.125Z" fill="#4985FF"/>
<path d="M25 32.8125H21.875V35.9375H25V32.8125Z" fill="#4985FF"/>
<path d="M29.6875 32.8125H26.5625V35.9375H29.6875V32.8125Z" fill="#4985FF"/>
<path d="M25 37.5H21.875V40.625H25V37.5Z" fill="#4985FF"/>
<path d="M29.6875 37.5H26.5625V40.625H29.6875V37.5Z" fill="#4985FF"/>
<path d="M25 42.1875H21.875V45.3125H25V42.1875Z" fill="#4985FF"/>
<path d="M29.6875 42.1875H26.5625V45.3125H29.6875V42.1875Z" fill="#4985FF"/>
<path d="M81.25 20.3125H59.375V23.4375H81.25V20.3125Z" fill="#4985FF"/>
<path d="M75 25H65.625V28.125H75V25Z" fill="#4985FF"/>
<path d="M43.75 53.125H21.875C20.9375 53.125 20.3125 53.75 20.3125 54.6875V60.9375C20.3125 61.875 20.9375 62.5 21.875 62.5H43.75C44.6875 62.5 45.3125 61.875 45.3125 60.9375V54.6875C45.3125 53.75 44.6875 53.125 43.75 53.125ZM42.1875 59.375H23.4375V56.25H42.1875V59.375Z" fill="#4985FF"/>
<path d="M84.375 32.8125H67.1875V35.9375H84.375V32.8125Z" fill="#4985FF"/>
<path d="M64.0625 32.8125H56.25V35.9375H64.0625V32.8125Z" fill="#4985FF"/>
<path d="M84.375 39.0625H76.5625V42.1875H84.375V39.0625Z" fill="#4985FF"/>
<path d="M73.4375 39.0625H56.25V42.1875H73.4375V39.0625Z" fill="#4985FF"/>
<path d="M84.375 45.3125H65.625V48.4375H84.375V45.3125Z" fill="#4985FF"/>
<path d="M62.5 45.3125H56.25V48.4375H62.5V45.3125Z" fill="#4985FF"/>
<path d="M84.375 51.5625H76.5625V54.6875H84.375V51.5625Z" fill="#4985FF"/>
<path d="M73.4375 51.5625H56.25V54.6875H73.4375V51.5625Z" fill="#4985FF"/>
</svg>
