<svg width="100" height="100" viewBox="0 0 100 100" fill="none" xmlns="http://www.w3.org/2000/svg">
<path d="M53.125 53.125C53.9879 53.125 54.6875 52.4254 54.6875 51.5625C54.6875 50.6996 53.9879 50 53.125 50C52.2621 50 51.5625 50.6996 51.5625 51.5625C51.5625 52.4254 52.2621 53.125 53.125 53.125Z" fill="#4985FF"/>
<path d="M59.375 53.125C60.2379 53.125 60.9375 52.4254 60.9375 51.5625C60.9375 50.6996 60.2379 50 59.375 50C58.5121 50 57.8125 50.6996 57.8125 51.5625C57.8125 52.4254 58.5121 53.125 59.375 53.125Z" fill="#4985FF"/>
<path d="M65.625 53.125C66.4879 53.125 67.1875 52.4254 67.1875 51.5625C67.1875 50.6996 66.4879 50 65.625 50C64.7621 50 64.0625 50.6996 64.0625 51.5625C64.0625 52.4254 64.7621 53.125 65.625 53.125Z" fill="#4985FF"/>
<path d="M46.875 51.5625C46.875 50.7 46.1766 50 45.3125 50H35.9375C35.0734 50 34.375 50.7 34.375 51.5625C34.375 52.425 35.0734 53.125 35.9375 53.125H45.3125C46.1766 53.125 46.875 52.425 46.875 51.5625Z" fill="#4985FF"/>
<path d="M53.125 40.625C53.9879 40.625 54.6875 39.9254 54.6875 39.0625C54.6875 38.1996 53.9879 37.5 53.125 37.5C52.2621 37.5 51.5625 38.1996 51.5625 39.0625C51.5625 39.9254 52.2621 40.625 53.125 40.625Z" fill="#4985FF"/>
<path d="M59.375 40.625C60.2379 40.625 60.9375 39.9254 60.9375 39.0625C60.9375 38.1996 60.2379 37.5 59.375 37.5C58.5121 37.5 57.8125 38.1996 57.8125 39.0625C57.8125 39.9254 58.5121 40.625 59.375 40.625Z" fill="#4985FF"/>
<path d="M65.625 40.625C66.4879 40.625 67.1875 39.9254 67.1875 39.0625C67.1875 38.1996 66.4879 37.5 65.625 37.5C64.7621 37.5 64.0625 38.1996 64.0625 39.0625C64.0625 39.9254 64.7621 40.625 65.625 40.625Z" fill="#4985FF"/>
<path d="M45.3125 37.5H35.9375C35.0734 37.5 34.375 38.2 34.375 39.0625C34.375 39.925 35.0734 40.625 35.9375 40.625H45.3125C46.1766 40.625 46.875 39.925 46.875 39.0625C46.875 38.2 46.1766 37.5 45.3125 37.5Z" fill="#4985FF"/>
<path d="M53.125 28.125C53.9879 28.125 54.6875 27.4254 54.6875 26.5625C54.6875 25.6996 53.9879 25 53.125 25C52.2621 25 51.5625 25.6996 51.5625 26.5625C51.5625 27.4254 52.2621 28.125 53.125 28.125Z" fill="#4985FF"/>
<path d="M59.375 28.125C60.2379 28.125 60.9375 27.4254 60.9375 26.5625C60.9375 25.6996 60.2379 25 59.375 25C58.5121 25 57.8125 25.6996 57.8125 26.5625C57.8125 27.4254 58.5121 28.125 59.375 28.125Z" fill="#4985FF"/>
<path d="M65.625 28.125C66.4879 28.125 67.1875 27.4254 67.1875 26.5625C67.1875 25.6996 66.4879 25 65.625 25C64.7621 25 64.0625 25.6996 64.0625 26.5625C64.0625 27.4254 64.7621 28.125 65.625 28.125Z" fill="#4985FF"/>
<path d="M35.9375 25C35.0734 25 34.375 25.7 34.375 26.5625C34.375 27.425 35.0734 28.125 35.9375 28.125H45.3125C46.1766 28.125 46.875 27.425 46.875 26.5625C46.875 25.7 46.1766 25 45.3125 25H35.9375Z" fill="#4985FF"/>
<path d="M63.7156 75.4576C63.1047 74.8467 62.1172 74.8467 61.5063 75.4576C60.8953 76.0686 60.8953 77.0561 61.5063 77.667L64.0156 80.1764L55.1766 89.0154L51.0266 84.8654C50.5391 84.3795 49.7922 84.2686 49.1891 84.5904C47.7844 85.3373 46.325 85.9436 44.8531 86.3967C44.1969 86.5982 43.75 87.2045 43.75 87.8904V93.7498H31.25V87.8904C31.25 87.2045 30.8031 86.5982 30.1469 86.3967C28.675 85.9436 27.2156 85.3373 25.8109 84.5904C25.2078 84.2686 24.4609 84.3779 23.9734 84.8654L19.8234 89.0154L10.9844 80.1764L15.1344 76.0264C15.6203 75.5404 15.7313 74.7967 15.4109 74.1904C14.6625 72.7795 14.0563 71.3201 13.6047 69.8529C13.4016 69.1982 12.7953 68.7498 12.1094 68.7498H6.25V56.2498H12.1094C12.7953 56.2498 13.4016 55.8014 13.6031 55.1467C14.0547 53.6795 14.6625 52.2186 15.4094 50.8092C15.7297 50.2029 15.6188 49.4576 15.1328 48.9732L10.9828 44.8232L19.8219 35.9842L22.3313 38.4936C22.9422 39.1045 23.9297 39.1045 24.5406 38.4936C25.1516 37.8826 25.1516 36.8951 24.5406 36.2842L20.9266 32.6701C20.3156 32.0592 19.3281 32.0592 18.7172 32.6701L7.66875 43.7186C7.375 44.0123 7.21094 44.4092 7.21094 44.8232C7.21094 45.2373 7.375 45.6357 7.66875 45.9279L12.125 50.3842C11.6922 51.2842 11.3094 52.2014 10.9813 53.1248H4.6875C3.82344 53.1248 3.125 53.8248 3.125 54.6873V70.3123C3.125 71.1748 3.82344 71.8748 4.6875 71.8748H10.9813C11.3094 72.7982 11.6922 73.7154 12.1234 74.617L7.66719 79.0732C7.37344 79.367 7.20937 79.7639 7.20937 80.1779C7.20937 80.592 7.37344 80.9904 7.66719 81.2826L18.7156 92.3311C19.3266 92.942 20.3141 92.942 20.925 92.3311L25.3813 87.8748C26.2812 88.3076 27.1984 88.6889 28.1234 89.017V95.3123C28.1234 96.1748 28.8219 96.8748 29.6859 96.8748H45.3109C46.175 96.8748 46.8734 96.1748 46.8734 95.3123V89.0186C47.7984 88.6904 48.7156 88.3076 49.6156 87.8764L54.0719 92.3326C54.6828 92.9436 55.6703 92.9436 56.2813 92.3326L67.3297 81.2842C67.9406 80.6732 67.9406 79.6857 67.3297 79.0748L63.7156 75.4576Z" fill="#4985FF"/>
<path d="M23.363 62.5076C22.5036 62.5936 21.877 63.3576 21.963 64.217C22.838 73.0373 30.1895 79.6873 39.063 79.6873C41.6192 79.6873 44.113 79.1092 46.4786 77.9701C47.2567 77.5951 47.5833 76.6623 47.2098 75.8842C46.8348 75.1076 45.902 74.7811 45.1239 75.1545C43.1848 76.0889 41.1458 76.5623 39.063 76.5623C31.8036 76.5623 25.7895 71.1217 25.0723 63.9076C24.9864 63.0498 24.213 62.4201 23.363 62.5076Z" fill="#4985FF"/>
<path d="M95.3125 18.75H91.0094C90.9234 18.5328 90.8344 18.3172 90.7375 18.1L93.7812 15.0547C94.3922 14.4438 94.3922 13.4562 93.7812 12.8453L87.1531 6.21719C86.5422 5.60625 85.5547 5.60625 84.9437 6.21719L81.9 9.26094C81.6828 9.16719 81.4672 9.07656 81.25 8.98906V4.6875C81.25 3.825 80.5516 3.125 79.6875 3.125H70.3125C69.4484 3.125 68.75 3.825 68.75 4.6875V8.98906C68.5328 9.075 68.3172 9.16563 68.1 9.26094L65.0563 6.21719C64.4453 5.60625 63.4578 5.60625 62.8469 6.21719L56.2188 12.8453C55.6078 13.4562 55.6078 14.4438 56.2188 15.0547C56.8297 15.6656 57.8172 15.6656 58.4281 15.0547L63.9516 9.53125L66.675 12.2547C67.1594 12.7391 67.8984 12.8484 68.5031 12.5344C69.2562 12.1406 70.0234 11.8203 70.7828 11.5813C71.4328 11.3781 71.875 10.775 71.875 10.0922V6.25H78.125V10.0922C78.125 10.775 78.5672 11.3781 79.2172 11.5828C79.9766 11.8219 80.7438 12.1422 81.4969 12.5359C82.0984 12.85 82.8391 12.7406 83.325 12.2562L86.0484 9.53281L90.4672 13.9516L87.7437 16.6766C87.2609 17.1594 87.1469 17.9 87.4625 18.5047C87.8578 19.2609 88.1781 20.0281 88.4156 20.7828C88.6219 21.4344 89.225 21.8766 89.9062 21.8766H93.75V28.1266H89.9078C89.225 28.1266 88.6234 28.5688 88.4172 29.2203C88.1797 29.975 87.8594 30.7422 87.4641 31.4984C87.1484 32.1031 87.2625 32.8438 87.7453 33.3266L90.4688 36.0516L86.05 40.4703L83.3266 37.7469C82.8406 37.2609 82.1 37.1516 81.4984 37.4672C80.7453 37.8609 79.9781 38.1813 79.2188 38.4203C78.5672 38.6219 78.125 39.225 78.125 39.9078V45.3125C78.125 46.175 78.8234 46.875 79.6875 46.875C80.5516 46.875 81.25 46.175 81.25 45.3125V41.0109C81.4672 40.925 81.6828 40.8344 81.9 40.7391L84.9437 43.7828C85.5547 44.3937 86.5422 44.3937 87.1531 43.7828L87.5 43.4359V62.7875C86.1766 63.2594 85.1344 64.3016 84.6625 65.625H68.75V64.0625C68.75 63.2 68.0516 62.5 67.1875 62.5H56.25V59.375H73.4375C74.3016 59.375 75 58.675 75 57.8125V20.3125C75 19.45 74.3016 18.75 73.4375 18.75H62.5C61.6359 18.75 60.9375 19.45 60.9375 20.3125C60.9375 21.175 61.6359 21.875 62.5 21.875H71.875V31.25H31.25V21.875H56.25C57.1141 21.875 57.8125 21.175 57.8125 20.3125C57.8125 19.45 57.1141 18.75 56.25 18.75H29.6875C28.8234 18.75 28.125 19.45 28.125 20.3125V57.8125C28.125 58.675 28.8234 59.375 29.6875 59.375H35.9375C36.8016 59.375 37.5 58.675 37.5 57.8125C37.5 56.95 36.8016 56.25 35.9375 56.25H31.25V46.875H71.875V56.25H42.1875C41.3234 56.25 40.625 56.95 40.625 57.8125C40.625 58.675 41.3234 59.375 42.1875 59.375H46.875V62.5H37.5C36.6359 62.5 35.9375 63.2 35.9375 64.0625V65.625H31.25C30.3859 65.625 29.6875 66.325 29.6875 67.1875C29.6875 68.05 30.3859 68.75 31.25 68.75H35.9375V70.3125C35.9375 71.175 36.6359 71.875 37.5 71.875H67.1875C68.0516 71.875 68.75 71.175 68.75 70.3125V68.75H84.6625C85.3094 70.5641 87.0281 71.875 89.0625 71.875C91.6469 71.875 93.75 69.7719 93.75 67.1875C93.75 65.1531 92.4391 63.4344 90.625 62.7875V40.3109L93.7828 37.1531C94.3938 36.5422 94.3938 35.5547 93.7828 34.9438L90.7391 31.8984C90.8359 31.6828 90.925 31.4656 91.0109 31.2484H95.3125C96.1766 31.2484 96.875 30.5484 96.875 29.6859V20.3109C96.875 19.45 96.1766 18.75 95.3125 18.75ZM31.25 43.75V34.375H71.875V43.75H31.25ZM65.625 68.75H39.0625V65.625H48.4375C49.3016 65.625 50 64.925 50 64.0625V59.375H53.125V64.0625C53.125 64.925 53.8234 65.625 54.6875 65.625H65.625V68.75ZM89.0625 68.75C88.2 68.75 87.5 68.0484 87.5 67.1875C87.5 66.3266 88.2 65.625 89.0625 65.625C89.925 65.625 90.625 66.3266 90.625 67.1875C90.625 68.0484 89.925 68.75 89.0625 68.75Z" fill="#4985FF"/>
<path d="M78.7458 29.969C78.0568 30.4893 77.9208 31.469 78.4411 32.158C78.7474 32.5643 79.2161 32.7783 79.6896 32.7783C80.0177 32.7783 80.349 32.6752 80.6302 32.4627C83.0099 30.6627 84.3755 27.9424 84.3755 25.0002C84.3755 22.058 83.0099 19.3377 80.6302 17.5393C79.9443 17.019 78.9615 17.1533 78.4427 17.844C77.9224 18.5315 78.0583 19.5127 78.7474 20.033C80.338 21.2346 81.2505 23.0455 81.2505 25.0002C81.2505 26.9549 80.338 28.7658 78.7458 29.969Z" fill="#4985FF"/>
</svg>
