<svg width="434" height="350" viewBox="0 0 434 350" fill="none" xmlns="http://www.w3.org/2000/svg">
<g clip-path="url(#clip0_115_94)">
<path d="M433.948 349.661H105.169C92.3498 347.18 79.5341 344.712 66.7304 342.251C53.0361 339.621 38.2795 336.868 26.4223 328.971C9.6808 317.819 0.0281029 300.052 10.0961 280.849C18.7105 264.426 37.5606 256.846 55.001 254.418C73.264 251.873 91.9224 251 110.605 251C128.409 251 146.232 251.796 163.741 252.689C217.759 255.454 262.863 272.16 313.647 288.116C329.382 293.061 345.76 299.496 360.924 304.892C384.419 313.251 410.21 325.382 433.948 339.003V349.661Z" fill="#4379D2"/>
<path d="M434.373 274.023C422.572 271.814 410.738 269.76 398.813 268.298C373.054 265.135 344.356 261.567 320.577 250.434C310.314 245.627 300.054 237.848 308.033 225.969C314.255 216.716 326.6 215.129 338.209 215.129C343.976 215.129 349.559 215.519 354.116 215.559C371.584 215.697 389.209 218.283 406.553 220.224C415.83 221.263 425.148 222.36 434.373 223.89V274.023Z" fill="#4379D2"/>
<path d="M248.056 99.0511C237.281 99.0511 228.511 107.942 228.511 118.872C228.511 129.805 237.281 138.696 248.056 138.696C258.835 138.696 267.597 129.805 267.597 118.872C267.597 107.942 258.835 99.0511 248.056 99.0511ZM248.056 142.643C235.136 142.643 224.625 131.981 224.625 118.872C224.625 105.77 235.136 95.1089 248.056 95.1089C260.971 95.1089 271.487 105.77 271.487 118.872C271.487 131.981 260.971 142.643 248.056 142.643Z" fill="#DFECF4"/>
<path d="M306.677 188.476H264.232V131.596H306.677V188.476Z" fill="#DADADA"/>
<path d="M295.899 202.425H240.199V111.917H295.899V202.425Z" fill="#EDEDED"/>
<path d="M293.559 119.387H244.545V117.462H293.559V119.387Z" fill="#DADADA"/>
<path d="M293.559 125.185H244.545V123.26H293.559V125.185Z" fill="#DADADA"/>
<path d="M293.559 130.991H244.545V129.062H293.559V130.991Z" fill="#DADADA"/>
<path d="M293.559 136.788H244.545V134.864H293.559V136.788Z" fill="#DADADA"/>
<path d="M293.559 142.59H244.545V140.662H293.559V142.59Z" fill="#DADADA"/>
<path d="M293.559 148.392H244.545V146.459H293.559V148.392Z" fill="#DADADA"/>
<path d="M293.559 154.189H244.545V152.261H293.559V154.189Z" fill="#DADADA"/>
<path d="M293.559 159.991H244.545V158.062H293.559V159.991Z" fill="#DADADA"/>
<path d="M293.559 165.793H244.545V163.86H293.559V165.793Z" fill="#DADADA"/>
<path d="M293.559 171.59H244.545V169.662H293.559V171.59Z" fill="#DADADA"/>
<path d="M293.559 177.391H244.545V175.463H293.559V177.391Z" fill="#DADADA"/>
<path d="M293.559 183.193H244.545V181.261H293.559V183.193Z" fill="#DADADA"/>
<path d="M293.559 188.991H244.545V187.066H293.559V188.991Z" fill="#DADADA"/>
<path d="M293.559 194.793H244.545V192.864H293.559V194.793Z" fill="#DADADA"/>
<path d="M85.8496 45.6587L85.8856 94.0695C88.737 88.3815 93.178 84.3013 99.4321 82.0724C102.455 80.9965 105.59 80.083 108.841 79.6932L108.825 59.4422C105.57 59.1377 102.435 58.3054 99.4121 57.3067C93.154 55.2402 88.7051 51.2655 85.8496 45.6587Z" fill="#FF654F"/>
<path d="M132.498 60.7252C129.323 59.085 125.553 59.2677 121.787 59.4057L121.803 79.3969C125.569 79.4416 129.343 79.5268 132.51 77.8054C135.685 76.0759 136.344 72.7183 136.184 69.2186C136.34 65.7149 135.673 62.3695 132.498 60.7252Z" fill="#FF654F"/>
<path d="M79.8095 94.1427L83.887 94.0899L83.8431 45.6831L79.7695 45.7359L79.8095 94.1427Z" fill="#FF654F"/>
<path d="M70.4473 70.0586C70.4513 71.9993 73.2948 73.7451 78.0472 75.0889L78.0392 64.8335C73.2868 66.2991 70.4473 68.118 70.4473 70.0586Z" fill="#FF654F"/>
<path d="M109.803 79.5997L120.73 79.4576L120.71 59.373L109.787 59.5151L109.803 79.5997Z" fill="#FF654F"/>
<path d="M112.625 99.5709C112.625 100.984 113.756 102.121 115.145 102.1L116.403 102.088C117.793 102.068 118.919 100.907 118.919 99.4897L118.903 80.8911L112.609 80.9723L112.625 99.5709Z" fill="#FF654F"/>
<path d="M64.5579 90.1922C65.0931 89.6401 65.6322 89.0961 66.1674 88.5439C62.0978 84.1713 59.5898 78.191 59.5898 71.5896C59.5898 63.8269 63.0563 56.9291 68.4517 52.4875C67.9645 52.0287 67.4813 51.5659 66.998 51.1152C60.5642 55.4147 56.291 62.9784 56.291 71.5896C56.291 79.0599 59.5059 85.7425 64.5579 90.1922Z" fill="#84A9FF"/>
<path d="M58.1309 96.7166C58.7659 96.0792 59.4009 95.4458 60.0359 94.8084C53.8897 89.1529 50.0078 80.8503 50.0078 71.5896C50.0078 61.2976 54.8002 52.1911 62.1685 46.5843C61.5775 46.0322 60.9864 45.476 60.3993 44.9238C51.6812 50.2708 45.8145 60.2095 45.8145 71.5896C45.8145 81.9546 50.6787 91.122 58.1309 96.7166Z" fill="#84A9FF"/>
<path d="M51.5751 103.184C52.3339 102.445 53.0927 101.706 53.8475 100.963C45.0814 93.838 39.4304 82.6813 39.4304 70.1279C39.4304 57.3756 45.2571 46.0687 54.2549 38.9597C53.52 38.2249 52.7972 37.486 52.0743 36.7349C41.3274 43.5596 34.1348 55.9628 34.1348 70.1279C34.1348 84.0739 41.1037 96.2984 51.5751 103.184Z" fill="#84A9FF"/>
<path d="M149.221 156.206C137.796 151.931 132.001 138.895 136.278 127.084C140.551 115.278 153.279 109.172 164.701 113.447C176.123 117.722 181.918 130.759 177.64 142.561C173.363 154.371 160.639 160.482 149.221 156.206ZM179.501 155.057C180.891 153.421 182.125 151.627 183.18 149.674C185.037 149.487 187.077 150.129 188.911 150.811L188.946 150.705L191.486 143.641L191.522 143.543C189.693 142.853 187.724 142.017 186.422 140.653C186.854 138.473 187.049 136.288 187.026 134.128C188.551 133.016 190.644 132.525 192.569 132.159L192.553 132.054L191.339 124.665L191.323 124.563C189.394 124.912 187.265 125.201 185.468 124.697C184.793 122.635 183.91 120.645 182.828 118.778C183.619 117.032 185.208 115.526 186.71 114.223L186.646 114.137L182.005 108.405L181.942 108.323C180.432 109.61 178.719 110.954 176.91 111.45C175.34 110.025 173.611 108.77 171.73 107.706C171.57 105.79 172.233 103.683 172.908 101.791L172.812 101.75L165.983 99.1967L165.883 99.1601C165.196 101.052 164.349 103.09 163.008 104.442C160.847 104.004 158.678 103.825 156.534 103.874C155.46 102.315 155.004 100.175 154.669 98.1938L154.565 98.2141L147.38 99.5621L147.277 99.5823C147.604 101.56 147.864 103.748 147.356 105.603C145.348 106.33 143.415 107.264 141.59 108.405C139.892 107.605 138.451 105.997 137.196 104.462L137.117 104.531L131.506 109.387L131.426 109.456C132.668 110.995 133.954 112.737 134.417 114.596C133.027 116.228 131.789 118.027 130.739 119.975C128.878 120.162 126.837 119.517 125.004 118.843L124.968 118.94L122.428 126.009L122.396 126.11C124.221 126.792 126.194 127.637 127.496 128.997C127.069 131.181 126.869 133.361 126.897 135.521C125.363 136.642 123.275 137.129 121.35 137.486L121.366 137.596L122.576 144.985L122.6 145.09C124.525 144.741 126.653 144.453 128.454 144.96C129.121 147.023 130.008 149 131.09 150.872C130.295 152.63 128.71 154.124 127.204 155.427L127.272 155.508L131.909 161.249L131.977 161.33C133.49 160.039 135.2 158.699 137.009 158.212C138.578 159.621 140.312 160.879 142.189 161.947C142.344 163.859 141.689 165.967 141.006 167.863L141.106 167.895L147.935 170.453L148.035 170.489C148.726 168.601 149.565 166.567 150.907 165.215C153.071 165.65 155.24 165.829 157.38 165.776C158.455 167.335 158.914 169.482 159.25 171.456L159.349 171.435L166.538 170.087L166.642 170.071C166.322 168.09 166.055 165.902 166.562 164.046C168.571 163.324 170.504 162.386 172.329 161.249C174.022 162.045 175.468 163.656 176.718 165.191L176.798 165.118L182.413 160.266L182.497 160.197C181.251 158.659 179.965 156.917 179.501 155.057Z" fill="#DDD7DD"/>
<path d="M162.623 119.2C154.284 116.082 144.967 120.552 141.844 129.167C138.725 137.787 142.97 147.336 151.305 150.45C159.639 153.572 168.957 149.098 172.076 140.482C175.195 131.867 170.953 122.318 162.623 119.2ZM149.779 154.672C139.196 150.709 133.804 138.586 137.77 127.641C141.728 116.703 153.561 111.023 164.148 114.99C174.727 118.944 180.119 131.071 176.157 142.009C172.196 152.946 160.358 158.626 149.779 154.672Z" fill="#DDD7DD"/>
<path d="M98.3909 240.268V207.155H84.9043V240.268H98.3909Z" fill="#DFECF4"/>
<path d="M115.405 240.268V187.213H101.918V240.268H115.405Z" fill="#DFECF4"/>
<path d="M132.418 240.268V174.038H118.932V240.268H132.418Z" fill="#DFECF4"/>
<path d="M149.434 240.268V162.902H135.943V240.268H149.434Z" fill="#DFECF4"/>
<path d="M166.448 240.268V145.46H152.957V240.268H166.448Z" fill="#DFECF4"/>
<path d="M250.959 200.683C253.79 198.893 256.594 198.134 259.374 198.126C263.168 198.113 266.934 199.494 270.708 201.581C273.978 203.387 277.772 203.379 281.067 202.027V154.428H236.063C230.719 150.6 228.814 142.829 232.408 137.165C234.741 133.495 236.378 129.784 236.654 125.936C236.853 123.114 236.322 120.219 234.785 117.215C231.602 110.999 225.132 107 218.239 107C207.943 107 199.596 115.481 199.596 125.952C199.6 133.114 204.616 137.417 205.95 143.937C206.785 148.01 205.379 152.549 201.721 154.428H161.816V195.637C161.704 196.765 161.481 197.858 160.862 198.808C157.172 204.459 149.344 206.522 143.673 202.803C140.063 200.432 136.412 198.763 132.63 198.487C129.855 198.276 127.007 198.824 124.052 200.387C117.934 203.619 114 210.196 114 217.207C114 227.67 122.343 236.155 132.634 236.155C139.683 236.155 143.921 231.052 150.334 229.696C155.055 228.701 160.43 230.857 161.381 236.204C161.533 237.044 161.605 238.144 161.816 239.143V275.658H281.067V227.536C280.488 227.609 279.913 227.727 279.35 227.889C273.056 229.732 269.21 235.148 262.181 235.688C251.917 236.48 242.968 228.66 242.189 218.226C241.67 211.235 245.104 204.378 250.959 200.683Z" fill="#84A9FF"/>
<path d="M306.966 41.8142C307.96 41.1889 308.943 40.9169 309.917 40.9169C311.247 40.9088 312.569 41.396 313.895 42.1268C315.041 42.7642 316.375 42.7642 317.529 42.2851V25.5866H301.742C299.865 24.2427 299.194 21.5144 300.46 19.5291C301.275 18.2421 301.85 16.9429 301.946 15.591C302.018 14.6003 301.83 13.5853 301.287 12.5298C300.173 10.3455 297.904 8.94482 295.484 8.94482C291.874 8.94482 288.946 11.9248 288.946 15.595C288.946 18.1081 290.708 19.6184 291.175 21.9042C291.466 23.3333 290.975 24.9288 289.689 25.5866H275.691V40.044C275.651 40.4378 275.576 40.8235 275.356 41.1565C274.062 43.1418 271.314 43.8563 269.325 42.5531C268.059 41.7289 266.782 41.1402 265.452 41.0387C264.477 40.9697 263.479 41.1605 262.44 41.7127C260.296 42.8454 258.918 45.1514 258.918 47.6118C258.914 51.282 261.841 54.2579 265.456 54.2579C267.928 54.2579 269.409 52.4675 271.666 51.9925C273.319 51.6474 275.204 52.3984 275.54 54.2741C275.588 54.5705 275.616 54.9522 275.691 55.3094V68.1145H317.529V51.2373C317.325 51.2576 317.122 51.3023 316.926 51.355C314.718 52.0006 313.368 53.9047 310.904 54.0955C307.301 54.3716 304.158 51.6311 303.891 47.965C303.707 45.5128 304.913 43.1093 306.966 41.8142Z" fill="#FF654F"/>
<path d="M334.601 78.3863C332.804 77.7529 331.058 76.8638 329.137 76.6973C325.647 76.3969 321.122 78.6826 320.22 82.3528C319.916 83.5992 320.028 85.4587 320.403 86.6117C320.874 88.0489 320.587 89.7054 320.898 91.1832C321.198 92.592 321.517 93.8141 322.504 94.9143C323.155 95.641 324.093 96.725 324.948 97.1838C324.928 97.1716 325.619 95.5598 325.783 95.4096C326.17 95.0483 326.917 95.1944 327.408 95.1457C327.768 95.1092 328.119 94.9833 328.466 94.829C328.65 94.7519 328.83 94.6707 329.002 94.5895C330.467 93.9196 331.841 93.2213 333.155 92.2388C335.567 90.4484 337.672 87.9759 337.672 84.8944C337.672 83.9971 337.648 82.9456 337.073 82.2229C337.316 82.0118 337.624 81.9225 337.88 81.7235C338.638 81.1227 339.162 80.3431 339.301 79.3606C339.309 79.3322 339.317 79.2551 339.333 79.1576C337.74 79.3079 336.011 78.8856 334.601 78.3863Z" fill="#363F48"/>
<path d="M321.639 104.077C323.224 103.391 323.56 102.092 323.759 100.366C323.975 98.4907 323.799 96.3795 323.668 94.4795C323.632 93.9233 323.616 92.8068 323.48 91.8121C323.596 91.8283 323.704 91.8364 323.827 91.8364C324.251 91.8364 324.61 91.7309 324.906 91.5522C324.914 91.7025 324.934 91.8486 324.97 92.007C325.589 94.4876 326.128 96.6678 328.4 98.1537C329.758 99.0469 331.132 99.2743 332.458 98.9576C332.402 99.8954 332.402 100.825 332.45 101.629C332.478 102.104 332.613 102.575 332.889 102.969C333.137 103.322 333.484 103.594 333.855 103.801C334.023 103.894 334.191 103.976 334.367 104.049C334.486 104.093 334.602 104.154 334.726 104.179C334.826 104.203 335.066 104.171 335.145 104.24C335.233 104.313 335.225 104.678 335.209 104.812C335.129 105.527 334.662 106.493 334.391 107.167C333.692 108.896 333.081 110.768 332.502 112.611C332.162 113.691 331.883 114.8 331.595 115.892C331.315 116.951 331.343 118.255 330.908 119.257C330.808 119.022 330.692 118.786 330.561 118.547C329.614 116.817 328.756 115.165 327.717 113.48C326.723 111.884 325.605 110.411 324.57 108.856C323.612 107.41 322.242 106.168 321.132 104.82C321 104.654 320.872 104.483 320.74 104.317C321.04 104.272 321.339 104.203 321.639 104.077Z" fill="#EFAD89"/>
<path d="M336.932 108.941C336.832 107.91 336.94 106.85 336.692 105.835C336.489 105.023 336.061 104.134 335.111 104.187L334.959 104.195L334.492 105.149C334.3 105.454 334.069 105.734 333.817 105.993C333.346 106.481 332.711 107.013 332.072 107.26C331.684 107.419 331.205 107.63 330.814 107.719C330.758 108.827 330.738 109.96 330.742 111.048C330.742 111.629 330.69 112.209 330.634 112.782C330.582 113.314 330.382 113.906 330.442 114.438C330.263 114.134 330.187 113.732 330.039 113.395C329.624 112.473 329.312 111.568 328.961 110.638C328.753 110.086 328.577 109.522 328.386 108.965C328.294 108.714 328.23 108.389 328.082 108.166C327.898 107.885 327.898 107.991 327.607 107.991C326.792 107.987 325.914 107.764 325.163 107.459C324.448 107.171 323.785 106.736 323.278 106.148C323.018 105.835 322.802 105.498 322.639 105.129C322.543 104.918 322.431 104.077 322.291 103.968C322.195 103.895 322.108 103.854 322.02 103.846C321.816 103.838 321.117 104.434 320.933 104.581C318.921 106.192 319.264 109.132 319.799 111.401C320.39 113.878 321.517 116.212 322.555 118.535C322.954 119.412 323.302 120.293 323.641 121.174C324.08 122.323 324.508 123.459 325.003 124.588C325.786 126.378 326.592 128.059 327.878 129.505C328.509 130.219 329.017 130.942 329.584 131.665C329.887 132.05 330.159 132.399 330.422 132.753C330.566 132.935 331.045 133.8 331.189 133.833L331.293 133.902C332.192 132.05 333.162 130.13 333.917 128.193C334.76 126.042 335.918 124.109 336.381 121.852C336.824 119.671 337.491 117.589 337.603 115.335C337.715 113.038 337.144 111.077 336.932 108.941Z" fill="white"/>
<path d="M300.608 66.6733C300.152 67.0875 299.837 67.6437 299.414 68.0903C299.258 68.2486 298.751 68.6587 298.395 68.6952C298.411 68.5044 298.431 68.3176 298.447 68.1227H292.209C292.241 68.5856 292.269 69.0444 292.309 69.5072C292.345 69.9213 292.461 70.2705 292.54 70.6683C292.616 71.0622 292.532 71.4803 292.528 71.8741C292.516 72.4222 292.572 72.8323 292.752 73.3235C293.1 74.2857 293.794 75.1018 294.022 76.0965L294.038 76.202C294.046 76.5918 294.006 76.9816 293.866 77.3957C293.834 77.5012 293.794 77.6149 293.755 77.7286C294.186 77.623 294.613 77.5175 295.037 77.3916C295.815 77.1561 296.586 76.8841 297.365 76.673C297.329 75.4672 297.592 74.3061 298.531 73.4575C299.158 72.8891 299.338 72.2233 299.533 71.4194C299.733 70.6156 300.308 69.9457 300.719 69.2352C301.087 68.6099 301.558 67.871 302.189 67.5259C302.848 67.1605 303.503 67.0672 303.639 66.1374C302.624 65.5203 301.418 65.9304 300.608 66.6733Z" fill="#FFC4A4"/>
<path d="M292.647 77.7284L292.631 74.4114L298.713 74.3789L298.733 77.6999L292.647 77.7284Z" fill="#EDEDED"/>
<path d="M340.016 229.169C340.056 230.05 339.281 230.411 338.562 230.606C338.307 230.671 338.047 230.683 337.783 230.679C337.58 230.671 337.248 230.711 337.065 230.626C336.709 230.472 336.358 229.908 336.142 229.591C335.779 229.067 335.371 228.568 335.156 227.959C335.076 227.715 334.948 227.281 335.076 227.029C335.2 226.802 335.591 226.7 335.819 226.631C336.278 226.493 336.725 226.424 337.212 226.359C337.648 226.298 338.171 226.193 338.578 226.323C339.157 226.518 339.597 226.704 339.72 227.346C339.832 227.926 339.984 228.576 340.016 229.169Z" fill="white"/>
<path d="M343.718 234.507C343.523 233.78 342.967 233.062 342.604 232.404C342.009 231.32 341.326 230.301 340.571 229.331C339.916 228.498 339.88 227.634 339.892 226.594C339.781 226.822 339.545 227.012 339.489 227.256C339.417 227.548 339.621 227.95 339.669 228.247C339.701 228.433 339.753 228.624 339.773 228.815C339.793 228.941 339.753 229.27 339.816 229.367C339.549 228.957 339.285 228.51 338.974 228.161C338.578 227.715 337.856 227.792 337.48 228.238C337.053 228.758 337.249 229.501 337.209 230.138C336.43 229.517 336.286 228.34 335.391 227.841C335.012 227.638 334.593 227.613 334.213 227.37C334.046 227.264 333.107 226.57 333.195 226.338C332.668 227.698 333.127 228.908 333.83 230.078C334.241 230.76 334.677 231.442 335.172 232.051C335.763 232.769 336.274 233.549 336.901 234.239C338.275 235.737 339.741 236.951 341.885 236.837C342.384 236.809 342.908 236.683 343.255 236.293C343.594 235.912 343.854 235.014 343.718 234.507Z" fill="#927CB5"/>
<path d="M343.66 235.1C343.313 235.494 342.786 235.619 342.29 235.644C340.142 235.762 338.676 234.544 337.306 233.049C336.679 232.359 336.164 231.58 335.577 230.861C335.078 230.248 334.639 229.57 334.235 228.888C333.788 228.145 333.44 227.394 333.381 226.59L333.201 226.338C332.674 227.698 333.133 228.908 333.836 230.078C334.243 230.76 334.678 231.442 335.178 232.051C335.769 232.769 336.28 233.549 336.907 234.239C338.281 235.737 339.746 236.955 341.891 236.837C342.39 236.809 342.913 236.683 343.261 236.293C343.512 236.017 343.716 235.453 343.752 234.978L343.66 235.1Z" fill="#655387"/>
<path d="M323.333 233.033C323.233 234.016 322.315 234.28 321.484 234.373C321.188 234.402 320.901 234.369 320.609 234.316C320.386 234.272 320.01 234.263 319.823 234.142C319.451 233.906 319.156 233.216 318.968 232.834C318.656 232.185 318.285 231.56 318.153 230.849C318.097 230.565 318.029 230.057 318.217 229.798C318.389 229.57 318.84 229.526 319.108 229.485C319.639 229.416 320.146 229.416 320.693 229.424C321.188 229.432 321.791 229.408 322.219 229.627C322.83 229.94 323.281 230.224 323.313 230.959C323.341 231.616 323.401 232.372 323.333 233.033Z" fill="white"/>
<path d="M326.551 239.599C326.455 238.754 325.96 237.861 325.668 237.07C325.189 235.766 324.602 234.516 323.923 233.31C323.34 232.271 323.444 231.304 323.635 230.151C323.468 230.383 323.176 230.557 323.072 230.817C322.945 231.13 323.1 231.613 323.104 231.946C323.108 232.165 323.132 232.38 323.128 232.6C323.124 232.738 323.024 233.099 323.08 233.217C322.853 232.717 322.637 232.177 322.349 231.735C321.986 231.175 321.167 231.13 320.684 231.56C320.117 232.064 320.209 232.92 320.057 233.623C319.302 232.798 319.334 231.463 318.42 230.756C318.04 230.464 317.577 230.367 317.198 230.034C317.03 229.887 316.107 228.95 316.247 228.706C315.428 230.127 315.736 231.548 316.319 232.973C316.658 233.797 317.03 234.63 317.481 235.393C318.008 236.29 318.448 237.248 319.031 238.117C320.301 240.017 321.73 241.621 324.127 241.864C324.686 241.917 325.289 241.872 325.736 241.503C326.179 241.138 326.619 240.184 326.551 239.599Z" fill="#927CB5"/>
<path d="M326.382 240.248C325.93 240.618 325.327 240.667 324.768 240.614C322.372 240.37 320.942 238.763 319.672 236.862C319.089 235.994 318.654 235.04 318.127 234.138C317.672 233.375 317.304 232.543 316.965 231.719C316.593 230.817 316.338 229.92 316.402 229.023C316.346 228.925 316.294 228.816 316.246 228.706C315.431 230.127 315.739 231.552 316.322 232.973C316.661 233.797 317.033 234.63 317.48 235.393C318.015 236.29 318.454 237.248 319.033 238.117C320.303 240.017 321.729 241.625 324.129 241.864C324.688 241.921 325.291 241.872 325.743 241.503C326.062 241.235 326.386 240.646 326.506 240.123L326.382 240.248Z" fill="#655387"/>
<path d="M340.384 156.093L340.296 156.105C340.224 156.114 340.128 156.13 340.016 156.146C339.697 156.199 339.377 156.252 339.058 156.308C337.999 156.491 336.937 156.633 335.871 156.783C334.341 156.991 332.804 157.129 331.254 157.185C328.339 157.291 325.439 157.226 322.528 157.486C320.124 157.705 317.664 157.831 315.283 157.348C315.295 158.079 315.311 158.789 315.311 159.479C315.311 171.213 315.311 182.95 315.311 194.683C315.311 206.278 314.932 217.524 315.491 229.075C315.567 230.581 316.481 231.133 317.831 231.592C319.097 232.022 322.085 232.42 323.275 231.56C324.333 230.8 323.906 228.271 323.97 227.073C324.309 220.135 324.449 213.184 324.844 206.25C325.288 198.508 326.589 190.842 327.808 183.246C327.931 182.475 328.127 181.703 328.167 180.916C327.987 182.207 328.439 183.717 328.754 184.951C329.141 186.441 329.457 187.96 329.832 189.454C330.599 192.515 331.49 195.564 331.829 198.706C332.74 207.078 332.692 215.531 332.344 223.939C332.296 225.157 331.929 226.505 332.58 227.63C332.935 228.255 334.573 228.267 335.264 228.304C336.35 228.356 337.516 228.373 338.61 228.304C340.028 228.21 340.256 228.117 340.352 226.671C341.003 216.383 341.031 206.096 341.254 195.795C341.474 185.723 341.298 175.873 340.839 165.829C340.695 162.577 340.551 159.337 340.384 156.093Z" fill="#557FC4"/>
<path d="M331.129 151.509C331.093 149.13 331.061 146.747 331.109 144.368C331.145 142.241 331.205 140.085 330.917 137.974C330.69 136.301 330.59 134.762 331.129 133.207C331.101 132.675 331.033 132.168 330.858 131.725C327.794 124.036 322.894 116.951 321.608 108.616C321.377 107.114 320.913 104.69 322.431 103.635L322.315 103.484L322.191 103.346C321.976 103.115 321.66 103.115 321.377 103.155C321.085 103.2 320.806 103.293 320.53 103.399C319.943 103.639 319.392 103.959 318.833 104.268C315.478 106.131 312.958 105.738 310.059 103.176C307.614 101.016 304.447 99.0305 303.433 95.7582C302.195 91.7632 301.672 87.6464 300.897 83.5621C300.821 83.1683 300.753 82.7664 300.685 82.3523C300.438 80.7689 300.07 79.2261 299.779 77.659C299.683 77.1758 299.687 76.579 299.639 75.9944L299.539 75.9619C298.325 76.1162 297.099 76.0959 295.833 76.0715C294.547 76.0472 293.297 76.169 292.047 76.3476C292.047 76.6805 292.027 77.0094 292.075 77.3626C292.199 78.2598 292.415 79.1449 292.502 80.0543C292.642 81.4631 293.069 82.7948 293.249 84.1874C293.493 86.1443 293.641 88.0646 294.028 89.985C294.479 92.2139 294.887 94.7229 295.482 97.2076C296.42 101.166 297.818 105.064 300.562 107.662C306.632 113.415 313.789 117.678 314.859 126.898C315.51 132.489 315.21 138.132 314.879 143.735C314.711 146.613 314.523 149.488 314.44 152.37C314.404 153.6 314.268 154.83 314.364 156.061C314.424 156.881 314.356 157.705 314.464 158.525C314.539 159.089 314.627 160.023 315.087 160.397C315.937 161.095 317.343 160.876 318.349 161.034C319.859 161.261 321.437 161.168 322.994 161.249C324.436 161.318 325.981 161.363 327.451 161.29C328.557 161.237 330.614 161.468 330.894 160.117C331.077 159.211 330.933 158.103 330.933 157.165C330.933 155.257 331.165 153.418 331.129 151.509Z" fill="#0E76B7"/>
<path d="M354.131 118.73C354.008 118.592 353.892 118.454 353.776 118.324C352.518 116.862 351.316 115.295 350.086 113.837C348.94 112.489 347.738 111.186 346.544 109.855C345.597 108.799 344.131 106.704 342.518 106.919C339.958 107.256 341.38 115.344 342.142 116.789C344 120.317 347.466 122.708 349.167 126.334C346.228 128.234 345.445 132.314 344.223 135.367C343.744 136.569 343.225 137.759 342.582 138.879C342.29 139.395 341.947 140.061 341.563 140.479C341.04 141.051 340.593 140.259 340.046 140.109C339.942 141.944 339.842 143.771 340.018 145.619C340.066 146.155 340.202 146.699 340.253 147.214C340.273 147.466 340.154 147.876 340.245 148.099C340.345 148.327 340.637 148.318 340.845 148.416C341.236 148.591 341.496 148.96 341.847 149.236C342.258 149.553 342.909 149.338 343.333 149.114C343.82 148.858 344.099 148.14 344.327 147.661C344.866 146.54 345.433 145.558 346.108 144.506C346.484 143.926 346.835 143.382 347.155 142.781C348.177 140.852 349.419 139.155 350.517 137.235C351.32 135.838 352.115 134.429 352.905 133.021C354.359 130.434 357.798 125.899 356.915 122.854C356.512 121.454 355.174 119.931 354.131 118.73Z" fill="#0E76B7"/>
<path d="M330.204 136.638C330.196 135.992 330.128 135.229 330.044 134.413C329.853 132.542 331.526 130.032 332.133 128.323C332.784 126.48 333.435 124.58 334.002 122.684C335.664 117.134 336.351 111.45 335.843 105.673C335.811 105.299 335.843 104.723 335.564 104.435C335.42 104.276 335.112 104.207 334.905 104.215C335.053 104.041 335.212 103.826 335.452 103.777C335.791 103.704 336.083 104.024 336.366 104.171C337.62 104.796 338.974 105.186 340.324 105.547C341.263 105.795 342.732 105.925 343.411 106.708C343.835 107.195 343.811 108.231 343.942 108.848C344.55 111.775 343.655 115.522 343.419 118.478C343.136 122.047 342.812 125.611 342.297 129.156C341.882 132.034 341.147 134.868 341.091 137.787C340.999 142.423 341.714 146.991 341.958 151.603C342.014 152.667 342.026 153.759 342.022 154.802C342.022 155.821 342.225 156.751 342.157 157.798C342.085 158.931 342.169 159.792 341.019 160.182C340.101 160.49 338.906 160.584 337.952 160.738C335.947 161.063 333.631 161.266 331.662 160.783L331.638 160.669C330.699 160.336 330.564 159.167 330.54 158.29C330.508 157.055 330.376 155.781 330.376 154.534C330.376 153.462 330.376 152.403 330.376 151.335C330.376 147.604 330.224 143.881 330.224 140.15C330.224 138.981 330.224 137.811 330.204 136.638Z" fill="#0B6A99"/>
<path d="M324.102 88.3203C323.786 87.687 323.131 86.5461 322.64 87.6707C322.353 88.3325 322.5 88.9983 322.488 89.6926C322.472 90.2691 322.46 90.736 322.608 91.3084C322.752 91.8809 323.159 93.9474 323.942 93.8256C324.09 93.5374 324.206 93.1882 324.194 92.8431C324.629 93.5455 324.741 94.4549 325.056 95.2141C325.448 96.156 325.855 96.9883 326.47 97.8125C327.528 99.201 329.038 100.309 330.819 100.354C334.565 100.451 336.702 96.424 337.185 93.1476C337.465 91.2394 337.561 89.5748 337.433 87.6667C337.305 85.8438 336.622 82.4009 334.146 82.8028C332.8 83.0221 333.195 85.2104 331.758 85.0521C331.111 84.979 330.616 84.5689 330.164 84.1305C329.817 83.7975 329.561 83.2413 329.162 82.9977C328.111 82.3563 326.642 83.3915 326.015 84.2035C325.016 85.5068 325.456 87.2282 325.623 88.7507C325.667 89.1567 325.715 89.5383 325.835 89.924C325.939 90.2691 326.203 90.6182 326.199 91.008C325.807 91.1054 325.264 91.2963 324.873 91.28C324.621 90.3138 324.605 89.3475 324.17 88.4502L324.102 88.3203Z" fill="#FFC4A4"/>
<path d="M341.373 140.418C341.628 140.589 341.892 140.759 342.159 140.921C342.687 141.25 342.822 141.271 343.014 141.876C343.154 142.31 343.266 142.748 343.417 143.183C343.941 144.697 345.702 146.532 344.504 148.205C344.184 148.648 343.306 149.65 342.711 149.853C342.056 150.077 342.016 149.63 341.572 149.346C340.678 148.773 339.356 148.81 338.357 148.562C337.786 148.42 337.151 148.351 336.712 147.913C336.5 147.702 336.369 147.348 336.584 147.08C336.78 146.837 337.227 146.829 337.503 146.8C338.114 146.739 338.701 146.869 339.308 146.873C340.095 146.881 340.873 147.093 341.664 147.093C341.872 147.093 342.128 147.084 342.359 147.04L342.135 146.979C341.58 146.812 341.025 146.654 340.458 146.54C339.859 146.419 339.28 146.362 338.673 146.272C338.282 146.216 337.894 146.098 337.503 146.013C337.171 145.94 336.88 145.919 336.568 145.757C336.249 145.59 335.845 145.4 335.706 145.03C335.578 144.673 335.75 144.348 336.097 144.222C336.656 144.023 337.383 144.19 337.966 144.226C339.032 144.287 340.083 144.328 341.149 144.433C341.321 144.397 341.512 144.34 341.524 144.226L341.397 144.169C340.81 143.979 340.199 143.8 339.6 143.65C338.701 143.418 337.679 143.443 336.828 143.02C336.381 142.801 335.506 142.537 335.618 141.863C335.714 141.267 336.405 141.405 336.836 141.478C337.463 141.587 338.11 141.721 338.733 141.79C339.356 141.859 340.039 141.867 340.666 141.807C340.57 141.819 340.246 141.64 340.139 141.599C339.991 141.543 339.839 141.49 339.683 141.429C339.324 141.283 339.008 141.043 338.661 140.889C337.675 140.451 336.552 140.256 335.73 139.606C335.362 139.31 335.063 138.636 335.65 138.376C336.169 138.144 336.88 138.603 337.387 138.713C337.942 138.835 338.493 138.956 339.036 139.155C339.895 139.464 340.626 139.935 341.373 140.418Z" fill="#FFC4A4"/>
<path d="M88.2009 117.443C88.129 118.117 88.0092 118.783 87.8494 119.432C87.514 120.804 86.7592 122.266 86.0363 123.46C84.5986 125.855 82.8134 128.003 80.7088 129.813C80.6329 129.87 78.1209 127.369 77.8213 127.11C76.767 126.204 75.4531 125.823 74.3029 125.051C73.0529 124.223 71.9387 123.2 70.7126 122.347C69.5305 121.523 68.7397 122.579 67.5376 122.899C66.7349 123.11 65.6846 123.147 64.8499 123.131C64.8259 121.913 64.7181 120.833 64.5424 119.639C64.3787 118.523 64.3427 117.065 64.4665 115.908C64.6822 113.915 65.7724 111.986 67.2341 110.598C67.9091 109.96 69.1671 109.579 69.6503 108.819C68.4282 108.848 67.1702 108.856 66.032 108.665C67.1183 108.146 68.2325 107.983 69.3667 107.614C70.5009 107.252 71.5952 106.595 72.7614 106.237C75.7806 105.32 81.9708 102.531 81.843 107.983C83.6761 106.684 85.7408 108.45 86.6953 109.956C88.0851 112.149 88.4844 114.848 88.2009 117.443Z" fill="#7C412E"/>
<path d="M85.6616 136.305C83.9204 135.546 83.553 134.121 83.3373 132.241C83.1057 130.183 83.2974 127.869 83.4372 125.794C83.4771 125.181 83.4931 123.959 83.6408 122.867C83.521 122.883 83.4012 122.891 83.2654 122.891C82.7982 122.891 82.4068 122.777 82.0873 122.583C82.0753 122.745 82.0514 122.907 82.0074 123.082C81.3365 125.798 80.7454 128.189 78.2494 129.813C76.7637 130.788 75.2581 131.035 73.8084 130.694C73.8643 131.721 73.8643 132.736 73.8124 133.617C73.7206 135.31 72.5424 135.988 71.2285 136.459L71.3164 136.573C72.4745 138.169 73.0536 140.284 74.3436 141.754C75.7693 143.39 78.2254 143.495 80.1663 142.704C82.5426 141.725 84.6193 139.058 86.2128 137.121C86.3605 136.934 86.5003 136.748 86.6441 136.569C86.3166 136.516 85.9891 136.443 85.6616 136.305Z" fill="#EFAD89"/>
<path d="M74.7304 270.543C73.0051 270.99 71.216 271.087 69.3789 271.169C68.2447 271.221 67.0745 271.242 66.0202 270.966C65.493 271.968 65.1895 273.146 64.6624 274.084C63.8716 275.501 62.7813 277.104 61.1319 277.661C60.1934 277.977 59.3108 278.213 58.3803 278.602C57.7613 278.866 56.2277 279.195 55.8603 279.82C55.8004 279.918 55.7565 280.019 55.7285 280.121C55.9122 280.226 56.08 280.381 56.2277 280.588C56.687 281.225 58.1008 281.716 58.8276 281.81C59.9338 281.948 61.1839 282.029 62.2941 281.956C63.4682 281.879 64.6983 281.802 65.8165 281.4C66.2359 281.258 66.6153 281.067 66.9747 280.856C67.1624 280.697 67.3621 280.555 67.5737 280.413C68.8797 279.134 70.5251 278.067 72.3102 277.807C73.3047 277.665 74.2352 277.563 75.0978 277.007C75.4532 276.78 75.7887 276.536 76.1202 276.284C76.0603 274.969 75.8047 273.694 75.5012 272.456C75.3374 271.794 75.0499 271.165 74.7304 270.543Z" fill="#0F465A"/>
<path d="M71.403 278.151L71.4189 278.176C71.5148 278.281 71.5108 279.316 71.5347 279.316C73.0444 279.373 75.0012 278.127 76.1394 277.254C76.1554 276.791 76.1394 276.328 76.1035 275.874C75.177 276.584 74.1666 277.299 73.0124 277.514C71.9381 277.709 70.8079 277.814 69.8414 278.366C69.0467 278.821 68.3278 279.454 67.569 279.97C65.2966 281.517 62.3733 281.371 59.7734 281.2C59.1025 281.156 56.7702 280.652 55.9475 279.702L55.8636 279.816C54.8053 281.594 58.8788 282.52 59.8053 282.585C62.4092 282.747 65.3326 282.897 67.601 281.354C68.0603 281.042 68.3278 280.555 68.6433 280.108C69.0707 279.507 69.7176 279.032 70.3326 278.638C70.5124 278.529 70.6681 278.395 70.8478 278.289C70.9716 278.212 71.2632 278.029 71.403 278.151Z" fill="#0C3C49"/>
<path d="M93.2729 273.417C90.062 273.726 86.7313 273.425 83.5084 272.971C83.4964 273.758 83.5523 274.566 83.2368 275.321C82.7456 276.474 81.899 277.047 81.4157 278.09C80.9085 279.186 80.5291 280.21 79.7943 281.249C79.0954 282.231 78.0091 282.918 77.1984 283.803C76.803 284.237 76.3997 284.732 76.2359 285.317C76.0403 285.991 76.6673 286.503 77.1545 286.892C77.482 287.16 77.8694 287.282 78.2328 287.404C79.0395 287.676 79.8822 287.643 80.7767 287.623C81.6554 287.599 82.3223 287.298 83.0851 286.949C83.8279 286.608 84.7385 286.405 85.3535 285.824C85.7768 285.427 86.2361 285.086 86.6834 284.716C87.0069 284.452 87.2665 284.14 87.53 283.823C87.9494 283.311 88.4686 282.727 88.808 282.126C89.0436 281.7 89.1954 281.196 89.3911 280.737C89.7026 280.007 90.3456 279.487 91.0525 279.235C91.5636 279.061 91.947 278.772 92.4063 278.517C92.7737 278.305 93.1092 278.046 93.4407 277.786C93.6164 277.648 93.8001 277.51 93.9239 277.323C93.9758 277.242 94.0437 277.14 94.0477 277.039L94.0597 276.787C94.0876 276.686 94.1116 276.592 94.1356 276.491C94.1635 276.345 94.1436 276.194 94.1076 276.052C94.0118 275.638 93.9319 275.228 93.84 274.826C93.7921 274.611 93.7362 274.396 93.6643 274.189C93.6204 274.038 93.5805 273.888 93.5046 273.754L93.3848 273.596L93.2729 273.417Z" fill="#0F465A"/>
<path d="M94.2368 277.181L94.1449 276.451C94.0012 276.528 93.8893 276.751 93.7695 276.869C93.6697 276.974 93.5539 277.072 93.454 277.181C93.2064 277.441 92.9468 277.693 92.6713 277.929C92.1481 278.399 91.593 278.927 90.946 279.207C90.4268 279.431 89.9396 279.703 89.6121 280.21C89.1688 280.896 88.8733 281.668 88.418 282.346C87.9667 283.024 87.3916 283.596 86.8006 284.148C84.668 286.121 82.0042 287.709 78.977 286.791C78.1423 286.54 76.6766 286.17 76.2653 285.289L76.2533 285.253C76.1295 285.634 76.1215 286.016 76.2932 286.385C76.7046 287.275 78.1742 287.636 79.0049 287.888C82.0321 288.809 84.6959 287.222 86.8285 285.245C87.7391 284.404 88.6456 283.45 89.029 282.256C89.3126 281.371 89.6361 280.145 90.4827 279.638C90.5626 279.589 91.0698 280.137 91.2096 280.251C92.4117 279.317 93.454 278.468 94.2488 277.36L94.2368 277.181Z" fill="#0C3C49"/>
<path d="M92.7097 213.058C92.7696 209.023 92.7257 204.983 92.6178 200.952C92.5659 198.873 92.7936 196.806 92.5859 194.724C92.4501 193.303 91.8031 191.837 91.9589 190.4C92.0827 189.202 92.2344 188.175 92.1146 186.924C91.9349 185.02 89.6745 183.802 88.0611 183.335C84.0874 182.174 79.882 183.429 75.8564 183.453C74.3947 183.457 67.278 182.836 66.5631 183.896C64.5543 186.855 65.4449 190.465 64.9018 193.802C63.0008 205.466 63.2604 217.804 62.3099 229.668C62.0303 233.2 61.8945 236.768 62.3738 240.296C63.1006 245.652 63.5719 251.035 63.9872 256.443C64.4026 261.826 64.0311 267.522 64.4305 272.886C67.4897 272.675 71.056 274.055 74.1032 273.466C76.1759 273.072 75.6447 271.798 75.5928 269.808C75.5529 268.136 75.509 266.459 75.469 264.79C75.3013 258.136 74.7222 251.953 73.6439 245.696C73.1607 242.866 74.5704 238.957 74.9738 236.135C75.5729 231.99 75.7446 227.8 76.2598 223.647C76.6112 220.821 77.0904 217.865 77.4938 214.906C79.271 223.967 77.2342 233.391 78.8876 242.456C79.8541 247.771 80.5689 253.126 81.2279 258.513C81.8828 263.873 81.771 269.573 82.418 274.916C84.8581 274.631 93.9038 277.023 94.5787 273.215C94.7584 272.191 94.5188 270.908 94.4949 269.869C94.4389 267.64 94.383 265.403 94.3271 263.174C94.2353 259.553 93.3447 256.013 92.2824 252.574C91.4077 249.744 91.6793 247.377 91.3518 244.494C90.6929 238.681 91.5156 232.859 92.0308 227.073C92.4421 222.416 92.6498 217.739 92.7097 213.058Z" fill="#1B6887"/>
<path d="M79.7164 190.558C78.6541 187.493 78.107 184.379 77.9991 181.131C77.8793 177.53 77.8114 173.913 78.0471 170.307C78.2587 167.092 79.2012 164.457 79.972 161.376C80.3754 159.768 80.7947 158.119 81.4936 156.654C82.7556 153.99 84.5088 151.705 85.9665 149.094C86.9569 147.316 88.1191 145.29 88.5145 143.24C88.7261 142.144 88.8899 140.978 88.9937 139.854C89.2772 136.918 86.4497 135.514 83.8538 135.14L83.2268 135.924C83.0152 136.179 82.7875 136.435 82.5559 136.671C82.0847 137.154 81.5575 137.592 81.0104 137.986C79.944 138.745 78.726 139.549 77.3921 139.639C76.5934 139.699 75.6588 139.537 74.904 139.249L75.0318 139.306C74.2531 138.952 73.5382 138.717 72.8992 138.1C72.412 137.625 72.5677 136.825 72.2682 136.257C71.7331 135.246 69.3608 136.817 68.9615 137.487C68.6499 138.011 68.7738 138.668 68.7458 139.249C68.6979 140.288 68.4822 141.303 68.3864 142.338C68.2426 143.828 67.9351 145.282 67.5836 146.711C66.8288 149.732 66.8927 153.243 67.7833 156.15C68.606 158.838 69.9159 161.246 71.1819 163.71C72.5198 166.329 74.277 168.651 75.0119 171.464C76.2659 176.243 75.0238 181.83 73.7299 186.551C72.7115 190.29 71.4415 194.022 69.6843 197.481C70.4511 197.85 71.2658 198.065 72.1444 198.017C74.9639 197.854 77.7395 198.333 80.587 198.008C81.0503 197.956 81.8171 197.83 82.3642 197.574C81.5295 195.211 80.5391 192.917 79.7164 190.558Z" fill="#EDEDED"/>
<path d="M75.3582 142.026L72.2871 174.517L75.0707 182.199L78.1977 173.722L77.0875 141.867L75.3582 142.026Z" fill="#EFB82E"/>
<path d="M86.3116 135.53C86.0281 135.282 85.6806 135.063 85.449 134.762C85.3092 134.58 85.2014 134.389 85.0736 134.194C84.806 133.796 84.4745 133.236 83.9274 133.345C83.8156 133.605 83.8076 133.885 83.6957 134.141C83.3203 135.026 82.306 135.806 81.619 136.459C80.7644 137.263 79.8339 137.998 78.8195 138.591C78.0886 139.013 77.1461 139.626 76.2915 139.435C75.9121 138.587 74.9736 137.69 74.5622 136.987C74.1629 136.305 73.8394 135.574 73.6397 134.795C73.5398 134.405 73.4879 134.011 73.428 133.613C73.3881 133.366 73.3282 133.114 73.0366 133.11C72.805 133.106 72.5774 133.297 72.4176 133.447C72.0542 133.788 71.8146 134.239 71.4951 134.62C71.1676 135.006 70.5166 135.647 70.1133 136.289C71.0678 138.067 71.4871 140.272 72.5614 141.981C73.7595 141.161 75.1094 140.511 76.2715 139.732L76.3115 139.711C76.8586 140.146 77.3618 140.653 77.853 141.145C78.4081 141.689 78.9353 142.257 79.4265 142.854L79.4425 142.85C81.012 142.196 82.3619 141.319 83.6598 140.219C84.3467 139.638 85.0137 138.936 85.5768 138.209C86.084 137.552 86.8188 136.91 87.1383 136.131L86.3116 135.53Z" fill="white"/>
<path d="M96.8967 138.631C96.6451 138.505 96.3656 138.457 96.09 138.424C95.9542 138.404 95.8184 138.396 95.6866 138.38C95.1954 138.307 94.7122 138.225 94.225 138.132C93.2505 137.945 92.284 137.702 91.3176 137.458C90.7744 137.316 90.2273 137.17 89.6842 137.024C89.1011 136.873 88.538 136.646 87.9829 136.402C87.7392 136.297 86.9525 135.846 86.7608 136.195C86.629 136.439 86.6729 136.788 86.6729 137.08C86.6729 137.519 86.5731 137.949 86.5331 138.388C86.4213 139.723 86.3175 141.067 86.0619 142.387C85.7903 143.779 85.391 145.144 84.9237 146.483C83.9892 149.151 82.7631 151.688 81.5291 154.222C79.5243 158.346 77.2519 162.341 75.5625 166.592C75.5266 167.368 75.4507 168.139 75.4507 168.931V179.966C75.4507 182.442 75.251 184.732 75.1592 187.119C75.0673 189.555 75.251 192.081 75.0114 194.427C74.8636 195.905 74.4283 197.289 74.7279 198.771C74.9355 199.831 74.9994 201.358 76.1177 201.889C77.0721 202.34 78.2702 202.409 79.3206 202.519C81.6289 202.75 84.089 202.839 86.3894 202.519C87.5196 202.356 88.6658 202.243 89.776 202.015C90.7904 201.804 91.8687 201.865 92.7673 201.313C94.2649 200.391 93.3384 198.187 93.2265 196.851C93.0668 194.987 93.1986 193.031 93.1347 191.159C93.0668 189.275 93.0029 187.371 92.911 185.475C92.6315 179.726 93.2785 173.827 93.554 168.074C93.8495 161.992 92.8911 155.793 94.0492 149.764C94.1051 149.459 94.169 149.151 94.2369 148.846C94.4606 147.787 94.8 146.747 95.0716 145.704C95.2873 144.876 95.5069 144.039 95.6906 143.199C95.7505 142.898 95.7066 142.586 95.7985 142.293C95.9303 141.867 96.1819 141.453 96.3975 141.067C96.5772 140.738 96.7809 140.426 97.0085 140.121C97.1683 139.91 97.5317 139.573 97.5038 139.285C97.4758 139.033 97.1004 138.737 96.8967 138.631Z" fill="#134C69"/>
<path d="M83.093 161.509C84.5747 159.657 85.9605 157.737 87.1226 155.638C87.5619 154.846 87.9893 154.043 88.3966 153.231C88.6163 152.796 88.9118 152.402 89.0835 151.94C89.2672 151.452 89.435 150.949 89.6826 150.478C89.8303 150.198 89.9541 150.088 89.7305 149.832C89.2073 149.232 88.3806 148.769 87.7856 148.213C87.6658 148.095 86.6474 146.926 86.5356 146.954C88.0292 146.621 89.5668 146.154 91.1403 145.955C91.328 145.931 90.8527 142.119 90.8008 141.733C90.685 140.917 90.4813 140.113 90.2656 139.321C90.1578 138.936 90.0819 138.53 89.9821 138.14C89.9222 137.9 89.8583 137.653 89.7784 137.421C89.7385 137.307 89.6866 137.234 89.6306 137.137C89.5628 137.015 89.5388 136.857 89.431 136.755C89.3231 136.658 89.1035 136.654 88.9757 136.601C88.6562 136.463 88.3726 136.309 88.0691 136.163C87.7536 136.008 87.4341 135.895 87.1266 135.744C86.9709 135.667 86.8191 135.578 86.6673 135.513C86.4237 135.407 86.4317 135.602 86.4437 135.813C86.4637 136.232 86.5116 136.686 86.4357 137.096C86.3718 137.478 86.4557 137.908 86.4597 138.298C86.4796 140.166 86.2001 142.025 85.7368 143.828C85.2656 145.655 84.6186 147.429 83.8798 149.167C83.1529 150.876 82.3502 152.549 81.5315 154.221C79.5267 158.346 77.2543 162.341 75.5649 166.592C75.529 167.367 75.4531 168.139 75.4531 168.93V170.993C77.7774 167.647 80.569 164.68 83.093 161.509Z" fill="#1B6887"/>
<path d="M77.8882 141.076C77.5408 140.662 77.2452 140.211 76.9297 139.773L76.8858 139.712L76.6781 139.691C76.5264 139.675 76.3786 139.659 76.2388 139.626L76.0032 139.562C75.7556 139.793 75.488 140 75.2164 140.195C75.0567 140.3 74.893 140.394 74.7212 140.471C74.6493 140.625 74.5815 140.775 74.5535 140.95C74.4736 141.425 74.7971 142.103 74.9569 142.505C75.1366 142.96 75.3363 143.483 75.8315 143.565C76.0032 143.593 76.155 143.605 76.2907 143.593C76.6462 143.573 76.9018 143.418 77.1813 143.094C77.6166 142.586 77.8483 142.083 78.0599 141.466L78.1039 141.287L77.8882 141.076Z" fill="#E2A00C"/>
<path d="M65.8135 165.253C65.3302 162.09 64.1521 159.134 63.8246 155.931C63.4971 152.699 63.7567 149.346 63.0738 146.155C62.5666 143.8 61.656 141.522 61.4564 139.127C61.3046 139.029 61.1488 138.932 60.9891 138.822C60.7854 138.993 60.7175 139.35 60.6217 139.59C59.7231 141.672 59.156 144.043 59.0482 146.321C58.7646 152.346 59.0322 158.306 59.176 164.294C59.2119 165.797 59.0961 167.262 58.7407 168.423C57.3788 168.728 56.001 168.817 54.6272 168.748C53.4131 168.683 52.1791 168.748 50.957 168.748C50.4179 168.748 49.6311 168.517 49.1239 168.671C48.5928 168.842 48.449 169.402 48.1574 169.857C47.81 170.392 47.5624 170.997 47.175 171.505C46.8755 171.895 46.52 172.284 46.1366 172.577C45.8811 172.767 45.5895 172.869 45.3219 173.031C44.9226 173.275 44.5472 173.543 44.1438 173.77C43.8283 173.949 43.6566 174.148 43.8882 174.501C44.5472 175.48 45.7612 175.488 46.8036 175.488C47.6303 175.488 48.457 175.496 49.2717 175.459C52.235 175.313 55.2023 175.455 58.1656 175.419C59.9907 175.398 61.8238 175.297 63.6409 175.057C64.3518 174.96 65.1785 174.802 65.6018 174.14C65.8454 173.754 66.0451 173.332 66.1968 172.893C66.1929 170.344 66.1968 167.762 65.8135 165.253Z" fill="#1B6887"/>
<path d="M76.2718 171.975C76.2798 171.265 76.3597 170.433 76.4515 169.539C75.2335 163.734 71.8069 158.821 70.0696 153.202C69.1431 150.222 69.1351 147.161 69.6224 144.092C70.0537 141.363 69.862 138.586 70.3891 135.866L70.2414 135.915C70.0696 136.037 69.9538 136.175 69.7701 136.272C69.3029 136.52 68.7917 136.699 68.2845 136.837C66.9386 137.198 65.6007 137.567 64.2429 137.868C63.544 138.018 61.3035 138.05 60.9321 138.802C60.7884 139.09 60.9801 140.08 60.992 140.434C61.028 141.132 61.0639 141.83 61.1039 142.525C61.2836 145.598 61.5152 148.659 61.663 151.728C61.8627 155.801 62.8171 159.325 63.5919 163.287C65.0177 170.599 65.2493 177.879 63.9673 185.231C63.5081 187.878 63.528 190.57 63.2684 193.229C63.0328 195.694 61.3035 199.883 64.5704 200.935C65.8284 201.341 67.314 201.321 68.6199 201.516C71.2558 201.918 72.5777 201.475 74.1112 199.303C75.529 197.305 75.7646 195.064 75.8924 192.641C76.0482 189.75 76.2918 187.001 76.2878 184.086C76.2798 181.334 76.2519 178.577 76.2519 175.82C76.2519 174.541 76.2558 173.254 76.2718 171.975Z" fill="#134C69"/>
<path d="M76.4511 169.54C75.2331 163.734 71.8065 158.822 70.0693 153.203C69.1427 150.223 69.1347 147.161 69.622 144.092C69.8696 142.537 69.9095 140.954 70.0054 139.383C70.0373 138.794 70.1012 138.209 70.1611 137.616C70.209 137.085 70.217 136.528 70.4287 136.025C70.5405 135.753 70.7282 135.562 70.892 135.327C70.7162 135.335 70.5405 135.31 70.3808 135.367C69.9534 135.53 69.598 135.826 69.1946 136.025C68.8113 136.212 68.0804 136.443 67.8328 136.804C67.5892 137.166 67.5413 137.897 67.4574 138.323C67.3576 138.855 67.2497 139.342 67.086 139.849C66.7385 140.901 66.3072 141.932 65.9558 142.984C65.828 143.378 65.3567 144.198 65.4486 144.596C66.0277 144.669 66.5389 144.851 67.09 145.03C67.5453 145.184 68.2162 145.217 68.5557 145.509C67.5852 146.012 66.2833 146.443 65.4326 147.125C64.7137 147.697 65.0292 149.208 65.0892 150.032C65.2649 152.516 65.8839 154.977 66.9742 157.218C68.979 161.327 71.9103 164.891 73.7155 169.105C74.7538 171.525 75.5805 174.014 76.2515 176.543C76.2515 176.304 76.2515 176.064 76.2515 175.821C76.2515 174.542 76.2555 173.255 76.2714 171.976C76.2794 171.265 76.3593 170.433 76.4511 169.54Z" fill="#1B6887"/>
<path d="M82.8046 118.989C83.2678 118.08 83.9028 117.244 84.9452 118.12C85.704 118.746 85.4923 120.033 85.3845 120.934C85.2527 122.091 83.8749 125.53 82.525 123.5C82.0857 124.47 82.2055 125.355 81.9779 126.346C81.7263 127.434 81.0274 128.559 80.3644 129.436C79.2103 130.966 77.5529 132.176 75.604 132.229C72.7485 132.298 70.552 129.971 69.3259 127.572C68.3355 125.644 67.5568 123.411 67.5528 121.21C67.5448 119.107 69.6494 118.961 71.167 118.401C72.6686 117.844 74.1463 117.134 75.3204 116.005C75.8436 115.51 77.2933 114.377 77.3053 113.622C77.2773 115.193 76.6503 116.448 76.0513 117.816C76.6224 117.26 77.3053 116.833 77.8684 116.261C78.3836 115.745 78.8508 115.002 79.2103 114.56C79.3101 115.534 78.6392 116.525 78.4075 117.406C78.152 118.372 78.2518 119.533 78.2518 120.585C78.2638 119.16 79.37 117.564 80.1688 116.46C80.1288 118.579 79.8453 120.82 79.9531 122.984C81.4947 122.66 81.8501 120.987 82.4372 119.765C82.549 119.525 82.6688 119.253 82.8046 118.989Z" fill="#FFC4A4"/>
<path d="M49.8009 169.532C49.5613 169.256 49.2378 168.996 48.9543 168.756C48.6547 168.513 48.3153 168.334 47.9479 168.212C47.249 169.487 45.979 170.125 44.4574 170.25C43.8903 170.295 43.3472 170.332 42.788 170.413C41.8495 170.555 41.1067 170.413 40.1802 170.372C39.9406 170.356 39.7289 170.315 39.5332 170.255C40.7473 172.963 42.6163 175.378 45.8791 175.378C48.5349 175.378 50.6915 173.799 50.6915 171.85C50.6915 171.03 50.3241 170.153 49.8009 169.532Z" fill="#0C3C49"/>
<path d="M47.1398 169.345C46.2492 170.019 45.119 170.689 44.0167 170.896C43.7052 170.952 40.4504 170.948 40.3984 170.806C41.7004 174.416 49.3562 174.83 49.3562 170.226C49.3562 170.015 49.3283 169.799 49.2844 169.584C48.5695 169.564 47.8586 169.503 47.1398 169.345Z" fill="#EDEDED"/>
<path d="M44.0939 165.987C42.9237 165.565 32.1089 162.91 33.5027 166.312C34.4611 168.655 37.6161 170.465 39.9085 171.135C42.4006 171.866 46.0747 173.031 48.3232 171.082C50.951 168.797 45.7672 166.588 44.0939 165.987Z" fill="#FFC4A4"/>
<path d="M59.4426 169.507V171.143L33.4358 167.766L33.3359 166.373L59.4426 169.507Z" fill="#C6C6C6"/>
<path d="M71.5103 169.507H59.4414V171.143H71.5103V169.507Z" fill="#EDEDED"/>
<path d="M71.5106 169.507L55.6797 166.925L59.4417 169.507H71.5106Z" fill="#9D9D9C"/>
<path d="M23.2129 140.564L33.3368 166.373L59.4435 169.507L48.4449 141.624L23.2129 140.564Z" fill="#EDEDED"/>
<path d="M48.4453 141.632L49.5156 142.285L59.5637 167.855L59.38 169.345L48.4453 141.632Z" fill="#C6C6C6"/>
<path d="M35.4912 168.541C35.8706 168.756 36.2181 168.728 36.6175 168.817C37.0767 168.923 37.508 169.15 37.9753 169.256C38.9178 169.467 39.8843 169.503 40.8348 169.658C42.3084 169.897 43.7462 170.352 45.1839 170.591C46.3061 170.774 47.5441 170.612 48.4946 170.035C48.0593 169.67 47.5761 169.365 47.1328 168.963C46.2702 168.168 45.5793 167.514 44.9762 166.487C44.4171 165.541 43.818 164.635 43.203 163.73C42.8356 163.186 42.5441 162.593 42.1487 162.07C41.7693 161.55 41.4218 160.916 40.7988 160.669C40.4953 160.543 40.088 160.559 39.9162 160.9C39.7605 161.205 39.9482 161.664 40.04 161.956C40.2357 162.601 40.6231 163.154 40.8907 163.767C41.2461 164.57 41.7933 165.277 42.1367 166.089C42.2246 166.3 42.3204 166.564 42.3843 166.82L42.2246 166.617C41.8132 166.125 41.4258 165.622 41.0664 165.094C40.683 164.53 40.3795 163.966 40.0241 163.381C39.7964 163.003 39.5129 162.662 39.2573 162.297C39.0416 161.992 38.8939 161.696 38.6023 161.456C38.2948 161.197 37.9354 160.868 37.508 160.892C37.0967 160.908 36.8491 161.229 36.877 161.643C36.917 162.293 37.4042 162.967 37.6957 163.547C38.2149 164.607 38.7101 165.671 39.2772 166.71C39.3132 166.905 39.3411 167.128 39.2373 167.185L39.1175 167.084C38.6822 166.564 38.2389 166.016 37.8315 165.468C37.2085 164.644 36.7892 163.592 36.0024 162.906C35.5951 162.545 34.9481 161.765 34.3371 162.167C33.7859 162.524 34.2213 163.17 34.4808 163.584C34.8602 164.177 35.2756 164.778 35.615 165.382C35.7668 165.667 35.8946 165.959 36.0264 166.243C36.0344 166.406 36.0144 166.531 35.8267 166.584L35.651 166.6L35.5511 166.475C35.2916 166.186 34.9681 165.971 34.6885 165.703C33.8259 164.887 33.147 163.815 32.1485 163.267C31.6933 163.011 30.8985 162.995 30.8945 163.714C30.8945 164.343 31.6533 164.879 31.9808 165.35C32.3402 165.857 32.7077 166.373 33.131 166.84C33.5863 167.331 34.0695 167.636 34.6286 167.969C34.9321 168.147 35.1917 168.375 35.4912 168.541Z" fill="#FFC4A4"/>
<path d="M92.9342 192.446C89.6634 190.977 86.5883 188.159 84.204 186.227C83.8686 186.612 83.609 187.059 83.4452 187.562C82.6146 190.071 84.4077 192.954 87.4509 193.989C89.5516 194.704 91.6962 194.346 93.094 193.226C93.034 192.97 92.9781 192.71 92.9342 192.446Z" fill="#1B6887"/>
<path d="M70.2524 187.656C70.1486 187.25 69.9689 186.884 69.7293 186.563C67.988 187.794 65.7835 189.527 63.4752 190.583C63.3953 191.127 63.4273 191.659 63.3594 192.195C64.3298 192.653 65.5479 192.783 66.7819 192.459C69.2141 191.813 70.7676 189.665 70.2524 187.656Z" fill="#1B6887"/>
<path d="M98.5677 184.943C97.761 184.57 96.9263 184.249 96.1275 183.855C95.3128 184.882 94.2825 185.654 92.9007 185.682C91.9821 185.694 91.3671 186.12 90.6402 186.644C89.9054 187.16 88.9549 187.31 88.1202 187.594C87.3734 187.85 86.4669 188.122 85.6961 187.951C84.8934 187.773 84.2863 187.375 83.5195 188.053C83.9269 189.303 85.2128 189.835 86.4149 189.807C87.0819 189.795 87.7289 189.563 88.3958 189.494C88.6434 189.474 89.3423 189.502 89.6738 189.73C89.0747 190.327 88.4437 190.923 87.8886 191.553C87.3335 192.182 86.8463 192.88 86.2871 193.51C85.8199 194.029 85.3526 194.516 84.9093 195.052C84.7057 195.292 84.498 195.515 84.3023 195.767C84.0747 196.047 83.24 196.891 83.7312 197.253C84.3223 197.695 85.4565 196.278 85.8199 195.95C86.395 195.446 86.9581 194.939 87.4852 194.374C88.2081 193.599 88.9509 192.852 89.6578 192.076L89.7576 192.174C89.4901 192.442 89.2265 192.714 88.9789 192.994C88.4238 193.623 87.9365 194.322 87.3774 194.947C86.9142 195.466 86.4429 195.958 85.9956 196.494C85.7999 196.737 85.5883 196.96 85.3926 197.204C85.1689 197.492 84.3263 198.333 84.8175 198.698C85.4125 199.141 86.5427 197.72 86.9142 197.395C87.4892 196.887 88.0484 196.376 88.5715 195.812C89.4421 194.886 90.3367 193.997 91.1674 193.035L91.3152 193.099C90.776 193.729 90.2968 194.403 89.7457 195.02C89.2824 195.54 88.8151 196.031 88.3678 196.563C88.1642 196.806 87.9605 197.025 87.7608 197.273C87.5372 197.557 86.6945 198.402 87.1897 198.767C87.7808 199.21 88.911 197.793 89.2864 197.464C89.8575 196.952 90.4166 196.445 90.9438 195.885C91.5788 195.203 92.2217 194.545 92.8527 193.871L93.0564 193.94C92.8527 194.269 92.657 194.602 92.4414 194.922C92.046 195.503 91.6427 196.047 91.2712 196.636C91.1035 196.904 90.9278 197.155 90.764 197.423C90.5763 197.732 89.8495 198.682 90.3886 198.982C91.0396 199.336 91.9701 197.785 92.2976 197.411C92.8008 196.831 93.288 196.246 93.7393 195.621C94.2545 194.902 94.7897 194.2 95.2969 193.477C95.5644 193.108 95.7082 192.73 95.9239 192.348C96.1355 191.963 96.499 191.67 96.7785 191.354C97.1739 190.903 97.4175 190.525 97.6132 189.981C98.0006 188.934 97.9926 187.748 98.5038 186.758L98.5637 186.66C98.8313 186.327 99.1388 186.035 99.5381 185.792C99.646 185.727 99.7618 185.662 99.8696 185.593C99.4423 185.369 99.011 185.15 98.5677 184.943Z" fill="#FFC4A4"/>
<path d="M101.015 187.034L98.6911 189.803L93.6191 185.414L95.9355 182.641L101.015 187.034Z" fill="#EDEDED"/>
<path d="M110.393 168.305C108.192 160.096 104.49 152.293 100.932 144.628C100.089 142.805 99.0868 139.963 97.2976 138.867C93.4756 136.52 92.1937 147.206 91.9021 149.516C91.3989 153.568 91.8942 157.786 92.4493 161.797C92.4932 162.13 92.4972 163.637 93.1002 163.486C93.1961 163.462 93.4357 162.333 93.4836 162.171C93.6474 161.7 93.6873 161.205 93.8311 160.734C94.1027 159.792 94.498 157.271 95.4525 156.779C96.3711 156.308 97.2696 158.773 97.657 159.479C98.1203 160.332 98.5556 161.197 98.923 162.069C99.9334 164.461 100.724 167.018 102.082 169.227C101.331 170.262 100.852 171.501 100.233 172.609C99.574 173.807 98.927 175.013 98.2561 176.202C98.0404 176.584 97.8128 176.969 97.5771 177.355C96.6746 178.853 95.8998 180.404 95.0412 181.918C94.7816 182.385 94.3543 182.877 93.9828 183.396L94.0467 183.502C95.165 184.249 96.1714 185.158 97.2057 186.1C98.2561 187.054 99.3823 187.854 100.544 188.617C100.78 188.337 101.028 188.081 101.235 187.757C101.767 186.92 102.202 186.023 102.765 185.207C103.636 183.936 104.223 182.515 105.053 181.228C106.223 179.43 107.449 177.725 108.476 175.849C109.303 174.335 110.377 172.889 110.836 171.208C111.184 169.942 110.708 169.483 110.393 168.305Z" fill="#1B6887"/>
<path d="M191.952 126.22C191.876 126.902 191.756 127.58 191.596 128.242C191.249 129.643 190.482 131.129 189.743 132.355C188.405 134.576 186.796 137.089 184.615 138.55C183.849 139.062 182.974 139.468 182.191 139.947C181.388 140.45 180.218 140.629 179.376 140.13C177.862 139.22 176.448 137.418 175.398 136.045C173.729 133.853 172.387 131.912 171.672 129.208C170.889 126.232 170.522 123.159 171.205 120.126C171.895 117.041 173.505 115.62 176.269 114.406C178.142 113.582 180.162 112.831 182.251 113.249C183.96 113.59 185.426 114.881 185.626 116.83C187.331 115.137 189.36 116.911 190.418 118.588C191.836 120.821 192.239 123.577 191.952 126.22Z" fill="#1D221E"/>
<path d="M170.078 285.695C169.799 287.059 169.475 288.435 169.012 289.743C168.597 290.916 168.142 292.081 167.798 293.291C167.546 294.192 167.095 295.244 167.439 296.169C167.73 296.957 168.409 297.574 169.212 297.777C169.843 297.936 170.562 297.802 171.161 297.647C171.78 297.493 172.279 297.128 172.806 296.774C173.122 296.559 173.465 296.368 173.757 296.109C174.008 295.889 174.112 295.577 174.316 295.301C174.48 295.085 174.647 294.891 174.783 294.663C175.039 294.209 175.27 293.729 175.498 293.263C175.734 292.779 175.953 292.292 176.037 291.756C176.125 291.172 176.097 290.579 176.209 290.006C176.305 289.507 176.692 289.065 177.139 288.833C177.427 288.679 177.83 288.618 178.13 288.443C178.337 288.322 178.521 288.167 178.729 288.033C179.3 287.676 179.084 286.673 179.112 286.101C179.12 285.967 179.124 285.829 179.128 285.695H170.078Z" fill="#3F3F3C"/>
<path d="M178.956 286.966L178.869 286.787C178.665 287.014 178.565 287.343 178.345 287.603C178.11 287.875 177.842 288.046 177.523 288.208C177.008 288.468 176.504 288.793 176.281 289.365C176.149 289.686 176.165 290.055 176.085 290.396C176.001 290.786 175.881 291.172 175.749 291.545C175.318 292.796 174.911 293.969 173.992 294.931C173.078 295.894 171.796 296.726 170.414 296.718C169.711 296.706 168.737 296.718 168.158 296.324C167.914 296.157 167.682 295.841 167.539 295.585C167.451 295.439 167.387 295.276 167.343 295.102C167.211 295.881 167.195 296.673 167.539 297.262C167.682 297.513 167.914 297.83 168.158 297.997C168.737 298.39 169.711 298.378 170.414 298.386C171.796 298.403 173.078 297.566 173.992 296.6C174.911 295.638 175.318 294.464 175.749 293.218C175.957 292.617 176.141 291.996 176.197 291.363C176.237 290.892 176.121 290.323 176.301 289.877C176.42 289.597 176.648 289.511 176.892 289.385C177.219 289.223 177.563 289.138 177.902 289.028C178.25 288.915 178.593 288.821 178.908 288.663C179.052 288.598 179.092 288.569 179.12 288.407C179.144 288.253 179.128 288.094 179.12 287.94C179.092 287.615 179.052 287.278 178.956 286.966Z" fill="#282827"/>
<path d="M192.121 285.695C192.397 287.059 192.72 288.435 193.183 289.743C193.599 290.916 194.058 292.081 194.393 293.291C194.649 294.192 195.1 295.244 194.761 296.169C194.465 296.957 193.786 297.574 192.984 297.777C192.353 297.936 191.634 297.802 191.035 297.647C190.416 297.493 189.913 297.128 189.397 296.774C189.07 296.559 188.726 296.368 188.439 296.109C188.191 295.889 188.083 295.577 187.88 295.301C187.72 295.085 187.548 294.891 187.416 294.663C187.157 294.209 186.925 293.729 186.698 293.263C186.466 292.779 186.242 292.292 186.162 291.756C186.071 291.172 186.099 290.579 185.987 290.006C185.891 289.507 185.504 289.065 185.056 288.833C184.769 288.679 184.365 288.618 184.07 288.443C183.858 288.322 183.674 288.167 183.467 288.033C182.892 287.676 183.115 286.673 183.083 286.101C183.075 285.967 183.071 285.829 183.067 285.695H192.121Z" fill="#3F3F3C"/>
<path d="M183.246 286.965L183.33 286.787C183.534 287.014 183.633 287.343 183.853 287.603C184.085 287.875 184.36 288.045 184.676 288.208C185.191 288.467 185.702 288.792 185.922 289.365C186.05 289.685 186.038 290.055 186.113 290.396C186.197 290.786 186.317 291.171 186.449 291.545C186.88 292.795 187.288 293.969 188.202 294.931C189.121 295.893 190.407 296.725 191.784 296.717C192.491 296.705 193.458 296.717 194.041 296.323C194.285 296.157 194.512 295.84 194.66 295.585C194.748 295.438 194.812 295.276 194.852 295.101C194.987 295.881 195.003 296.673 194.66 297.261C194.512 297.513 194.285 297.83 194.041 297.996C193.458 298.39 192.491 298.378 191.784 298.386C190.407 298.402 189.121 297.566 188.202 296.6C187.288 295.637 186.88 294.464 186.449 293.218C186.241 292.617 186.058 291.996 186.002 291.362C185.962 290.891 186.078 290.323 185.894 289.876C185.782 289.596 185.55 289.511 185.303 289.385C184.975 289.223 184.64 289.137 184.296 289.028C183.953 288.914 183.609 288.821 183.29 288.662C183.15 288.597 183.102 288.569 183.078 288.407C183.054 288.252 183.066 288.094 183.078 287.94C183.102 287.615 183.15 287.278 183.246 286.965Z" fill="#282827"/>
<path d="M195.825 203.372C186.049 206.469 175.409 206.689 165.345 205.089C164.954 211.845 166.795 218.759 166.979 225.441C167.087 229.388 167.071 233.338 167.043 237.288C166.991 245.104 166.907 252.939 167.682 260.726C168.333 267.218 168.88 273.921 168.872 280.555C168.872 281.932 168.976 283.304 169.076 284.676C169.131 285.403 168.924 286.564 169.119 287.445H179.507C179.579 287.165 179.599 286.747 179.679 286.073C180.294 280.787 179.435 275.135 179.435 269.809C179.435 266.764 179.639 263.938 179.639 260.893C179.639 250.52 179.168 240.175 179.555 229.838C179.739 224.922 180.118 220.009 180.833 215.089C180.909 214.569 180.977 214.045 181.053 213.521C181.12 214.045 181.196 214.569 181.272 215.089C181.987 220.009 182.366 224.922 182.546 229.838C182.934 240.175 182.466 250.52 182.466 260.893C182.466 263.938 182.666 266.764 182.666 269.809C182.666 275.135 181.811 280.787 182.426 286.073C182.506 286.747 182.526 287.165 182.594 287.445H192.986C193.177 286.564 192.97 285.403 193.026 284.676C193.133 283.304 193.233 281.932 193.233 280.555C193.225 273.921 193.768 267.218 194.419 260.726C195.917 245.77 194.22 230.711 195.709 215.738C196.061 212.206 195.853 208.682 195.853 205.146C195.853 204.561 195.861 203.952 195.825 203.372Z" fill="#495C7F"/>
<path d="M203.026 149.504C202.854 148.777 202.403 148.261 201.86 147.827C201.62 147.636 201.36 147.461 201.101 147.287C200.638 146.974 200.154 146.69 199.667 146.434C191.983 142.346 182.179 142.541 173.812 143.787C171.12 144.185 168.508 144.94 165.925 145.793C163.82 146.487 161.324 147.007 159.579 148.428C158.736 149.11 158.396 149.374 158.396 150.567C158.396 152.63 159.123 154.587 159.698 156.519C160.305 158.574 160.166 161.046 160.27 163.186C160.397 165.833 161.148 168.407 161.248 171.054C161.332 173.36 161.591 175.512 162.107 177.793C162.933 181.468 163.516 185.203 163.872 188.954C164.223 192.681 164.091 196.412 164.327 200.131C164.363 200.667 164.515 201.183 164.539 201.71C164.595 202.868 164.691 203.927 164.754 205.096C164.814 206.367 165.21 206.948 166.376 207.407C167.374 207.788 168.628 207.837 169.711 207.902C174.435 208.202 179.303 208.15 184.08 207.902C186.057 207.8 188.034 207.467 189.99 207.374C191.855 207.289 193.916 206.802 195.522 205.815C196.392 205.283 196.193 203.956 196.256 203.079C196.512 199.514 196.448 195.913 196.336 192.344C196.229 188.991 196.724 185.779 197.043 182.458C197.491 177.838 199.22 173.904 201.344 169.913C202.503 167.737 202.463 165.467 202.523 163.08C202.543 162.276 202.83 161.627 202.978 160.855C203.205 159.686 203.122 158.427 203.177 157.242C203.289 154.867 203.573 151.785 203.026 149.504Z" fill="#3685D3"/>
<path d="M195.429 187.087L176.199 186.705L176.75 158.091L195.98 158.472L195.429 187.087Z" fill="white"/>
<path d="M191.203 159.597L181.482 159.398L181.514 157.652L191.235 157.843L191.203 159.597Z" fill="#09445B"/>
<path d="M187.895 179.523C187.216 179.349 186.537 179.182 185.834 179.174C185.155 179.162 184.345 179.231 183.694 179.369C183.35 179.446 182.979 179.487 182.647 179.576C182.336 179.661 182.06 179.872 181.709 179.824C181.637 178.995 181.373 178.224 181.197 177.396C180.958 176.235 180.742 175.025 180.562 173.86C181.241 173.839 181.952 173.75 182.595 173.649C184.329 173.368 186.066 173.149 187.799 172.861C190.399 172.431 193.67 171.773 195.974 173.49C199.033 175.78 196.533 178.683 193.825 179.706C192.52 180.201 191.134 180.051 189.776 179.917C189.137 179.856 188.518 179.686 187.895 179.523Z" fill="#FFC4A4"/>
<path d="M180.446 182.767C179.911 182.698 179.312 182.787 178.821 182.73L178.761 182.722C178.389 182.666 178.054 182.523 177.687 182.446C176.876 182.28 176.037 182.365 175.222 182.365C173.988 182.365 173.014 182.751 171.88 183.023C170.326 183.388 168.884 183.847 167.303 184.184C166.504 184.359 165.674 184.521 164.875 184.809C164.36 184.988 163.821 185.256 163.777 185.877C163.709 186.754 164.332 186.535 164.935 186.62C165.706 186.725 166.46 186.819 167.243 186.851C168.529 186.912 169.795 187.01 171.081 187.018L171.125 187.176C170.298 187.172 169.464 187.249 168.633 187.237C167.922 187.225 167.235 187.184 166.532 187.196C166.217 187.196 165.909 187.192 165.594 187.196C165.226 187.217 164.028 187.123 164.08 187.757C164.148 188.512 165.977 188.447 166.472 188.512C167.239 188.621 167.998 188.715 168.777 188.747C169.719 188.788 170.646 188.853 171.576 188.885L171.66 189.096C171.277 189.166 170.893 189.23 170.506 189.275C169.807 189.356 169.124 189.409 168.425 189.519C168.114 189.563 167.81 189.588 167.495 189.645C167.135 189.705 165.933 189.783 166.065 190.396C166.233 191.139 168.034 190.826 168.533 190.83C169.308 190.834 170.075 190.826 170.853 190.753C171.736 190.672 172.627 190.619 173.517 190.538C173.972 190.497 174.356 190.355 174.791 190.266C175.222 190.176 175.678 190.266 176.117 190.27C176.72 190.274 177.167 190.209 177.706 190.002C178.469 189.705 179.056 189.214 179.763 188.845C180.31 188.557 180.877 188.325 181.445 188.077C180.873 186.356 180.45 184.606 180.446 182.767Z" fill="#FFC4A4"/>
<path d="M179.268 184.549C179.212 183.802 179.216 182.978 179.404 182.641C179.731 182.04 181.073 181.784 181.676 181.545C182.894 181.062 184.244 180.875 185.49 180.445C188.11 179.539 190.777 178.67 193.309 177.53C193.681 177.363 194.06 177.233 194.424 177.071C194.683 176.957 194.935 176.852 195.194 176.754C195.438 176.665 195.682 176.543 195.921 176.446C196.045 176.393 196.656 176.247 196.708 176.141L196.6 175.646C196.361 174.42 196.201 172.926 196.357 171.679C196.604 169.71 196.752 167.737 197.056 165.776C197.766 161.249 197.934 155.537 200.634 151.672C201.185 150.872 202.623 147.376 203.138 150.032C203.362 151.197 203.114 152.549 203.278 153.685C203.433 154.79 203.713 155.866 203.877 157.039C204.524 161.586 205.554 165.845 205.965 170.559C206.201 173.206 206.672 175.82 206.752 178.484C206.812 180.367 206.509 182.552 205.354 184.086C204.484 185.243 203.186 185.463 201.888 185.816C197.287 187.062 192.758 188.544 188.002 189.023C185.598 189.267 183.062 189.803 180.614 189.701C180.562 189.588 180.498 189.531 180.466 189.47C180.258 188.199 179.643 187.042 179.415 185.816C179.372 185.556 179.304 185.073 179.268 184.549Z" fill="#2672B2"/>
<path d="M183.395 180.295L183.591 180.226C184.258 179.99 184.553 180.035 184.561 179.219C184.565 178.679 184.366 178.139 184.262 177.623C184.046 176.543 183.922 175.415 183.663 174.359C183.415 173.336 183.311 173.218 182.245 173.214C177.944 173.214 173.655 174.432 169.35 174.591C168.786 174.615 168.195 174.745 167.66 174.753C167.037 174.765 166.486 174.457 165.879 174.347C165.735 171.286 166.402 168.399 165.959 165.318C165.436 161.668 164.561 158.026 162.892 154.733C162.081 153.138 160.911 151.794 160.04 150.267C159.505 149.326 158.826 148.156 158.463 150.032C158.235 151.197 158.483 152.549 158.319 153.686C158.159 154.79 157.888 155.866 157.72 157.039C157.033 161.903 156.107 166.739 155.647 171.639C155.416 174.124 155.308 176.621 155.396 179.113C155.472 181.265 155.5 183.786 156.582 185.703C157.652 187.595 161.682 186.685 163.335 186.438C168.139 185.711 172.716 183.928 177.313 182.41C179.354 181.736 181.359 181.018 183.395 180.295Z" fill="#2672B2"/>
<path d="M186.988 142.358L186.632 135.44C185.342 137.235 183.357 138.635 181.181 138.489C179.555 138.388 178.094 137.754 176.932 136.577C176.396 136.041 175.985 135.44 175.594 134.827L176.025 143.28C179.424 144.401 183.821 144.234 186.988 142.358Z" fill="#EFAD89"/>
<path d="M175.595 145.428C175.711 146.017 175.743 146.63 175.767 147.149C175.803 147.949 175.847 148.603 176.206 149.289C176.897 150.637 178.008 151.161 179.405 151.359C181.826 151.696 184.817 151.546 186.77 149.857C187.485 149.232 188.128 148.396 188.323 147.446C188.551 146.366 188.088 145.261 188 144.186C187.98 143.889 187.916 143.674 188.04 143.382C188.164 143.093 188.391 142.854 188.503 142.557C188.802 141.729 188.383 140.519 187.568 140.162C187.237 140.012 186.933 139.959 186.894 140.373C186.87 140.625 186.794 140.913 186.626 141.108C186.275 141.522 185.715 141.758 185.224 141.969C184.665 142.2 184.078 142.387 183.483 142.517C182.241 142.789 180.927 142.854 179.661 142.781C178.998 142.74 178.231 142.708 177.6 142.48C177.217 142.338 176.562 142.237 176.25 142.013C175.947 141.794 176.035 141.25 175.655 141.145C175.508 141.108 174.837 141.299 174.837 141.498C174.529 141.786 174.274 142.221 174.27 142.659C174.27 143.227 174.733 143.54 175.024 143.946C175.316 144.356 175.488 144.88 175.595 145.428Z" fill="#2672B2"/>
<path d="M190.44 126.257C190.376 126.042 190.245 125.579 189.921 125.729C189.518 125.916 189.326 126.472 189.254 126.878C189.13 127.637 189.166 128.458 188.851 129.176C188.567 129.225 188.24 128.961 187.96 128.912C188.16 128.949 188.443 124.686 188.443 124.434C188.443 123.525 188.723 120.484 186.986 120.898C186.562 120.995 186.463 121.511 186.195 121.795C184.566 123.517 182.489 124.402 180.117 123.951C179.514 123.833 178.855 123.655 178.307 123.383C177.561 123.013 176.87 122.473 176.371 121.791C176.151 121.495 175.975 120.991 175.588 120.898C173.847 120.484 174.13 123.525 174.13 124.434C174.13 124.686 174.406 128.949 174.609 128.912C174.33 128.961 174.006 129.225 173.723 129.176C173.407 128.458 173.439 127.637 173.311 126.878C173.243 126.472 173.056 125.916 172.644 125.729C172.325 125.579 172.193 126.042 172.129 126.257C171.973 126.789 171.977 127.467 172.033 128.039C172.093 128.644 172.229 129.209 172.385 129.769C172.509 130.203 172.62 130.983 173.02 131.239C173.315 131.425 173.499 131.214 173.587 130.942C173.411 131.486 173.671 132.428 173.87 132.932C174.641 134.888 175.132 136.679 176.554 138.307C177.752 139.687 179.462 140.556 181.287 140.455C183.108 140.556 184.817 139.687 186.015 138.307C187.441 136.679 187.932 134.888 188.703 132.932C188.899 132.428 189.162 131.486 188.983 130.942C189.074 131.214 189.254 131.425 189.55 131.239C189.945 130.983 190.061 130.203 190.181 129.769C190.34 129.209 190.476 128.644 190.536 128.039C190.592 127.467 190.596 126.789 190.44 126.257Z" fill="#FFC4A4"/>
<path d="M234.943 26.7959H170.965C163.229 26.7959 156.963 32.427 156.963 39.3736V70.2495C156.963 77.1961 163.229 82.8272 170.965 82.8272H214.723L194.208 113.131L228.945 82.8272H234.943C242.679 82.8272 248.949 77.1961 248.949 70.2495V39.3736C248.949 32.427 242.679 26.7959 234.943 26.7959Z" fill="#84A9FF"/>
<path d="M183.177 66.6163C182.909 66.8193 182.574 66.9817 182.199 67.1075V58.7319C182.71 59.2759 183.117 59.8646 183.377 60.5548C184.175 62.6456 184.787 65.3942 183.177 66.6163ZM177.254 48.6916C176.468 47.4655 176.236 45.5045 176.711 44.0308C176.991 43.162 177.466 42.5611 178.121 42.2566C178.564 42.0495 179.12 41.9115 179.707 41.8547V51.0951C178.712 50.3765 177.838 49.6051 177.254 48.6916ZM188.081 59.0648C186.935 56.0645 184.499 54.2822 182.199 52.7678V42.0252C182.502 42.1023 182.786 42.1997 183.045 42.3134C183.908 42.7072 184.04 43.7222 184.024 45.9917C184.024 46.1541 184.024 46.3206 184.024 46.4749H189.004C189.004 46.3247 189.008 46.1744 189.008 46.0161C189.02 43.7628 189.048 39.983 185.274 38.2657C184.339 37.8353 183.289 37.5511 182.199 37.4009V33.9053H179.707V37.3075C178.329 37.3928 176.987 37.6932 175.841 38.221C173.956 39.1101 172.598 40.6773 171.935 42.7641C171.068 45.4396 171.472 48.6672 172.949 50.9774C174.415 53.2631 176.675 54.7328 178.664 56.0361C179.024 56.2715 179.375 56.4989 179.707 56.7262V67.3877C179.096 67.3389 178.496 67.2171 177.957 66.9979C176.663 66.4661 175.677 63.9042 175.513 60.6197L170.537 60.8268C170.689 63.9205 171.595 69.3649 175.929 71.135C177.023 71.5816 178.337 71.8698 179.707 71.9226V73.5872H182.199V71.7846C183.704 71.5532 185.162 71.0091 186.364 70.0997C188.461 68.5082 190.462 65.3009 188.081 59.0648Z" fill="#ADE9F2"/>
<path d="M206.675 66.8682C206.411 67.0712 206.076 67.2336 205.701 67.3635V58.9838C206.212 59.5278 206.615 60.1206 206.875 60.8067C207.673 62.9017 208.284 65.6462 206.675 66.8682ZM200.756 48.9476C199.97 47.7175 199.738 45.7565 200.209 44.2868C200.493 43.4139 200.968 42.813 201.619 42.5126C202.066 42.3015 202.621 42.1675 203.209 42.1066V51.3511C202.214 50.6284 201.335 49.8611 200.756 48.9476ZM211.579 59.3167C210.437 56.3164 207.997 54.5382 205.701 53.0197V42.2771C206.004 42.3502 206.288 42.4517 206.543 42.5654C207.406 42.9592 207.542 43.9742 207.526 46.2437C207.526 46.4061 207.526 46.5685 207.526 46.7268H212.506C212.506 46.5807 212.51 46.4264 212.51 46.2721C212.522 44.0148 212.546 40.235 208.776 38.5176C207.841 38.0913 206.787 37.8031 205.701 37.6528V34.1572H203.209V37.5595C201.831 37.6407 200.489 37.9452 199.343 38.477C197.458 39.3621 196.1 40.9292 195.433 43.016C194.57 45.6956 194.974 48.9192 196.451 51.2293C197.913 53.511 200.173 54.9888 202.166 56.2921C202.526 56.5235 202.873 56.7549 203.209 56.9782V67.6396C202.594 67.5909 201.994 67.465 201.459 67.2499C200.161 66.7221 199.179 64.1562 199.011 60.8757L194.039 61.0787C194.187 64.1724 195.097 69.6209 199.427 71.387C200.521 71.8335 201.839 72.1218 203.209 72.1786V73.8351H205.701V72.0447C207.202 71.8051 208.66 71.2611 209.866 70.3517C211.963 68.7602 213.963 65.5569 211.579 59.3167Z" fill="#ADE9F2"/>
<path d="M230.179 67.12C229.911 67.323 229.576 67.4895 229.201 67.6113V59.2356C229.712 59.7837 230.119 60.3724 230.379 61.0545C231.177 63.1535 231.792 65.898 230.179 67.12ZM224.26 49.1994C223.474 47.9693 223.242 46.0083 223.713 44.5386C223.993 43.6657 224.468 43.0689 225.123 42.7644C225.566 42.5533 226.125 42.4193 226.713 42.3584V51.6029C225.714 50.8802 224.839 50.1129 224.26 49.1994ZM235.083 59.5726C233.937 56.5682 231.501 54.79 229.201 53.2715V42.5289C229.504 42.6061 229.792 42.7035 230.047 42.8172C230.91 43.211 231.046 44.23 231.03 46.4955C231.03 46.6619 231.03 46.8203 231.03 46.9786H236.006C236.006 46.8325 236.01 46.6741 236.01 46.528C236.022 44.2666 236.05 40.4868 232.276 38.7735C231.341 38.3431 230.291 38.0589 229.201 37.9046V34.4131H226.713V37.8153C225.331 37.8965 223.989 38.197 222.847 38.7288C220.962 39.6139 219.6 41.181 218.937 43.2719C218.07 45.9433 218.474 49.171 219.951 51.4811C221.417 53.7669 223.677 55.2406 225.67 56.5439C226.026 56.7793 226.377 57.0067 226.713 57.2341V67.8914C226.097 67.8427 225.498 67.7168 224.959 67.5017C223.665 66.9739 222.679 64.408 222.515 61.1275L217.539 61.3305C217.691 64.4242 218.597 69.8727 222.931 71.6428C224.025 72.0853 225.343 72.3736 226.713 72.4304V74.0869H229.201V72.2924C230.706 72.0569 232.164 71.517 233.366 70.6035C235.463 69.012 237.463 65.8087 235.083 59.5726Z" fill="#ADE9F2"/>
</g>
<defs>
<clipPath id="clip0_115_94">
<rect width="434" height="350" fill="white"/>
</clipPath>
</defs>
</svg>
